<svg width="15" height="11" viewBox="0 0 15 11" fill="none" xmlns="http://www.w3.org/2000/svg">
<path fill-rule="evenodd" clip-rule="evenodd" d="M15 5.5C15 8.26142 12.7614 10.5 10 10.5C7.23858 10.5 5 8.26142 5 5.5C5 2.73858 7.23858 0.5 10 0.5C12.7614 0.5 15 2.73858 15 5.5ZM13 5.5C13 7.15685 11.6569 8.5 10 8.5C8.34315 8.5 7 7.15685 7 5.5C7 3.84315 8.34315 2.5 10 2.5C11.6569 2.5 13 3.84315 13 5.5ZM0 5.50001C0 2.73858 2.23858 0.500007 5 0.500004V2.50001C3.34315 2.50001 2 3.84315 2 5.50001C2 7.15686 3.34315 8.50001 5 8.50001V10.5C2.23858 10.5 0 8.26143 0 5.50001Z" fill="#D4BF3F"/>
</svg>
