<svg width="20" height="20" viewBox="0 0 20 20" fill="none" xmlns="http://www.w3.org/2000/svg">
<path d="M3.0216 6.82812C2.85335 6.82812 2.69199 6.89496 2.57302 7.01393C2.45404 7.13291 2.38721 7.29427 2.38721 7.46252V16.0268C2.38721 17.2258 3.40858 18.2472 4.60758 18.2472H15.3923C16.5913 18.2472 17.6126 17.2754 17.6126 16.0764V7.46252C17.6126 7.29427 17.5458 7.13291 17.4268 7.01393C17.3078 6.89496 17.1465 6.82812 16.9782 6.82812H3.0216Z" stroke="#D40E14" stroke-width="1.5" stroke-linecap="round" stroke-linejoin="round"/>
<path d="M6.1936 6.82807V5.55928C6.1936 4.54978 6.59463 3.58162 7.30846 2.86779C8.02229 2.15396 8.99045 1.75293 9.99996 1.75293V1.75293C11.0095 1.75293 11.9776 2.15396 12.6915 2.86779C13.4053 3.58162 13.8063 4.54978 13.8063 5.55928V6.82807" stroke="#D40E14" stroke-width="1.5" stroke-linecap="round" stroke-linejoin="round"/>
<path d="M6.1936 8.73132V9.36572C6.1936 10.3752 6.59463 11.3434 7.30846 12.0572C8.02229 12.771 8.99045 13.1721 9.99996 13.1721C11.0095 13.1721 11.9776 12.771 12.6915 12.0572C13.4053 11.3434 13.8063 10.3752 13.8063 9.36572V8.73132" stroke="#D40E14" stroke-width="1.5" stroke-linecap="round" stroke-linejoin="round"/>
</svg>
