<svg width="12" height="16" viewBox="0 0 12 16" fill="none" xmlns="http://www.w3.org/2000/svg">
<path d="M11.8198 4.17158L7.61987 0.171628C7.56707 0.115795 7.50217 0.0715499 7.42965 0.0419516C7.35714 0.0123533 7.27874 -0.00189172 7.19987 0.000201371H1.19998C0.882017 0.00110577 0.577349 0.121803 0.352515 0.335931C0.127681 0.55006 0.000949619 0.840222 0 1.14304V14.8572C0.000949619 15.16 0.127681 15.4501 0.352515 15.6643C0.577349 15.8784 0.882017 15.9991 1.19998 16H10.7998C11.1178 15.9991 11.4224 15.8784 11.6473 15.6643C11.8721 15.4501 11.9988 15.16 11.9998 14.8572V4.57157C12.002 4.49646 11.987 4.4218 11.9559 4.35273C11.9249 4.28367 11.8784 4.22186 11.8198 4.17158ZM7.19987 1.37161L10.5598 4.57157H7.19987V1.37161ZM10.7998 14.8572H1.19998V1.14304H5.99989V4.57157C6.00084 4.8744 6.12757 5.16456 6.35241 5.37869C6.57724 5.59281 6.88191 5.71351 7.19987 5.71442H10.7998V14.8572Z" fill="#333333"/>
</svg>
