<svg width="10" height="10" viewBox="0 0 10 10" fill="none" xmlns="http://www.w3.org/2000/svg">
<path fill-rule="evenodd" clip-rule="evenodd" d="M9.85008 9.85431C9.80283 9.90049 9.7467 9.93713 9.68491 9.96213C9.62311 9.98713 9.55686 10 9.48996 10C9.42306 10 9.35681 9.98713 9.29501 9.96213C9.23322 9.93713 9.17709 9.90049 9.12984 9.85431L4.99944 5.82642L0.869046 9.85431C0.773537 9.94743 0.643997 9.99974 0.508926 9.99974C0.373856 9.99974 0.244317 9.94743 0.148808 9.85431C0.053298 9.7612 -0.000358614 9.6349 -0.000358626 9.50322C-0.000358638 9.37153 0.0532979 9.24524 0.148807 9.15212L4.63932 4.77412C4.68657 4.72794 4.7427 4.6913 4.8045 4.6663C4.86629 4.6413 4.93254 4.62844 4.99944 4.62844C5.06635 4.62844 5.13259 4.6413 5.19439 4.6663C5.25618 4.6913 5.31231 4.72794 5.35956 4.77412L9.85008 9.15212C9.89745 9.19818 9.93503 9.25291 9.96067 9.31315C9.98631 9.3734 9.99951 9.43799 9.99951 9.50322C9.99951 9.56844 9.98631 9.63303 9.96067 9.69328C9.93503 9.75352 9.89745 9.80825 9.85008 9.85431Z" fill="#13295C"/>
<path fill-rule="evenodd" clip-rule="evenodd" d="M0.149433 0.145688C0.196681 0.099507 0.252811 0.0628672 0.314606 0.0378675C0.376401 0.0128679 0.442648 -3.86975e-08 0.509552 -4.45465e-08C0.576456 -5.03954e-08 0.642703 0.0128679 0.704498 0.0378675C0.766293 0.0628671 0.822423 0.099507 0.869671 0.145688L5.00007 4.17358L9.13047 0.145688C9.22598 0.0525712 9.35552 0.000258722 9.49059 0.000258711C9.62566 0.0002587 9.7552 0.0525711 9.85071 0.145687C9.94621 0.238804 9.99987 0.365097 9.99987 0.496783C9.99987 0.62847 9.94621 0.754762 9.85071 0.847879L5.36019 5.22588C5.31294 5.27206 5.25681 5.3087 5.19501 5.3337C5.13322 5.3587 5.06697 5.37156 5.00007 5.37156C4.93317 5.37156 4.86692 5.3587 4.80512 5.3337C4.74333 5.3087 4.6872 5.27206 4.63995 5.22588L0.149433 0.84788C0.102065 0.801815 0.0644831 0.747092 0.0388409 0.686845C0.0131987 0.626598 4.91326e-08 0.562012 4.34302e-08 0.496784C3.77279e-08 0.431556 0.0131987 0.366969 0.0388408 0.306723C0.064483 0.246476 0.102065 0.191753 0.149433 0.145688Z" fill="#13295C"/>
</svg>
