<svg width="12" height="22" viewBox="0 0 12 22" fill="none" xmlns="http://www.w3.org/2000/svg">
<path fill-rule="evenodd" clip-rule="evenodd" d="M11.6753 21.6712C11.7784 21.5673 11.8603 21.4438 11.9161 21.3079C11.972 21.1719 12.0007 21.0262 12.0007 20.879C12.0007 20.7318 11.972 20.586 11.9161 20.4501C11.8603 20.3141 11.7784 20.1906 11.6753 20.0867L2.67701 10.9997L11.6753 1.91272C11.8833 1.70259 12.0002 1.4176 12.0002 1.12044C12.0002 0.823282 11.8833 0.538294 11.6753 0.328169C11.4672 0.118046 11.1851 3.5652e-08 10.8909 4.85113e-08C10.5967 6.13705e-08 10.3146 0.118046 10.1066 0.328169L0.326197 10.2074C0.22303 10.3114 0.141178 10.4349 0.0853286 10.5708C0.0294795 10.7068 0.000731935 10.8525 0.000731941 10.9997C0.000731947 11.1469 0.0294795 11.2926 0.0853286 11.4286C0.141178 11.5645 0.22303 11.688 0.326197 11.792L10.1066 21.6712C10.2095 21.7755 10.3317 21.8581 10.4663 21.9145C10.6009 21.971 10.7452 22 10.8909 22C11.0366 22 11.1809 21.971 11.3155 21.9145C11.4501 21.8581 11.5724 21.7755 11.6753 21.6712Z" fill="#737373"/>
</svg>
