<svg width="23" height="19" viewBox="0 0 23 19" fill="none" xmlns="http://www.w3.org/2000/svg">
<path d="M22.7322 8.66859C22.383 8.10461 21.7654 7.76805 21.0799 7.76805H19.369V4.62966C19.369 3.87213 18.73 3.25603 17.9445 3.25603H9.56924C9.55695 3.25603 9.54871 3.25253 9.54537 3.25042L8.04646 1.15401C7.78061 0.782349 7.34227 0.560547 6.87375 0.560547H1.42451C0.638908 0.560547 0 1.17682 0 1.93417V16.9897C0 17.7649 0.654526 18.3958 1.45926 18.3958H18.4111C18.6752 18.3958 18.9033 18.2433 19.0137 18.022L19.0142 18.0222L22.8129 10.3926C23.0884 9.83972 23.0581 9.1952 22.7322 8.66859ZM1.42451 1.9082H6.87375C6.91411 1.9082 6.94148 1.92593 6.95008 1.93803L8.45128 4.03743C8.70467 4.39189 9.12265 4.60369 9.56924 4.60369H17.9445C17.9916 4.60369 18.0154 4.6258 18.0214 4.6337V7.76805H5.82633C5.07003 7.76805 4.38216 8.19428 4.07385 8.85407L1.34766 14.6881V1.93821C1.35362 1.93031 1.37749 1.9082 1.42451 1.9082ZM21.6065 9.79199L17.9938 17.0479H1.73248L5.29482 9.42472C5.38115 9.23994 5.59488 9.11571 5.82633 9.11571H21.0799C21.2952 9.11571 21.4846 9.2138 21.5864 9.37804C21.6436 9.47052 21.6934 9.61739 21.6065 9.79199Z" fill="#333333"/>
</svg>
