<svg width="16" height="18" viewBox="0 0 16 18" fill="none" xmlns="http://www.w3.org/2000/svg">
<path fill-rule="evenodd" clip-rule="evenodd" d="M8 0C5.23858 0 3 2.23858 3 5V6H2C0.895431 6 0 6.89543 0 8V16C0 17.1046 0.895431 18 2 18H14C15.1046 18 16 17.1046 16 16V8C16 6.89543 15.1046 6 14 6H13V5C13 2.23858 10.7614 0 8 0ZM2 8V16H14V8H2ZM5 5C5 3.34315 6.34315 2 8 2C9.65685 2 11 3.34315 11 5V6H5V5ZM8 10C7.44772 10 7 10.4477 7 11V13C7 13.5523 7.44772 14 8 14C8.55229 14 9 13.5523 9 13V11C9 10.4477 8.55229 10 8 10Z" fill="black"/>
</svg>
