<svg width="18" height="17" viewBox="0 0 18 17" fill="none" xmlns="http://www.w3.org/2000/svg">
<path fill-rule="evenodd" clip-rule="evenodd" d="M15 7.5C15 8.95422 14.5861 10.3118 13.8697 11.4613L17.7024 15.294C18.0929 15.6845 18.0929 16.3176 17.7024 16.7082C17.3119 17.0987 16.6787 17.0987 16.2882 16.7082L12.5892 13.0092C11.2521 14.2449 9.46423 15 7.5 15C3.35786 15 0 11.6421 0 7.5C0 3.35786 3.35786 0 7.5 0C11.6421 0 15 3.35786 15 7.5ZM7.5 13C10.5376 13 13 10.5376 13 7.5C13 4.46243 10.5376 2 7.5 2C4.46243 2 2 4.46243 2 7.5C2 10.5376 4.46243 13 7.5 13Z" fill="black"/>
</svg>
