<svg width="10" height="18" viewBox="0 0 10 18" fill="none" xmlns="http://www.w3.org/2000/svg">
<path fill-rule="evenodd" clip-rule="evenodd" d="M9.74533 17.7484C9.39913 18.0839 8.85005 18.0839 8.50385 17.7484L0.297196 9.70253C0.28923 9.69481 0.281395 9.68695 0.273696 9.67896C-0.10022 9.291 -0.0896985 8.67254 0.297196 8.2976L8.50398 0.251629C8.85017 -0.0838758 9.39926 -0.0838756 9.74545 0.251629C9.75225 0.258213 9.75893 0.264912 9.76549 0.271723C10.0858 0.603961 10.0769 1.13367 9.74554 1.45485L2.78146 8.29765C2.77357 8.3053 2.76581 8.31309 2.75818 8.321C2.3842 8.7089 2.39462 9.32736 2.78146 9.70237L9.74542 16.5451C9.75221 16.5517 9.75889 16.5584 9.76546 16.5652C10.0857 16.8975 10.0767 17.4272 9.74533 17.7484Z" fill="white"/>
</svg>
