<svg width="9" height="5" viewBox="0 0 9 5" fill="none" xmlns="http://www.w3.org/2000/svg">
<path fill-rule="evenodd" clip-rule="evenodd" d="M8.86551 0.135611C8.82298 0.0926239 8.77247 0.0585185 8.71685 0.0352481C8.66123 0.0119778 8.60161 -3.70607e-08 8.5414 -4.26623e-08C8.48118 -4.82638e-08 8.42156 0.0119778 8.36594 0.0352481C8.31033 0.0585185 8.25981 0.0926239 8.21729 0.135611L4.49988 3.88488L0.782474 0.13561C0.696514 0.0489347 0.579927 0.000240804 0.458363 0.000240793C0.336797 0.000240783 0.22021 0.0489346 0.134251 0.13561C0.0482912 0.222285 -2.79203e-08 0.339842 -3.79908e-08 0.46242C-4.80614e-08 0.584997 0.0482911 0.702554 0.134251 0.789229L4.17577 4.86439C4.21829 4.90738 4.26881 4.94148 4.32443 4.96475C4.38004 4.98802 4.43966 5 4.49988 5C4.56009 5 4.61972 4.98802 4.67533 4.96475C4.73095 4.94148 4.78147 4.90738 4.82399 4.86439L8.86551 0.78923C8.90814 0.746352 8.94196 0.695414 8.96504 0.639334C8.98812 0.583255 9 0.523136 9 0.46242C9 0.401705 8.98812 0.341585 8.96504 0.285506C8.94196 0.229426 8.90814 0.178489 8.86551 0.135611Z" fill="#737373"/>
</svg>
