<svg width="12" height="22" viewBox="0 0 12 22" fill="none" xmlns="http://www.w3.org/2000/svg">
<path fill-rule="evenodd" clip-rule="evenodd" d="M0.326198 0.328756C0.22303 0.432704 0.141177 0.55619 0.085328 0.692141C0.0294792 0.828093 0.000732433 0.973838 0.000732435 1.12103C0.000732437 1.26822 0.0294792 1.41396 0.085328 1.54992C0.141177 1.68587 0.22303 1.80935 0.326198 1.9133L9.32445 11.0003L0.326198 20.0873C0.118178 20.2974 0.00131248 20.5824 0.00131248 20.8796C0.00131249 21.1767 0.118178 21.4617 0.326198 21.6718C0.534219 21.882 0.816356 22 1.11054 22C1.40473 22 1.68686 21.882 1.89488 21.6718L11.6753 11.7926C11.7784 11.6886 11.8603 11.5651 11.9161 11.4292C11.972 11.2932 12.0007 11.1475 12.0007 11.0003C12.0007 10.8531 11.972 10.7074 11.9161 10.5714C11.8603 10.4355 11.7784 10.312 11.6753 10.208L1.89488 0.328756C1.79198 0.224545 1.66973 0.141864 1.53513 0.0854509C1.40054 0.0290374 1.25626 -1.4972e-08 1.11054 -1.32343e-08C0.964823 -1.14967e-08 0.820537 0.0290374 0.685946 0.0854509C0.551356 0.141864 0.429106 0.224545 0.326198 0.328756Z" fill="#737373"/>
</svg>
