<svg width="10" height="18" viewBox="0 0 10 18" fill="none" xmlns="http://www.w3.org/2000/svg">
<path fill-rule="evenodd" clip-rule="evenodd" d="M0.254673 0.251628C0.60087 -0.083876 1.14995 -0.0838763 1.49615 0.251628L9.7028 8.29747C9.71077 8.30519 9.71861 8.31305 9.7263 8.32104C10.1002 8.709 10.0897 9.32746 9.7028 9.7024L1.49602 17.7484C1.14983 18.0839 0.600744 18.0839 0.254547 17.7484C0.247754 17.7418 0.241073 17.7351 0.234506 17.7283C-0.0858003 17.396 -0.0768676 16.8663 0.254458 16.5451L7.21854 9.70235C7.22643 9.6947 7.23419 9.68691 7.24182 9.679C7.6158 9.2911 7.60538 8.67264 7.21854 8.29763L0.254577 1.45486C0.247787 1.44828 0.241109 1.44158 0.234545 1.43477C-0.085715 1.10248 -0.0767036 0.57277 0.254673 0.251628Z" fill="white"/>
</svg>
