<svg width="23" height="23" viewBox="0 0 23 23" fill="none" xmlns="http://www.w3.org/2000/svg">
<path d="M11.5 23C17.8513 23 23 17.8513 23 11.5C23 5.14873 17.8513 0 11.5 0C5.14873 0 0 5.14873 0 11.5C0 17.8513 5.14873 23 11.5 23Z" fill="#13295C" fill-opacity="0.1"/>
<path d="M11.5 20C16.1944 20 20 16.1944 20 11.5C20 6.80558 16.1944 3 11.5 3C6.80558 3 3 6.80558 3 11.5C3 16.1944 6.80558 20 11.5 20Z" fill="#13295C" fill-opacity="0.1"/>
<path d="M11.5 16.05C14.0129 16.05 16.05 14.0129 16.05 11.5C16.05 8.98711 14.0129 6.95 11.5 6.95C8.98711 6.95 6.95 8.98711 6.95 11.5C6.95 14.0129 8.98711 16.05 11.5 16.05Z" fill="white" stroke="#13295C" stroke-width="1.9"/>
</svg>
