<svg width="15" height="15" viewBox="0 0 15 15" fill="none" xmlns="http://www.w3.org/2000/svg">
<path d="M3.35732 14.6967C3.19298 14.6967 3.02978 14.6455 2.8905 14.5448C2.63106 14.3567 2.50986 14.0335 2.58047 13.7217L3.54546 9.47088L0.272828 6.60086C0.032267 6.39086 -0.0596314 6.05828 0.0391337 5.75398C0.137899 5.45024 0.406613 5.2352 0.724767 5.20579L5.05486 4.81268L6.76683 0.80634C6.89306 0.511991 7.18054 0.321899 7.49996 0.321899C7.81937 0.321899 8.10685 0.511991 8.23308 0.805654L9.94505 4.81268L14.2745 5.20579C14.5933 5.23452 14.862 5.45024 14.9608 5.75398C15.0595 6.05771 14.9682 6.39086 14.7277 6.60086L11.455 9.47031L12.42 13.721C12.4907 14.0335 12.3694 14.3567 12.1101 14.5442C11.8513 14.7316 11.5063 14.7461 11.2338 14.5823L7.49996 12.351L3.76611 14.5835C3.63988 14.6585 3.49923 14.6967 3.35732 14.6967ZM7.49996 11.3898C7.64187 11.3898 7.7824 11.4279 7.90875 11.5028L11.4326 13.6104L10.5218 9.59838C10.4568 9.31284 10.5538 9.01471 10.7744 8.82153L13.8645 6.1115L9.77625 5.74024C9.4819 5.71335 9.22875 5.52829 9.11373 5.25706L7.49996 1.47629L5.88424 5.25763C5.77048 5.52703 5.51733 5.71209 5.22367 5.73899L1.13482 6.11024L4.2248 8.82027C4.44614 9.01402 4.54296 9.31158 4.47738 9.5978L3.56732 13.6097L7.09116 11.5028C7.2174 11.4279 7.35805 11.3898 7.49996 11.3898ZM5.02179 4.89015C5.02179 4.89015 5.02179 4.89084 5.0211 4.89141L5.02179 4.89015ZM9.97687 4.88832L9.97755 4.88958C9.97755 4.8889 9.97755 4.8889 9.97687 4.88832Z" fill="#B9B9B9"/>
</svg>
