<svg width="15" height="15" viewBox="0 0 15 15" fill="none" xmlns="http://www.w3.org/2000/svg">
<path fill-rule="evenodd" clip-rule="evenodd" d="M12.4903 12.0554C13.5875 10.8541 14.2568 9.25518 14.2568 7.5C14.2568 3.76835 11.2317 0.743243 7.5 0.743243C3.76835 0.743243 0.743243 3.76835 0.743243 7.5C0.743243 9.2516 1.40975 10.8475 2.50299 12.048C2.99605 10.3051 4.26243 8.90895 5.88787 8.34474C4.95207 7.79227 4.32432 6.7735 4.32432 5.60811C4.32432 3.85423 5.74612 2.43243 7.5 2.43243C9.25388 2.43243 10.6757 3.85423 10.6757 5.60811C10.6757 6.77484 10.0465 7.79462 9.1089 8.34664C10.7339 8.91286 11.9992 10.3109 12.4903 12.0554ZM11.8699 12.6536C11.4343 10.4427 9.62332 8.81757 7.49562 8.81757C5.36992 8.81757 3.56061 10.4394 3.12263 12.6472C4.30177 13.651 5.83014 14.2568 7.5 14.2568C9.16632 14.2568 10.6918 13.6536 11.8699 12.6536ZM7.5 15C11.6421 15 15 11.6421 15 7.5C15 3.35786 11.6421 0 7.5 0C3.35786 0 0 3.35786 0 7.5C0 11.6421 3.35786 15 7.5 15ZM7.5 8.04054C8.84339 8.04054 9.93243 6.9515 9.93243 5.60811C9.93243 4.26471 8.84339 3.17568 7.5 3.17568C6.1566 3.17568 5.06757 4.26471 5.06757 5.60811C5.06757 6.9515 6.1566 8.04054 7.5 8.04054Z" fill="black"/>
</svg>
