<?xml version="1.0" standalone="no"?>
<!DOCTYPE svg PUBLIC "-//W3C//DTD SVG 1.1//EN" "http://www.w3.org/Graphics/SVG/1.1/DTD/svg11.dtd" >
<svg>
<metadata>
Created by FontForge 20120731 at Sat Aug 22 02:10:05 2020
 By www
(c)  Dalton Maag Ltd 2008. For use with TUI related projects only. No modification of this font permitted without consent and approval of Dalton Maag Ltd
</metadata>
<defs>
<font id="TUITypeCyrillic-Regular" horiz-adv-x="657" >
  <font-face 
    font-family="TUIType Cyrillic"
    font-weight="400"
    font-stretch="normal"
    units-per-em="2048"
    panose-1="2 12 6 4 4 2 2 2 2 3"
    ascent="1638"
    descent="-410"
    x-height="893"
    cap-height="1372"
    bbox="-200 -408 2167 1840"
    underline-thickness="102"
    underline-position="-289"
    unicode-range="U+0020-FB04"
  />
<missing-glyph horiz-adv-x="1004" 
d="M50 1376h904v-1376h-904v1376zM178 106h648v1164h-648v-1164z" />
    <glyph glyph-name="f_f" unicode="ff" horiz-adv-x="1196" 
d="M344 750v-701q0 -29 -12 -41q-6 -6 -24.5 -11t-53.5 -5q-31 0 -48.5 4t-23.5 10q-12 9 -12 41v703h-115q-19 0 -28.5 2t-13 6.5t-3.5 12.5v20q0 53 19 81q8 13 19 17t34 4h88v147q0 75 22.5 137.5t68.5 107.5t116.5 70t166.5 25q94 0 170.5 -20t127.5 -53q26 25 61 40
q75 33 157 33q57 0 97.5 -7.5t66.5 -16.5q27 -10 43 -18t24 -15.5t10.5 -14t2.5 -12.5q0 -22 -14 -53q-23 -51 -47 -51q-14 0 -62 20q-23 10 -48 15.5t-56 5.5q-70 0 -107 -34q-39 -34 -46 -82q-4 -25 -5.5 -47.5t-1.5 -43.5v-133h227q15 0 24 -1.5t13.5 -5.5t6 -12.5
t1.5 -21.5q0 -26 -5 -46.5t-11 -31.5q-15 -24 -55 -24h-201v-701q0 -29 -12 -41q-6 -6 -24.5 -11t-53.5 -5q-31 0 -48.5 4t-23.5 10q-12 9 -12 41v703h-399zM748 1172q-29 24 -80 42.5t-132 18.5q-61 0 -98.5 -17t-58.5 -45.5t-28 -66t-7 -78.5v-133h399v147q0 40 1 71t4 61
z" />
    <glyph glyph-name="f_i" unicode="fi" horiz-adv-x="997" 
d="M10 0zM254 -8q-31 0 -48.5 4t-23.5 10q-12 9 -12 41v703h-115q-26 0 -34.5 4t-9.5 12t-1 25q0 52 19 81q8 13 19 17t34 4h88v133q0 78 23 143.5t67.5 112t110 72.5t151.5 26q83 0 137.5 -15t96.5 -34q40 -18 50.5 -31.5t10.5 -25.5q0 -26 -16 -55q-29 -48 -53 -48
q-13 0 -64 23q-10 4 -24 11t-32.5 13t-42 10.5t-53.5 4.5q-77 0 -121 -35.5t-55.5 -87.5t-11.5 -100v-117h442q36 0 54 -5t24 -11q13 -12 13 -41v-789q0 -30 -13 -39q-6 -6 -24 -11t-54 -5q-31 0 -48 4t-23 10q-13 10 -13 41v703h-358v-701q0 -29 -12 -41q-6 -6 -24.5 -11
t-53.5 -5z" />
    <glyph glyph-name="f_l" unicode="fl" horiz-adv-x="1038" 
d="M10 0zM254 -8q-31 0 -48.5 4t-23.5 10q-12 9 -12 41v703h-115q-26 0 -34.5 4t-9.5 12t-1 25q0 52 19 81q8 13 19 17t34 4h88v133q0 78 21.5 143.5t68 112t119.5 72.5t176 26q92 0 177 -25t138 -55q31 -17 39.5 -34.5t8.5 -38.5v-1178q0 -32 -13 -41q-6 -6 -24.5 -11
t-53.5 -5q-31 0 -48 4t-23 10q-13 9 -13 41v1106q0 14 -8.5 25.5t-25.5 19.5q-20 9 -61.5 22t-100.5 13q-85 0 -134 -35t-59 -81.5t-10 -88.5v-135h227q31 0 38 -7t7 -34q0 -26 -5 -46.5t-11 -31.5q-15 -24 -55 -24h-201v-701q0 -29 -12 -41q-6 -6 -24.5 -11t-53.5 -5z" />
    <glyph glyph-name="f_f_i" unicode="ffi" horiz-adv-x="1570" 
d="M743 750h-399v-701q0 -29 -12 -41q-6 -6 -24.5 -11t-53.5 -5q-31 0 -48 4.5t-24 9.5q-12 10 -12 41v703h-115q-19 0 -28.5 2t-13 6.5t-3.5 12.5v20q0 53 19 81q8 13 19 17t34 4h88v147q0 75 22.5 137.5t68.5 107.5t116.5 70t166.5 25q46 0 91.5 -5.5t86.5 -15.5t75.5 -24
t60.5 -30q37 29 85 49q67 26 152 26q83 0 137.5 -15t96.5 -34q40 -18 50.5 -31.5t10.5 -25.5q0 -27 -16 -55q-29 -48 -53 -48q-7 0 -22.5 6t-41.5 17q-11 4 -24.5 11t-32 13t-42 10.5t-53.5 4.5q-78 0 -121 -36q-44 -35 -56 -87q-5 -26 -8 -51t-3 -49v-117h442q36 0 54 -5
t24 -11q13 -12 13 -41v-789q-1 -29 -13 -39q-7 -5 -24.5 -10.5t-53.5 -5.5q-31 0 -48 4.5t-23 9.5q-13 12 -13 41v703h-358v-701q0 -29 -12 -41q-6 -6 -24.5 -11t-53.5 -5q-31 0 -48 4.5t-24 9.5q-12 10 -12 41v703zM765 1166q-31 24 -90.5 45.5t-138.5 21.5
q-61 0 -98.5 -17t-58.5 -45.5t-28 -66t-7 -78.5v-133h399v147q0 29 5 57q4 34 17 69z" />
    <glyph glyph-name="f_f_l" unicode="ffl" horiz-adv-x="1612" 
d="M918 750v-701q0 -29 -12 -41q-6 -6 -24.5 -11t-53.5 -5q-31 0 -48 4.5t-24 9.5q-12 10 -12 41v703h-400v-701q0 -29 -12 -41q-6 -6 -24.5 -11t-53.5 -5q-31 0 -48 4.5t-24 9.5q-12 10 -12 41v703h-115q-19 0 -28.5 2t-13 6.5t-3.5 12.5v20q0 53 19 81q8 13 19 17t34 4h88
v147q0 75 22.5 137.5t68.5 107.5t116.5 70t166.5 25q46 0 91.5 -5.5t86.5 -15.5t75.5 -24t60.5 -30l-1 -2q60 44 130.5 60.5t141.5 16.5q83 0 164.5 -20.5t150.5 -59.5q31 -17 39.5 -34.5t8.5 -38.5v-1178q0 -30 -13 -41q-7 -5 -25 -10.5t-53 -5.5q-31 0 -47.5 4.5
t-23.5 9.5q-13 11 -13 41v1106q0 29 -34 45q-20 9 -61 22t-101 13q-30 0 -61.5 -6.5t-58.5 -20.5t-46.5 -36.5t-26.5 -53.5q-10 -44 -10 -88v-135h227q15 0 24 -1.5t13.5 -5.5t6 -12.5t1.5 -21.5q0 -26 -5 -46.5t-11 -31.5q-15 -24 -55 -24h-201zM764 1166
q-31 24 -90.5 45.5t-137.5 21.5q-61 0 -98.5 -17t-58.5 -45.5t-28 -66t-7 -78.5v-133h399v147q0 16 1.5 30t3.5 27q2 14 5 28.5t11 40.5z" />
    <glyph glyph-name=".notdef" horiz-adv-x="1004" 
d="M50 1376h904v-1376h-904v1376zM178 106h648v1164h-648v-1164z" />
    <glyph glyph-name=".null" horiz-adv-x="0" 
 />
    <glyph glyph-name="nonmarkingreturn" 
 />
    <glyph glyph-name="space" unicode=" " horiz-adv-x="512" 
 />
    <glyph glyph-name="exclam" unicode="!" horiz-adv-x="416" 
d="M207 -16q-35 0 -64.5 20t-42 48t-12.5 52q0 35 20.5 67t47 44t51.5 12q31 0 61 -19.5t45 -49t15 -54.5q0 -36 -20 -64.5t-48.5 -42t-52.5 -13.5zM205 362q-31 0 -48.5 4.5t-23.5 10.5q-12 7 -12 37v915q0 18 6.5 30t27 16.5t52.5 4.5q34 0 51.5 -4t24.5 -10
q12 -12 12 -37v-915q0 -28 -12 -37q-7 -5 -25 -10t-53 -5z" />
    <glyph glyph-name="quotedbl" unicode="&#x22;" horiz-adv-x="711" 
d="M195 909q-59 0 -72 15q-12 7 -12 37l-11 368q0 25 13 37q6 6 24.5 10t59.5 4q42 0 60.5 -4t25.5 -10q12 -12 12 -37l-10 -368q0 -28 -13 -37q-6 -5 -24 -10t-53 -5zM510 909q-59 0 -72 15q-12 7 -12 37l-10 368q0 18 6.5 30t28 16.5t61.5 4.5q72 0 85 -13t13 -38
l-10 -368q0 -28 -12 -37q-6 -5 -24.5 -10t-53.5 -5z" />
    <glyph glyph-name="numbersign" unicode="#" horiz-adv-x="1178" 
d="M227 0q-43 0 -55 9t-12 22q0 17 8 43l84 315h-170h-21t-16 2q-4 2 -7 5.5t-4.5 10t-1 17.5t4.5 29q8 29 16.5 41t30.5 12h201l73 280h-168h-19q-9 0 -15 2q-8 2 -14 14.5t3 47.5q8 29 17 41t31 12h198l94 350q8 26 24 32.5t54 6.5q43 0 55.5 -9t12.5 -21q0 -19 -8 -43
l-84 -316h221l94 350q7 26 23.5 32.5t54.5 6.5q43 0 55 -9t12 -21q0 -19 -8 -43l-84 -316h172h21t16 -2q7 -4 9.5 -9.5t2.5 -19.5t-4 -32q-15 -54 -47 -54h-203l-73 -280h170q21 0 28.5 -1.5t12.5 -4.5t8.5 -14.5t-4.5 -43.5q-8 -29 -17 -41t-30 -12h-201l-94 -350
q-8 -26 -23 -32.5t-55 -6.5q-43 0 -55.5 9t-12.5 22q0 14 9 43l84 315h-222l-94 -350q-9 -27 -23 -33t-55 -6zM432 506h221l74 280h-221z" />
    <glyph glyph-name="dollar" unicode="$" horiz-adv-x="1075" 
d="M539 -170q-44 0 -55 9.5t-11 33.5v109q-75 3 -147 18.5t-140 50.5q-17 8 -31 16.5t-26 14.5q-31 18 -38 29.5t-7 17.5q0 8 8 28.5t21 39.5q11 17 22 26.5t21 9.5q5 0 11 -1t17 -9t24 -15t25 -15q24 -15 67 -32.5t87 -25.5t86 -10v459l-20 6q-78 23 -142.5 51.5t-111.5 68
t-73 94.5t-26 130q0 111 54.5 192.5t142.5 117t176 42.5v96q0 25 12 34t54 9q40 0 52.5 -9t12.5 -34v-96q101 -11 150 -24q45 -12 96 -35q38 -17 46.5 -26.5t8.5 -16.5q0 -13 -28 -76q-16 -31 -29 -31q-12 0 -31 8q-23 9 -44.5 18.5t-46 18t-54 14.5t-68.5 9v-428l29 -8
q133 -40 209 -87t107.5 -116.5t31.5 -147.5q0 -165 -97 -259.5t-280 -112.5v-113q0 -23 -11.5 -32.5t-53.5 -10.5zM604 133q76 12 123.5 42.5t67.5 73t20 87.5q0 62 -26 102t-76.5 65.5t-108.5 43.5v-414zM473 750v393q-108 -14 -158.5 -67t-50.5 -132q0 -74 53.5 -118.5
t155.5 -75.5z" />
    <glyph glyph-name="percent" unicode="%" horiz-adv-x="1593" 
d="M1221 -29q-70 0 -129 23.5t-102 67.5t-67 106t-24 139q0 76 24 138t67 106t102 68t129 24q105 0 182.5 -52t108 -130t30.5 -154t-24 -138t-67 -106t-101.5 -68t-128.5 -24zM440 -20q-42 0 -58.5 8t-16.5 20q0 15 18 49l678 1307q11 22 29 29.5t61 7.5q42 0 59 -8t17 -21
q0 -14 -19 -49l-678 -1307q-13 -22 -30 -29t-60 -7zM1221 94q57 0 98.5 35t55.5 84t14 94q0 66 -22.5 117t-63 73.5t-82.5 22.5q-59 0 -99.5 -34.5t-54.5 -84t-14 -94.5t10.5 -83.5t31.5 -67.5t52.5 -45.5t73.5 -16.5zM373 729q-70 0 -129 23.5t-102 67.5t-67 106t-24 139
q0 76 24 138t67 106t102 68t129 24q105 0 182.5 -52t108 -129.5t30.5 -154.5q0 -76 -24 -138t-67 -106t-101.5 -68t-128.5 -24zM373 852q57 0 98.5 35t55.5 84t14 94q0 66 -22.5 117t-63.5 73.5t-82 22.5q-59 0 -99.5 -34.5t-54.5 -84t-14 -94.5t10.5 -83.5t31.5 -67.5
t52.5 -45.5t73.5 -16.5z" />
    <glyph glyph-name="ampersand" unicode="&#x26;" horiz-adv-x="1255" 
d="M559 -20q-101 0 -187 25t-149 75.5t-99 128t-36 182.5q0 87 31.5 164t86 126.5t111.5 76.5q-34 15 -65.5 42t-55.5 63.5t-38.5 83t-14.5 102.5q0 117 62.5 203t148.5 117.5t156 31.5q116 0 215 -33q40 -13 57 -28t17 -29q0 -25 -13 -54q-9 -23 -20.5 -39t-30.5 -16
q-20 0 -35 9.5t-38 17.5q-20 7 -56 15.5t-92 8.5q-38 0 -73 -14t-62 -42t-43.5 -69t-16.5 -96q0 -97 70.5 -146.5t198.5 -49.5h600q32 0 39.5 -7.5t7.5 -33.5t-5 -51.5t-11 -36.5q-10 -16 -22.5 -20.5t-35.5 -4.5h-106v-209q0 -120 -35 -212.5t-99.5 -154.5t-156 -94
t-205.5 -32zM571 139q152 0 226.5 84t74.5 260v199h-307q-110 0 -176 -49.5t-85 -116.5t-19 -125q0 -130 71.5 -191t214.5 -61z" />
    <glyph glyph-name="quotesingle" unicode="'" horiz-adv-x="395" 
d="M195 909q-59 0 -72 15q-12 7 -12 37l-11 368q0 25 13 37q6 6 24.5 10t59.5 4q42 0 60.5 -4t25.5 -10q12 -12 12 -37l-10 -368q0 -28 -13 -37q-6 -5 -24 -10t-53 -5z" />
    <glyph glyph-name="parenleft" unicode="(" horiz-adv-x="664" 
d="M551 -406q-16 0 -35 9q-90 39 -168 119t-136 194t-91 257.5t-33 309.5q0 167 33 311t91 258t136 194.5t168 119.5q19 8 35 8q25 0 57 -57q25 -46 25 -62q0 -17 -21 -26q-74 -41 -134.5 -108t-103.5 -160.5t-67 -213t-24 -264.5q0 -144 24 -263t67 -212t103.5 -160.5
t134.5 -107.5q13 -6 17 -12.5t4 -14.5q0 -15 -25 -61q-20 -37 -31.5 -47.5t-25.5 -10.5z" />
    <glyph glyph-name="parenright" unicode=")" horiz-adv-x="664" 
d="M113 -406q-14 0 -26 10.5t-32 47.5q-24 44 -24 61t20 27q113 62 191.5 182.5t108.5 268.5t30 292q0 145 -24 264.5t-67.5 213t-104 160.5t-134.5 108q-12 6 -16 12t-4 14q0 18 24 62q20 37 32 47t26 10q16 0 34 -8q90 -39 168 -119.5t136 -194.5t91 -258t33 -311
q0 -166 -33 -309.5t-91 -257.5t-136 -194t-168 -119q-20 -9 -34 -9z" />
    <glyph glyph-name="asterisk" unicode="*" horiz-adv-x="854" 
d="M270 678q-21 0 -61 31q-28 20 -39.5 32.5t-11.5 18.5q0 16 10 28l147 183l-227 61q-16 4 -29 17q-3 6 -1.5 23t14.5 48q20 57 32 62q17 7 31 2l223 -78l-12 231q0 21 12 31q16 12 68 12q35 0 49 -3.5t21 -8.5q12 -10 12 -31l-12 -235l221 84q11 5 17.5 4t13.5 -4
q9 -4 23.5 -39.5t19.5 -61.5t0 -34q-17 -13 -27 -15l-225 -63l147 -187q12 -12 12 -26q0 -16 -51 -51q-44 -31 -61 -31q-14 0 -27 18l-129 197l-133 -197q-9 -18 -27 -18z" />
    <glyph glyph-name="plus" unicode="+" horiz-adv-x="973" 
d="M489 199q-55 0 -69 14t-14 43v297h-279q-23 0 -34.5 6.5t-17 24.5t-5.5 53q0 31 4 45t10 20q13 13 41 13h281v301q0 32 12 41q6 6 21 11t50 5q31 0 45.5 -4t20.5 -10q12 -9 12 -41v-303h281q28 0 41 -13q6 -6 10 -20t4 -45q0 -56 -14 -70t-43 -14h-279v-299
q0 -29 -12 -41q-6 -6 -20.5 -10t-45.5 -4z" />
    <glyph glyph-name="comma" unicode="," horiz-adv-x="395" 
d="M115 -205q-41 0 -57.5 10.5t-16.5 24.5q0 13 10 49l72 303q7 28 27 36.5t77 8.5q41 0 59.5 -5.5t24.5 -14t6 -14.5q0 -25 -8 -50l-108 -303q-12 -28 -27 -36.5t-59 -8.5z" />
    <glyph glyph-name="hyphen" unicode="-" horiz-adv-x="694" 
d="M123 354q-26 0 -35 4q-10 11 -10 41q0 29 4.5 60t13 46.5t20 20t34.5 4.5h421q25 0 35 -4q10 -10 10 -41q0 -29 -4.5 -60t-13.5 -46q-13 -25 -53 -25h-422z" />
    <glyph glyph-name="period" unicode="." horiz-adv-x="395" 
d="M197 -16q-35 0 -64.5 20t-42 48t-12.5 52q0 35 20.5 67t47 44t51.5 12q31 0 62 -20.5t44.5 -49t13.5 -53.5q0 -36 -20 -65t-48 -42t-52 -13z" />
    <glyph glyph-name="slash" unicode="/" horiz-adv-x="647" 
d="M84 0q-40 0 -57 10t-17 23q0 16 13 53l456 1247q10 26 28 32.5t58 6.5t56 -10t16 -23q0 -9 -3.5 -24t-8.5 -29l-459 -1247q-10 -26 -25 -32.5t-57 -6.5z" />
    <glyph glyph-name="zero" unicode="0" horiz-adv-x="973" 
d="M487 -20q-98 0 -178.5 43t-137.5 126.5t-88.5 205t-31.5 278.5t31.5 279.5t88.5 207t137.5 128.5t178.5 44t178 -44t137 -128.5t88.5 -207t31.5 -279.5t-31.5 -278.5t-88.5 -205t-137 -126.5t-178 -43zM487 137q119 0 183.5 127.5t64.5 368.5q0 178 -37 297t-95 162
t-116 43q-59 0 -105 -33.5t-78 -98t-49 -157.5t-17 -213q0 -241 65.5 -368.5t183.5 -127.5z" />
    <glyph glyph-name="one" unicode="1" horiz-adv-x="973" 
d="M547 -8q-31 0 -48.5 4t-23.5 10q-12 9 -12 41v993l-215 -194q-23 -17 -43 -17q-14 0 -26.5 11t-24.5 26q-25 34 -25 56q0 23 43 59l315 268q22 19 44.5 30t39.5 11q38 0 52 -12q14 -14 14 -51v-1178q0 -32 -12 -41q-7 -6 -25 -11t-53 -5z" />
    <glyph glyph-name="two" unicode="2" horiz-adv-x="973" 
d="M147 0q-34 0 -47 12q-6 6 -10 20.5t-4 45.5q0 56 18 78l185 186q128 128 200.5 215.5t108.5 153.5t45.5 115.5t9.5 101.5q0 73 -31.5 121t-79 66t-89.5 18q-67 0 -103.5 -18.5t-77.5 -53.5q-9 -8 -18.5 -18.5t-19.5 -20t-21 -15.5t-23 -6q-17 0 -33 11.5t-28 23.5
q-35 41 -35 56q0 14 10 30t39 45q32 32 81 61t113.5 45.5t125.5 16.5q120 0 209 -50t126.5 -136t37.5 -180q0 -70 -20 -136t-53 -127.5t-76 -118.5t-89 -108t-91 -96t-83 -84l-92 -94h481q28 0 35 -4q10 -12 10 -37q0 -26 -4.5 -54.5t-15.5 -44.5q-15 -20 -54 -20h-637z" />
    <glyph glyph-name="three" unicode="3" horiz-adv-x="973" 
d="M252 -70q-93 0 -117 15q-26 16 -26 67q0 29 6 49t30 29q17 6 44 4t69 -2q60 0 130.5 16.5t134 55.5t95 98.5t31.5 130.5q0 82 -35.5 135t-94.5 74t-126 21h-57q-26 0 -34.5 4t-9.5 12t-1 25q0 26 4.5 53t13.5 43q13 20 45 20h33q90 0 148.5 27.5t81 74t22.5 97.5
q0 55 -31 93.5t-75 51.5t-84 13q-101 0 -197 -58q-23 -15 -42 -32t-38 -17q-22 0 -34 13.5t-21 27.5q-27 29 -27 49q0 14 12 31t43 39q51 34 90 54.5t102 33t132 12.5q105 0 189.5 -43t120.5 -112.5t36 -143.5q0 -59 -16 -103t-43 -77t-63 -57.5t-77 -44.5
q66 -18 118.5 -64.5t77 -109t24.5 -129.5q0 -120 -47 -206.5t-120.5 -142t-154.5 -82t-148.5 -36t-113.5 -9.5z" />
    <glyph glyph-name="four" unicode="4" horiz-adv-x="973" 
d="M662 -70q-31 0 -46.5 4.5t-21.5 10.5q-12 9 -12 41v342h-490q-26 0 -34.5 4t-9.5 12t-1 25q0 26 4 46t15 36l534 798q16 23 41.5 32t42.5 9q39 0 51 -12q15 -15 15 -51v-756h129q45 0 45 -41q0 -26 -5.5 -46.5t-11.5 -31.5q-15 -24 -55 -24h-102v-340q0 -31 -13 -41
q-6 -6 -23 -11.5t-52 -5.5zM254 471h328v510z" />
    <glyph glyph-name="five" unicode="5" horiz-adv-x="973" 
d="M225 -70q-94 0 -116 15q-27 16 -27 67q0 29 6 49t31 29q17 6 43.5 4t68.5 -2q68 0 141.5 16t139.5 55.5t98.5 102t32.5 137.5q0 92 -49 152.5t-142.5 84.5t-203.5 24q-52 0 -109 -5l29 611h606q28 0 35 -4q10 -12 10 -37q0 -22 -5 -54t-15 -49q-15 -20 -54 -20h-430
l-12 -291q215 -2 338 -67.5t155.5 -158t32.5 -173.5q0 -142 -64.5 -243t-168 -154.5t-200 -71t-171.5 -17.5z" />
    <glyph glyph-name="six" unicode="6" horiz-adv-x="973" 
d="M496 -20q-91 0 -168 32t-133.5 92t-88.5 145.5t-32 192.5q0 168 59 327.5t141.5 274.5t136.5 170t89 86q23 21 45.5 30t75.5 9q59 0 79 -10q13 -9 13 -22q0 -20 -37 -54q-78 -72 -150.5 -150t-128.5 -165.5t-90 -175.5q37 46 98 65t136 19q121 0 212 -65.5t129 -164.5
t38 -196q0 -98 -32 -179t-89 -139t-134.5 -90t-168.5 -32zM494 127q85 0 144 48.5t81 116t22 126.5q0 93 -36.5 162t-93.5 98t-117 29q-87 0 -147.5 -50t-80.5 -115.5t-20 -123.5q0 -59 16 -111.5t47.5 -92.5t78 -63.5t106.5 -23.5z" />
    <glyph glyph-name="seven" unicode="7" horiz-adv-x="973" 
d="M373 -70q-38 0 -56 5.5t-24 11.5t-6 18q0 21 10 43l391 1094h-588q-28 0 -34 4q-11 9 -11 37q0 31 7.5 61t17.5 45q15 21 53 21h678q35 0 47 -13q6 -6 10 -20t4 -43q0 -40 -16 -90l-385 -1114q-11 -33 -20 -43q-7 -6 -25.5 -11.5t-52.5 -5.5z" />
    <glyph glyph-name="eight" unicode="8" horiz-adv-x="973" 
d="M485 -20q-91 0 -169.5 27.5t-136 78t-90 121.5t-32.5 158q0 109 53.5 193.5t153.5 129.5q-81 42 -122.5 112t-41.5 161q0 75 29.5 136t81.5 104.5t122.5 67t151.5 23.5q124 0 217 -52t130.5 -128t37.5 -151q0 -91 -41 -161t-122 -112q100 -45 153 -129.5t53 -193.5
q0 -87 -32.5 -158t-90 -121.5t-136 -78t-169.5 -27.5zM485 125q86 0 146.5 38.5t82 94t21.5 107.5q0 77 -37.5 134t-95.5 80t-117 23q-87 0 -148 -39.5t-81 -93t-20 -104.5q0 -52 17 -96t49 -76t78 -50t105 -18zM485 750q73 0 127 31.5t72 77.5t18 87q0 65 -31 112.5t-82 68
t-104 20.5t-93.5 -15.5t-68 -42.5t-41.5 -64t-14 -79q0 -41 14.5 -77t42 -62.5t68 -41.5t92.5 -15z" />
    <glyph glyph-name="nine" unicode="9" horiz-adv-x="973" 
d="M356 -68q-58 0 -80 11q-12 9 -12 22q0 19 37 53q87 80 157 156.5t123.5 161.5t88.5 174q-37 -46 -96 -65t-134 -19q-78 0 -148 30t-122 85.5t-82.5 134t-30.5 176.5t32 179t89 139t134.5 90t168.5 32q137 0 236.5 -70t140.5 -177.5t41 -215.5q0 -172 -57.5 -326.5
t-139 -271t-134.5 -171t-91 -89.5q-26 -21 -47 -30t-74 -9zM483 565q84 0 143.5 47t82 115t22.5 127q0 90 -37 160.5t-94 100.5t-117 30q-59 0 -105 -23.5t-77.5 -63.5t-48 -93t-16.5 -111q0 -59 16 -111t47.5 -92t77.5 -63t106 -23z" />
    <glyph glyph-name="colon" unicode=":" horiz-adv-x="395" 
d="M197 -16q-35 0 -64.5 20t-42 48t-12.5 52q0 35 20.5 67t47 44t51.5 12q31 0 62 -20.5t44.5 -49t13.5 -53.5q0 -36 -20 -65t-48 -42t-52 -13zM197 649q-34 0 -64 20.5t-42.5 48.5t-12.5 52q0 35 20.5 67t46.5 44t52 12q31 0 62 -20.5t44.5 -49t13.5 -53.5
q0 -36 -20.5 -65.5t-48.5 -42.5t-51 -13z" />
    <glyph glyph-name="semicolon" unicode=";" horiz-adv-x="395" 
d="M115 -205q-41 0 -57.5 10.5t-16.5 24.5q0 13 10 49l72 303q7 28 27 36.5t77 8.5q41 0 59.5 -5.5t24.5 -14t6 -14.5q0 -25 -8 -50l-108 -303q-12 -28 -27 -36.5t-59 -8.5zM217 649q-34 0 -64 20.5t-42.5 48.5t-12.5 52q0 35 20 66.5t47.5 44t51.5 12.5q32 0 63 -20.5
t44.5 -49.5t13.5 -53q0 -36 -21 -66t-49 -42.5t-51 -12.5z" />
    <glyph glyph-name="less" unicode="&#x3c;" horiz-adv-x="973" 
d="M872 223q-15 0 -51 17l-702 295q-34 14 -42.5 38.5t-8.5 59.5t8.5 59.5t42.5 38.5l702 299q36 17 51 17q13 0 23 -15.5t10 -64.5q0 -35 -4.5 -53.5t-15.5 -28t-25 -15.5l-565 -237l565 -234q26 -12 35.5 -30.5t9.5 -65.5q0 -49 -10 -64.5t-23 -15.5z" />
    <glyph glyph-name="equal" unicode="=" horiz-adv-x="973" 
d="M127 360q-25 0 -35.5 7.5t-16 24.5t-5.5 52q0 31 4 45.5t10 20.5q12 12 41 12h723q29 0 41 -12q6 -6 10 -20.5t4 -45.5q0 -55 -14.5 -69.5t-42.5 -14.5h-719zM127 743q-25 0 -35.5 7.5t-16 24.5t-5.5 52q0 31 4 45.5t10 20.5q12 12 41 12h723q29 0 41 -12q6 -6 10 -20.5
t4 -45.5q0 -55 -14.5 -69.5t-42.5 -14.5h-719z" />
    <glyph glyph-name="greater" unicode="&#x3e;" horiz-adv-x="973" 
d="M100 223q-12 0 -22 15.5t-10 64.5q0 45 8.5 64.5t36.5 31.5l565 234l-565 237q-28 11 -36.5 30t-8.5 67q0 49 10 64.5t22 15.5q15 0 52 -17l702 -299q34 -14 42.5 -38.5t8.5 -59.5t-8.5 -59.5t-42.5 -38.5l-702 -295q-37 -17 -52 -17z" />
    <glyph glyph-name="question" unicode="?" horiz-adv-x="893" 
d="M358 -16q-34 0 -63.5 20t-42 48t-12.5 52q0 35 20.5 67t47 44t50.5 12q32 0 63 -20.5t44.5 -49t13.5 -53.5q0 -36 -20.5 -65.5t-48.5 -42t-52 -12.5zM356 362q-31 0 -48 4.5t-23 10.5q-13 8 -13 37v264q0 32 15 47q7 7 69 23q90 25 144.5 67t70 95t15.5 102
q0 66 -32 117.5t-86 75.5t-112 24q-54 0 -86.5 -6.5t-54.5 -16.5q-57 -22 -74 -22q-20 0 -32 15.5t-17 29.5q-8 21 -12 37.5t-4 25.5q0 16 12 28t59 30q46 15 89.5 22.5t117.5 7.5q140 0 238 -57t134 -141t36 -162q0 -123 -46.5 -207t-120 -127.5t-149.5 -69.5v-202
q0 -28 -12 -37q-6 -5 -24.5 -10t-53.5 -5z" />
    <glyph glyph-name="at" unicode="@" horiz-adv-x="1591" 
d="M840 -281q-133 -1 -240 29t-191 82t-144.5 122.5t-99.5 153t-58 172t-19 179.5q0 152 58 291t168 245.5t245.5 152.5t267.5 46q160 0 286 -48t212.5 -131t132 -194t45.5 -237q0 -88 -19 -161.5t-61 -152.5q-36 -72 -103.5 -125.5t-129 -70.5t-109.5 -17q-66 0 -104 21
t-48 49.5t-11 52.5q-40 -45 -80.5 -72t-87.5 -39t-93 -12q-67 0 -117 24t-83 64.5t-49.5 94t-16.5 112.5q0 54 8.5 102t24.5 89t35 77q36 74 105 133.5t146.5 84t151.5 24.5q82 0 142.5 -13t98.5 -30.5t48 -23.5q17 -13 18 -25t-4 -37l-88 -426q-10 -50 -10 -63
q0 -20 11.5 -33.5t25 -14.5t22.5 -1q65 0 121.5 64.5t81.5 153t25 171.5q0 103 -36 188.5t-104 147t-165.5 95.5t-221.5 34q-152 0 -269 -57t-189.5 -153t-98.5 -193.5t-26 -186.5q0 -131 40 -240t116.5 -187.5t187.5 -122t252 -42.5q77 0 160 14.5t188 52.5q60 24 95 44
t50 20q13 0 24.5 -12.5t22.5 -30.5q23 -35 23 -55q0 -19 -25 -37q-31 -20 -92 -47q-85 -39 -197 -67t-249 -28zM711 197q67 0 125 54.5t89.5 125t45.5 129.5l43 180q-26 14 -64 24.5t-104 10.5q-45 0 -82 -12.5t-67 -33.5t-53.5 -50t-41.5 -62q-24 -44 -36.5 -100.5
t-12.5 -100.5q0 -30 7 -60t25 -53t48.5 -37.5t77.5 -14.5z" />
    <glyph glyph-name="A" unicode="A" horiz-adv-x="1137" 
d="M96 -8q-38 0 -55.5 5t-24.5 11q-6 6 -6 19q0 6 10 43l445 1278q6 20 25.5 29t76.5 9q58 0 78 -9.5t27 -28.5l450 -1297q4 -12 4 -24q0 -11 -10 -21q-5 -5 -24.5 -9.5t-57.5 -4.5q-34 0 -53.5 5t-26.5 11q-9 8 -20 43l-109 328h-522l-108 -328q-12 -30 -17.5 -39
t-26.5 -14.5t-55 -5.5zM354 530h420l-211 633z" />
    <glyph glyph-name="B" unicode="B" horiz-adv-x="1198" 
d="M244 0q-41 0 -56.5 5t-21.5 11q-12 14 -12 43v1254q0 31 14 45t76 14h372q150 0 251 -47.5t137 -122.5t36 -151q0 -95 -33 -164t-73 -98t-70 -44q71 -21 128.5 -67.5t88.5 -122.5t31 -162q0 -87 -33 -159.5t-93 -124.5t-145 -80.5t-190 -28.5h-407zM336 156h282
q78 0 134.5 20.5t92.5 55t53 79.5t17 95q0 83 -34.5 140t-113 84t-183.5 27h-248v-501zM336 813h227q98 0 155 18.5t86.5 49t37.5 69.5t8 80q0 65 -32 108t-95 61t-135 18h-252v-404z" />
    <glyph glyph-name="C" unicode="C" horiz-adv-x="1114" 
d="M680 -29q-124 0 -232 47.5t-188 138.5t-126 223.5t-46 303.5t47 304t128 225t190.5 140t234.5 48q131 0 197 -19t127 -45q41 -18 52 -31t11 -20q0 -11 -6 -31t-18 -43q-20 -35 -32.5 -47t-23.5 -12t-32 10q-6 2 -23.5 13t-50 23t-82 22t-119.5 10q-93 0 -167 -36.5
t-125.5 -106.5t-79 -172t-27.5 -232q0 -131 31 -232t85 -170t127.5 -105t159.5 -36q74 0 137 15t94.5 31.5t41.5 21.5q25 12 41 12q11 0 23.5 -10.5t29.5 -36.5q31 -52 31 -76q0 -19 -62 -53q-31 -18 -83.5 -35t-121.5 -28t-143 -11z" />
    <glyph glyph-name="D" unicode="D" horiz-adv-x="1317" 
d="M244 0q-41 0 -56.5 5t-21.5 11q-12 14 -12 43v1254q0 31 14 45t76 14h377q138 0 250 -45t191.5 -132t123 -214t43.5 -291t-43.5 -292.5t-123.5 -217t-193 -134.5t-253 -46h-372zM340 160h281q100 0 176.5 36t127.5 104t77 166.5t26 223.5t-26 222.5t-78.5 164t-131.5 101
t-184 34.5h-268v-1052z" />
    <glyph glyph-name="E" unicode="E" horiz-adv-x="1026" 
d="M244 0q-41 0 -56.5 5t-21.5 11q-12 14 -12 43v1254q0 31 14 45t76 14h706q17 0 23.5 -2.5t9.5 -5.5q8 -8 8 -33q0 -30 -4.5 -57.5t-11.5 -40.5q-8 -12 -21 -16.5t-36 -4.5h-578v-387h518q17 0 23.5 -2.5t9.5 -5.5q8 -8 8 -33q0 -29 -4.5 -57.5t-12 -40.5t-21 -16
t-36.5 -4h-485v-506h621q24 0 32 -8t8 -33q0 -26 -4 -55.5t-12 -43.5q-8 -12 -21 -16t-36 -4h-684z" />
    <glyph glyph-name="F" unicode="F" horiz-adv-x="981" 
d="M246 -8q-51 0 -69.5 8t-20.5 19.5t-2 31.5v1262q0 29 14 43q8 8 25 12t51 4h686q22 0 33 -8q8 -8 8 -33q0 -24 -5 -54.5t-12 -43.5q-8 -12 -21 -16.5t-36 -4.5h-557v-407h498q24 0 32 -8q9 -9 9 -33t-5 -54.5t-12.5 -43.5t-20.5 -17t-36 -4h-465v-594q0 -28 -6 -38
t-28.5 -15.5t-59.5 -5.5z" />
    <glyph glyph-name="G" unicode="G" horiz-adv-x="1266" 
d="M705 -29q-137 0 -250.5 47.5t-195 138.5t-126.5 223.5t-45 303.5t46.5 304t129.5 225t196.5 140t248.5 48q138 0 210.5 -19.5t129.5 -44.5q41 -18 52 -31t11 -20q0 -11 -4 -28t-18 -41q-19 -35 -33 -49.5t-25 -14.5t-33 12q-35 21 -88 39q-31 11 -78.5 19t-125.5 8
q-102 0 -180.5 -36.5t-131 -106.5t-79.5 -172t-27 -232q0 -131 32.5 -232.5t89.5 -171.5t136 -106.5t172 -36.5q97 0 154 10.5t100 26.5v373h-262q-25 0 -33 8t-8 33q0 27 4 55.5t12 42.5q8 12 21 16.5t36 4.5h320q61 0 75.5 -14.5t14.5 -45.5v-528q0 -29 -14 -46.5
t-54 -35.5q-38 -18 -87 -32t-129 -24t-164 -10z" />
    <glyph glyph-name="H" unicode="H" horiz-adv-x="1313" 
d="M246 -8q-51 0 -69.5 8t-20.5 19.5t-2 31.5v1270q0 27 5.5 37.5t28 16t58.5 5.5q52 0 70 -8.5t21 -19.5t3 -31v-498h633v498q0 27 5.5 37t28 16t56.5 6q54 0 72 -8.5t21 -19.5t3 -31v-1270q0 -28 -6 -38t-29 -15.5t-61 -5.5q-49 0 -67.5 8t-20.5 19.5t-2 31.5v613h-633
v-613q0 -28 -6 -38t-28.5 -15.5t-59.5 -5.5z" />
    <glyph glyph-name="I" unicode="I" horiz-adv-x="492" 
d="M244 -8q-49 0 -67.5 8t-20.5 19.5t-2 31.5v1270q0 27 5.5 37t28 16t56.5 6q37 0 57 -5t27 -11q10 -10 10 -43v-1270q0 -33 -10 -43q-7 -6 -27 -11t-57 -5z" />
    <glyph glyph-name="J" unicode="J" horiz-adv-x="918" 
d="M362 -29q-91 0 -151.5 13.5t-92 28t-46.5 24.5q-31 18 -45 33q-17 15 -17 30q0 19 31 68q20 31 32.5 40t24.5 9q11 0 21.5 -7.5t25.5 -16.5q41 -28 60 -38t56 -18t87 -8q113 0 168 56.5t64.5 136t9.5 145.5v854q0 27 5.5 37t28 16t56.5 6q52 0 70 -8.5t21 -19.5t3 -31
v-883q0 -109 -26 -203.5t-93 -160.5q-46 -47 -117 -75t-176 -28z" />
    <glyph glyph-name="K" unicode="K" horiz-adv-x="1155" 
d="M246 -8q-51 0 -69.5 8t-20.5 19.5t-2 31.5v1270q0 27 5.5 37.5t28 16t58.5 5.5q52 0 70 -8.5t21 -19.5t3 -31v-559l553 590q14 14 34.5 21t71.5 7q60 0 84 -12q7 -3 10 -9.5t3 -12.5q0 -15 -19 -35l-551 -586l600 -662q19 -21 19 -36q0 -7 -3 -13.5t-9 -9.5
q-20 -12 -97 -12q-56 0 -78 7t-32 19l-586 652v-619q0 -28 -6 -38t-28.5 -15.5t-59.5 -5.5z" />
    <glyph glyph-name="L" unicode="L" horiz-adv-x="979" 
d="M244 0q-41 0 -56.5 5t-21.5 11q-12 14 -12 43v1262q0 27 5.5 37.5t28 16t58.5 5.5q52 0 70 -8.5t21 -19.5t3 -31v-1161h592q17 0 23.5 -2.5t9.5 -5.5q8 -8 8 -33q0 -26 -4.5 -55.5t-12.5 -43.5q-8 -12 -21 -16t-36 -4h-655z" />
    <glyph glyph-name="M" unicode="M" horiz-adv-x="1491" 
d="M242 -8q-34 0 -52 5t-24 11q-12 9 -12 43v1176l-43 71q-19 29 -19 50q0 15 27 23.5t78 8.5q52 0 80 -7.5t42 -29.5l433 -669l401 669q14 23 33 30t59 7q53 0 69.5 -8.5t19.5 -19.5t3 -31v-1270q0 -28 -6 -38t-27 -15.5t-59 -5.5q-34 0 -53.5 5t-26.5 11q-10 10 -10 43
v996l-305 -521q-4 -8 -16 -20l-7 -6q-17 -17 -84 -17q-31 0 -50.5 3.5t-30.5 13.5q-17 14 -23 26l-303 490v-965q0 -33 -10 -43q-7 -6 -27 -11t-57 -5z" />
    <glyph glyph-name="N" unicode="N" horiz-adv-x="1262" 
d="M244 -8q-34 0 -53 5t-25 11q-12 9 -12 43v1174l-50 84q-12 16 -12 30q0 18 10 25q7 6 29.5 11t73.5 5q35 0 55.5 -5.5t26.5 -10.5q3 -3 6 -5t6 -5q5 -5 14 -23l617 -985v975q0 27 5.5 37t25 16t53.5 6q52 0 70 -8.5t21 -19.5t3 -31v-1270q0 -28 -6 -38t-24 -15.5
t-52 -5.5q-35 0 -52.5 4.5t-23.5 9.5q-11 10 -14 19l-604 962v-936q0 -34 -13 -43q-6 -6 -21.5 -11t-53.5 -5z" />
    <glyph glyph-name="O" unicode="O" horiz-adv-x="1362" 
d="M682 -29q-131 0 -240.5 47.5t-188 138.5t-122 223.5t-43.5 303.5t43.5 304t122 225t188 140t240.5 48q130 0 239 -48t187.5 -140t122 -225t43.5 -304t-43.5 -303.5t-122 -223.5t-187.5 -138.5t-239 -47.5zM682 135q93 0 165.5 37t123 107t76.5 172t26 233q0 130 -26 233
t-76.5 174t-123 108.5t-165.5 37.5q-94 0 -167 -37.5t-123.5 -108.5t-76.5 -174t-26 -233q0 -131 26 -233t76.5 -172t123.5 -107t167 -37z" />
    <glyph glyph-name="P" unicode="P" horiz-adv-x="1106" 
d="M244 -8q-49 0 -67.5 8t-20.5 19.5t-2 31.5v1262q0 31 14 45t76 14h311q117 0 209.5 -23.5t156 -71t97 -119t33.5 -167.5q0 -87 -28.5 -163t-90 -132.5t-157 -89.5t-228.5 -33q-126 0 -209 7v-529q0 -33 -10 -43q-7 -6 -27 -11t-57 -5zM535 731q81 0 141.5 19t101 53
t60.5 81.5t20 104.5q0 110 -76 169t-229 59h-215v-482q83 -4 197 -4z" />
    <glyph glyph-name="Q" unicode="Q" horiz-adv-x="1362" 
d="M1116 -299q-57 0 -87.5 8.5t-47.5 24.5l-270 237h-29q-131 0 -240.5 47.5t-188 138.5t-122 223.5t-43.5 303.5t43.5 304t122 225t188 140t240.5 48q130 0 239 -48t187.5 -140t122 -225t43.5 -304q0 -128 -25 -234.5t-71 -191t-112 -145.5t-148 -97l284 -237
q16 -14 20.5 -23.5t4.5 -17.5q0 -6 -3.5 -13t-11.5 -12q-20 -12 -96 -12zM682 135q93 0 165.5 37t123 107t76.5 172t26 233q0 130 -26 233t-76.5 174t-123 108.5t-165.5 37.5q-94 0 -167 -37.5t-123.5 -108.5t-76.5 -174t-26 -233q0 -131 26 -233t76.5 -172t123.5 -107
t167 -37z" />
    <glyph glyph-name="R" unicode="R" horiz-adv-x="1155" 
d="M244 -8q-49 0 -67.5 8t-20.5 19.5t-2 31.5v1262q0 31 14 45t76 14h311q250 0 367.5 -94.5t117.5 -286.5q0 -106 -38.5 -190t-109 -132t-151.5 -71l381 -535q6 -9 9.5 -18.5t3.5 -17.5q0 -16 -17 -23q-24 -12 -92 -12q-34 0 -57.5 3.5t-30 10t-10.5 12.5l-385 555
q-67 0 -205 9v-531q0 -33 -10 -43q-7 -6 -27 -11t-57 -5zM535 731q88 0 148 19t96.5 53t52.5 81.5t16 104.5q0 86 -35 138t-105.5 71t-154.5 19h-215v-482q85 -4 197 -4z" />
    <glyph glyph-name="S" unicode="S" horiz-adv-x="1075" 
d="M518 -29q-87 0 -152.5 11t-115 27t-84.5 35t-60 34q-34 20 -43.5 33.5t-9.5 25.5q0 13 15.5 42t29.5 48q23 27 41 27q11 0 31 -14q12 -8 24.5 -15.5t24.5 -15.5q34 -21 83.5 -39.5t99.5 -26.5t100 -8q106 0 184 31t109.5 85t31.5 111q0 74 -34.5 118t-106 74t-151.5 52
l-89 25q-82 23 -151 53t-118.5 74.5t-77 105.5t-27.5 146q0 91 31.5 163.5t90.5 123t144 77.5t192 27t177 -15t110 -31t51 -20q42 -18 53 -30.5t11 -20.5q0 -11 -8 -37.5t-21 -48.5q-9 -18 -17.5 -26.5t-19.5 -8.5q-18 0 -35 8q-10 5 -45 19.5t-54.5 22t-41.5 12.5
q-75 16 -158 16q-70 0 -122.5 -16.5t-87.5 -46t-52.5 -69t-17.5 -85.5q0 -45 19 -78t55 -58.5t88 -46t118 -38.5l109 -31q137 -39 220.5 -92.5t117 -130t33.5 -162.5q0 -103 -33.5 -180.5t-97 -130t-155 -79t-208.5 -26.5z" />
    <glyph glyph-name="T" unicode="T" horiz-adv-x="1094" 
d="M547 -8q-34 0 -54 5t-26 11q-12 9 -12 43v1161h-400q-17 0 -23 3t-9 6q-9 9 -9 32q0 26 4.5 55.5t12.5 43.5q8 12 21 16t36 4h950q17 0 23.5 -2.5t9.5 -5.5q8 -8 8 -33q0 -30 -4.5 -57.5t-11.5 -40.5q-8 -12 -21 -16.5t-36 -4.5h-363v-1161q0 -34 -12 -43q-6 -6 -26 -11
t-58 -5z" />
    <glyph glyph-name="U" unicode="U" horiz-adv-x="1307" 
d="M653 -29q-139 0 -236 34.5t-158 95.5t-88.5 145t-27.5 184v891q0 33 11 43q6 6 26.5 11t59.5 5q34 0 53.5 -5t25.5 -11q11 -10 11 -43v-913q0 -55 19 -104.5t59 -87.5t100.5 -60.5t144.5 -22.5t145 22.5t101 60.5t59 87.5t19 104.5v913q0 27 5.5 37.5t28 16t60.5 5.5
q50 0 68 -8.5t21 -19.5t3 -31v-891q0 -100 -27.5 -184t-88.5 -145t-158 -95.5t-236 -34.5z" />
    <glyph glyph-name="V" unicode="V" horiz-adv-x="1116" 
d="M559 -14q-51 0 -69 9t-25 30l-451 1296q-4 12 -4 25q0 10 10 20q5 5 24.5 9.5t57.5 4.5q82 0 101 -59l358 -1038l357 1038q9 29 15.5 38.5t27.5 15t55 5.5q38 0 58 -5t26 -11t6 -18q0 -7 -10 -43l-445 -1278q-7 -21 -25 -30t-67 -9z" />
    <glyph glyph-name="W" unicode="W" horiz-adv-x="1591" 
d="M481 -14q-53 0 -73.5 10t-24.5 29l-369 1296q-4 14 -4 25q0 10 8 18q7 6 28.5 11t59.5 5q35 0 55.5 -5t26.5 -11q12 -11 21 -43l276 -1038l228 845l-54 193q-4 14 -4 25t9 18q6 6 27.5 11t60.5 5q34 0 54.5 -5t27.5 -11q11 -12 20 -43l262 -1038l275 1038q6 25 14 36.5
t28.5 17t55.5 5.5q38 0 61 -5t29 -11q6 -4 6 -18q1 -7 -4 -25l-369 -1296q-5 -19 -24 -29t-72 -10q-34 0 -57 5t-29 15t-8 19l-227 817l-217 -817q-5 -19 -25 -29t-72 -10z" />
    <glyph glyph-name="X" unicode="X" horiz-adv-x="1081" 
d="M98 -8q-38 0 -53 4.5t-20 7.5q-15 7 -15 23q0 9 10 28l420 641l-397 621q-10 18 -10 29q0 6 4 12.5t9.5 9.5t24 7.5t56.5 4.5q45 0 66.5 -7.5t35.5 -29.5l316 -501l321 501q12 19 31 28t66 9q38 0 52 -4.5t19 -7.5q6 -3 9.5 -9.5t3.5 -12.5q0 -19 -15 -39l-391 -600
l420 -652q10 -19 10 -28q0 -16 -14 -23q-5 -3 -24.5 -7.5t-57.5 -4.5q-45 0 -69 7.5t-38 29.5l-331 530l-338 -530q-14 -22 -35 -29.5t-66 -7.5z" />
    <glyph glyph-name="Y" unicode="Y" horiz-adv-x="1096" 
d="M541 -8q-49 0 -67.5 8t-20.5 19.5t-2 31.5v537l-424 719q-17 27 -17 39q0 6 4 12.5t11 9.5q20 12 75 12q45 0 65.5 -7.5t33.5 -29.5l352 -591l354 591q10 19 29 28t65 9q39 0 54 -4.5t20 -7.5q6 -3 9 -9.5t3 -12.5q0 -17 -14 -39l-434 -719v-537q0 -33 -10 -43
q-7 -6 -27.5 -11t-58.5 -5z" />
    <glyph glyph-name="Z" unicode="Z" horiz-adv-x="967" 
d="M76 0q-35 0 -47 12q-7 6 -11 20.5t-4 45.5t4.5 47.5t14.5 30.5l684 1056h-651q-17 0 -23.5 3t-9.5 6q-8 8 -8 32q0 26 4 55.5t12 43.5q8 12 21 16t36 4h776q34 0 48 -12q6 -6 10 -20.5t4 -45.5t-4.5 -47t-13.5 -30l-685 -1057h682q17 0 23.5 -2.5t9.5 -5.5q8 -8 8 -33
q0 -26 -4 -55.5t-12 -43.5q-8 -12 -21 -16t-36 -4h-807z" />
    <glyph glyph-name="bracketleft" unicode="[" horiz-adv-x="586" 
d="M244 -393q-62 0 -76 14t-14 45v1647q0 31 14 45t76 14h258q32 0 41 -12q5 -6 8.5 -20t3.5 -40t-3.5 -39.5t-8.5 -19.5q-9 -12 -41 -12h-174v-1479h174q32 0 41 -12q5 -6 8.5 -20t3.5 -40t-3.5 -39.5t-8.5 -19.5q-9 -12 -41 -12h-258z" />
    <glyph glyph-name="backslash" unicode="\" horiz-adv-x="647" 
d="M563 0q-30 0 -46.5 3t-23.5 13t-12 23l-458 1247q-13 36 -13 53q0 13 16 23t56 10q72 0 86 -39l457 -1247q12 -34 12 -53q0 -13 -17 -23t-57 -10z" />
    <glyph glyph-name="bracketright" unicode="]" horiz-adv-x="586" 
d="M84 -393q-33 0 -41 12q-12 15 -12 59q0 26 3.5 40t8.5 20q8 12 41 12h174v1479h-174q-33 0 -41 12q-12 14 -12 59t12 60q8 12 41 12h258q62 0 76 -14t14 -45v-1647q0 -27 -7.5 -37t-25 -16t-57.5 -6h-258z" />
    <glyph glyph-name="asciicircum" unicode="^" horiz-adv-x="973" 
d="M205 549q-28 0 -50 5.5t-26 13.5t-4 14q0 17 16 51l246 586q14 34 38.5 42.5t59.5 8.5t60 -8.5t39 -42.5l250 -586q16 -34 16 -51q0 -13 -15.5 -23t-64.5 -10q-38 0 -56.5 5.5t-26 15t-13.5 24.5l-189 448l-184 -448q-10 -26 -29 -35.5t-67 -9.5z" />
    <glyph glyph-name="underscore" unicode="_" horiz-adv-x="1024" 
d="M0 -340v102h1024v-102h-1024z" />
    <glyph glyph-name="grave" unicode="`" horiz-adv-x="1024" 
d="M596 1012q-20 0 -33 3t-22 9q-7 4 -37 39l-133 164q-28 34 -41 55t-13 35q0 23 29 29t74 6q35 0 59.5 -9.5t42.5 -39.5l133 -216q17 -26 17 -49q0 -11 -14 -18.5t-62 -7.5z" />
    <glyph glyph-name="a" unicode="a" horiz-adv-x="901" 
d="M328 -20q-52 0 -102 15t-89.5 47.5t-63.5 84t-24 125.5q0 109 52.5 176.5t133 93.5t156.5 33l227 20v21q0 55 -28 98t-75.5 59.5t-98.5 16.5q-62 0 -112.5 -16t-119.5 -47q-20 -11 -41 -11q-14 0 -25.5 14.5t-21.5 34.5q-14 31 -14 52q0 12 11.5 23.5t43.5 27.5
q50 25 95 38.5t96 20t102 6.5q84 0 151 -23t115 -71q44 -45 66 -111t22 -163v-369q0 -34 7 -59.5t12 -36.5q12 -32 12 -37q0 -25 -46.5 -41t-72.5 -16q-12 0 -20 5.5t-14 16.5q-19 28 -35 96q-65 -65 -139 -94.5t-160 -29.5zM352 121q45 0 91.5 13t88.5 45.5t64 83t22 110.5
v65l-229 -20q-80 -8 -126 -46t-46 -110q0 -37 11.5 -63.5t30 -44t43 -25.5t50.5 -8z" />
    <glyph glyph-name="b" unicode="b" horiz-adv-x="1024" 
d="M557 -20q-54 0 -95.5 10t-74.5 26.5t-58 39t-46 46.5v-53q0 -32 -13 -41q-6 -6 -21.5 -11t-49.5 -5q-31 0 -45.5 4t-20.5 10q-12 9 -12 41v1251q0 38 14 52q9 9 66 22q28 8 51 8q20 0 31 -6q12 -9 12 -39v-547q34 44 75 71.5t94 40.5t103 13q135 0 226 -71.5t124 -176.5
t33 -204q0 -111 -29 -200t-81 -151.5t-124 -96t-159 -33.5zM524 133q62 0 108 25t76 68.5t45 102t15 126.5q0 101 -33 172t-90 101t-121 30q-61 0 -106 -26t-74.5 -69t-44 -97t-14.5 -111q0 -69 14.5 -128t44 -102t74.5 -67.5t106 -24.5z" />
    <glyph glyph-name="c" unicode="c" horiz-adv-x="795" 
d="M479 -20q-83 0 -156.5 28t-129 86t-87.5 145.5t-32 206.5q0 102 30 187.5t84.5 147.5t131.5 97t172 35q55 0 99 -10t93 -29q46 -20 61 -34.5t15 -30.5q0 -13 -19 -64q-24 -49 -49 -49q-11 0 -71 29q-33 15 -64.5 23t-71.5 8q-51 0 -93.5 -24t-73.5 -65.5t-48.5 -98
t-17.5 -122.5q0 -68 17 -123.5t47.5 -95.5t73 -62t93.5 -22q42 0 70.5 7.5t54 19t46 23.5t38.5 12q24 0 56 -49q22 -44 22 -58t-11.5 -27t-45.5 -30q-47 -25 -103 -43t-131 -18z" />
    <glyph glyph-name="d" unicode="d" horiz-adv-x="1024" 
d="M457 -20q-87 0 -157.5 33t-121 93t-77.5 145.5t-27 190.5t27 191.5t77.5 148.5t123.5 96.5t165 34.5q50 0 89.5 -9.5t71.5 -26.5t56.5 -40t44.5 -49v510q0 39 14 52q12 10 66 22q42 8 51 8q21 0 31 -6q12 -9 12 -39v-1288q0 -32 -12 -41q-6 -6 -20.5 -10t-45.5 -4
q-34 0 -49.5 5t-21.5 11q-13 9 -13 41v53q-39 -44 -81 -71t-95.5 -39t-107.5 -12zM500 133q88 0 144 51.5t75.5 126.5t19.5 144q0 88 -34 163.5t-89.5 107.5t-115.5 32q-93 0 -150.5 -52t-75.5 -125t-18 -137q0 -68 15 -125t45 -98t76 -64.5t108 -23.5z" />
    <glyph glyph-name="e" unicode="e" horiz-adv-x="938" 
d="M498 -20q-96 0 -174.5 33.5t-134 95t-85.5 148t-30 192.5q0 105 29 190.5t82.5 146.5t128 94t165.5 33q140 0 232.5 -70t125.5 -176t33 -212q0 -35 -18 -47q-18 -15 -72 -15h-528q7 -55 27.5 -101.5t53 -80t75.5 -52t94 -18.5q53 0 86.5 7.5t70.5 21.5q25 9 45.5 21
t38.5 12q22 0 33.5 -14t22.5 -35q22 -44 22 -56q0 -14 -11.5 -27t-45.5 -30q-50 -24 -87 -36t-84.5 -18.5t-94.5 -6.5zM258 537h430q-3 77 -36 134.5t-80.5 79t-94.5 21.5q-95 0 -148.5 -63t-70.5 -172z" />
    <glyph glyph-name="f" unicode="f" horiz-adv-x="623" 
d="M254 -8q-31 0 -48.5 4t-23.5 10q-12 9 -12 41v703h-115q-26 0 -34.5 4t-9.5 12t-1 25q0 52 19 81q8 13 19 17t34 4h88v147q0 114 43 194.5t117.5 113t156.5 32.5q57 0 97.5 -7.5t66.5 -16.5q27 -10 43 -18.5t24 -15.5t10.5 -13.5t2.5 -12.5q0 -20 -14 -53
q-24 -51 -47 -51q-15 0 -62 20q-23 10 -48 15.5t-56 5.5q-69 0 -107 -33.5t-45.5 -82.5t-7.5 -91v-133h227q31 0 38 -7t7 -34q0 -26 -5 -46.5t-11 -31.5q-15 -24 -55 -24h-201v-701q0 -29 -12 -41q-6 -6 -24.5 -11t-53.5 -5z" />
    <glyph glyph-name="g" unicode="g" horiz-adv-x="901" 
d="M463 -406q-99 0 -175.5 19t-128.5 54t-79 83t-27 107q0 66 26 114t65 75t73 42q-45 28 -64.5 62t-19.5 69q0 38 23 75t65 58q-52 32 -83.5 71t-44.5 84.5t-13 92.5q0 100 54 170.5t139 100.5t178 30q72 0 122.5 -11.5t92.5 -33.5q38 42 72 68t59 39q32 16 47 16
q27 0 49 -36t22 -58t-18 -31q-28 -17 -66 -31q-48 -29 -65 -45q25 -35 38 -79.5t13 -98.5q0 -63 -25 -117t-72 -93.5t-113.5 -62t-149.5 -22.5q-25 0 -56 3.5t-51 8.5q-18 -11 -31.5 -27t-13.5 -38q0 -24 18 -39.5t56.5 -26.5t85.5 -18l88 -14q135 -23 212 -60t104.5 -93.5
t27.5 -119.5q0 -102 -68 -171.5t-169.5 -92.5t-196.5 -23zM473 -272q76 0 132.5 18t81 51.5t24.5 69.5q0 56 -41.5 85t-112.5 42l-174 31q-11 3 -23 5t-30 7q-35 -20 -60.5 -45t-36 -53t-10.5 -56q0 -57 40.5 -93t99.5 -49t110 -13zM453 428q68 0 114 25t65 65.5t19 81.5
q0 85 -53.5 129.5t-144.5 44.5q-94 0 -150.5 -43t-56.5 -131q0 -62 32 -103t80 -55t95 -14z" />
    <glyph glyph-name="h" unicode="h" horiz-adv-x="1006" 
d="M205 -8q-31 0 -48.5 4t-23.5 10q-12 9 -12 41v1251q0 39 14 52q12 12 70 24q30 6 47 6q24 0 31 -4q12 -9 12 -41v-553q30 40 77 71t100 45.5t97 14.5q122 0 197.5 -53.5t100 -132t24.5 -152.5v-526q0 -32 -12 -41q-7 -6 -25 -11t-53 -5q-31 0 -48.5 4t-23.5 10
q-12 9 -12 41v508q0 105 -48.5 156t-142.5 51q-64 0 -122.5 -41t-83.5 -95.5t-25 -101.5v-475q0 -32 -12 -41q-7 -6 -25 -11t-53 -5z" />
    <glyph glyph-name="i" unicode="i" horiz-adv-x="416" 
d="M205 -8q-31 0 -48.5 4t-23.5 10q-12 9 -12 41v776q0 20 3 31.5t11 19.5q11 13 70 25q30 6 47 6q25 0 31 -6q12 -9 12 -39v-811q0 -32 -12 -41q-7 -6 -25 -11t-53 -5zM207 1112q-32 0 -60.5 20t-37.5 43t-9 46q0 30 17 58.5t41.5 40t48.5 11.5q28 0 56 -17t40 -43.5
t12 -49.5q0 -32 -18.5 -60.5t-43 -38.5t-46.5 -10z" />
    <glyph glyph-name="j" unicode="j" horiz-adv-x="408" 
d="M-6 -406q-60 0 -103 10.5t-67 24.5q-14 9 -19 17t-5 16q0 12 9 36t21 44t35 20q14 0 24.5 -4.5t24.5 -7.5q40 -10 63 -10q26 0 53.5 8.5t49.5 36.5q15 22 25 59.5t10 108.5v870q0 20 3 31.5t11 19.5q11 13 70 25q30 6 47 6q24 0 30 -6q13 -10 13 -39v-889
q0 -87 -9.5 -138t-33.5 -101q-31 -62 -95 -100t-157 -38zM201 1112q-33 0 -61 19.5t-37 43t-9 46.5q0 30 17 58.5t41.5 40t48.5 11.5q28 0 56 -17t40 -43.5t12 -49.5q0 -32 -18.5 -60.5t-43.5 -38.5t-46 -10z" />
    <glyph glyph-name="k" unicode="k" horiz-adv-x="899" 
d="M205 -8q-31 0 -48.5 4t-23.5 10q-12 9 -12 41v1251q0 39 14 52q12 12 70 24q30 6 47 6q24 0 31 -4q12 -9 12 -41v-784l340 321q15 15 35 22t71 7q60 0 80 -10q13 -10 13 -23q0 -8 -4.5 -17t-16.5 -20l-350 -323l416 -447q20 -23 20 -36q0 -14 -12 -23q-20 -10 -90 -10
q-29 0 -47.5 2t-31 5.5t-20 8.5t-14.5 12l-389 429v-400q0 -32 -12 -41q-7 -6 -25 -11t-53 -5z" />
    <glyph glyph-name="l" unicode="l" horiz-adv-x="416" 
d="M205 -8q-31 0 -48.5 4t-23.5 10q-12 9 -12 41v1251q0 39 14 52q12 12 70 24q30 6 47 6q24 0 31 -4q12 -9 12 -41v-1286q0 -32 -12 -41q-7 -6 -25 -11t-53 -5z" />
    <glyph glyph-name="m" unicode="m" horiz-adv-x="1507" 
d="M205 -8q-31 0 -48.5 4t-23.5 10q-12 9 -12 41v776q0 20 3 31.5t11 19.5q11 13 70 25q30 6 47 6q25 0 31 -6q12 -9 12 -39v-76q29 41 72 71.5t90 44t94 13.5q96 0 159.5 -40.5t98.5 -112.5q51 68 124.5 110.5t164.5 42.5q117 0 185 -50.5t89 -127.5t21 -149v-537
q0 -32 -13 -41q-6 -6 -24 -11t-53 -5q-31 0 -48.5 4t-23.5 10q-12 9 -12 41v512q0 78 -18.5 123t-56.5 62.5t-87 17.5q-59 0 -114 -44t-77 -93.5t-22 -83.5v-492q0 -32 -13 -41q-6 -6 -24 -11t-53 -5q-31 0 -48.5 4t-23.5 10q-12 9 -12 41v512q0 75 -19 121t-57.5 64
t-85.5 18q-62 0 -116.5 -43.5t-75.5 -93.5t-21 -84v-492q0 -32 -12 -41q-7 -6 -25 -11t-53 -5z" />
    <glyph glyph-name="n" unicode="n" horiz-adv-x="1006" 
d="M205 -8q-31 0 -48.5 4t-23.5 10q-12 9 -12 41v776q0 20 3 31.5t11 19.5q11 13 70 25q30 6 47 6q25 0 31 -6q12 -9 12 -39v-78q32 43 77 72.5t97.5 44t99.5 14.5q122 0 197.5 -53.5t100 -132t24.5 -152.5v-526q0 -32 -12 -41q-7 -6 -25 -11t-53 -5q-31 0 -48.5 4t-23.5 10
q-12 9 -12 41v508q0 105 -48.5 156t-142.5 51q-47 0 -89 -19.5t-73.5 -52.5t-50 -76t-18.5 -90v-475q0 -32 -12 -41q-7 -6 -25 -11t-53 -5z" />
    <glyph glyph-name="o" unicode="o" horiz-adv-x="1004" 
d="M502 -20q-91 0 -169 33t-135.5 94t-90.5 147t-33 192q0 105 32.5 191.5t90 147.5t135.5 94.5t170 33.5q137 0 240.5 -72t145.5 -180.5t42 -214.5q0 -105 -32.5 -191t-90 -147t-136 -94.5t-169.5 -33.5zM502 129q84 0 145 51.5t83 125.5t22 140q0 99 -36.5 176.5
t-95.5 109.5t-118 32t-105.5 -25t-78.5 -68t-49 -101t-17 -124t16.5 -124t48.5 -100.5t78.5 -67.5t106.5 -25z" />
    <glyph glyph-name="p" unicode="p" horiz-adv-x="1024" 
d="M205 -393q-31 0 -48.5 4t-23.5 10q-12 9 -12 41v1161q0 20 3 31.5t11 19.5q11 13 70 25q30 6 47 6q25 0 31 -6q12 -9 12 -39v-72q34 44 75 71.5t94 40.5t103 13q135 0 226 -71.5t124 -176.5t33 -204q0 -111 -29 -200t-81 -151.5t-124 -96t-159 -33.5q-50 0 -89.5 8.5
t-71.5 23.5t-56.5 35t-44.5 43v-426q0 -32 -12 -41q-7 -6 -25 -11t-53 -5zM524 133q62 0 108 25t76 68.5t45 102t15 126.5q0 101 -33 172t-90 101t-121 30q-61 0 -106 -26t-74.5 -69t-44 -97t-14.5 -111q0 -69 14.5 -128t44 -102t74.5 -67.5t106 -24.5z" />
    <glyph glyph-name="q" unicode="q" horiz-adv-x="1024" 
d="M825 -393q-34 0 -49.5 5t-21.5 11q-13 10 -13 41v438q-39 -44 -81 -71t-95.5 -39t-107.5 -12q-87 0 -157.5 33t-121 93t-77.5 145.5t-27 190.5t27 191.5t77.5 148.5t123.5 96.5t165 34.5q50 0 89.5 -9.5t71.5 -26.5t56.5 -40t44.5 -49v56q0 32 12 41q7 6 25 11t53 5
q31 0 48.5 -4t23.5 -10q12 -9 12 -41v-1184q0 -32 -12 -41q-6 -6 -20.5 -10t-45.5 -4zM500 133q88 0 144 51.5t75.5 126.5t19.5 144q0 88 -34 163.5t-89.5 107.5t-115.5 32q-93 0 -150.5 -52t-75.5 -125t-18 -137q0 -68 15 -125t45 -98t76 -64.5t108 -23.5z" />
    <glyph glyph-name="r" unicode="r" horiz-adv-x="682" 
d="M205 -8q-31 0 -48.5 4t-23.5 10q-12 9 -12 41v776q0 20 3 31.5t11 19.5q11 13 70 25q30 6 47 6q25 0 31 -6q12 -9 12 -39v-96q21 42 60.5 75.5t82 49.5t76.5 16q31 0 57.5 -6.5t49.5 -15.5q27 -11 44 -24.5t17 -29.5q0 -11 -20 -61q-27 -53 -46 -53q-14 0 -26 7t-31 13
q-43 15 -74 15q-53 0 -101.5 -48.5t-68.5 -111.5t-20 -119v-422q0 -32 -12 -41q-7 -6 -25 -11t-53 -5z" />
    <glyph glyph-name="s" unicode="s" horiz-adv-x="786" 
d="M395 -20q-62 0 -110 7t-85.5 17.5t-64.5 22.5t-45 22q-31 16 -42 27.5t-11 23.5q0 25 24 66q16 25 27.5 31t24.5 6q17 0 38.5 -11.5t36.5 -17.5q44 -21 99.5 -33t105.5 -12q60 0 102.5 15t60 42.5t17.5 59.5q0 53 -39.5 83.5t-134.5 47.5l-69 12q-53 9 -103 27.5
t-88.5 48.5t-62 73.5t-23.5 104.5q0 94 54.5 158t132.5 88t151 24q65 0 123.5 -10t118.5 -33q35 -12 48 -23.5t13 -25.5q0 -19 -14 -57q-17 -47 -47 -47q-19 0 -39 9t-43 15q-38 11 -83 19t-91 8q-72 0 -114 -29.5t-42 -83.5q0 -46 44 -74t122 -42l90 -17q60 -11 110 -28
t86.5 -47t56.5 -76t20 -113q0 -98 -57.5 -164t-139.5 -90t-158 -24z" />
    <glyph glyph-name="t" unicode="t" horiz-adv-x="649" 
d="M420 -20q-62 0 -106.5 15.5t-73.5 41.5q-39 34 -54.5 88.5t-15.5 132.5v492h-115q-26 0 -34.5 4t-9.5 12t-1 25q0 52 19 81q8 13 19 17t34 4h88v213q0 40 14 51q17 14 70 25q30 6 47 6q24 0 31 -4q12 -9 12 -41v-250h225q31 0 38 -7t7 -34q0 -26 -5 -46.5t-11 -31.5
q-15 -24 -55 -24h-199v-510q0 -56 22.5 -85.5t73.5 -29.5q47 0 97 25q12 6 21.5 12t23.5 6q19 0 47 -43q20 -32 20 -49t-17 -31t-36 -25q-26 -14 -68 -27t-108 -13z" />
    <glyph glyph-name="u" unicode="u" horiz-adv-x="1006" 
d="M436 -20q-79 0 -139 25t-100.5 70t-61 106.5t-20.5 135.5v527q0 29 12 41q6 6 24.5 11t53.5 5q31 0 48 -4t23 -10q13 -10 13 -41v-508q0 -104 52 -155.5t138 -51.5q67 0 124.5 41.5t82.5 95.5t25 101v475q0 32 12 41q6 6 24.5 11t53.5 5q31 0 48 -4t23 -10q13 -10 13 -41
v-799q0 -28 -13 -41q-6 -6 -20.5 -10t-46.5 -4t-48 4t-22 10q-12 9 -12 43v80q-30 -48 -81.5 -85t-106 -50.5t-99.5 -13.5z" />
    <glyph glyph-name="v" unicode="v" horiz-adv-x="866" 
d="M432 -10q-35 0 -58 7t-32 30l-317 786q-15 34 -15 51q0 14 18.5 25.5t73.5 11.5q42 0 64.5 -7.5t30.5 -29.5l239 -637l240 629q10 28 31.5 36.5t68.5 8.5q49 0 64.5 -10t15.5 -23q0 -17 -16 -51l-318 -790q-9 -23 -32 -30t-58 -7z" />
    <glyph glyph-name="w" unicode="w" horiz-adv-x="1305" 
d="M373 -10q-35 0 -58.5 7t-31.5 30l-263 790q-10 28 -10 45q0 13 9 21t29 13t46 5q45 0 65.5 -7t28.5 -30l199 -657l195 469l-50 141q-10 28 -10 45q0 13 6 20.5t27 13t47 5.5q45 0 65.5 -7t28.5 -30l203 -633l221 625q11 27 29.5 36t69.5 9q40 0 57.5 -9t17.5 -24
q0 -12 -14 -51l-295 -790q-9 -23 -32 -30t-58 -7t-58.5 7t-31.5 30l-160 460l-182 -460q-9 -23 -32 -30t-58 -7z" />
    <glyph glyph-name="x" unicode="x" horiz-adv-x="844" 
d="M94 -8q-46 0 -65 9.5t-19 23.5q0 11 27 51l282 387l-253 354q-27 39 -27 51q0 14 19.5 23.5t66.5 9.5q49 0 71.5 -8t34.5 -25l193 -276l194 276q11 17 34 25t69 8t64 -8.5t18 -22.5q0 -11 -29 -53l-254 -348l285 -393q29 -42 29 -56q0 -28 -91 -28q-49 0 -72.5 8
t-35.5 25l-217 311l-219 -311q-12 -18 -35 -25.5t-70 -7.5z" />
    <glyph glyph-name="y" unicode="y" horiz-adv-x="911" 
d="M266 -406q-43 0 -61.5 10.5t-18.5 24.5q0 13 17 49l180 406l-354 733q-15 31 -15 45q0 11 9.5 19.5t32 14t50.5 5.5q42 0 63.5 -7.5t31.5 -29.5l272 -577l252 569q11 27 32 36t68 9q49 0 64.5 -10t15.5 -23q0 -17 -16 -51l-522 -1177q-12 -27 -32.5 -36.5t-68.5 -9.5z
" />
    <glyph glyph-name="z" unicode="z" horiz-adv-x="776" 
d="M80 0q-17 0 -28 2t-17 8t-10.5 18.5t-4.5 43.5q0 40 31 82l457 596h-422q-26 0 -34.5 4t-9.5 12t-1 25q0 51 18 81q8 13 19.5 17t34.5 4h563q35 0 45 -10q14 -17 14 -62q0 -31 -4.5 -44t-13.5 -25l-467 -609h461q31 0 38 -7t7 -34q0 -26 -5 -46t-12 -31q-15 -25 -55 -25
h-604z" />
    <glyph glyph-name="braceleft" unicode="{" horiz-adv-x="664" 
d="M510 -389q-75 0 -130.5 25.5t-92 69t-54.5 100.5t-18 120q0 53 3 105t3 104q0 86 -14 147t-53.5 93.5t-96.5 32.5q-11 0 -17 10t-9 23t-3.5 26.5t-0.5 21.5q0 40 0.5 45.5t7.5 14.5t22 12q43 8 61 17t52 45q32 36 41.5 87.5t9.5 123.5q0 49 -2 97t-2 97q0 67 19 126.5
t56 104.5t91.5 71t126.5 26h106q19 0 26 -15t7 -32v-21q0 -66 -16 -75t-98 -9q-52 0 -79.5 -24.5t-33.5 -59.5t-6 -69v-258q0 -92 -19.5 -158t-54.5 -101t-82 -51q63 -24 100 -81t46.5 -118.5t9.5 -109.5v-237q0 -80 29.5 -118.5t78 -46.5t92.5 -8q20 0 25.5 -25t5.5 -63
q0 -24 -4 -37.5t-10.5 -20.5t-16.5 -7h-106z" />
    <glyph glyph-name="bar" unicode="|" horiz-adv-x="416" 
d="M205 -315q-31 0 -48.5 4t-23.5 10q-12 9 -12 41v1585q0 32 12 41q6 5 23.5 9.5t48.5 4.5q35 0 53 -5t25 -11q12 -9 12 -41v-1581q0 -32 -12 -41q-7 -6 -25 -11t-53 -5z" />
    <glyph glyph-name="braceright" unicode="}" horiz-adv-x="664" 
d="M47 -389q-20 0 -26.5 15t-6.5 32v20q0 36 4.5 54t17 24.5t35 6t58.5 -0.5q51 0 78.5 24.5t34 60t6.5 69.5v258q0 86 17.5 152t53.5 103t84 54q-64 23 -100.5 79.5t-45.5 119.5t-9 111v237q0 80 -30.5 119.5t-78 46t-92.5 6.5q-12 0 -18 9.5t-9 23t-3.5 29t-0.5 26.5
q0 18 3 34.5t10.5 24t17.5 7.5h107q106 0 177.5 -54.5t94.5 -127t23 -134.5q0 -52 -3.5 -104t-3.5 -105q0 -44 4.5 -92t21 -88t49 -66t89.5 -26q19 0 25 -26t6 -56q0 -39 -0.5 -44.5t-8.5 -14.5t-22 -12q-39 -8 -60 -18.5t-52 -43.5q-34 -36 -43 -88t-9 -123q0 -49 2 -97
t2 -97q0 -103 -42.5 -182.5t-111 -112.5t-138.5 -33h-107z" />
    <glyph glyph-name="asciitilde" unicode="~" horiz-adv-x="973" 
d="M106 594q-18 0 -27 8.5t-9 28.5q0 50 19 97t51.5 84t75.5 59t91 22t89 -11.5t79 -31.5q50 -25 88 -46.5t64 -21.5q47 0 68.5 17.5t33.5 55.5q10 30 25.5 42t44.5 12h61q19 0 24 -1t8 -5t3 -12q0 -86 -33 -157.5t-85.5 -99.5t-108.5 -28q-38 0 -85 17.5t-116 50.5
q-98 43 -143 43q-39 0 -60 -16t-30.5 -41t-16.5 -46q-4 -12 -18 -16.5t-31 -5.5t-34.5 0.5t-27.5 1.5z" />
    <glyph glyph-name="uni00A0" unicode="&#xa0;" horiz-adv-x="512" 
 />
    <glyph glyph-name="exclamdown" unicode="&#xa1;" horiz-adv-x="395" 
d="M199 -16q-62 0 -75 13t-13 38v915q0 28 12 37q6 5 24.5 9.5t53.5 4.5q31 0 48 -4t23 -10q13 -9 13 -37v-915q0 -26 -13 -37q-6 -6 -23.5 -10t-49.5 -4zM199 1137q-36 0 -67 22.5t-42.5 49t-11.5 51.5q0 35 20 64.5t48 42.5t53 13q35 0 64 -21t41.5 -48t12.5 -51
q0 -36 -20.5 -67t-47.5 -43.5t-50 -12.5z" />
    <glyph glyph-name="cent" unicode="&#xa2;" horiz-adv-x="795" 
d="M477 14q-43 0 -54 9t-11 34v152q-72 11 -133.5 44.5t-107 91t-71.5 139t-26 188.5q0 134 52 240.5t130 156t156 64.5v147q0 25 12 34t53 9t53.5 -9t12.5 -34v-143q51 -4 141 -37q45 -20 60.5 -35t15.5 -31q0 -15 -19 -63q-24 -49 -49 -49q-15 0 -31.5 8.5t-39.5 19.5
q-38 19 -78 27v-604q49 13 65 22q25 11 45.5 23t38.5 12q24 0 56 -49q22 -44 22 -57q0 -14 -11.5 -27.5t-46 -31t-76.5 -33t-93 -23.5v-152q0 -24 -11.5 -33.5t-54.5 -9.5zM412 381v586q-54 -23 -94 -75.5t-53 -109.5t-13 -110q0 -56 11 -103t32 -84.5t50.5 -64t66.5 -39.5z
" />
    <glyph glyph-name="sterling" unicode="&#xa3;" horiz-adv-x="1114" 
d="M76 0q-23 0 -29 9.5t-6 17.5v12q0 8 18 80q5 20 18.5 30.5t24.5 10.5h48l108 452h-76q-26 0 -35 9q-3 5 -4 12.5t2 19.5q27 81 37 95q10 12 23.5 16t36.5 4h53l37 154q37 155 105.5 251t162.5 131t195 35q76 0 141.5 -19.5t103.5 -39.5q26 -15 34.5 -26t8.5 -23
q0 -11 -6.5 -30t-21.5 -48q-22 -35 -45 -35q-10 0 -70 27q-81 35 -164 35q-94 0 -154 -54.5t-82.5 -118t-31.5 -102.5l-33 -137h391q27 0 35 -8q7 -11 2 -33q-6 -27 -17 -55.5t-20 -38.5q-9 -13 -22.5 -17t-36.5 -4h-369l-108 -452h608q28 0 35 -4q10 -12 10 -37
q0 -26 -4.5 -54.5t-15.5 -44.5q-15 -20 -54 -20h-833z" />
    <glyph glyph-name="currency" unicode="&#xa4;" horiz-adv-x="1217" 
d="M170 168q-5 0 -18 7t-31 26q-23 23 -31 37t-8 20q-2 8 1.5 15t14.5 18l117 112q-45 62 -69.5 135.5t-24.5 153.5q0 84 25 156.5t71 132.5l-119 115q-11 11 -14.5 17.5t-1.5 14.5q0 19 39 58q18 18 31 25.5t18 7.5q11 2 33 -17l116 -117q62 45 135.5 70t153.5 25
q82 0 154.5 -25t132.5 -70l119 117q19 19 33 17q5 0 17.5 -7.5t31.5 -25.5q23 -23 31 -37t8 -21q2 -8 -2 -14.5t-15 -17.5l-117 -115q45 -62 70 -135t25 -154t-25 -153.5t-70 -132.5l117 -115q11 -11 15 -18t2 -15q0 -18 -39 -57q-19 -19 -31.5 -26t-17.5 -7q-10 -2 -17 2.5
t-16 13.5l-117 115q-62 -45 -135 -69.5t-154 -24.5t-153.5 24.5t-132.5 69.5l-119 -115q-10 -9 -17 -13.5t-16 -2.5zM608 360q99 0 181 55.5t116.5 132t34.5 144.5q0 99 -56 180.5t-132.5 116.5t-143.5 35q-68 0 -128 -26.5t-105.5 -72t-72 -106t-26.5 -127.5
q0 -68 26.5 -128t72 -105.5t105.5 -72t128 -26.5z" />
    <glyph glyph-name="yen" unicode="&#xa5;" horiz-adv-x="1075" 
d="M530 -8q-34 0 -53.5 5t-25.5 11q-11 9 -11 43v248h-274q-27 0 -35 8q-7 11 -2 33q14 55 29 74q9 12 22.5 16t36.5 4h223v98l-34 54h-240q-27 0 -35 8q-3 5 -4 12.5t2 20.5q15 55 29 73q9 13 22.5 17t36.5 4h102l-303 475q-16 27 -16 39q0 6 4 12.5t10 9.5q5 4 21.5 8.5
t54.5 4.5q40 0 61 -8t37 -29l353 -537l354 537q13 20 31.5 28.5t62.5 8.5q38 0 53.5 -4.5t20.5 -8.5q6 -3 9 -9.5t3 -12.5q0 -17 -14 -39l-311 -475h149q27 0 35 -8q7 -11 2 -33q-15 -56 -29 -74q-9 -12 -22.5 -16t-36.5 -4h-186l-35 -54v-98h272q27 0 35 -8q3 -5 4 -12.5
t-2 -20.5q-16 -58 -29 -74q-9 -12 -22.5 -16t-36.5 -4h-221v-248q0 -34 -11 -43q-6 -6 -26.5 -11t-59.5 -5z" />
    <glyph glyph-name="brokenbar" unicode="&#xa6;" horiz-adv-x="416" 
d="M205 -315q-37 0 -53.5 4t-23.5 17t-7 34v672q0 20 13 26t32 6h86q43 0 43 -24v-678q-4 -39 -23 -48t-67 -9zM162 610q-13 0 -23 3.5t-14 10.5t-4 21v680q0 32 12 41q6 5 23.5 9.5t48.5 4.5q35 0 53 -5t25 -11q12 -9 12 -41v-668q0 -21 -8 -33t-25 -12h-100z" />
    <glyph glyph-name="section" unicode="&#xa7;" horiz-adv-x="895" 
d="M432 -147q-106 0 -186 24.5t-142 56.5q-35 20 -44 32t-9 22q0 21 17 55q23 47 53 47q7 0 21 -5.5t48 -21.5t62 -26t81 -22.5t107 -12.5q44 0 85 8t73 26t51 47.5t19 72.5q0 70 -50.5 111.5t-160.5 70.5l-125 33q-55 15 -102.5 36.5t-83 52.5t-56 72.5t-20.5 96.5
q0 37 7 70t25 62.5t48.5 55.5t76.5 47q-72 35 -114.5 92.5t-42.5 149.5q0 101 58 171.5t145 97t176 26.5q72 0 135 -13.5t131 -37.5q37 -15 49 -26.5t12 -20.5q0 -16 -8.5 -45t-20.5 -45.5t-26 -16.5q-18 0 -49 14q-38 17 -105.5 32t-140.5 15q-60 0 -107.5 -21.5t-66.5 -56
t-19 -71.5q0 -32 14.5 -56t41.5 -42.5t64.5 -32t82.5 -23.5l109 -24q116 -28 178 -57.5t91.5 -84t29.5 -124.5q0 -94 -45 -154t-117 -94q82 -35 122 -94t40 -156q0 -108 -61.5 -182.5t-157.5 -102.5t-193 -28zM528 485q47 8 81 31.5t49.5 57t15.5 71.5q0 61 -53 99t-179 57
q-43 0 -80 -9t-64 -27.5t-42.5 -46.5t-15.5 -65q0 -48 25.5 -78t66.5 -48t92.5 -27t103.5 -15z" />
    <glyph glyph-name="dieresis" unicode="&#xa8;" horiz-adv-x="1024" 
d="M362 1012q-29 0 -57 18t-37.5 42t-9.5 46q0 47 29.5 78t74.5 31q31 0 57 -17t38 -43t12 -49q0 -45 -30 -75.5t-77 -30.5zM641 1012q-29 0 -57 18t-37.5 42t-9.5 46q0 47 29.5 78t74.5 31q30 0 56.5 -17.5t38.5 -43t12 -48.5q0 -33 -17 -59t-42 -36.5t-48 -10.5z" />
    <glyph glyph-name="copyright" unicode="&#xa9;" horiz-adv-x="1675" 
d="M838 -31q-101 0 -195 26t-175.5 73.5t-149 114t-115.5 148t-74.5 175t-26.5 194.5q0 158 65 300t178 243.5t242.5 146t250.5 44.5q101 0 194.5 -26.5t175 -74.5t149 -115t115.5 -149t74.5 -175.5t26.5 -193.5q0 -129 -46 -252t-127.5 -219.5t-189 -158.5t-198 -81.5
t-174.5 -19.5zM838 121q118 0 220 46.5t177.5 126t118.5 184.5t43 222t-42.5 222.5t-117.5 185.5t-177 127t-222 47q-119 0 -221.5 -47t-177.5 -127t-117.5 -185.5t-42.5 -222.5t42.5 -222t117.5 -184.5t177.5 -126t221.5 -46.5zM846 305q-78 0 -145 26.5t-116 77t-76.5 124
t-27.5 167.5q0 141 59 236.5t143.5 129.5t166.5 34q57 0 100.5 -8t87.5 -23q41 -14 56.5 -27.5t15.5 -27.5q0 -26 -18 -58q-10 -18 -20.5 -28t-24.5 -10q-16 0 -64 20q-14 6 -48 15.5t-85 9.5q-39 0 -74.5 -14t-61.5 -45.5t-41.5 -81.5t-15.5 -122q0 -69 17.5 -117.5
t46 -78.5t65 -44t74.5 -14q48 0 78.5 7t56.5 16q44 14 49 14q21 0 48 -45q16 -28 16 -45q0 -23 -23 -37q-29 -19 -81 -32q-69 -19 -158 -19z" />
    <glyph glyph-name="ordfeminine" unicode="&#xaa;" horiz-adv-x="711" 
d="M152 508q-29 0 -35 4q-11 6 -11 41q0 8 6.5 30t14.5 35q8 16 19 20.5t34 4.5h361q27 0 34 -4q11 -7 11 -41q0 -13 -9.5 -37.5t-11.5 -28.5q-16 -24 -53 -24h-360zM279 731q-32 0 -64.5 9.5t-58.5 29.5t-42 52.5t-16 78.5q0 60 26.5 98.5t70 57.5t94 27t81.5 9t66 5
q0 35 -25.5 59.5t-80.5 24.5q-38 0 -72.5 -11.5t-58.5 -23.5l-4 -2q-14 -6 -27 -6q-22 0 -35.5 27t-13.5 44q0 16 11 25.5t30 17.5q36 18 79.5 28.5t98.5 10.5q109 0 167 -57t58 -168v-209q0 -18 4 -32t11 -29q4 -8 4 -15q0 -21 -31 -34t-55 -13q-23 0 -34 20t-16 36
q-72 -60 -167 -60zM293 842q37 0 71 14.5t53 45t19 69.5v20l-121 -10q-45 -3 -66.5 -22.5t-21.5 -51.5q0 -35 20 -50t46 -15z" />
    <glyph glyph-name="guillemotleft" unicode="&#xab;" horiz-adv-x="961" 
d="M451 141q-14 0 -29 5.5t-37 33.5l-219 264q-31 36 -31 76q0 34 51 101l215 270q13 17 27 20.5t27 3.5q17 0 22.5 -19.5t5.5 -57.5q0 -69 -24 -103l-156 -215l156 -205q17 -23 20.5 -49t3.5 -49q0 -35 -4.5 -55.5t-27.5 -20.5zM764 141q-36 0 -68 39q-143 176 -217 264
q-30 38 -30 76q0 25 8 43t20.5 31.5t22.5 26.5l215 270q12 15 25.5 19.5t27.5 4.5q17 0 23 -19.5t6 -57.5q0 -69 -25 -103l-156 -215l156 -205q17 -23 21 -49t4 -49q0 -35 -5 -55.5t-28 -20.5z" />
    <glyph glyph-name="logicalnot" unicode="&#xac;" horiz-adv-x="973" 
d="M825 362q-35 0 -50 5.5t-21 11.5q-13 11 -13 41v297h-614q-23 0 -34.5 6.5t-17 24.5t-5.5 53q0 31 4 45t10 20q13 13 41 13h723q28 0 41 -13q6 -6 10 -20t4 -45v-383q0 -29 -12 -41q-15 -15 -66 -15z" />
    <glyph glyph-name="uni00AD" unicode="&#xad;" horiz-adv-x="694" 
d="M123 354q-26 0 -35 4q-10 11 -10 41q0 29 4.5 60t13 46.5t20 20t34.5 4.5h421q25 0 35 -4q10 -10 10 -41q0 -29 -4.5 -60t-13.5 -46q-13 -25 -53 -25h-422z" />
    <glyph glyph-name="registered" unicode="&#xae;" horiz-adv-x="1675" 
d="M838 -31q-101 0 -195 26t-175.5 73.5t-149 114t-115.5 148t-74.5 175t-26.5 194.5q0 158 65 300t178 243.5t242.5 146t250.5 44.5q101 0 194.5 -26.5t175 -74.5t149 -115t115.5 -149t74.5 -175.5t26.5 -193.5q0 -129 -46 -252t-127.5 -219.5t-189 -158.5t-198 -81.5
t-174.5 -19.5zM838 121q118 0 220 46.5t177.5 126t118.5 184.5t43 222t-42.5 222.5t-117.5 185.5t-177 127t-222 47q-119 0 -221.5 -47t-177.5 -127t-117.5 -185.5t-42.5 -222.5t42.5 -222t117.5 -184.5t177.5 -126t221.5 -46.5zM621 328q-29 0 -43.5 3t-20.5 9
q-12 7 -12 33v659q0 29 14 37q12 12 64 12h225q101 0 168 -31t94 -87t27 -117q0 -65 -32.5 -118.5t-98.5 -82.5l161 -235q25 -37 25 -45q0 -18 -12 -21q-7 -5 -26.5 -10.5t-47.5 -5.5h-30q-13 0 -24.5 3t-21.5 9.5t-18 19.5l-158 248h-158v-235q0 -23 -12 -33
q-18 -12 -63 -12zM834 737q57 0 90 17t44 45.5t11 54.5q0 32 -18.5 56t-48.5 34t-66 10h-150v-215q12 0 29.5 -0.5t36.5 -0.5t38 -0.5t34 -0.5z" />
    <glyph glyph-name="macron" unicode="&#xaf;" horiz-adv-x="1024" 
d="M332 1047q-26 0 -35 4q-10 10 -10 41q0 23 4.5 46.5t13 39t19.5 20t34 4.5h340q25 0 35 -4q10 -10 10 -41q0 -20 -4.5 -45t-13.5 -41q-13 -24 -53 -24h-340z" />
    <glyph glyph-name="degree" unicode="&#xb0;" horiz-adv-x="973" 
d="M487 823q-61 0 -112.5 22.5t-88.5 62t-58 92t-21 112.5q0 88 45 160t109.5 100.5t125.5 28.5q91 0 158 -49t94 -115.5t27 -124.5q0 -59 -21 -111.5t-58 -92t-88 -62.5t-112 -23zM487 958q46 0 80.5 26.5t46 61.5t11.5 66t-9 59t-27 49t-43.5 33.5t-58.5 12.5
q-49 0 -82.5 -24.5t-45 -61t-11.5 -68.5q0 -50 21.5 -88t52.5 -52t65 -14z" />
    <glyph glyph-name="plusminus" unicode="&#xb1;" horiz-adv-x="973" 
d="M127 0q-23 0 -34.5 6.5t-17 24.5t-5.5 53q0 31 4 45t10 21q12 12 41 12h723q29 0 41 -12q14 -17 14 -66q0 -56 -14 -70t-43 -14h-719zM489 260q-35 0 -50 5t-21 11q-12 14 -12 41v297h-279q-19 0 -27 3t-14 9.5t-11 21.5t-5 50q0 31 4 45.5t10 20.5q12 12 41 12h281v301
q0 32 12 41q6 6 21 11.5t50 5.5q31 0 45.5 -4.5t20.5 -10.5q12 -9 12 -41v-303h281q29 0 41 -12q6 -6 10 -20.5t4 -45.5q0 -35 -5 -50t-11 -21q-12 -13 -41 -13h-279v-299q0 -29 -12 -41q-6 -6 -20.5 -10t-45.5 -4z" />
    <glyph glyph-name="twosuperior" unicode="&#xb2;" 
d="M125 627q-35 0 -45 17t-10 46q0 44 20 66l100 100q106 106 149.5 163t53.5 92t10 65q0 48 -27.5 72t-70.5 24q-35 0 -57.5 -12t-46.5 -33q-35 -31 -51 -31q-17 0 -31.5 9.5t-20.5 17.5q-26 26 -26 45q0 25 32 57q22 22 54.5 39t72.5 27t78 10q78 0 135.5 -31t83 -86
t25.5 -113q0 -60 -24 -114t-61 -102.5t-81 -92.5l-84 -84l-22 -22h235q29 0 39 -11q10 -10 10 -30q0 -16 -3.5 -35.5t-12.5 -32.5q-17 -20 -47 -20h-377z" />
    <glyph glyph-name="threesuperior" unicode="&#xb3;" 
d="M178 586q-61 0 -78 10q-24 12 -24 55q0 38 15 52t50 14h41q54 0 106.5 19t79.5 54.5t27 79.5q0 50 -30.5 81.5t-102.5 31.5h-41q-23 0 -31 8t-8 35q0 16 3.5 34.5t11.5 31.5q6 11 15 15.5t28 4.5h18q65 0 98 23t33 63q0 38 -24.5 58t-69.5 20q-38 0 -72 -14.5t-65 -38.5
q-14 -11 -29 -11q-8 0 -18.5 7t-24.5 24q-23 27 -23 43q0 14 12 28.5t29 26.5q25 19 51 31.5t68 20.5t84 8q66 0 120.5 -26t78.5 -71t24 -92q0 -62 -25.5 -99t-64.5 -60q36 -21 59 -48t34.5 -60.5t11.5 -67.5q0 -86 -40.5 -145t-102 -91.5t-118 -43.5t-106.5 -11z" />
    <glyph glyph-name="acute" unicode="&#xb4;" horiz-adv-x="1024" 
d="M393 1012q-46 0 -61 7.5t-15 18.5q0 20 17 49l133 216q19 30 43 39.5t59 9.5q45 0 74 -6t29 -29q0 -14 -13 -35t-41 -55l-133 -164q-8 -9 -16.5 -20t-19.5 -19q-20 -12 -56 -12z" />
    <glyph glyph-name="mu" unicode="&#xb5;" horiz-adv-x="1006" 
d="M199 -393q-31 0 -48.5 4t-23.5 10q-12 9 -12 41v1182q0 29 12 41q6 6 24.5 11t53.5 5q31 0 48 -4t23 -10q13 -10 13 -41v-508q0 -105 53.5 -154t149.5 -49q43 0 83 19t70 51t48 74.5t18 89.5v475q0 32 12 41q6 6 24.5 11t53.5 5q31 0 48 -4t23 -10q13 -10 13 -41v-799
q0 -28 -13 -41q-6 -6 -20.5 -10t-46.5 -4t-48 4t-22 10q-12 9 -12 43v72q-24 -46 -64.5 -79t-84.5 -47.5t-85 -14.5q-65 0 -115 23t-65.5 44t-19.5 33v-416q0 -31 -13 -41q-6 -6 -24 -11t-53 -5z" />
    <glyph glyph-name="paragraph" unicode="&#xb6;" horiz-adv-x="1178" 
d="M543 -340q-29 0 -44.5 4t-21.5 10q-12 12 -12 41v719q-97 9 -172 50t-126.5 104.5t-78.5 146.5t-27 176q0 114 36 205t102 154.5t158.5 98t205.5 34.5h375q34 0 51 -5t23 -12q12 -9 12 -40v-1629q0 -30 -12 -41q-6 -6 -23 -11t-51 -5q-29 0 -44 4t-22 10q-12 12 -12 41
v1536h-231v-1534q0 -29 -13 -41q-6 -6 -22.5 -11t-50.5 -5z" />
    <glyph glyph-name="periodcentered" unicode="&#xb7;" horiz-adv-x="395" 
d="M195 537q-35 0 -64.5 20t-42 48t-12.5 52q0 35 20.5 67t46.5 44t52 12q31 0 62 -20.5t44.5 -49t13.5 -53.5q0 -36 -21.5 -67t-48.5 -42t-50 -11z" />
    <glyph glyph-name="cedilla" unicode="&#xb8;" horiz-adv-x="1024" 
d="M426 -406q-33 0 -43 10t-10 25q0 13 10 49l55 216q8 29 28.5 37t55.5 8q37 0 57.5 -5.5t26.5 -14.5t6 -15v-22t-8 -27l-92 -215q-12 -29 -27 -37.5t-59 -8.5z" />
    <glyph glyph-name="onesuperior" unicode="&#xb9;" 
d="M381 623q-39 0 -55 8q-15 8 -15 28v527l-100 -78q-17 -10 -27 -10q-17 0 -41 35q-8 11 -15 24.5t-7 20.5q0 9 6 18t23 23l206 163q8 7 21.5 13t30.5 6t30 -6.5t13 -28.5v-707q0 -19 -15 -28q-16 -8 -55 -8z" />
    <glyph glyph-name="ordmasculine" unicode="&#xba;" horiz-adv-x="725" 
d="M160 508q-29 0 -35 4q-10 6 -10 41q0 11 6 31.5t14 33.5q8 16 19 20.5t34 4.5h361q28 0 35 -4q10 -7 10 -41q0 -13 -6.5 -34t-14.5 -32q-16 -24 -53 -24h-360zM362 731q-57 0 -106 20.5t-85.5 57t-57.5 88.5t-21 115t20.5 114.5t57 88.5t86 57t106.5 20q84 0 150.5 -43.5
t93.5 -108.5t27 -128t-20.5 -115t-57 -88.5t-86 -57t-107.5 -20.5zM362 846q45 0 78 26.5t45.5 65t12.5 74.5q0 56 -21 94t-52.5 55t-62.5 17q-30 0 -55 -12.5t-43 -34.5t-27.5 -52.5t-9.5 -66.5q0 -73 36 -119.5t99 -46.5z" />
    <glyph glyph-name="guillemotright" unicode="&#xbb;" horiz-adv-x="961" 
d="M197 141q-23 0 -28 20.5t-5 55.5q0 65 24 98l156 205l-156 215q-24 34 -24 103q0 38 6 57.5t23 19.5q14 0 27 -4.5t26 -19.5l215 -270q10 -13 19 -23.5t16 -21.5t11.5 -24.5t4.5 -31.5q0 -40 -31 -76l-217 -264q-23 -28 -38 -33.5t-29 -5.5zM510 141q-23 0 -28 20.5
t-5 55.5q0 23 4 49t21 49l155 205l-155 215q-25 34 -25 103q0 38 6 57.5t23 19.5q12 0 26.5 -3.5t26.5 -20.5l215 -270q10 -13 19.5 -23.5t16.5 -21.5t11 -24.5t4 -31.5q0 -38 -30 -76l-220 -264q-21 -28 -36 -33.5t-29 -5.5z" />
    <glyph glyph-name="onequarter" unicode="&#xbc;" horiz-adv-x="1593" 
d="M46 0zM365 -20q-42 0 -59 8t-17 20q0 15 18 49l678 1307q11 22 29 29.5t61 7.5q42 0 59 -8t17 -21q0 -16 -18 -49l-678 -1307q-12 -21 -30 -28.5t-60 -7.5zM306 623q-39 0 -55 8q-15 8 -15 28v527l-100 -78q-17 -10 -27 -10q-17 0 -41 35q-8 11 -15 24.5t-7 20.5
q0 9 6 18t23 23l206 163q8 7 21.5 13t30.5 6t30 -6.5t13 -28.5v-707q0 -19 -15 -28q-16 -8 -55 -8zM1320 -39q-36 0 -54 8q-14 8 -14 29v172h-326q-23 0 -33 7t-10 32q0 32 15 55l364 481q14 17 30.5 24t39.5 7t40 -10t17 -41v-443h78q16 0 23.5 -5t7.5 -19q0 -22 -6 -40
t-13 -30q-9 -18 -41 -18h-49v-172q0 -21 -14 -29q-16 -8 -55 -8zM1051 282h201v271z" />
    <glyph glyph-name="onehalf" unicode="&#xbd;" horiz-adv-x="1593" 
d="M51 0zM369 -20q-42 0 -59 8t-17 20q0 15 18 49l678 1307q11 22 29 29.5t61 7.5q42 0 59 -8t17 -21q0 -16 -18 -49l-678 -1307q-12 -21 -30 -28.5t-60 -7.5zM311 623q-39 0 -55 8q-15 8 -15 28v527l-100 -78q-17 -10 -27 -10q-17 0 -41 35q-8 11 -15 24.5t-7 20.5
q0 9 6 18t23 23l206 163q8 7 21.5 13t30.5 6t30 -6.5t13 -28.5v-707q0 -19 -15 -28q-16 -8 -55 -8zM1022 1q-35 0 -45 17t-10 46q0 44 20 66l100 100q106 106 149.5 163t53.5 92t10 65q0 48 -27.5 72t-70.5 24q-35 0 -57.5 -12t-46.5 -33q-35 -31 -51 -31q-17 0 -31.5 9.5
t-20.5 17.5q-26 26 -26 45q0 25 32 57q22 22 54.5 39t72.5 27t78 10q78 0 135.5 -31t83 -86t25.5 -113q0 -60 -24 -114t-61 -102.5t-81 -92.5l-84 -84l-22 -22h235q29 0 39 -11q10 -10 10 -30q0 -16 -3.5 -35.5t-12.5 -32.5q-17 -20 -47 -20h-377z" />
    <glyph glyph-name="threequarters" unicode="&#xbe;" horiz-adv-x="1593" 
d="M40 0zM427 -20q-42 0 -59 8t-17 20q0 15 18 49l678 1307q11 22 29 29.5t61 7.5q42 0 59 -8t17 -21q0 -16 -18 -49l-678 -1307q-12 -21 -30 -28.5t-60 -7.5zM155 586q-61 0 -78 10q-24 12 -24 55q0 38 15 52t50 14h41q54 0 106.5 19t79.5 54.5t27 79.5q0 50 -30.5 81.5
t-102.5 31.5h-41q-23 0 -31 8t-8 35q0 16 3.5 34.5t11.5 31.5q6 11 15 15.5t28 4.5h18q65 0 98 23t33 63q0 38 -24.5 58t-69.5 20q-38 0 -72 -14.5t-65 -38.5q-14 -11 -29 -11q-8 0 -18.5 7t-24.5 24q-23 27 -23 43q0 14 12 28.5t29 26.5q25 19 51 31.5t68 20.5t84 8
q66 0 120.5 -26t78.5 -71t24 -92q0 -62 -25.5 -99t-64.5 -60q36 -21 59 -48t34.5 -60.5t11.5 -67.5q0 -86 -40.5 -145t-102 -91.5t-118 -43.5t-106.5 -11zM1381 -39q-36 0 -54 8q-14 8 -14 29v172h-326q-23 0 -33 7t-10 32q0 32 15 55l364 481q14 17 30.5 24t39.5 7t40 -10
t17 -41v-443h78q16 0 23.5 -5t7.5 -19q0 -22 -6 -40t-13 -30q-9 -18 -41 -18h-49v-172q0 -21 -14 -29q-16 -8 -55 -8zM1112 282h201v271z" />
    <glyph glyph-name="questiondown" unicode="&#xbf;" horiz-adv-x="729" 
d="M446 -16q-97 0 -172.5 26.5t-127.5 74.5t-79.5 114t-27.5 145q0 84 21 147.5t61 112t98.5 83.5t134.5 61v202q0 27 13 37q6 5 24 9.5t53 4.5q31 0 48.5 -4t23.5 -10q12 -8 12 -37v-264q0 -33 -14 -47q-7 -7 -70 -23q-95 -27 -147.5 -70.5t-67 -94t-14.5 -99.5
q0 -41 14 -80t42.5 -69.5t71.5 -49t101 -18.5q54 0 87 6.5t55 16.5q56 21 73 22q20 0 32.5 -15.5t17.5 -29.5q16 -46 16 -63q0 -15 -13.5 -28.5t-58.5 -29.5q-47 -15 -90 -22.5t-117 -7.5zM442 1137q-35 0 -66 22.5t-42.5 49t-11.5 51.5q0 35 20 64.5t48 42.5t52 13
q34 0 63.5 -20.5t42.5 -48.5t13 -51q0 -36 -20.5 -67t-47 -43.5t-51.5 -12.5z" />
    <glyph glyph-name="Agrave" unicode="&#xc0;" horiz-adv-x="1137" 
d="M10 0zM96 -8q-38 0 -55.5 5t-24.5 11q-6 6 -6 19q0 6 10 43l445 1278q6 20 25.5 29t76.5 9q58 0 78 -9.5t27 -28.5l450 -1297q4 -12 4 -24q0 -11 -10 -21q-5 -5 -24.5 -9.5t-57.5 -4.5q-34 0 -53.5 5t-26.5 11q-9 8 -20 43l-109 328h-522l-108 -328q-12 -30 -17.5 -39
t-26.5 -14.5t-55 -5.5zM354 530h420l-211 633zM596 1463q-20 0 -33 3t-22 9q-7 4 -37 39l-133 164q-28 34 -41 55t-13 35q0 23 29 29t74 6q35 0 59.5 -9.5t42.5 -39.5l133 -216q17 -26 17 -49q0 -11 -14 -18.5t-62 -7.5z" />
    <glyph glyph-name="Aacute" unicode="&#xc1;" horiz-adv-x="1137" 
d="M10 0zM96 -8q-38 0 -55.5 5t-24.5 11q-6 6 -6 19q0 6 10 43l445 1278q6 20 25.5 29t76.5 9q58 0 78 -9.5t27 -28.5l450 -1297q4 -12 4 -24q0 -11 -10 -21q-5 -5 -24.5 -9.5t-57.5 -4.5q-34 0 -53.5 5t-26.5 11q-9 8 -20 43l-109 328h-522l-108 -328q-12 -30 -17.5 -39
t-26.5 -14.5t-55 -5.5zM354 530h420l-211 633zM536 1463q-46 0 -61 7.5t-15 18.5q0 20 17 49l133 216q19 30 43 39.5t59 9.5q45 0 74 -6t29 -29q0 -14 -13 -35t-41 -55l-133 -164q-8 -9 -16.5 -20t-19.5 -19q-20 -12 -56 -12z" />
    <glyph glyph-name="Acircumflex" unicode="&#xc2;" horiz-adv-x="1137" 
d="M10 0zM96 -8q-38 0 -55.5 5t-24.5 11q-6 6 -6 19q0 6 10 43l445 1278q6 20 25.5 29t76.5 9q58 0 78 -9.5t27 -28.5l450 -1297q4 -12 4 -24q0 -11 -10 -21q-5 -5 -24.5 -9.5t-57.5 -4.5q-34 0 -53.5 5t-26.5 11q-9 8 -20 43l-109 328h-522l-108 -328q-12 -30 -17.5 -39
t-26.5 -14.5t-55 -5.5zM354 530h420l-211 633zM327 1463q-35 0 -51 7.5t-16 22.5q0 22 34 60l181 198q24 28 43.5 40t54.5 12t54.5 -13t43.5 -39l181 -198q34 -38 34 -60q0 -15 -16 -22.5t-51 -7.5q-38 0 -58 6t-38 24l-150 154l-150 -154q-18 -18 -38 -24t-58 -6z" />
    <glyph glyph-name="Atilde" unicode="&#xc3;" horiz-adv-x="1137" 
d="M10 0zM96 -8q-38 0 -55.5 5t-24.5 11q-6 6 -6 19q0 6 10 43l445 1278q6 20 25.5 29t76.5 9q58 0 78 -9.5t27 -28.5l450 -1297q4 -12 4 -24q0 -11 -10 -21q-5 -5 -24.5 -9.5t-57.5 -4.5q-34 0 -53.5 5t-26.5 11q-9 8 -20 43l-109 328h-522l-108 -328q-12 -30 -17.5 -39
t-26.5 -14.5t-55 -5.5zM354 530h420l-211 633zM277 1463q-20 0 -30.5 13t-2.5 48q19 84 65 131t122 47q42 0 73.5 -12.5t57.5 -28.5q70 -43 104 -43q24 0 39.5 19.5t28.5 46.5q6 17 19.5 23t33.5 6h43q35 0 35 -19q0 -42 -14 -83.5t-40.5 -74.5t-63.5 -53t-83 -20
q-38 0 -69.5 12.5t-59.5 28.5q-71 43 -107 43q-31 0 -63 -64q-14 -20 -39 -20h-49z" />
    <glyph glyph-name="Adieresis" unicode="&#xc4;" horiz-adv-x="1137" 
d="M10 0zM96 -8q-38 0 -55.5 5t-24.5 11q-6 6 -6 19q0 6 10 43l445 1278q6 20 25.5 29t76.5 9q58 0 78 -9.5t27 -28.5l450 -1297q4 -12 4 -24q0 -11 -10 -21q-5 -5 -24.5 -9.5t-57.5 -4.5q-34 0 -53.5 5t-26.5 11q-9 8 -20 43l-109 328h-522l-108 -328q-12 -30 -17.5 -39
t-26.5 -14.5t-55 -5.5zM354 530h420l-211 633zM423 1463q-29 0 -57 18t-37.5 42t-9.5 46q0 47 29.5 78t74.5 31q31 0 57 -17t38 -43t12 -49q0 -45 -30 -75.5t-77 -30.5zM702 1463q-29 0 -57 18t-37.5 42t-9.5 46q0 47 29.5 78t74.5 31q30 0 56.5 -17.5t38.5 -43t12 -48.5
q0 -33 -17 -59t-42 -36.5t-48 -10.5z" />
    <glyph glyph-name="Aring" unicode="&#xc5;" horiz-adv-x="1137" 
d="M10 0zM96 -8q-38 0 -55.5 5t-24.5 11q-6 6 -6 19q0 6 10 43l445 1278q6 20 25.5 29t76.5 9q58 0 78 -9.5t27 -28.5l450 -1297q4 -12 4 -24q0 -11 -10 -21q-5 -5 -24.5 -9.5t-57.5 -4.5q-34 0 -53.5 5t-26.5 11q-9 8 -20 43l-109 328h-522l-108 -328q-12 -30 -17.5 -39
t-26.5 -14.5t-55 -5.5zM354 530h420l-211 633zM553 1463q-52 0 -99.5 31.5t-66 75t-18.5 81.5q0 55 31.5 102.5t72 67t80.5 19.5q55 0 100.5 -32.5t66.5 -76t21 -80.5q0 -59 -33.5 -106.5t-76 -64.5t-78.5 -17zM553 1557q27 0 50.5 17t33.5 38t10 39q0 26 -17 49t-38.5 34
t-38.5 11q-26 0 -49.5 -17t-32 -38t-8.5 -39q0 -29 17.5 -53.5t36.5 -32.5t36 -8z" />
    <glyph glyph-name="AE" unicode="&#xc6;" horiz-adv-x="1763" 
d="M86 -8q-38 0 -56 5t-24 11t-6 19q0 26 10 43l781 1259q12 20 29.5 31.5t56.5 11.5h811q24 0 32 -8q9 -9 9 -33t-5 -54.5t-12 -43.5q-8 -12 -21 -16.5t-36 -4.5h-578v-387h518q17 0 23.5 -2.5t9.5 -5.5q8 -8 8 -33q0 -29 -4.5 -57.5t-12 -40.5t-20.5 -16t-36 -4h-486v-506
h621q22 0 33 -8q8 -8 8 -33q0 -26 -4.5 -55.5t-12.5 -43.5q-8 -12 -21 -16t-36 -4h-684q-40 0 -56 5t-22 11q-12 14 -12 43v371h-461l-231 -379q-11 -16 -25.5 -32.5t-34.5 -21.5t-53 -5zM522 582h369v606z" />
    <glyph glyph-name="Ccedilla" unicode="&#xc7;" horiz-adv-x="1114" 
d="M88 0zM680 -29q-124 0 -232 47.5t-188 138.5t-126 223.5t-46 303.5t47 304t128 225t190.5 140t234.5 48q131 0 197 -19t127 -45q41 -18 52 -31t11 -20q0 -11 -6 -31t-18 -43q-20 -35 -32.5 -47t-23.5 -12t-32 10q-6 2 -23.5 13t-50 23t-82 22t-119.5 10q-93 0 -167 -36.5
t-125.5 -106.5t-79 -172t-27.5 -232q0 -131 31 -232t85 -170t127.5 -105t159.5 -36q74 0 137 15t94.5 31.5t41.5 21.5q25 12 41 12q11 0 23.5 -10.5t29.5 -36.5q31 -52 31 -76q0 -19 -62 -53q-31 -18 -83.5 -35t-121.5 -28t-143 -11zM549 -406q-33 0 -43 10t-10 25
q0 13 10 49l55 216q8 29 28.5 37t55.5 8q37 0 57.5 -5.5t26.5 -14.5t6 -15v-22t-8 -27l-92 -215q-12 -29 -27 -37.5t-59 -8.5z" />
    <glyph glyph-name="Egrave" unicode="&#xc8;" horiz-adv-x="1026" 
d="M154 0zM244 0q-41 0 -56.5 5t-21.5 11q-12 14 -12 43v1254q0 31 14 45t76 14h706q17 0 23.5 -2.5t9.5 -5.5q8 -8 8 -33q0 -30 -4.5 -57.5t-11.5 -40.5q-8 -12 -21 -16.5t-36 -4.5h-578v-387h518q17 0 23.5 -2.5t9.5 -5.5q8 -8 8 -33q0 -29 -4.5 -57.5t-12 -40.5t-21 -16
t-36.5 -4h-485v-506h621q24 0 32 -8t8 -33q0 -26 -4 -55.5t-12 -43.5q-8 -12 -21 -16t-36 -4h-684zM616 1463q-20 0 -33 3t-22 9q-7 4 -37 39l-133 164q-28 34 -41 55t-13 35q0 23 29 29t74 6q35 0 59.5 -9.5t42.5 -39.5l133 -216q17 -26 17 -49q0 -11 -14 -18.5t-62 -7.5z
" />
    <glyph glyph-name="Eacute" unicode="&#xc9;" horiz-adv-x="1026" 
d="M154 0zM244 0q-41 0 -56.5 5t-21.5 11q-12 14 -12 43v1254q0 31 14 45t76 14h706q17 0 23.5 -2.5t9.5 -5.5q8 -8 8 -33q0 -30 -4.5 -57.5t-11.5 -40.5q-8 -12 -21 -16.5t-36 -4.5h-578v-387h518q17 0 23.5 -2.5t9.5 -5.5q8 -8 8 -33q0 -29 -4.5 -57.5t-12 -40.5t-21 -16
t-36.5 -4h-485v-506h621q24 0 32 -8t8 -33q0 -26 -4 -55.5t-12 -43.5q-8 -12 -21 -16t-36 -4h-684zM557 1463q-46 0 -61 7.5t-15 18.5q0 20 17 49l133 216q19 30 43 39.5t59 9.5q45 0 74 -6t29 -29q0 -14 -13 -35t-41 -55l-133 -164q-8 -9 -16.5 -20t-19.5 -19
q-20 -12 -56 -12z" />
    <glyph glyph-name="Ecircumflex" unicode="&#xca;" horiz-adv-x="1026" 
d="M154 0zM244 0q-41 0 -56.5 5t-21.5 11q-12 14 -12 43v1254q0 31 14 45t76 14h706q17 0 23.5 -2.5t9.5 -5.5q8 -8 8 -33q0 -30 -4.5 -57.5t-11.5 -40.5q-8 -12 -21 -16.5t-36 -4.5h-578v-387h518q17 0 23.5 -2.5t9.5 -5.5q8 -8 8 -33q0 -29 -4.5 -57.5t-12 -40.5t-21 -16
t-36.5 -4h-485v-506h621q24 0 32 -8t8 -33q0 -26 -4 -55.5t-12 -43.5q-8 -12 -21 -16t-36 -4h-684zM327 1463q-35 0 -51 7.5t-16 22.5q0 22 34 60l181 198q24 28 43.5 40t54.5 12t54.5 -13t43.5 -39l181 -198q34 -38 34 -60q0 -15 -16 -22.5t-51 -7.5q-38 0 -58 6t-38 24
l-150 154l-150 -154q-18 -18 -38 -24t-58 -6z" />
    <glyph glyph-name="Edieresis" unicode="&#xcb;" horiz-adv-x="1026" 
d="M154 0zM244 0q-41 0 -56.5 5t-21.5 11q-12 14 -12 43v1254q0 31 14 45t76 14h706q17 0 23.5 -2.5t9.5 -5.5q8 -8 8 -33q0 -30 -4.5 -57.5t-11.5 -40.5q-8 -12 -21 -16.5t-36 -4.5h-578v-387h518q17 0 23.5 -2.5t9.5 -5.5q8 -8 8 -33q0 -29 -4.5 -57.5t-12 -40.5t-21 -16
t-36.5 -4h-485v-506h621q24 0 32 -8t8 -33q0 -26 -4 -55.5t-12 -43.5q-8 -12 -21 -16t-36 -4h-684zM434 1463q-29 0 -57 18t-37.5 42t-9.5 46q0 47 29.5 78t74.5 31q31 0 57 -17t38 -43t12 -49q0 -45 -30 -75.5t-77 -30.5zM713 1463q-29 0 -57 18t-37.5 42t-9.5 46
q0 47 29.5 78t74.5 31q30 0 56.5 -17.5t38.5 -43t12 -48.5q0 -33 -17 -59t-42 -36.5t-48 -10.5z" />
    <glyph glyph-name="Igrave" unicode="&#xcc;" horiz-adv-x="492" 
d="M0 0zM244 -8q-49 0 -67.5 8t-20.5 19.5t-2 31.5v1270q0 27 5.5 37t28 16t56.5 6q37 0 57 -5t27 -11q10 -10 10 -43v-1270q0 -33 -10 -43q-7 -6 -27 -11t-57 -5zM269 1463q-20 0 -33 3t-22 9q-7 4 -37 39l-133 164q-28 34 -41 55t-13 35q0 23 29 29t74 6q35 0 59.5 -9.5
t42.5 -39.5l133 -216q17 -26 17 -49q0 -11 -14 -18.5t-62 -7.5z" />
    <glyph glyph-name="Iacute" unicode="&#xcd;" horiz-adv-x="492" 
d="M154 0zM244 -8q-49 0 -67.5 8t-20.5 19.5t-2 31.5v1270q0 27 5.5 37t28 16t56.5 6q37 0 57 -5t27 -11q10 -10 10 -43v-1270q0 -33 -10 -43q-7 -6 -27 -11t-57 -5zM251 1463q-46 0 -61 7.5t-15 18.5q0 20 17 49l133 216q19 30 43 39.5t59 9.5q45 0 74 -6t29 -29
q0 -14 -13 -35t-41 -55l-133 -164q-8 -9 -16.5 -20t-19.5 -19q-20 -12 -56 -12z" />
    <glyph glyph-name="Icircumflex" unicode="&#xce;" horiz-adv-x="492" 
d="M0 0zM244 -8q-49 0 -67.5 8t-20.5 19.5t-2 31.5v1270q0 27 5.5 37t28 16t56.5 6q37 0 57 -5t27 -11q10 -10 10 -43v-1270q0 -33 -10 -43q-7 -6 -27 -11t-57 -5zM1 1463q-35 0 -51 7.5t-16 22.5q0 22 34 60l181 198q24 28 43.5 40t54.5 12t54.5 -13t43.5 -39l181 -198
q34 -38 34 -60q0 -15 -16 -22.5t-51 -7.5q-38 0 -58 6t-38 24l-150 154l-150 -154q-18 -18 -38 -24t-58 -6z" />
    <glyph glyph-name="Idieresis" unicode="&#xcf;" horiz-adv-x="492" 
d="M3 0zM244 -8q-49 0 -67.5 8t-20.5 19.5t-2 31.5v1270q0 27 5.5 37t28 16t56.5 6q37 0 57 -5t27 -11q10 -10 10 -43v-1270q0 -33 -10 -43q-7 -6 -27 -11t-57 -5zM107 1463q-29 0 -57 18t-37.5 42t-9.5 46q0 47 29.5 78t74.5 31q31 0 57 -17t38 -43t12 -49q0 -45 -30 -75.5
t-77 -30.5zM386 1463q-29 0 -57 18t-37.5 42t-9.5 46q0 47 29.5 78t74.5 31q30 0 56.5 -17.5t38.5 -43t12 -48.5q0 -33 -17 -59t-42 -36.5t-48 -10.5z" />
    <glyph glyph-name="Eth" unicode="&#xd0;" horiz-adv-x="1317" 
d="M244 0q-41 0 -56.5 5t-21.5 11q-12 14 -12 43v570h-99q-31 0 -37 6q-8 12 -8 39q0 59 19 90q8 15 19 19.5t34 4.5h72v525q0 31 14 45t76 14h377q138 0 250 -45t191.5 -132t123 -214t43.5 -291t-43.5 -292.5t-123.5 -217t-193 -134.5t-253 -46h-372zM340 160h281
q100 0 176.5 36t127.5 104t77 166.5t26 223.5t-26 222.5t-78.5 164t-131.5 101t-184 34.5h-268v-424h238q30 0 36 -6q9 -15 9 -39q0 -29 -5.5 -52t-11.5 -34q-14 -28 -55 -28h-211v-469z" />
    <glyph glyph-name="Ntilde" unicode="&#xd1;" horiz-adv-x="1262" 
d="M92 0zM244 -8q-34 0 -53 5t-25 11q-12 9 -12 43v1174l-50 84q-12 16 -12 30q0 18 10 25q7 6 29.5 11t73.5 5q35 0 55.5 -5.5t26.5 -10.5q3 -3 6 -5t6 -5q5 -5 14 -23l617 -985v975q0 27 5.5 37t25 16t53.5 6q52 0 70 -8.5t21 -19.5t3 -31v-1270q0 -28 -6 -38t-24 -15.5
t-52 -5.5q-35 0 -52.5 4.5t-23.5 9.5q-11 10 -14 19l-604 962v-936q0 -34 -13 -43q-6 -6 -21.5 -11t-53.5 -5zM332 1463q-20 0 -30.5 13t-2.5 48q19 84 65 131t122 47q42 0 73.5 -12.5t57.5 -28.5q70 -43 104 -43q24 0 39.5 19.5t28.5 46.5q6 17 19.5 23t33.5 6h43
q35 0 35 -19q0 -42 -14 -83.5t-40.5 -74.5t-63.5 -53t-83 -20q-38 0 -69.5 12.5t-59.5 28.5q-71 43 -107 43q-31 0 -63 -64q-14 -20 -39 -20h-49z" />
    <glyph glyph-name="Ograve" unicode="&#xd2;" horiz-adv-x="1362" 
d="M88 0zM682 -29q-131 0 -240.5 47.5t-188 138.5t-122 223.5t-43.5 303.5t43.5 304t122 225t188 140t240.5 48q130 0 239 -48t187.5 -140t122 -225t43.5 -304t-43.5 -303.5t-122 -223.5t-187.5 -138.5t-239 -47.5zM682 135q93 0 165.5 37t123 107t76.5 172t26 233
q0 130 -26 233t-76.5 174t-123 108.5t-165.5 37.5q-94 0 -167 -37.5t-123.5 -108.5t-76.5 -174t-26 -233q0 -131 26 -233t76.5 -172t123.5 -107t167 -37zM719 1463q-20 0 -33 3t-22 9q-7 4 -37 39l-133 164q-28 34 -41 55t-13 35q0 23 29 29t74 6q35 0 59.5 -9.5t42.5 -39.5
l133 -216q17 -26 17 -49q0 -11 -14 -18.5t-62 -7.5z" />
    <glyph glyph-name="Oacute" unicode="&#xd3;" horiz-adv-x="1362" 
d="M88 0zM682 -29q-131 0 -240.5 47.5t-188 138.5t-122 223.5t-43.5 303.5t43.5 304t122 225t188 140t240.5 48q130 0 239 -48t187.5 -140t122 -225t43.5 -304t-43.5 -303.5t-122 -223.5t-187.5 -138.5t-239 -47.5zM682 135q93 0 165.5 37t123 107t76.5 172t26 233
q0 130 -26 233t-76.5 174t-123 108.5t-165.5 37.5q-94 0 -167 -37.5t-123.5 -108.5t-76.5 -174t-26 -233q0 -131 26 -233t76.5 -172t123.5 -107t167 -37zM618 1463q-46 0 -61 7.5t-15 18.5q0 20 17 49l133 216q19 30 43 39.5t59 9.5q45 0 74 -6t29 -29q0 -14 -13 -35
t-41 -55l-133 -164q-8 -9 -16.5 -20t-19.5 -19q-20 -12 -56 -12z" />
    <glyph glyph-name="Ocircumflex" unicode="&#xd4;" horiz-adv-x="1362" 
d="M88 0zM682 -29q-131 0 -240.5 47.5t-188 138.5t-122 223.5t-43.5 303.5t43.5 304t122 225t188 140t240.5 48q130 0 239 -48t187.5 -140t122 -225t43.5 -304t-43.5 -303.5t-122 -223.5t-187.5 -138.5t-239 -47.5zM682 135q93 0 165.5 37t123 107t76.5 172t26 233
q0 130 -26 233t-76.5 174t-123 108.5t-165.5 37.5q-94 0 -167 -37.5t-123.5 -108.5t-76.5 -174t-26 -233q0 -131 26 -233t76.5 -172t123.5 -107t167 -37zM450 1463q-35 0 -51 7.5t-16 22.5q0 22 34 60l181 198q24 28 43.5 40t54.5 12t54.5 -13t43.5 -39l181 -198
q34 -38 34 -60q0 -15 -16 -22.5t-51 -7.5q-38 0 -58 6t-38 24l-150 154l-150 -154q-18 -18 -38 -24t-58 -6z" />
    <glyph glyph-name="Otilde" unicode="&#xd5;" horiz-adv-x="1362" 
d="M88 0zM682 -29q-131 0 -240.5 47.5t-188 138.5t-122 223.5t-43.5 303.5t43.5 304t122 225t188 140t240.5 48q130 0 239 -48t187.5 -140t122 -225t43.5 -304t-43.5 -303.5t-122 -223.5t-187.5 -138.5t-239 -47.5zM682 135q93 0 165.5 37t123 107t76.5 172t26 233
q0 130 -26 233t-76.5 174t-123 108.5t-165.5 37.5q-94 0 -167 -37.5t-123.5 -108.5t-76.5 -174t-26 -233q0 -131 26 -233t76.5 -172t123.5 -107t167 -37zM395 1463q-20 0 -30.5 13t-2.5 48q19 84 65 131t122 47q42 0 73.5 -12.5t57.5 -28.5q70 -43 104 -43q24 0 39.5 19.5
t28.5 46.5q6 17 19.5 23t33.5 6h43q35 0 35 -19q0 -42 -14 -83.5t-40.5 -74.5t-63.5 -53t-83 -20q-38 0 -69.5 12.5t-59.5 28.5q-71 43 -107 43q-31 0 -63 -64q-14 -20 -39 -20h-49z" />
    <glyph glyph-name="Odieresis" unicode="&#xd6;" horiz-adv-x="1362" 
d="M88 0zM682 -29q-131 0 -240.5 47.5t-188 138.5t-122 223.5t-43.5 303.5t43.5 304t122 225t188 140t240.5 48q130 0 239 -48t187.5 -140t122 -225t43.5 -304t-43.5 -303.5t-122 -223.5t-187.5 -138.5t-239 -47.5zM682 135q93 0 165.5 37t123 107t76.5 172t26 233
q0 130 -26 233t-76.5 174t-123 108.5t-165.5 37.5q-94 0 -167 -37.5t-123.5 -108.5t-76.5 -174t-26 -233q0 -131 26 -233t76.5 -172t123.5 -107t167 -37zM536 1463q-29 0 -57 18t-37.5 42t-9.5 46q0 47 29.5 78t74.5 31q31 0 57 -17t38 -43t12 -49q0 -45 -30 -75.5
t-77 -30.5zM815 1463q-29 0 -57 18t-37.5 42t-9.5 46q0 47 29.5 78t74.5 31q30 0 56.5 -17.5t38.5 -43t12 -48.5q0 -33 -17 -59t-42 -36.5t-48 -10.5z" />
    <glyph glyph-name="multiply" unicode="&#xd7;" horiz-adv-x="973" 
d="M254 303q-9 0 -24 6.5t-40 32.5q-21 22 -28.5 34.5t-7.5 20.5q0 20 20 39l199 197l-199 198q-20 20 -20 39q0 8 7.5 22.5t33.5 39.5q21 22 33.5 29.5t21.5 7.5q16 0 37 -21l200 -200l199 198q19 21 37 21q9 0 22.5 -7t34.5 -30q25 -25 32 -38.5t7 -23.5q0 -14 -20 -37
l-197 -198l197 -197q20 -20 20 -37q0 -9 -7.5 -22t-29.5 -35q-24 -25 -38 -32t-23 -7t-17 4t-20 17l-197 196l-196 -198q-18 -19 -37 -19z" />
    <glyph glyph-name="Oslash" unicode="&#xd8;" horiz-adv-x="1362" 
d="M131 -29q-38 0 -55 8.5t-17 20.5q0 14 15 35l139 176q-60 88 -92.5 206t-32.5 267q0 171 43.5 304t122 225t188 140t240.5 48q108 0 202 -33t169 -98l82 102q14 17 33.5 23t62.5 6q38 0 55 -8t17 -21q0 -15 -15 -35l-139 -176q59 -90 92 -208.5t33 -268.5
q0 -171 -43.5 -303.5t-122 -223.5t-187.5 -138.5t-239 -47.5q-109 0 -203.5 33t-169.5 98l-82 -102q-14 -17 -33.5 -23t-62.5 -6zM682 135q93 0 165.5 37t123 107t76.5 172t26 233q0 185 -53 315l-598 -755q95 -109 260 -109zM342 373l600 755q-49 53 -114.5 81t-145.5 28
q-94 0 -167 -37.5t-123.5 -108.5t-76.5 -174t-26 -233q0 -184 53 -311z" />
    <glyph glyph-name="Ugrave" unicode="&#xd9;" horiz-adv-x="1307" 
d="M143 0zM653 -29q-139 0 -236 34.5t-158 95.5t-88.5 145t-27.5 184v891q0 33 11 43q6 6 26.5 11t59.5 5q34 0 53.5 -5t25.5 -11q11 -10 11 -43v-913q0 -55 19 -104.5t59 -87.5t100.5 -60.5t144.5 -22.5t145 22.5t101 60.5t59 87.5t19 104.5v913q0 27 5.5 37.5t28 16
t60.5 5.5q50 0 68 -8.5t21 -19.5t3 -31v-891q0 -100 -27.5 -184t-88.5 -145t-158 -95.5t-236 -34.5zM698 1463q-20 0 -33 3t-22 9q-7 4 -37 39l-133 164q-28 34 -41 55t-13 35q0 23 29 29t74 6q35 0 59.5 -9.5t42.5 -39.5l133 -216q17 -26 17 -49q0 -11 -14 -18.5t-62 -7.5z
" />
    <glyph glyph-name="Uacute" unicode="&#xda;" horiz-adv-x="1307" 
d="M143 0zM653 -29q-139 0 -236 34.5t-158 95.5t-88.5 145t-27.5 184v891q0 33 11 43q6 6 26.5 11t59.5 5q34 0 53.5 -5t25.5 -11q11 -10 11 -43v-913q0 -55 19 -104.5t59 -87.5t100.5 -60.5t144.5 -22.5t145 22.5t101 60.5t59 87.5t19 104.5v913q0 27 5.5 37.5t28 16
t60.5 5.5q50 0 68 -8.5t21 -19.5t3 -31v-891q0 -100 -27.5 -184t-88.5 -145t-158 -95.5t-236 -34.5zM618 1463q-46 0 -61 7.5t-15 18.5q0 20 17 49l133 216q19 30 43 39.5t59 9.5q45 0 74 -6t29 -29q0 -14 -13 -35t-41 -55l-133 -164q-8 -9 -16.5 -20t-19.5 -19
q-20 -12 -56 -12z" />
    <glyph glyph-name="Ucircumflex" unicode="&#xdb;" horiz-adv-x="1307" 
d="M143 0zM653 -29q-139 0 -236 34.5t-158 95.5t-88.5 145t-27.5 184v891q0 33 11 43q6 6 26.5 11t59.5 5q34 0 53.5 -5t25.5 -11q11 -10 11 -43v-913q0 -55 19 -104.5t59 -87.5t100.5 -60.5t144.5 -22.5t145 22.5t101 60.5t59 87.5t19 104.5v913q0 27 5.5 37.5t28 16
t60.5 5.5q50 0 68 -8.5t21 -19.5t3 -31v-891q0 -100 -27.5 -184t-88.5 -145t-158 -95.5t-236 -34.5zM430 1463q-35 0 -51 7.5t-16 22.5q0 22 34 60l181 198q24 28 43.5 40t54.5 12t54.5 -13t43.5 -39l181 -198q34 -38 34 -60q0 -15 -16 -22.5t-51 -7.5q-38 0 -58 6t-38 24
l-150 154l-150 -154q-18 -18 -38 -24t-58 -6z" />
    <glyph glyph-name="Udieresis" unicode="&#xdc;" horiz-adv-x="1307" 
d="M143 0zM653 -29q-139 0 -236 34.5t-158 95.5t-88.5 145t-27.5 184v891q0 33 11 43q6 6 26.5 11t59.5 5q34 0 53.5 -5t25.5 -11q11 -10 11 -43v-913q0 -55 19 -104.5t59 -87.5t100.5 -60.5t144.5 -22.5t145 22.5t101 60.5t59 87.5t19 104.5v913q0 27 5.5 37.5t28 16
t60.5 5.5q50 0 68 -8.5t21 -19.5t3 -31v-891q0 -100 -27.5 -184t-88.5 -145t-158 -95.5t-236 -34.5zM499 1463q-29 0 -57 18t-37.5 42t-9.5 46q0 47 29.5 78t74.5 31q31 0 57 -17t38 -43t12 -49q0 -45 -30 -75.5t-77 -30.5zM778 1463q-29 0 -57 18t-37.5 42t-9.5 46
q0 47 29.5 78t74.5 31q30 0 56.5 -17.5t38.5 -43t12 -48.5q0 -33 -17 -59t-42 -36.5t-48 -10.5z" />
    <glyph glyph-name="Yacute" unicode="&#xdd;" horiz-adv-x="1096" 
d="M10 0zM541 -8q-49 0 -67.5 8t-20.5 19.5t-2 31.5v537l-424 719q-17 27 -17 39q0 6 4 12.5t11 9.5q20 12 75 12q45 0 65.5 -7.5t33.5 -29.5l352 -591l354 591q10 19 29 28t65 9q39 0 54 -4.5t20 -7.5q6 -3 9 -9.5t3 -12.5q0 -17 -14 -39l-434 -719v-537q0 -33 -10 -43
q-7 -6 -27.5 -11t-58.5 -5zM536 1463q-46 0 -61 7.5t-15 18.5q0 20 17 49l133 216q19 30 43 39.5t59 9.5q45 0 74 -6t29 -29q0 -14 -13 -35t-41 -55l-133 -164q-8 -9 -16.5 -20t-19.5 -19q-20 -12 -56 -12z" />
    <glyph glyph-name="Thorn" unicode="&#xde;" horiz-adv-x="1106" 
d="M244 -8q-49 0 -67.5 8t-20.5 19.5t-2 31.5v1270q0 27 5.5 37t28 16t56.5 6q37 0 57 -5t27 -11q10 -10 10 -43v-195h217q117 0 209.5 -23.5t156 -71t97 -119t33.5 -167.5q0 -87 -28.5 -163t-90 -132.5t-157 -89t-228.5 -32.5q-138 0 -209 6v-283q0 -33 -10 -43
q-7 -6 -27 -11t-57 -5zM535 485q81 0 141.5 19t101 53t60.5 81.5t20 104.5q0 110 -76 169t-229 59h-215v-482q83 -4 197 -4z" />
    <glyph glyph-name="germandbls" unicode="&#xdf;" horiz-adv-x="1145" 
d="M723 -20q-40 0 -93.5 10t-88 25.5t-62.5 33.5q-6 4 -15 9.5t-17.5 11.5t-14.5 13.5t-6 16.5q0 18 13.5 47t30 42.5t32.5 13.5q13 0 69 -27t86.5 -37t63.5 -10q67 0 108.5 26.5t56.5 65t15 68.5q0 54 -34 92t-83 63t-88 41q-40 17 -78 35.5t-68 43.5t-48.5 59t-18.5 82
q0 34 14 71t33 64.5t35 52.5q38 55 53 82t25 59.5t10 61.5q0 48 -21.5 81.5t-53.5 44.5t-60 11q-50 0 -83.5 -13t-53.5 -38.5t-28.5 -64.5t-8.5 -91v-977q0 -39 -22.5 -48t-67.5 -9q-36 0 -53 4t-24 17t-7 34v993q0 117 44 197t124 111.5t170 31.5q121 0 197.5 -50t99 -110
t22.5 -102q0 -84 -28 -145t-72 -123q-28 -38 -49 -65.5t-21 -59.5q0 -21 18 -37.5t47 -32.5t65 -32t71 -35q85 -46 126.5 -78t66 -87t24.5 -122q0 -65 -19 -123t-61 -102t-109 -70t-163 -26z" />
    <glyph glyph-name="agrave" unicode="&#xe0;" horiz-adv-x="901" 
d="M49 0zM328 -20q-52 0 -102 15t-89.5 47.5t-63.5 84t-24 125.5q0 109 52.5 176.5t133 93.5t156.5 33l227 20v21q0 55 -28 98t-75.5 59.5t-98.5 16.5q-62 0 -112.5 -16t-119.5 -47q-20 -11 -41 -11q-14 0 -25.5 14.5t-21.5 34.5q-14 31 -14 52q0 12 11.5 23.5t43.5 27.5
q50 25 95 38.5t96 20t102 6.5q84 0 151 -23t115 -71q44 -45 66 -111t22 -163v-369q0 -34 7 -59.5t12 -36.5q12 -32 12 -37q0 -25 -46.5 -41t-72.5 -16q-12 0 -20 5.5t-14 16.5q-19 28 -35 96q-65 -65 -139 -94.5t-160 -29.5zM352 121q45 0 91.5 13t88.5 45.5t64 83t22 110.5
v65l-229 -20q-80 -8 -126 -46t-46 -110q0 -37 11.5 -63.5t30 -44t43 -25.5t50.5 -8zM454 1012q-20 0 -33 3t-22 9q-7 4 -37 39l-133 164q-28 34 -41 55t-13 35q0 23 29 29t74 6q35 0 59.5 -9.5t42.5 -39.5l133 -216q17 -26 17 -49q0 -11 -14 -18.5t-62 -7.5z" />
    <glyph glyph-name="aacute" unicode="&#xe1;" horiz-adv-x="901" 
d="M49 0zM328 -20q-52 0 -102 15t-89.5 47.5t-63.5 84t-24 125.5q0 109 52.5 176.5t133 93.5t156.5 33l227 20v21q0 55 -28 98t-75.5 59.5t-98.5 16.5q-62 0 -112.5 -16t-119.5 -47q-20 -11 -41 -11q-14 0 -25.5 14.5t-21.5 34.5q-14 31 -14 52q0 12 11.5 23.5t43.5 27.5
q50 25 95 38.5t96 20t102 6.5q84 0 151 -23t115 -71q44 -45 66 -111t22 -163v-369q0 -34 7 -59.5t12 -36.5q12 -32 12 -37q0 -25 -46.5 -41t-72.5 -16q-12 0 -20 5.5t-14 16.5q-19 28 -35 96q-65 -65 -139 -94.5t-160 -29.5zM352 121q45 0 91.5 13t88.5 45.5t64 83t22 110.5
v65l-229 -20q-80 -8 -126 -46t-46 -110q0 -37 11.5 -63.5t30 -44t43 -25.5t50.5 -8zM349 1012q-46 0 -61 7.5t-15 18.5q0 20 17 49l133 216q19 30 43 39.5t59 9.5q45 0 74 -6t29 -29q0 -14 -13 -35t-41 -55l-133 -164q-8 -9 -16.5 -20t-19.5 -19q-20 -12 -56 -12z" />
    <glyph glyph-name="acircumflex" unicode="&#xe2;" horiz-adv-x="901" 
d="M49 0zM328 -20q-52 0 -102 15t-89.5 47.5t-63.5 84t-24 125.5q0 109 52.5 176.5t133 93.5t156.5 33l227 20v21q0 55 -28 98t-75.5 59.5t-98.5 16.5q-62 0 -112.5 -16t-119.5 -47q-20 -11 -41 -11q-14 0 -25.5 14.5t-21.5 34.5q-14 31 -14 52q0 12 11.5 23.5t43.5 27.5
q50 25 95 38.5t96 20t102 6.5q84 0 151 -23t115 -71q44 -45 66 -111t22 -163v-369q0 -34 7 -59.5t12 -36.5q12 -32 12 -37q0 -25 -46.5 -41t-72.5 -16q-12 0 -20 5.5t-14 16.5q-19 28 -35 96q-65 -65 -139 -94.5t-160 -29.5zM352 121q45 0 91.5 13t88.5 45.5t64 83t22 110.5
v65l-229 -20q-80 -8 -126 -46t-46 -110q0 -37 11.5 -63.5t30 -44t43 -25.5t50.5 -8zM189 1012q-35 0 -51 7.5t-16 22.5q0 22 34 60l181 198q24 28 43.5 40t54.5 12t54.5 -13t43.5 -39l181 -198q34 -38 34 -60q0 -15 -16 -22.5t-51 -7.5q-38 0 -58 6t-38 24l-150 154
l-150 -154q-18 -18 -38 -24t-58 -6z" />
    <glyph glyph-name="atilde" unicode="&#xe3;" horiz-adv-x="901" 
d="M49 0zM328 -20q-52 0 -102 15t-89.5 47.5t-63.5 84t-24 125.5q0 109 52.5 176.5t133 93.5t156.5 33l227 20v21q0 55 -28 98t-75.5 59.5t-98.5 16.5q-62 0 -112.5 -16t-119.5 -47q-20 -11 -41 -11q-14 0 -25.5 14.5t-21.5 34.5q-14 31 -14 52q0 12 11.5 23.5t43.5 27.5
q50 25 95 38.5t96 20t102 6.5q84 0 151 -23t115 -71q44 -45 66 -111t22 -163v-369q0 -34 7 -59.5t12 -36.5q12 -32 12 -37q0 -25 -46.5 -41t-72.5 -16q-12 0 -20 5.5t-14 16.5q-19 28 -35 96q-65 -65 -139 -94.5t-160 -29.5zM352 121q45 0 91.5 13t88.5 45.5t64 83t22 110.5
v65l-229 -20q-80 -8 -126 -46t-46 -110q0 -37 11.5 -63.5t30 -44t43 -25.5t50.5 -8zM140 1012q-20 0 -30.5 13t-2.5 48q19 84 65 131t122 47q42 0 73.5 -12.5t57.5 -28.5q70 -43 104 -43q24 0 39.5 19.5t28.5 46.5q6 17 19.5 23t33.5 6h43q35 0 35 -19q0 -42 -14 -83.5
t-40.5 -74.5t-63.5 -53t-83 -20q-38 0 -69.5 12.5t-59.5 28.5q-71 43 -107 43q-31 0 -63 -64q-14 -20 -39 -20h-49z" />
    <glyph glyph-name="adieresis" unicode="&#xe4;" horiz-adv-x="901" 
d="M49 0zM328 -20q-52 0 -102 15t-89.5 47.5t-63.5 84t-24 125.5q0 109 52.5 176.5t133 93.5t156.5 33l227 20v21q0 55 -28 98t-75.5 59.5t-98.5 16.5q-62 0 -112.5 -16t-119.5 -47q-20 -11 -41 -11q-14 0 -25.5 14.5t-21.5 34.5q-14 31 -14 52q0 12 11.5 23.5t43.5 27.5
q50 25 95 38.5t96 20t102 6.5q84 0 151 -23t115 -71q44 -45 66 -111t22 -163v-369q0 -34 7 -59.5t12 -36.5q12 -32 12 -37q0 -25 -46.5 -41t-72.5 -16q-12 0 -20 5.5t-14 16.5q-19 28 -35 96q-65 -65 -139 -94.5t-160 -29.5zM352 121q45 0 91.5 13t88.5 45.5t64 83t22 110.5
v65l-229 -20q-80 -8 -126 -46t-46 -110q0 -37 11.5 -63.5t30 -44t43 -25.5t50.5 -8zM302 1012q-29 0 -57 18t-37.5 42t-9.5 46q0 47 29.5 78t74.5 31q31 0 57 -17t38 -43t12 -49q0 -45 -30 -75.5t-77 -30.5zM581 1012q-29 0 -57 18t-37.5 42t-9.5 46q0 47 29.5 78t74.5 31
q30 0 56.5 -17.5t38.5 -43t12 -48.5q0 -33 -17 -59t-42 -36.5t-48 -10.5z" />
    <glyph glyph-name="aring" unicode="&#xe5;" horiz-adv-x="901" 
d="M49 0zM328 -20q-52 0 -102 15t-89.5 47.5t-63.5 84t-24 125.5q0 109 52.5 176.5t133 93.5t156.5 33l227 20v21q0 55 -28 98t-75.5 59.5t-98.5 16.5q-62 0 -112.5 -16t-119.5 -47q-20 -11 -41 -11q-14 0 -25.5 14.5t-21.5 34.5q-14 31 -14 52q0 12 11.5 23.5t43.5 27.5
q50 25 95 38.5t96 20t102 6.5q84 0 151 -23t115 -71q44 -45 66 -111t22 -163v-369q0 -34 7 -59.5t12 -36.5q12 -32 12 -37q0 -25 -46.5 -41t-72.5 -16q-12 0 -20 5.5t-14 16.5q-19 28 -35 96q-65 -65 -139 -94.5t-160 -29.5zM352 121q45 0 91.5 13t88.5 45.5t64 83t22 110.5
v65l-229 -20q-80 -8 -126 -46t-46 -110q0 -37 11.5 -63.5t30 -44t43 -25.5t50.5 -8zM411 1012q-52 0 -99.5 31.5t-66 75t-18.5 81.5q0 55 31.5 102.5t72 67t80.5 19.5q55 0 100.5 -32.5t66.5 -76t21 -80.5q0 -59 -33.5 -106.5t-76 -64.5t-78.5 -17zM411 1106q27 0 50.5 17
t33.5 38t10 39q0 26 -17 49t-38.5 34t-38.5 11q-26 0 -49.5 -17t-32 -38t-8.5 -39q0 -29 17.5 -53.5t36.5 -32.5t36 -8z" />
    <glyph glyph-name="ae" unicode="&#xe6;" horiz-adv-x="1470" 
d="M354 -20q-62 0 -117 15t-97 48t-66.5 84.5t-24.5 124.5q0 109 52.5 176.5t133 93.5t156.5 33l227 20v21q0 55 -28 98t-75.5 59.5t-98.5 16.5q-62 0 -112.5 -16t-119.5 -47q-20 -11 -41 -11q-14 0 -25.5 14.5t-21.5 34.5q-14 31 -14 52q0 12 11.5 23.5t43.5 27.5
q50 25 95 38.5t96 20t102 6.5q68 0 128 -16.5t101 -50t62 -72.5q34 45 86.5 78t109 47t105.5 14q134 0 224 -69.5t123.5 -176t33.5 -212.5q0 -35 -19 -47q-18 -15 -71 -15h-529q7 -55 27.5 -101.5t53 -80t75.5 -52t94 -18.5q53 0 88 7.5t70 21.5q25 9 45 21t39 12
q22 0 33 -14t22 -35q23 -46 23 -56q0 -14 -12 -27t-46 -30q-61 -31 -122 -46t-144 -15q-109 0 -193.5 42t-140.5 119q-40 -50 -95 -89t-118.5 -55.5t-128.5 -16.5zM377 121q39 0 81.5 13t81.5 46t58.5 83t19.5 110v65l-229 -20q-80 -8 -126 -46t-46 -110q0 -54 26 -88
t62 -43.5t72 -9.5zM791 537h430q-5 80 -37 136t-79.5 77.5t-94.5 21.5q-96 0 -149 -63t-70 -172z" />
    <glyph glyph-name="ccedilla" unicode="&#xe7;" horiz-adv-x="795" 
d="M74 0zM479 -20q-83 0 -156.5 28t-129 86t-87.5 145.5t-32 206.5q0 102 30 187.5t84.5 147.5t131.5 97t172 35q55 0 99 -10t93 -29q46 -20 61 -34.5t15 -30.5q0 -13 -19 -64q-24 -49 -49 -49q-11 0 -71 29q-33 15 -64.5 23t-71.5 8q-51 0 -93.5 -24t-73.5 -65.5t-48.5 -98
t-17.5 -122.5q0 -68 17 -123.5t47.5 -95.5t73 -62t93.5 -22q42 0 70.5 7.5t54 19t46 23.5t38.5 12q24 0 56 -49q22 -44 22 -58t-11.5 -27t-45.5 -30q-47 -25 -103 -43t-131 -18zM345 -406q-33 0 -43 10t-10 25q0 13 10 49l55 216q8 29 28.5 37t55.5 8q37 0 57.5 -5.5
t26.5 -14.5t6 -15v-22t-8 -27l-92 -215q-12 -29 -27 -37.5t-59 -8.5z" />
    <glyph glyph-name="egrave" unicode="&#xe8;" horiz-adv-x="938" 
d="M74 0zM498 -20q-96 0 -174.5 33.5t-134 95t-85.5 148t-30 192.5q0 105 29 190.5t82.5 146.5t128 94t165.5 33q140 0 232.5 -70t125.5 -176t33 -212q0 -35 -18 -47q-18 -15 -72 -15h-528q7 -55 27.5 -101.5t53 -80t75.5 -52t94 -18.5q53 0 86.5 7.5t70.5 21.5
q25 9 45.5 21t38.5 12q22 0 33.5 -14t22.5 -35q22 -44 22 -56q0 -14 -11.5 -27t-45.5 -30q-50 -24 -87 -36t-84.5 -18.5t-94.5 -6.5zM258 537h430q-3 77 -36 134.5t-80.5 79t-94.5 21.5q-95 0 -148.5 -63t-70.5 -172zM536 1012q-20 0 -33 3t-22 9q-7 4 -37 39l-133 164
q-28 34 -41 55t-13 35q0 23 29 29t74 6q35 0 59.5 -9.5t42.5 -39.5l133 -216q17 -26 17 -49q0 -11 -14 -18.5t-62 -7.5z" />
    <glyph glyph-name="eacute" unicode="&#xe9;" horiz-adv-x="938" 
d="M74 0zM498 -20q-96 0 -174.5 33.5t-134 95t-85.5 148t-30 192.5q0 105 29 190.5t82.5 146.5t128 94t165.5 33q140 0 232.5 -70t125.5 -176t33 -212q0 -35 -18 -47q-18 -15 -72 -15h-528q7 -55 27.5 -101.5t53 -80t75.5 -52t94 -18.5q53 0 86.5 7.5t70.5 21.5
q25 9 45.5 21t38.5 12q22 0 33.5 -14t22.5 -35q22 -44 22 -56q0 -14 -11.5 -27t-45.5 -30q-50 -24 -87 -36t-84.5 -18.5t-94.5 -6.5zM258 537h430q-3 77 -36 134.5t-80.5 79t-94.5 21.5q-95 0 -148.5 -63t-70.5 -172zM454 1012q-46 0 -61 7.5t-15 18.5q0 20 17 49l133 216
q19 30 43 39.5t59 9.5q45 0 74 -6t29 -29q0 -14 -13 -35t-41 -55l-133 -164q-8 -9 -16.5 -20t-19.5 -19q-20 -12 -56 -12z" />
    <glyph glyph-name="ecircumflex" unicode="&#xea;" horiz-adv-x="938" 
d="M74 0zM498 -20q-96 0 -174.5 33.5t-134 95t-85.5 148t-30 192.5q0 105 29 190.5t82.5 146.5t128 94t165.5 33q140 0 232.5 -70t125.5 -176t33 -212q0 -35 -18 -47q-18 -15 -72 -15h-528q7 -55 27.5 -101.5t53 -80t75.5 -52t94 -18.5q53 0 86.5 7.5t70.5 21.5
q25 9 45.5 21t38.5 12q22 0 33.5 -14t22.5 -35q22 -44 22 -56q0 -14 -11.5 -27t-45.5 -30q-50 -24 -87 -36t-84.5 -18.5t-94.5 -6.5zM258 537h430q-3 77 -36 134.5t-80.5 79t-94.5 21.5q-95 0 -148.5 -63t-70.5 -172zM247 1012q-35 0 -51 7.5t-16 22.5q0 22 34 60l181 198
q24 28 43.5 40t54.5 12t54.5 -13t43.5 -39l181 -198q34 -38 34 -60q0 -15 -16 -22.5t-51 -7.5q-38 0 -58 6t-38 24l-150 154l-150 -154q-18 -18 -38 -24t-58 -6z" />
    <glyph glyph-name="edieresis" unicode="&#xeb;" horiz-adv-x="938" 
d="M74 0zM498 -20q-96 0 -174.5 33.5t-134 95t-85.5 148t-30 192.5q0 105 29 190.5t82.5 146.5t128 94t165.5 33q140 0 232.5 -70t125.5 -176t33 -212q0 -35 -18 -47q-18 -15 -72 -15h-528q7 -55 27.5 -101.5t53 -80t75.5 -52t94 -18.5q53 0 86.5 7.5t70.5 21.5
q25 9 45.5 21t38.5 12q22 0 33.5 -14t22.5 -35q22 -44 22 -56q0 -14 -11.5 -27t-45.5 -30q-50 -24 -87 -36t-84.5 -18.5t-94.5 -6.5zM258 537h430q-3 77 -36 134.5t-80.5 79t-94.5 21.5q-95 0 -148.5 -63t-70.5 -172zM362 1012q-29 0 -57 18t-37.5 42t-9.5 46q0 47 29.5 78
t74.5 31q31 0 57 -17t38 -43t12 -49q0 -45 -30 -75.5t-77 -30.5zM641 1012q-29 0 -57 18t-37.5 42t-9.5 46q0 47 29.5 78t74.5 31q30 0 56.5 -17.5t38.5 -43t12 -48.5q0 -33 -17 -59t-42 -36.5t-48 -10.5z" />
    <glyph glyph-name="igrave" unicode="&#xec;" horiz-adv-x="416" 
d="M0 0zM205 -8q-31 0 -48.5 4t-23.5 10q-12 9 -12 41v776q0 20 3 31.5t11 19.5q11 13 70 25q30 6 47 6q25 0 31 -6q12 -9 12 -39v-813q0 -30 -12 -39q-7 -6 -25 -11t-53 -5zM228 1012q-20 0 -33 3t-22 9q-7 4 -37 39l-133 164q-28 34 -41 55t-13 35q0 23 29 29t74 6
q35 0 59.5 -9.5t42.5 -39.5l133 -216q17 -26 17 -49q0 -11 -14 -18.5t-62 -7.5z" />
    <glyph glyph-name="iacute" unicode="&#xed;" horiz-adv-x="416" 
d="M121 0zM205 -8q-31 0 -48.5 4t-23.5 10q-12 9 -12 41v776q0 20 3 31.5t11 19.5q11 13 70 25q30 6 47 6q25 0 31 -6q12 -9 12 -39v-813q0 -30 -12 -39q-7 -6 -25 -11t-53 -5zM197 1012q-46 0 -61 7.5t-15 18.5q0 20 17 49l133 216q19 30 43 39.5t59 9.5q45 0 74 -6t29 -29
q0 -14 -13 -35t-41 -55l-133 -164q-8 -9 -16.5 -20t-19.5 -19q-20 -12 -56 -12z" />
    <glyph glyph-name="icircumflex" unicode="&#xee;" horiz-adv-x="416" 
d="M0 0zM205 -8q-31 0 -48.5 4t-23.5 10q-12 9 -12 41v776q0 20 3 31.5t11 19.5q11 13 70 25q30 6 47 6q25 0 31 -6q12 -9 12 -39v-813q0 -30 -12 -39q-7 -6 -25 -11t-53 -5zM-20 1012q-35 0 -51 7.5t-16 22.5q0 22 34 60l181 198q24 28 43.5 40t54.5 12t54.5 -13t43.5 -39
l181 -198q34 -38 34 -60q0 -15 -16 -22.5t-51 -7.5q-38 0 -58 6t-38 24l-150 154l-150 -154q-18 -18 -38 -24t-58 -6z" />
    <glyph glyph-name="idieresis" unicode="&#xef;" horiz-adv-x="416" 
d="M0 0zM205 -8q-31 0 -48.5 4t-23.5 10q-12 9 -12 41v776q0 20 3 31.5t11 19.5q11 13 70 25q30 6 47 6q25 0 31 -6q12 -9 12 -39v-813q0 -30 -12 -39q-7 -6 -25 -11t-53 -5zM76 1012q-29 0 -57 18t-37.5 42t-9.5 46q0 47 29.5 78t74.5 31q31 0 57 -17t38 -43t12 -49
q0 -45 -30 -75.5t-77 -30.5zM355 1012q-29 0 -57 18t-37.5 42t-9.5 46q0 47 29.5 78t74.5 31q30 0 56.5 -17.5t38.5 -43t12 -48.5q0 -33 -17 -59t-42 -36.5t-48 -10.5z" />
    <glyph glyph-name="eth" unicode="&#xf0;" horiz-adv-x="1004" 
d="M502 -20q-91 0 -169 33t-135.5 94t-90.5 147t-33 192q0 113 32 199.5t86 145t125.5 88.5t149.5 30q88 0 146.5 -27t88.5 -61q-14 68 -38.5 124.5t-53.5 101.5l-151 -62q-10 -3 -19.5 -6.5t-21.5 -3.5q-8 0 -18.5 11.5t-18.5 31.5q-14 35 -14 53q0 14 7 21t19 12l131 53
q-23 27 -37 39q-20 18 -55 45t-35 39q0 11 3 20.5t8.5 16t11.5 16.5q30 47 59 47q10 0 31.5 -9.5t50 -28.5t62.5 -49t69 -70l119 49q28 12 49 12q11 0 22.5 -10t20.5 -33q15 -38 15 -49q0 -14 -8.5 -21t-20.5 -12l-117 -47q55 -90 89.5 -186t51.5 -207t17 -211
q0 -128 -32.5 -226.5t-90 -165.5t-136 -101.5t-169.5 -34.5zM502 129q84 0 145 51.5t83 125.5t22 140q0 99 -36.5 176.5t-95.5 109.5t-118 32t-105.5 -25t-78.5 -68t-49 -101t-17 -124t16.5 -124t48.5 -100.5t78.5 -67.5t106.5 -25z" />
    <glyph glyph-name="ntilde" unicode="&#xf1;" horiz-adv-x="1006" 
d="M121 0zM205 -8q-31 0 -48.5 4t-23.5 10q-12 9 -12 41v776q0 20 3 31.5t11 19.5q11 13 70 25q30 6 47 6q25 0 31 -6q12 -9 12 -39v-78q32 43 77 72.5t97.5 44t99.5 14.5q122 0 197.5 -53.5t100 -132t24.5 -152.5v-526q0 -32 -12 -41q-7 -6 -25 -11t-53 -5q-31 0 -48.5 4
t-23.5 10q-12 9 -12 41v508q0 105 -48.5 156t-142.5 51q-47 0 -89 -19.5t-73.5 -52.5t-50 -76t-18.5 -90v-475q0 -32 -12 -41q-7 -6 -25 -11t-53 -5zM231 1012q-20 0 -30.5 13t-2.5 48q19 84 65 131t122 47q42 0 73.5 -12.5t57.5 -28.5q70 -43 104 -43q24 0 39.5 19.5
t28.5 46.5q6 17 19.5 23t33.5 6h43q35 0 35 -19q0 -42 -14 -83.5t-40.5 -74.5t-63.5 -53t-83 -20q-38 0 -69.5 12.5t-59.5 28.5q-71 43 -107 43q-31 0 -63 -64q-14 -20 -39 -20h-49z" />
    <glyph glyph-name="ograve" unicode="&#xf2;" horiz-adv-x="1004" 
d="M74 0zM502 -20q-91 0 -169 33t-135.5 94t-90.5 147t-33 192q0 105 32.5 191.5t90 147.5t135.5 94.5t170 33.5q137 0 240.5 -72t145.5 -180.5t42 -214.5q0 -105 -32.5 -191t-90 -147t-136 -94.5t-169.5 -33.5zM502 129q84 0 145 51.5t83 125.5t22 140q0 99 -36.5 176.5
t-95.5 109.5t-118 32t-105.5 -25t-78.5 -68t-49 -101t-17 -124t16.5 -124t48.5 -100.5t78.5 -67.5t106.5 -25zM556 1012q-20 0 -33 3t-22 9q-7 4 -37 39l-133 164q-28 34 -41 55t-13 35q0 23 29 29t74 6q35 0 59.5 -9.5t42.5 -39.5l133 -216q17 -26 17 -49q0 -11 -14 -18.5
t-62 -7.5z" />
    <glyph glyph-name="oacute" unicode="&#xf3;" horiz-adv-x="1004" 
d="M74 0zM502 -20q-91 0 -169 33t-135.5 94t-90.5 147t-33 192q0 105 32.5 191.5t90 147.5t135.5 94.5t170 33.5q137 0 240.5 -72t145.5 -180.5t42 -214.5q0 -105 -32.5 -191t-90 -147t-136 -94.5t-169.5 -33.5zM502 129q84 0 145 51.5t83 125.5t22 140q0 99 -36.5 176.5
t-95.5 109.5t-118 32t-105.5 -25t-78.5 -68t-49 -101t-17 -124t16.5 -124t48.5 -100.5t78.5 -67.5t106.5 -25zM454 1012q-46 0 -61 7.5t-15 18.5q0 20 17 49l133 216q19 30 43 39.5t59 9.5q45 0 74 -6t29 -29q0 -14 -13 -35t-41 -55l-133 -164q-8 -9 -16.5 -20t-19.5 -19
q-20 -12 -56 -12z" />
    <glyph glyph-name="ocircumflex" unicode="&#xf4;" horiz-adv-x="1004" 
d="M74 0zM502 -20q-91 0 -169 33t-135.5 94t-90.5 147t-33 192q0 105 32.5 191.5t90 147.5t135.5 94.5t170 33.5q137 0 240.5 -72t145.5 -180.5t42 -214.5q0 -105 -32.5 -191t-90 -147t-136 -94.5t-169.5 -33.5zM502 129q84 0 145 51.5t83 125.5t22 140q0 99 -36.5 176.5
t-95.5 109.5t-118 32t-105.5 -25t-78.5 -68t-49 -101t-17 -124t16.5 -124t48.5 -100.5t78.5 -67.5t106.5 -25zM266 1012q-35 0 -51 7.5t-16 22.5q0 22 34 60l181 198q24 28 43.5 40t54.5 12t54.5 -13t43.5 -39l181 -198q34 -38 34 -60q0 -15 -16 -22.5t-51 -7.5q-38 0 -58 6
t-38 24l-150 154l-150 -154q-18 -18 -38 -24t-58 -6z" />
    <glyph glyph-name="otilde" unicode="&#xf5;" horiz-adv-x="1004" 
d="M74 0zM502 -20q-91 0 -169 33t-135.5 94t-90.5 147t-33 192q0 105 32.5 191.5t90 147.5t135.5 94.5t170 33.5q137 0 240.5 -72t145.5 -180.5t42 -214.5q0 -105 -32.5 -191t-90 -147t-136 -94.5t-169.5 -33.5zM502 129q84 0 145 51.5t83 125.5t22 140q0 99 -36.5 176.5
t-95.5 109.5t-118 32t-105.5 -25t-78.5 -68t-49 -101t-17 -124t16.5 -124t48.5 -100.5t78.5 -67.5t106.5 -25zM213 1012q-20 0 -30.5 13t-2.5 48q19 84 65 131t122 47q42 0 73.5 -12.5t57.5 -28.5q70 -43 104 -43q24 0 39.5 19.5t28.5 46.5q6 17 19.5 23t33.5 6h43
q35 0 35 -19q0 -42 -14 -83.5t-40.5 -74.5t-63.5 -53t-83 -20q-38 0 -69.5 12.5t-59.5 28.5q-71 43 -107 43q-31 0 -63 -64q-14 -20 -39 -20h-49z" />
    <glyph glyph-name="odieresis" unicode="&#xf6;" horiz-adv-x="1004" 
d="M74 0zM502 -20q-91 0 -169 33t-135.5 94t-90.5 147t-33 192q0 105 32.5 191.5t90 147.5t135.5 94.5t170 33.5q137 0 240.5 -72t145.5 -180.5t42 -214.5q0 -105 -32.5 -191t-90 -147t-136 -94.5t-169.5 -33.5zM502 129q84 0 145 51.5t83 125.5t22 140q0 99 -36.5 176.5
t-95.5 109.5t-118 32t-105.5 -25t-78.5 -68t-49 -101t-17 -124t16.5 -124t48.5 -100.5t78.5 -67.5t106.5 -25zM372 1012q-29 0 -57 18t-37.5 42t-9.5 46q0 47 29.5 78t74.5 31q31 0 57 -17t38 -43t12 -49q0 -45 -30 -75.5t-77 -30.5zM651 1012q-29 0 -57 18t-37.5 42
t-9.5 46q0 47 29.5 78t74.5 31q30 0 56.5 -17.5t38.5 -43t12 -48.5q0 -33 -17 -59t-42 -36.5t-48 -10.5z" />
    <glyph glyph-name="divide" unicode="&#xf7;" horiz-adv-x="973" 
d="M487 180q-33 0 -63 20.5t-42.5 48.5t-12.5 52q0 35 20.5 67t47 44t50.5 12q32 0 63 -20.5t44.5 -49t13.5 -53.5q0 -36 -21 -66t-49 -42.5t-51 -12.5zM127 553q-23 0 -34.5 6.5t-17 24.5t-5.5 53q0 31 4 45t10 20q13 13 41 13h723q28 0 41 -13q6 -6 10 -20t4 -45
q0 -56 -14 -70t-43 -14h-719zM487 840q-34 0 -63.5 20t-42 48t-12.5 53q0 35 20 66t47 43.5t51 12.5q32 0 63 -20.5t44.5 -49t13.5 -52.5q0 -37 -21.5 -68t-49 -42t-50.5 -11z" />
    <glyph glyph-name="oslash" unicode="&#xf8;" horiz-adv-x="1004" 
d="M502 -20q-72 0 -138 21.5t-120 61.5l-29 -34q-26 -29 -82 -29q-35 0 -48 8t-13 21q0 18 24 47l66 76q-42 57 -65 131t-23 163q0 105 32.5 191.5t90 147.5t135.5 94.5t170 33.5q139 0 246 -75l38 47q15 15 29 21.5t53 6.5q35 0 48.5 -8t13.5 -20q0 -18 -25 -47l-71 -84
q45 -59 70.5 -136.5t25.5 -171.5q0 -105 -32.5 -191t-90 -147t-136 -94.5t-169.5 -33.5zM502 129q84 0 145 51.5t83 125.5t22 140q0 48 -9 91.5t-26 80.5l-367 -432q29 -27 67 -42t85 -15zM279 291l364 426q-59 47 -141 47q-59 0 -105.5 -25t-78.5 -68t-49 -101t-17 -124
q0 -43 7 -81.5t20 -73.5z" />
    <glyph glyph-name="ugrave" unicode="&#xf9;" horiz-adv-x="1006" 
d="M115 0zM436 -20q-79 0 -139 25t-100.5 70t-61 106.5t-20.5 135.5v527q0 29 12 41q6 6 24.5 11t53.5 5q31 0 48 -4t23 -10q13 -10 13 -41v-508q0 -104 52 -155.5t138 -51.5q67 0 124.5 41.5t82.5 95.5t25 101v475q0 32 12 41q6 6 24.5 11t53.5 5q31 0 48 -4t23 -10
q13 -10 13 -41v-799q0 -28 -13 -41q-6 -6 -20.5 -10t-46.5 -4t-48 4t-22 10q-12 9 -12 43v80q-30 -48 -81.5 -85t-106 -50.5t-99.5 -13.5zM556 1012q-20 0 -33 3t-22 9q-7 4 -37 39l-133 164q-28 34 -41 55t-13 35q0 23 29 29t74 6q35 0 59.5 -9.5t42.5 -39.5l133 -216
q17 -26 17 -49q0 -11 -14 -18.5t-62 -7.5z" />
    <glyph glyph-name="uacute" unicode="&#xfa;" horiz-adv-x="1006" 
d="M115 0zM436 -20q-79 0 -139 25t-100.5 70t-61 106.5t-20.5 135.5v527q0 29 12 41q6 6 24.5 11t53.5 5q31 0 48 -4t23 -10q13 -10 13 -41v-508q0 -104 52 -155.5t138 -51.5q67 0 124.5 41.5t82.5 95.5t25 101v475q0 32 12 41q6 6 24.5 11t53.5 5q31 0 48 -4t23 -10
q13 -10 13 -41v-799q0 -28 -13 -41q-6 -6 -20.5 -10t-46.5 -4t-48 4t-22 10q-12 9 -12 43v80q-30 -48 -81.5 -85t-106 -50.5t-99.5 -13.5zM475 1012q-46 0 -61 7.5t-15 18.5q0 20 17 49l133 216q19 30 43 39.5t59 9.5q45 0 74 -6t29 -29q0 -14 -13 -35t-41 -55l-133 -164
q-8 -9 -16.5 -20t-19.5 -19q-20 -12 -56 -12z" />
    <glyph glyph-name="ucircumflex" unicode="&#xfb;" horiz-adv-x="1006" 
d="M115 0zM436 -20q-79 0 -139 25t-100.5 70t-61 106.5t-20.5 135.5v527q0 29 12 41q6 6 24.5 11t53.5 5q31 0 48 -4t23 -10q13 -10 13 -41v-508q0 -104 52 -155.5t138 -51.5q67 0 124.5 41.5t82.5 95.5t25 101v475q0 32 12 41q6 6 24.5 11t53.5 5q31 0 48 -4t23 -10
q13 -10 13 -41v-799q0 -28 -13 -41q-6 -6 -20.5 -10t-46.5 -4t-48 4t-22 10q-12 9 -12 43v80q-30 -48 -81.5 -85t-106 -50.5t-99.5 -13.5zM266 1012q-35 0 -51 7.5t-16 22.5q0 22 34 60l181 198q24 28 43.5 40t54.5 12t54.5 -13t43.5 -39l181 -198q34 -38 34 -60
q0 -15 -16 -22.5t-51 -7.5q-38 0 -58 6t-38 24l-150 154l-150 -154q-18 -18 -38 -24t-58 -6z" />
    <glyph glyph-name="udieresis" unicode="&#xfc;" horiz-adv-x="1006" 
d="M115 0zM436 -20q-79 0 -139 25t-100.5 70t-61 106.5t-20.5 135.5v527q0 29 12 41q6 6 24.5 11t53.5 5q31 0 48 -4t23 -10q13 -10 13 -41v-508q0 -104 52 -155.5t138 -51.5q67 0 124.5 41.5t82.5 95.5t25 101v475q0 32 12 41q6 6 24.5 11t53.5 5q31 0 48 -4t23 -10
q13 -10 13 -41v-799q0 -28 -13 -41q-6 -6 -20.5 -10t-46.5 -4t-48 4t-22 10q-12 9 -12 43v80q-30 -48 -81.5 -85t-106 -50.5t-99.5 -13.5zM362 1012q-29 0 -57 18t-37.5 42t-9.5 46q0 47 29.5 78t74.5 31q31 0 57 -17t38 -43t12 -49q0 -45 -30 -75.5t-77 -30.5zM641 1012
q-29 0 -57 18t-37.5 42t-9.5 46q0 47 29.5 78t74.5 31q30 0 56.5 -17.5t38.5 -43t12 -48.5q0 -33 -17 -59t-42 -36.5t-48 -10.5z" />
    <glyph glyph-name="yacute" unicode="&#xfd;" horiz-adv-x="911" 
d="M14 0zM266 -406q-43 0 -61.5 10.5t-18.5 24.5q0 13 17 49l180 406l-354 733q-15 31 -15 45q0 11 9.5 19.5t32 14t50.5 5.5q42 0 63.5 -7.5t31.5 -29.5l272 -577l252 569q11 27 32 36t68 9q49 0 64.5 -10t15.5 -23q0 -17 -16 -51l-522 -1177q-12 -27 -32.5 -36.5
t-68.5 -9.5zM475 1012q-46 0 -61 7.5t-15 18.5q0 20 17 49l133 216q19 30 43 39.5t59 9.5q45 0 74 -6t29 -29q0 -14 -13 -35t-41 -55l-133 -164q-8 -9 -16.5 -20t-19.5 -19q-20 -12 -56 -12z" />
    <glyph glyph-name="thorn" unicode="&#xfe;" horiz-adv-x="1024" 
d="M205 -393q-31 0 -48.5 4t-23.5 10q-12 9 -12 41v1636q0 39 14 52q12 12 70 24q30 6 47 6q24 0 31 -4q12 -9 12 -41v-547q34 44 75 71.5t94 40.5t103 13q135 0 226 -71.5t124 -176.5t33 -204q0 -111 -29 -200t-81 -151.5t-124 -96t-159 -33.5q-50 0 -89.5 8.5t-71.5 23.5
t-56.5 35t-44.5 43v-426q0 -32 -12 -41q-7 -6 -25 -11t-53 -5zM524 133q62 0 108 25t76 68.5t45 102t15 126.5q0 101 -33 172t-90 101t-121 30q-61 0 -106 -26t-74.5 -69t-44 -97t-14.5 -111q0 -69 14.5 -128t44 -102t74.5 -67.5t106 -24.5z" />
    <glyph glyph-name="ydieresis" unicode="&#xff;" horiz-adv-x="911" 
d="M14 0zM266 -406q-43 0 -61.5 10.5t-18.5 24.5q0 13 17 49l180 406l-354 733q-15 31 -15 45q0 11 9.5 19.5t32 14t50.5 5.5q42 0 63.5 -7.5t31.5 -29.5l272 -577l252 569q11 27 32 36t68 9q49 0 64.5 -10t15.5 -23q0 -17 -16 -51l-522 -1177q-12 -27 -32.5 -36.5
t-68.5 -9.5zM302 1012q-29 0 -57 18t-37.5 42t-9.5 46q0 47 29.5 78t74.5 31q31 0 57 -17t38 -43t12 -49q0 -45 -30 -75.5t-77 -30.5zM581 1012q-29 0 -57 18t-37.5 42t-9.5 46q0 47 29.5 78t74.5 31q30 0 56.5 -17.5t38.5 -43t12 -48.5q0 -33 -17 -59t-42 -36.5t-48 -10.5z
" />
    <glyph glyph-name="Amacron" unicode="&#x100;" horiz-adv-x="1137" 
d="M10 0zM96 -8q-38 0 -55.5 5t-24.5 11q-6 6 -6 19q0 6 10 43l445 1278q6 20 25.5 29t76.5 9q58 0 78 -9.5t27 -28.5l450 -1297q4 -12 4 -24q0 -11 -10 -21q-5 -5 -24.5 -9.5t-57.5 -4.5q-34 0 -53.5 5t-26.5 11q-9 8 -20 43l-109 328h-522l-108 -328q-12 -30 -17.5 -39
t-26.5 -14.5t-55 -5.5zM354 530h420l-211 633zM379 1498q-26 0 -35 4q-10 10 -10 41q0 23 4.5 46.5t13 39t19.5 20t34 4.5h340q25 0 35 -4q10 -10 10 -41q0 -20 -4.5 -45t-13.5 -41q-13 -24 -53 -24h-340z" />
    <glyph glyph-name="amacron" unicode="&#x101;" horiz-adv-x="901" 
d="M49 0zM328 -20q-52 0 -102 15t-89.5 47.5t-63.5 84t-24 125.5q0 109 52.5 176.5t133 93.5t156.5 33l227 20v21q0 55 -28 98t-75.5 59.5t-98.5 16.5q-62 0 -112.5 -16t-119.5 -47q-20 -11 -41 -11q-14 0 -25.5 14.5t-21.5 34.5q-14 31 -14 52q0 12 11.5 23.5t43.5 27.5
q50 25 95 38.5t96 20t102 6.5q84 0 151 -23t115 -71q44 -45 66 -111t22 -163v-369q0 -34 7 -59.5t12 -36.5q12 -32 12 -37q0 -25 -46.5 -41t-72.5 -16q-12 0 -20 5.5t-14 16.5q-19 28 -35 96q-65 -65 -139 -94.5t-160 -29.5zM352 121q45 0 91.5 13t88.5 45.5t64 83t22 110.5
v65l-229 -20q-80 -8 -126 -46t-46 -110q0 -37 11.5 -63.5t30 -44t43 -25.5t50.5 -8zM250 1047q-26 0 -35 4q-10 10 -10 41q0 23 4.5 46.5t13 39t19.5 20t34 4.5h340q25 0 35 -4q10 -10 10 -41q0 -20 -4.5 -45t-13.5 -41q-13 -24 -53 -24h-340z" />
    <glyph glyph-name="Abreve" unicode="&#x102;" horiz-adv-x="1137" 
d="M10 0zM96 -8q-38 0 -55.5 5t-24.5 11q-6 6 -6 19q0 6 10 43l445 1278q6 20 25.5 29t76.5 9q58 0 78 -9.5t27 -28.5l450 -1297q4 -12 4 -24q0 -11 -10 -21q-5 -5 -24.5 -9.5t-57.5 -4.5q-34 0 -53.5 5t-26.5 11q-9 8 -20 43l-109 328h-522l-108 -328q-12 -30 -17.5 -39
t-26.5 -14.5t-55 -5.5zM354 530h420l-211 633zM555 1463q-70 0 -117 19.5t-77.5 52.5t-47.5 76t-26 91q-3 17 8 27t31 10h65q47 0 55 -28q10 -48 34.5 -73.5t74.5 -25.5q51 0 76 26.5t35 76.5q3 11 13.5 17.5t35.5 6.5h59q29 0 41.5 -7t7.5 -36q-14 -78 -49.5 -132.5
t-93 -77.5t-125.5 -23z" />
    <glyph glyph-name="abreve" unicode="&#x103;" horiz-adv-x="901" 
d="M49 0zM328 -20q-52 0 -102 15t-89.5 47.5t-63.5 84t-24 125.5q0 109 52.5 176.5t133 93.5t156.5 33l227 20v21q0 55 -28 98t-75.5 59.5t-98.5 16.5q-62 0 -112.5 -16t-119.5 -47q-20 -11 -41 -11q-14 0 -25.5 14.5t-21.5 34.5q-14 31 -14 52q0 12 11.5 23.5t43.5 27.5
q50 25 95 38.5t96 20t102 6.5q84 0 151 -23t115 -71q44 -45 66 -111t22 -163v-369q0 -34 7 -59.5t12 -36.5q12 -32 12 -37q0 -25 -46.5 -41t-72.5 -16q-12 0 -20 5.5t-14 16.5q-19 28 -35 96q-65 -65 -139 -94.5t-160 -29.5zM352 121q45 0 91.5 13t88.5 45.5t64 83t22 110.5
v65l-229 -20q-80 -8 -126 -46t-46 -110q0 -37 11.5 -63.5t30 -44t43 -25.5t50.5 -8zM443 1012q-70 0 -117 19.5t-77.5 52.5t-47.5 76t-26 91q-3 17 8 27t31 10h65q47 0 55 -28q10 -48 34.5 -73.5t74.5 -25.5q51 0 76 26.5t35 76.5q3 11 13.5 17.5t35.5 6.5h59q29 0 41.5 -7
t7.5 -36q-14 -78 -49.5 -132.5t-93 -77.5t-125.5 -23z" />
    <glyph glyph-name="Aogonek" unicode="&#x104;" horiz-adv-x="1137" 
d="M997 -406q-46 0 -86.5 13.5t-71 40t-48 65t-17.5 88.5q0 70 33.5 121t95.5 80l18 8t25 10q-6 11 -12 31l-109 328h-522l-108 -328q-12 -30 -17.5 -39t-26.5 -14.5t-55 -5.5q-38 0 -55.5 5t-24.5 11q-6 6 -6 19q0 6 10 43l445 1278q6 20 25.5 29t76.5 9q58 0 78 -9.5
t27 -28.5l450 -1297q4 -12 4 -24q0 -11 -10.5 -21t-64.5 -14q-41 -23 -72 -54t-42 -58.5t-11 -53.5q0 -32 13.5 -56t34 -35t42.5 -11q15 0 51 12t51 12q26 0 38.5 -19t12.5 -42q0 -44 -57 -68t-115 -25zM354 530h420l-211 633z" />
    <glyph glyph-name="aogonek" unicode="&#x105;" horiz-adv-x="901" 
d="M692 -406q-46 0 -86.5 13.5t-71 40t-48 65t-17.5 88.5q0 70 33.5 121t95.5 80q2 2 57 16q-9 15 -28 86q-65 -65 -139 -94.5t-160 -29.5q-52 0 -102 15t-89.5 47.5t-63.5 84t-24 125.5q0 109 52.5 176.5t133 93.5t156.5 33l227 20v21q0 55 -28 98t-75.5 59.5t-98.5 16.5
q-62 0 -112.5 -16t-119.5 -47q-20 -11 -41 -11q-14 0 -25.5 14.5t-21.5 34.5q-14 31 -14 52q0 12 11.5 23.5t43.5 27.5q50 25 95 38.5t96 20t102 6.5q84 0 151 -23t115 -71q44 -45 66 -111t22 -163v-369q0 -34 7 -59.5t12 -36.5q12 -32 12 -37q0 -13 -12 -23h2l-4 -2
q-15 -12 -47 -20q-44 -24 -75.5 -54t-44.5 -60t-13 -58q0 -32 13.5 -56t34 -35t42.5 -11q15 0 51 12t51 12q26 0 38.5 -19t12.5 -42q0 -32 -34.5 -55.5t-75 -30.5t-62.5 -7zM352 121q45 0 91.5 13t88.5 45.5t64 83t22 110.5v65l-229 -20q-80 -8 -126 -46t-46 -110
q0 -37 11.5 -63.5t30 -44t43 -25.5t50.5 -8z" />
    <glyph glyph-name="Cacute" unicode="&#x106;" horiz-adv-x="1114" 
d="M88 0zM680 -29q-124 0 -232 47.5t-188 138.5t-126 223.5t-46 303.5t47 304t128 225t190.5 140t234.5 48q131 0 197 -19t127 -45q41 -18 52 -31t11 -20q0 -11 -6 -31t-18 -43q-20 -35 -32.5 -47t-23.5 -12t-32 10q-6 2 -23.5 13t-50 23t-82 22t-119.5 10q-93 0 -167 -36.5
t-125.5 -106.5t-79 -172t-27.5 -232q0 -131 31 -232t85 -170t127.5 -105t159.5 -36q74 0 137 15t94.5 31.5t41.5 21.5q25 12 41 12q11 0 23.5 -10.5t29.5 -36.5q31 -52 31 -76q0 -19 -62 -53q-31 -18 -83.5 -35t-121.5 -28t-143 -11zM641 1463q-46 0 -61 7.5t-15 18.5
q0 20 17 49l133 216q19 30 43 39.5t59 9.5q45 0 74 -6t29 -29q0 -14 -13 -35t-41 -55l-133 -164q-8 -9 -16.5 -20t-19.5 -19q-20 -12 -56 -12z" />
    <glyph glyph-name="cacute" unicode="&#x107;" horiz-adv-x="795" 
d="M74 0zM479 -20q-83 0 -156.5 28t-129 86t-87.5 145.5t-32 206.5q0 102 30 187.5t84.5 147.5t131.5 97t172 35q55 0 99 -10t93 -29q46 -20 61 -34.5t15 -30.5q0 -13 -19 -64q-24 -49 -49 -49q-11 0 -71 29q-33 15 -64.5 23t-71.5 8q-51 0 -93.5 -24t-73.5 -65.5t-48.5 -98
t-17.5 -122.5q0 -68 17 -123.5t47.5 -95.5t73 -62t93.5 -22q42 0 70.5 7.5t54 19t46 23.5t38.5 12q24 0 56 -49q22 -44 22 -58t-11.5 -27t-45.5 -30q-47 -25 -103 -43t-131 -18zM442 1012q-46 0 -61 7.5t-15 18.5q0 20 17 49l133 216q19 30 43 39.5t59 9.5q45 0 74 -6
t29 -29q0 -14 -13 -35t-41 -55l-133 -164q-8 -9 -16.5 -20t-19.5 -19q-20 -12 -56 -12z" />
    <glyph glyph-name="Ccircumflex" unicode="&#x108;" horiz-adv-x="1114" 
d="M88 0zM680 -29q-124 0 -232 47.5t-188 138.5t-126 223.5t-46 303.5t47 304t128 225t190.5 140t234.5 48q131 0 197 -19t127 -45q41 -18 52 -31t11 -20q0 -11 -6 -31t-18 -43q-20 -35 -32.5 -47t-23.5 -12t-32 10q-6 2 -23.5 13t-50 23t-82 22t-119.5 10q-93 0 -167 -36.5
t-125.5 -106.5t-79 -172t-27.5 -232q0 -131 31 -232t85 -170t127.5 -105t159.5 -36q74 0 137 15t94.5 31.5t41.5 21.5q25 12 41 12q11 0 23.5 -10.5t29.5 -36.5q31 -52 31 -76q0 -19 -62 -53q-31 -18 -83.5 -35t-121.5 -28t-143 -11zM463 1463q-35 0 -51 7.5t-16 22.5
q0 22 34 60l181 198q24 28 43.5 40t54.5 12t54.5 -13t43.5 -39l181 -198q34 -38 34 -60q0 -15 -16 -22.5t-51 -7.5q-38 0 -58 6t-38 24l-150 154l-150 -154q-18 -18 -38 -24t-58 -6z" />
    <glyph glyph-name="ccircumflex" unicode="&#x109;" horiz-adv-x="795" 
d="M74 0zM479 -20q-83 0 -156.5 28t-129 86t-87.5 145.5t-32 206.5q0 102 30 187.5t84.5 147.5t131.5 97t172 35q55 0 99 -10t93 -29q46 -20 61 -34.5t15 -30.5q0 -13 -19 -64q-24 -49 -49 -49q-11 0 -71 29q-33 15 -64.5 23t-71.5 8q-51 0 -93.5 -24t-73.5 -65.5t-48.5 -98
t-17.5 -122.5q0 -68 17 -123.5t47.5 -95.5t73 -62t93.5 -22q42 0 70.5 7.5t54 19t46 23.5t38.5 12q24 0 56 -49q22 -44 22 -58t-11.5 -27t-45.5 -30q-47 -25 -103 -43t-131 -18zM231 1012q-35 0 -51 7.5t-16 22.5q0 22 34 60l181 198q24 28 43.5 40t54.5 12t54.5 -13
t43.5 -39l181 -198q34 -38 34 -60q0 -15 -16 -22.5t-51 -7.5q-38 0 -58 6t-38 24l-150 154l-150 -154q-18 -18 -38 -24t-58 -6z" />
    <glyph glyph-name="Cdotaccent" unicode="&#x10a;" horiz-adv-x="1114" 
d="M88 0zM680 -29q-124 0 -232 47.5t-188 138.5t-126 223.5t-46 303.5t47 304t128 225t190.5 140t234.5 48q131 0 197 -19t127 -45q41 -18 52 -31t11 -20q0 -11 -6 -31t-18 -43q-20 -35 -32.5 -47t-23.5 -12t-32 10q-6 2 -23.5 13t-50 23t-82 22t-119.5 10q-93 0 -167 -36.5
t-125.5 -106.5t-79 -172t-27.5 -232q0 -131 31 -232t85 -170t127.5 -105t159.5 -36q74 0 137 15t94.5 31.5t41.5 21.5q25 12 41 12q11 0 23.5 -10.5t29.5 -36.5q31 -52 31 -76q0 -19 -62 -53q-31 -18 -83.5 -35t-121.5 -28t-143 -11zM703 1504q-28 0 -55.5 17.5t-38.5 42.5
t-11 46q0 31 16.5 57t41 38t47.5 12q28 0 55 -17.5t39 -42.5t12 -47q0 -32 -19.5 -59.5t-43 -37t-43.5 -9.5z" />
    <glyph glyph-name="cdotaccent" unicode="&#x10b;" horiz-adv-x="795" 
d="M74 0zM479 -20q-83 0 -156.5 28t-129 86t-87.5 145.5t-32 206.5q0 102 30 187.5t84.5 147.5t131.5 97t172 35q55 0 99 -10t93 -29q46 -20 61 -34.5t15 -30.5q0 -13 -19 -64q-24 -49 -49 -49q-11 0 -71 29q-33 15 -64.5 23t-71.5 8q-51 0 -93.5 -24t-73.5 -65.5t-48.5 -98
t-17.5 -122.5q0 -68 17 -123.5t47.5 -95.5t73 -62t93.5 -22q42 0 70.5 7.5t54 19t46 23.5t38.5 12q24 0 56 -49q22 -44 22 -58t-11.5 -27t-45.5 -30q-47 -25 -103 -43t-131 -18zM384 1053q-28 0 -55.5 17.5t-38.5 42.5t-11 46q0 31 16.5 57t41 38t47.5 12q28 0 55 -17.5
t39 -42.5t12 -47q0 -32 -19.5 -59.5t-43 -37t-43.5 -9.5z" />
    <glyph glyph-name="Ccaron" unicode="&#x10c;" horiz-adv-x="1114" 
d="M88 0zM680 -29q-124 0 -232 47.5t-188 138.5t-126 223.5t-46 303.5t47 304t128 225t190.5 140t234.5 48q131 0 197 -19t127 -45q41 -18 52 -31t11 -20q0 -11 -6 -31t-18 -43q-20 -35 -32.5 -47t-23.5 -12t-32 10q-6 2 -23.5 13t-50 23t-82 22t-119.5 10q-93 0 -167 -36.5
t-125.5 -106.5t-79 -172t-27.5 -232q0 -131 31 -232t85 -170t127.5 -105t159.5 -36q74 0 137 15t94.5 31.5t41.5 21.5q25 12 41 12q11 0 23.5 -10.5t29.5 -36.5q31 -52 31 -76q0 -19 -62 -53q-31 -18 -83.5 -35t-121.5 -28t-143 -11zM715 1463q-35 0 -54.5 12.5t-43.5 38.5
l-181 199q-34 37 -34 59q0 15 16 23t51 8q38 0 58 -6t38 -25l150 -154l150 154q18 19 38 25t58 6q35 0 51 -8t16 -23q0 -12 -8 -25.5t-26 -33.5l-181 -199q-26 -30 -45.5 -40.5t-52.5 -10.5z" />
    <glyph glyph-name="ccaron" unicode="&#x10d;" horiz-adv-x="795" 
d="M74 0zM479 -20q-83 0 -156.5 28t-129 86t-87.5 145.5t-32 206.5q0 102 30 187.5t84.5 147.5t131.5 97t172 35q55 0 99 -10t93 -29q46 -20 61 -34.5t15 -30.5q0 -13 -19 -64q-24 -49 -49 -49q-11 0 -71 29q-33 15 -64.5 23t-71.5 8q-51 0 -93.5 -24t-73.5 -65.5t-48.5 -98
t-17.5 -122.5q0 -68 17 -123.5t47.5 -95.5t73 -62t93.5 -22q42 0 70.5 7.5t54 19t46 23.5t38.5 12q24 0 56 -49q22 -44 22 -58t-11.5 -27t-45.5 -30q-47 -25 -103 -43t-131 -18zM508 1012q-35 0 -54.5 12.5t-43.5 38.5l-181 199q-34 37 -34 59q0 15 16 23t51 8q38 0 58 -6
t38 -25l150 -154l150 154q18 19 38 25t58 6q35 0 51 -8t16 -23q0 -12 -8 -25.5t-26 -33.5l-181 -199q-26 -30 -45.5 -40.5t-52.5 -10.5z" />
    <glyph glyph-name="Dcaron" unicode="&#x10e;" horiz-adv-x="1317" 
d="M154 0zM244 0q-41 0 -56.5 5t-21.5 11q-12 14 -12 43v1254q0 31 14 45t76 14h377q138 0 250 -45t191.5 -132t123 -214t43.5 -291t-43.5 -292.5t-123.5 -217t-193 -134.5t-253 -46h-372zM340 160h281q100 0 176.5 36t127.5 104t77 166.5t26 223.5t-26 222.5t-78.5 164
t-131.5 101t-184 34.5h-268v-1052zM631 1463q-35 0 -54.5 12.5t-43.5 38.5l-181 199q-34 37 -34 59q0 15 16 23t51 8q38 0 58 -6t38 -25l150 -154l150 154q18 19 38 25t58 6q35 0 51 -8t16 -23q0 -12 -8 -25.5t-26 -33.5l-181 -199q-26 -30 -45.5 -40.5t-52.5 -10.5z" />
    <glyph glyph-name="dcaron" unicode="&#x10f;" horiz-adv-x="1270" 
d="M74 0zM457 -20q-87 0 -157.5 33t-121 93t-77.5 145.5t-27 190.5t27 191.5t77.5 148.5t123.5 96.5t165 34.5q50 0 89.5 -9.5t71.5 -26.5t56.5 -40t44.5 -49v510q0 39 14 52q12 10 66 22q42 8 51 8q21 0 31 -6q12 -9 12 -39v-1288q0 -32 -12 -41q-6 -6 -20.5 -10t-45.5 -4
q-34 0 -49.5 5t-21.5 11q-13 9 -13 41v53q-39 -44 -81 -71t-95.5 -39t-107.5 -12zM500 133q88 0 144 51.5t75.5 126.5t19.5 144q0 88 -34 163.5t-89.5 107.5t-115.5 32q-93 0 -150.5 -52t-75.5 -125t-18 -137q0 -68 15 -125t45 -98t76 -64.5t108 -23.5zM1131 997
q-46 0 -60 10.5t-14 24.5q0 13 10 49l60 254q5 27 26 36t78 9q41 0 59.5 -5.5t24.5 -14t6 -14.5q0 -25 -8 -50l-96 -254q-17 -45 -86 -45z" />
    <glyph glyph-name="Dcroat" unicode="&#x110;" horiz-adv-x="1317" 
d="M244 0q-41 0 -56.5 5t-21.5 11q-12 14 -12 43v570h-99q-31 0 -37 6q-8 12 -8 39q0 59 19 90q8 15 19 19.5t34 4.5h72v525q0 31 14 45t76 14h377q138 0 250 -45t191.5 -132t123 -214t43.5 -291t-43.5 -292.5t-123.5 -217t-193 -134.5t-253 -46h-372zM340 160h281
q100 0 176.5 36t127.5 104t77 166.5t26 223.5t-26 222.5t-78.5 164t-131.5 101t-184 34.5h-268v-424h238q30 0 36 -6q9 -15 9 -39q0 -29 -5.5 -52t-11.5 -34q-14 -28 -55 -28h-211v-469z" />
    <glyph glyph-name="dcroat" unicode="&#x111;" horiz-adv-x="1024" 
d="M457 -20q-87 0 -157.5 33t-121 93t-77.5 145.5t-27 190.5t27 191.5t77.5 148.5t123.5 96.5t165 34.5q50 0 89.5 -9.5t71.5 -26.5t56.5 -40t44.5 -49v265h-246q-25 0 -34 4q-11 9 -11 41q0 29 4.5 49.5t14.5 36.5q8 15 19 19.5t34 4.5h219v90q0 39 14 52q12 10 66 22
q50 8 51 8q21 0 31 -6q12 -9 12 -39v-127h70q25 0 35 -4q10 -10 10 -41q0 -29 -4.5 -49.5t-14.5 -36.5q-13 -24 -53 -24h-43v-1006q0 -32 -12 -41q-6 -6 -20.5 -10t-45.5 -4q-34 0 -49.5 5t-21.5 11q-13 9 -13 41v53q-39 -44 -81 -71t-95.5 -39t-107.5 -12zM500 133
q88 0 144 51.5t75.5 126.5t19.5 144q0 88 -34 163.5t-89.5 107.5t-115.5 32q-93 0 -150.5 -52t-75.5 -125t-18 -137q0 -68 15 -125t45 -98t76 -64.5t108 -23.5z" />
    <glyph glyph-name="Emacron" unicode="&#x112;" horiz-adv-x="1026" 
d="M154 0zM244 0q-41 0 -56.5 5t-21.5 11q-12 14 -12 43v1254q0 31 14 45t76 14h706q17 0 23.5 -2.5t9.5 -5.5q8 -8 8 -33q0 -30 -4.5 -57.5t-11.5 -40.5q-8 -12 -21 -16.5t-36 -4.5h-578v-387h518q17 0 23.5 -2.5t9.5 -5.5q8 -8 8 -33q0 -29 -4.5 -57.5t-12 -40.5t-21 -16
t-36.5 -4h-485v-506h621q24 0 32 -8t8 -33q0 -26 -4 -55.5t-12 -43.5q-8 -12 -21 -16t-36 -4h-684zM385 1498q-26 0 -35 4q-10 10 -10 41q0 23 4.5 46.5t13 39t19.5 20t34 4.5h340q25 0 35 -4q10 -10 10 -41q0 -20 -4.5 -45t-13.5 -41q-13 -24 -53 -24h-340z" />
    <glyph glyph-name="emacron" unicode="&#x113;" horiz-adv-x="938" 
d="M74 0zM498 -20q-96 0 -174.5 33.5t-134 95t-85.5 148t-30 192.5q0 105 29 190.5t82.5 146.5t128 94t165.5 33q140 0 232.5 -70t125.5 -176t33 -212q0 -35 -18 -47q-18 -15 -72 -15h-528q7 -55 27.5 -101.5t53 -80t75.5 -52t94 -18.5q53 0 86.5 7.5t70.5 21.5
q25 9 45.5 21t38.5 12q22 0 33.5 -14t22.5 -35q22 -44 22 -56q0 -14 -11.5 -27t-45.5 -30q-50 -24 -87 -36t-84.5 -18.5t-94.5 -6.5zM258 537h430q-3 77 -36 134.5t-80.5 79t-94.5 21.5q-95 0 -148.5 -63t-70.5 -172zM313 1047q-26 0 -35 4q-10 10 -10 41q0 23 4.5 46.5
t13 39t19.5 20t34 4.5h340q25 0 35 -4q10 -10 10 -41q0 -20 -4.5 -45t-13.5 -41q-13 -24 -53 -24h-340z" />
    <glyph glyph-name="Ebreve" unicode="&#x114;" horiz-adv-x="1026" 
d="M154 0zM244 0q-41 0 -56.5 5t-21.5 11q-12 14 -12 43v1254q0 31 14 45t76 14h706q17 0 23.5 -2.5t9.5 -5.5q8 -8 8 -33q0 -30 -4.5 -57.5t-11.5 -40.5q-8 -12 -21 -16.5t-36 -4.5h-578v-387h518q17 0 23.5 -2.5t9.5 -5.5q8 -8 8 -33q0 -29 -4.5 -57.5t-12 -40.5t-21 -16
t-36.5 -4h-485v-506h621q24 0 32 -8t8 -33q0 -26 -4 -55.5t-12 -43.5q-8 -12 -21 -16t-36 -4h-684zM581 1463q-70 0 -117 19.5t-77.5 52.5t-47.5 76t-26 91q-3 17 8 27t31 10h65q47 0 55 -28q10 -48 34.5 -73.5t74.5 -25.5q51 0 76 26.5t35 76.5q3 11 13.5 17.5t35.5 6.5h59
q29 0 41.5 -7t7.5 -36q-14 -78 -49.5 -132.5t-93 -77.5t-125.5 -23z" />
    <glyph glyph-name="ebreve" unicode="&#x115;" horiz-adv-x="938" 
d="M74 0zM498 -20q-96 0 -174.5 33.5t-134 95t-85.5 148t-30 192.5q0 105 29 190.5t82.5 146.5t128 94t165.5 33q140 0 232.5 -70t125.5 -176t33 -212q0 -35 -18 -47q-18 -15 -72 -15h-528q7 -55 27.5 -101.5t53 -80t75.5 -52t94 -18.5q53 0 86.5 7.5t70.5 21.5
q25 9 45.5 21t38.5 12q22 0 33.5 -14t22.5 -35q22 -44 22 -56q0 -14 -11.5 -27t-45.5 -30q-50 -24 -87 -36t-84.5 -18.5t-94.5 -6.5zM258 537h430q-3 77 -36 134.5t-80.5 79t-94.5 21.5q-95 0 -148.5 -63t-70.5 -172zM468 1012q-70 0 -117 19.5t-77.5 52.5t-47.5 76t-26 91
q-3 17 8 27t31 10h65q47 0 55 -28q10 -48 34.5 -73.5t74.5 -25.5q51 0 76 26.5t35 76.5q3 11 13.5 17.5t35.5 6.5h59q29 0 41.5 -7t7.5 -36q-14 -78 -49.5 -132.5t-93 -77.5t-125.5 -23z" />
    <glyph glyph-name="Edotaccent" unicode="&#x116;" horiz-adv-x="1026" 
d="M154 0zM244 0q-41 0 -56.5 5t-21.5 11q-12 14 -12 43v1254q0 31 14 45t76 14h706q17 0 23.5 -2.5t9.5 -5.5q8 -8 8 -33q0 -30 -4.5 -57.5t-11.5 -40.5q-8 -12 -21 -16.5t-36 -4.5h-578v-387h518q17 0 23.5 -2.5t9.5 -5.5q8 -8 8 -33q0 -29 -4.5 -57.5t-12 -40.5t-21 -16
t-36.5 -4h-485v-506h621q24 0 32 -8t8 -33q0 -26 -4 -55.5t-12 -43.5q-8 -12 -21 -16t-36 -4h-684zM586 1504q-28 0 -55.5 17.5t-38.5 42.5t-11 46q0 31 16.5 57t41 38t47.5 12q28 0 55 -17.5t39 -42.5t12 -47q0 -32 -19.5 -59.5t-43 -37t-43.5 -9.5z" />
    <glyph glyph-name="edotaccent" unicode="&#x117;" horiz-adv-x="938" 
d="M74 0zM498 -20q-96 0 -174.5 33.5t-134 95t-85.5 148t-30 192.5q0 105 29 190.5t82.5 146.5t128 94t165.5 33q140 0 232.5 -70t125.5 -176t33 -212q0 -35 -18 -47q-18 -15 -72 -15h-528q7 -55 27.5 -101.5t53 -80t75.5 -52t94 -18.5q53 0 86.5 7.5t70.5 21.5
q25 9 45.5 21t38.5 12q22 0 33.5 -14t22.5 -35q22 -44 22 -56q0 -14 -11.5 -27t-45.5 -30q-50 -24 -87 -36t-84.5 -18.5t-94.5 -6.5zM258 537h430q-3 77 -36 134.5t-80.5 79t-94.5 21.5q-95 0 -148.5 -63t-70.5 -172zM483 1053q-28 0 -55.5 17.5t-38.5 42.5t-11 46
q0 31 16.5 57t41 38t47.5 12q28 0 55 -17.5t39 -42.5t12 -47q0 -32 -19.5 -59.5t-43 -37t-43.5 -9.5z" />
    <glyph glyph-name="Eogonek" unicode="&#x118;" horiz-adv-x="1026" 
d="M721 -406q-46 0 -86.5 13.5t-71 40t-48 65t-17.5 88.5q0 68 32 118t91 81h-377q-41 0 -56.5 5t-21.5 11q-12 14 -12 43v1254q0 31 14 45t76 14h702q28 0 35 -4q10 -10 10 -37q0 -26 -4.5 -54.5t-15.5 -43.5q-16 -21 -53 -21h-578v-387h514q25 0 35 -4q10 -10 10 -37
q0 -26 -4.5 -54t-13.5 -44q-14 -20 -54 -20h-487v-506h616q28 0 35 -4q10 -12 10 -37q0 -26 -4.5 -54.5t-15.5 -44.5q-15 -20 -53 -20h-140q-42 -22 -76 -51.5t-48.5 -62t-14.5 -60.5q0 -32 13 -55.5t34.5 -35t42.5 -11.5q12 0 51 12t52 12q26 0 38.5 -19t12.5 -42
q0 -32 -34 -55t-75 -30.5t-63 -7.5z" />
    <glyph glyph-name="eogonek" unicode="&#x119;" horiz-adv-x="938" 
d="M586 -406q-46 0 -87 13.5t-71.5 40t-48 65t-17.5 88.5q0 59 24 104.5t69 76.5q-87 7 -157.5 43.5t-120 97.5t-76.5 143.5t-27 182.5q0 105 29 190.5t82.5 146.5t128 94t165.5 33q140 0 232.5 -70t125.5 -176t33 -212q0 -35 -18 -47q-18 -15 -72 -15h-528
q7 -55 27.5 -101.5t53 -80t75.5 -52t94 -18.5q53 0 86.5 7.5t70.5 21.5q25 9 45.5 21t38.5 12q22 0 33.5 -14t22.5 -35q22 -44 22 -56q0 -14 -11.5 -27t-45.5 -30q-71 -33 -119 -45q-24 -14 -47.5 -32t-42 -40t-30 -46.5t-11.5 -51.5q0 -32 13 -55.5t34.5 -35t42.5 -11.5
q12 0 51 12t52 12q26 0 38.5 -19t12.5 -42q0 -32 -34 -55t-75 -30.5t-63 -7.5zM258 537h430q-3 77 -36 134.5t-80.5 79t-94.5 21.5q-95 0 -148.5 -63t-70.5 -172z" />
    <glyph glyph-name="Ecaron" unicode="&#x11a;" horiz-adv-x="1026" 
d="M154 0zM244 0q-41 0 -56.5 5t-21.5 11q-12 14 -12 43v1254q0 31 14 45t76 14h706q17 0 23.5 -2.5t9.5 -5.5q8 -8 8 -33q0 -30 -4.5 -57.5t-11.5 -40.5q-8 -12 -21 -16.5t-36 -4.5h-578v-387h518q17 0 23.5 -2.5t9.5 -5.5q8 -8 8 -33q0 -29 -4.5 -57.5t-12 -40.5t-21 -16
t-36.5 -4h-485v-506h621q24 0 32 -8t8 -33q0 -26 -4 -55.5t-12 -43.5q-8 -12 -21 -16t-36 -4h-684zM588 1463q-35 0 -54.5 12.5t-43.5 38.5l-181 199q-34 37 -34 59q0 15 16 23t51 8q38 0 58 -6t38 -25l150 -154l150 154q18 19 38 25t58 6q35 0 51 -8t16 -23q0 -12 -8 -25.5
t-26 -33.5l-181 -199q-26 -30 -45.5 -40.5t-52.5 -10.5z" />
    <glyph glyph-name="ecaron" unicode="&#x11b;" horiz-adv-x="938" 
d="M74 0zM498 -20q-96 0 -174.5 33.5t-134 95t-85.5 148t-30 192.5q0 105 29 190.5t82.5 146.5t128 94t165.5 33q140 0 232.5 -70t125.5 -176t33 -212q0 -35 -18 -47q-18 -15 -72 -15h-528q7 -55 27.5 -101.5t53 -80t75.5 -52t94 -18.5q53 0 86.5 7.5t70.5 21.5
q25 9 45.5 21t38.5 12q22 0 33.5 -14t22.5 -35q22 -44 22 -56q0 -14 -11.5 -27t-45.5 -30q-50 -24 -87 -36t-84.5 -18.5t-94.5 -6.5zM258 537h430q-3 77 -36 134.5t-80.5 79t-94.5 21.5q-95 0 -148.5 -63t-70.5 -172zM490 1012q-35 0 -54.5 12.5t-43.5 38.5l-181 199
q-34 37 -34 59q0 15 16 23t51 8q38 0 58 -6t38 -25l150 -154l150 154q18 19 38 25t58 6q35 0 51 -8t16 -23q0 -12 -8 -25.5t-26 -33.5l-181 -199q-26 -30 -45.5 -40.5t-52.5 -10.5z" />
    <glyph glyph-name="Gcircumflex" unicode="&#x11c;" horiz-adv-x="1266" 
d="M88 0zM705 -29q-137 0 -250.5 47.5t-195 138.5t-126.5 223.5t-45 303.5t46.5 304t129.5 225t196.5 140t248.5 48q138 0 210.5 -19.5t129.5 -44.5q41 -18 52 -31t11 -20q0 -11 -4 -28t-18 -41q-19 -35 -33 -49.5t-25 -14.5t-33 12q-35 21 -88 39q-31 11 -78.5 19t-125.5 8
q-102 0 -180.5 -36.5t-131 -106.5t-79.5 -172t-27 -232q0 -131 32.5 -232.5t89.5 -171.5t136 -106.5t172 -36.5q97 0 154 10.5t100 26.5v373h-262q-25 0 -33 8t-8 33q0 27 4 55.5t12 42.5q8 12 21 16.5t36 4.5h320q61 0 75.5 -14.5t14.5 -45.5v-528q0 -29 -14 -46.5
t-54 -35.5q-38 -18 -87 -32t-129 -24t-164 -10zM477 1463q-35 0 -51 7.5t-16 22.5q0 22 34 60l181 198q24 28 43.5 40t54.5 12t54.5 -13t43.5 -39l181 -198q34 -38 34 -60q0 -15 -16 -22.5t-51 -7.5q-38 0 -58 6t-38 24l-150 154l-150 -154q-18 -18 -38 -24t-58 -6z" />
    <glyph glyph-name="gcircumflex" unicode="&#x11d;" horiz-adv-x="901" 
d="M53 0zM463 -406q-99 0 -175.5 19t-128.5 54t-79 83t-27 107q0 66 26 114t65 75t73 42q-45 28 -64.5 62t-19.5 69q0 38 23 75t65 58q-52 32 -83.5 71t-44.5 84.5t-13 92.5q0 100 54 170.5t139 100.5t178 30q72 0 122.5 -11.5t92.5 -33.5q38 42 72 68t59 39q32 16 47 16
q27 0 49 -36t22 -58t-18 -31q-28 -17 -66 -31q-48 -29 -65 -45q25 -35 38 -79.5t13 -98.5q0 -63 -25 -117t-72 -93.5t-113.5 -62t-149.5 -22.5q-25 0 -56 3.5t-51 8.5q-18 -11 -31.5 -27t-13.5 -38q0 -24 18 -39.5t56.5 -26.5t85.5 -18l88 -14q135 -23 212 -60t104.5 -93.5
t27.5 -119.5q0 -102 -68 -171.5t-169.5 -92.5t-196.5 -23zM473 -272q76 0 132.5 18t81 51.5t24.5 69.5q0 56 -41.5 85t-112.5 42l-174 31q-11 3 -23 5t-30 7q-35 -20 -60.5 -45t-36 -53t-10.5 -56q0 -57 40.5 -93t99.5 -49t110 -13zM453 428q68 0 114 25t65 65.5t19 81.5
q0 85 -53.5 129.5t-144.5 44.5q-94 0 -150.5 -43t-56.5 -131q0 -62 32 -103t80 -55t95 -14zM205 1012q-35 0 -51 7.5t-16 22.5q0 22 34 60l181 198q24 28 43.5 40t54.5 12t54.5 -13t43.5 -39l181 -198q34 -38 34 -60q0 -15 -16 -22.5t-51 -7.5q-38 0 -58 6t-38 24l-150 154
l-150 -154q-18 -18 -38 -24t-58 -6z" />
    <glyph glyph-name="Gbreve" unicode="&#x11e;" horiz-adv-x="1266" 
d="M88 0zM705 -29q-137 0 -250.5 47.5t-195 138.5t-126.5 223.5t-45 303.5t46.5 304t129.5 225t196.5 140t248.5 48q138 0 210.5 -19.5t129.5 -44.5q41 -18 52 -31t11 -20q0 -11 -4 -28t-18 -41q-19 -35 -33 -49.5t-25 -14.5t-33 12q-35 21 -88 39q-31 11 -78.5 19t-125.5 8
q-102 0 -180.5 -36.5t-131 -106.5t-79.5 -172t-27 -232q0 -131 32.5 -232.5t89.5 -171.5t136 -106.5t172 -36.5q97 0 154 10.5t100 26.5v373h-262q-25 0 -33 8t-8 33q0 27 4 55.5t12 42.5q8 12 21 16.5t36 4.5h320q61 0 75.5 -14.5t14.5 -45.5v-528q0 -29 -14 -46.5
t-54 -35.5q-38 -18 -87 -32t-129 -24t-164 -10zM700 1463q-70 0 -117 19.5t-77.5 52.5t-47.5 76t-26 91q-3 17 8 27t31 10h65q47 0 55 -28q10 -48 34.5 -73.5t74.5 -25.5q51 0 76 26.5t35 76.5q3 11 13.5 17.5t35.5 6.5h59q29 0 41.5 -7t7.5 -36q-14 -78 -49.5 -132.5
t-93 -77.5t-125.5 -23z" />
    <glyph glyph-name="gbreve" unicode="&#x11f;" horiz-adv-x="901" 
d="M53 0zM463 -406q-99 0 -175.5 19t-128.5 54t-79 83t-27 107q0 66 26 114t65 75t73 42q-45 28 -64.5 62t-19.5 69q0 38 23 75t65 58q-52 32 -83.5 71t-44.5 84.5t-13 92.5q0 100 54 170.5t139 100.5t178 30q72 0 122.5 -11.5t92.5 -33.5q38 42 72 68t59 39q32 16 47 16
q27 0 49 -36t22 -58t-18 -31q-28 -17 -66 -31q-48 -29 -65 -45q25 -35 38 -79.5t13 -98.5q0 -63 -25 -117t-72 -93.5t-113.5 -62t-149.5 -22.5q-25 0 -56 3.5t-51 8.5q-18 -11 -31.5 -27t-13.5 -38q0 -24 18 -39.5t56.5 -26.5t85.5 -18l88 -14q135 -23 212 -60t104.5 -93.5
t27.5 -119.5q0 -102 -68 -171.5t-169.5 -92.5t-196.5 -23zM473 -272q76 0 132.5 18t81 51.5t24.5 69.5q0 56 -41.5 85t-112.5 42l-174 31q-11 3 -23 5t-30 7q-35 -20 -60.5 -45t-36 -53t-10.5 -56q0 -57 40.5 -93t99.5 -49t110 -13zM453 428q68 0 114 25t65 65.5t19 81.5
q0 85 -53.5 129.5t-144.5 44.5q-94 0 -150.5 -43t-56.5 -131q0 -62 32 -103t80 -55t95 -14zM467 1012q-70 0 -117 19.5t-77.5 52.5t-47.5 76t-26 91q-3 17 8 27t31 10h65q47 0 55 -28q10 -48 34.5 -73.5t74.5 -25.5q51 0 76 26.5t35 76.5q3 11 13.5 17.5t35.5 6.5h59
q29 0 41.5 -7t7.5 -36q-14 -78 -49.5 -132.5t-93 -77.5t-125.5 -23z" />
    <glyph glyph-name="Gdotaccent" unicode="&#x120;" horiz-adv-x="1266" 
d="M88 0zM705 -29q-137 0 -250.5 47.5t-195 138.5t-126.5 223.5t-45 303.5t46.5 304t129.5 225t196.5 140t248.5 48q138 0 210.5 -19.5t129.5 -44.5q41 -18 52 -31t11 -20q0 -11 -4 -28t-18 -41q-19 -35 -33 -49.5t-25 -14.5t-33 12q-35 21 -88 39q-31 11 -78.5 19t-125.5 8
q-102 0 -180.5 -36.5t-131 -106.5t-79.5 -172t-27 -232q0 -131 32.5 -232.5t89.5 -171.5t136 -106.5t172 -36.5q97 0 154 10.5t100 26.5v373h-262q-25 0 -33 8t-8 33q0 27 4 55.5t12 42.5q8 12 21 16.5t36 4.5h320q61 0 75.5 -14.5t14.5 -45.5v-528q0 -29 -14 -46.5
t-54 -35.5q-38 -18 -87 -32t-129 -24t-164 -10zM632 1532q-28 0 -55.5 17.5t-38.5 42.5t-11 46q0 31 16.5 57t41 38t47.5 12q28 0 55 -17.5t39 -42.5t12 -47q0 -32 -19.5 -59.5t-43 -37t-43.5 -9.5z" />
    <glyph glyph-name="gdotaccent" unicode="&#x121;" horiz-adv-x="901" 
d="M53 0zM463 -406q-99 0 -175.5 19t-128.5 54t-79 83t-27 107q0 66 26 114t65 75t73 42q-45 28 -64.5 62t-19.5 69q0 38 23 75t65 58q-52 32 -83.5 71t-44.5 84.5t-13 92.5q0 100 54 170.5t139 100.5t178 30q72 0 122.5 -11.5t92.5 -33.5q38 42 72 68t59 39q32 16 47 16
q27 0 49 -36t22 -58t-18 -31q-28 -17 -66 -31q-48 -29 -65 -45q25 -35 38 -79.5t13 -98.5q0 -63 -25 -117t-72 -93.5t-113.5 -62t-149.5 -22.5q-25 0 -56 3.5t-51 8.5q-18 -11 -31.5 -27t-13.5 -38q0 -24 18 -39.5t56.5 -26.5t85.5 -18l88 -14q135 -23 212 -60t104.5 -93.5
t27.5 -119.5q0 -102 -68 -171.5t-169.5 -92.5t-196.5 -23zM473 -272q76 0 132.5 18t81 51.5t24.5 69.5q0 56 -41.5 85t-112.5 42l-174 31q-11 3 -23 5t-30 7q-35 -20 -60.5 -45t-36 -53t-10.5 -56q0 -57 40.5 -93t99.5 -49t110 -13zM453 428q68 0 114 25t65 65.5t19 81.5
q0 85 -53.5 129.5t-144.5 44.5q-94 0 -150.5 -43t-56.5 -131q0 -62 32 -103t80 -55t95 -14zM452 1053q-28 0 -55.5 17.5t-38.5 42.5t-11 46q0 31 16.5 57t41 38t47.5 12q28 0 55 -17.5t39 -42.5t12 -47q0 -32 -19.5 -59.5t-43 -37t-43.5 -9.5z" />
    <glyph glyph-name="Gcommaaccent" unicode="&#x122;" horiz-adv-x="1266" 
d="M88 0zM705 -29q-137 0 -250.5 47.5t-195 138.5t-126.5 223.5t-45 303.5t46.5 304t129.5 225t196.5 140t248.5 48q138 0 210.5 -19.5t129.5 -44.5q41 -18 52 -31t11 -20q0 -11 -4 -28t-18 -41q-19 -35 -33 -49.5t-25 -14.5t-33 12q-35 21 -88 39q-31 11 -78.5 19t-125.5 8
q-102 0 -180.5 -36.5t-131 -106.5t-79.5 -172t-27 -232q0 -131 32.5 -232.5t89.5 -171.5t136 -106.5t172 -36.5q97 0 154 10.5t100 26.5v373h-262q-25 0 -33 8t-8 33q0 27 4 55.5t12 42.5q8 12 21 16.5t36 4.5h320q61 0 75.5 -14.5t14.5 -45.5v-528q0 -29 -14 -46.5
t-54 -35.5q-38 -18 -87 -32t-129 -24t-164 -10zM594 -406q-33 0 -43 10t-10 25q0 13 10 49l55 216q8 29 28.5 37t55.5 8q37 0 57.5 -5.5t26.5 -14.5t6 -15v-22t-8 -27l-92 -215q-12 -29 -27 -37.5t-59 -8.5z" />
    <glyph glyph-name="gcommaaccent" unicode="&#x123;" horiz-adv-x="901" 
d="M53 0zM463 -406q-99 0 -175.5 19t-128.5 54t-79 83t-27 107q0 66 26 114t65 75t73 42q-45 28 -64.5 62t-19.5 69q0 38 23 75t65 58q-52 32 -83.5 71t-44.5 84.5t-13 92.5q0 100 54 170.5t139 100.5t178 30q72 0 122.5 -11.5t92.5 -33.5q38 42 72 68t59 39q32 16 47 16
q27 0 49 -36t22 -58t-18 -31q-28 -17 -66 -31q-48 -29 -65 -45q25 -35 38 -79.5t13 -98.5q0 -63 -25 -117t-72 -93.5t-113.5 -62t-149.5 -22.5q-25 0 -56 3.5t-51 8.5q-18 -11 -31.5 -27t-13.5 -38q0 -24 18 -39.5t56.5 -26.5t85.5 -18l88 -14q135 -23 212 -60t104.5 -93.5
t27.5 -119.5q0 -102 -68 -171.5t-169.5 -92.5t-196.5 -23zM473 -272q76 0 132.5 18t81 51.5t24.5 69.5q0 56 -41.5 85t-112.5 42l-174 31q-11 3 -23 5t-30 7q-35 -20 -60.5 -45t-36 -53t-10.5 -56q0 -57 40.5 -93t99.5 -49t110 -13zM453 428q68 0 114 25t65 65.5t19 81.5
q0 85 -53.5 129.5t-144.5 44.5q-94 0 -150.5 -43t-56.5 -131q0 -62 32 -103t80 -55t95 -14zM455 997q-46 0 -60 10.5t-14 24.5q0 13 10 49l60 254q5 27 26 36t78 9q41 0 59.5 -5.5t24.5 -14t6 -14.5q0 -25 -8 -50l-96 -254q-17 -45 -86 -45z" />
    <glyph glyph-name="Hcircumflex" unicode="&#x124;" horiz-adv-x="1313" 
d="M154 0zM246 -8q-51 0 -69.5 8t-20.5 19.5t-2 31.5v1270q0 27 5.5 37.5t28 16t58.5 5.5q52 0 70 -8.5t21 -19.5t3 -31v-498h633v498q0 27 5.5 37t28 16t56.5 6q54 0 72 -8.5t21 -19.5t3 -31v-1270q0 -28 -6 -38t-29 -15.5t-61 -5.5q-49 0 -67.5 8t-20.5 19.5t-2 31.5v613
h-633v-613q0 -28 -6 -38t-28.5 -15.5t-59.5 -5.5zM410 1463q-35 0 -51 7.5t-16 22.5q0 22 34 60l181 198q24 28 43.5 40t54.5 12t54.5 -13t43.5 -39l181 -198q34 -38 34 -60q0 -15 -16 -22.5t-51 -7.5q-38 0 -58 6t-38 24l-150 154l-150 -154q-18 -18 -38 -24t-58 -6z" />
    <glyph glyph-name="hcircumflex" unicode="&#x125;" horiz-adv-x="1006" 
d="M121 0zM205 -8q-31 0 -48.5 4t-23.5 10q-12 9 -12 41v1251q0 39 14 52q12 12 70 24q30 6 47 6q24 0 31 -4q12 -9 12 -41v-553q30 40 77 71t100 45.5t97 14.5q122 0 197.5 -53.5t100 -132t24.5 -152.5v-526q0 -32 -12 -41q-7 -6 -25 -11t-53 -5q-31 0 -48.5 4t-23.5 10
q-12 9 -12 41v508q0 105 -48.5 156t-142.5 51q-64 0 -122.5 -41t-83.5 -95.5t-25 -101.5v-475q0 -32 -12 -41q-7 -6 -25 -11t-53 -5zM259 1463q-35 0 -51 7.5t-16 22.5q0 22 34 60l181 198q24 28 43.5 40t54.5 12t54.5 -13t43.5 -39l181 -198q34 -38 34 -60q0 -15 -16 -22.5
t-51 -7.5q-38 0 -58 6t-38 24l-150 154l-150 -154q-18 -18 -38 -24t-58 -6z" />
    <glyph glyph-name="Hbar" unicode="&#x126;" horiz-adv-x="1313" 
d="M54 1008q-26 0 -35 4q-10 10 -10 41q0 23 4.5 46.5t13 39t19.5 20t34 4.5h74v158q0 27 5.5 37.5t28 16t58.5 5.5q52 0 70 -8.5t21 -19.5t3 -31v-158h633v158q0 27 5.5 37t28 16t56.5 6q54 0 72 -8.5t21 -19.5t3 -31v-158h81q25 0 35 -4q10 -10 10 -41q0 -20 -4.5 -45
t-13.5 -41q-13 -24 -53 -24h-55v-957q0 -28 -6 -38t-29 -15.5t-61 -5.5q-49 0 -67.5 8t-20.5 19.5t-2 31.5v613h-633v-613q0 -28 -6 -38t-28.5 -15.5t-59.5 -5.5q-51 0 -69.5 8t-20.5 19.5t-2 31.5v957h-100zM973 823v185h-633v-185h633z" />
    <glyph glyph-name="hbar" unicode="&#x127;" horiz-adv-x="1006" 
d="M73 1047q-26 0 -35 4q-10 10 -10 41q0 23 4.5 46.5t13 39t19.5 20t34 4.5h22v96q0 39 14 52q12 12 70 24q30 6 47 6q24 0 31 -4q12 -9 12 -41v-133h304q25 0 35 -4q10 -10 10 -41q0 -20 -4.5 -45t-13.5 -41q-13 -24 -53 -24h-278v-265q30 40 77 71t100 45.5t97 14.5
q122 0 197.5 -53.5t100 -132t24.5 -152.5v-526q0 -32 -12 -41q-7 -6 -25 -11t-53 -5q-31 0 -48.5 4t-23.5 10q-12 9 -12 41v508q0 105 -48.5 156t-142.5 51q-64 0 -122.5 -41t-83.5 -95.5t-25 -101.5v-475q0 -32 -12 -41q-7 -6 -25 -11t-53 -5q-31 0 -48.5 4t-23.5 10
q-12 9 -12 41v1000h-48z" />
    <glyph glyph-name="Itilde" unicode="&#x128;" horiz-adv-x="492" 
d="M0 0zM244 -8q-49 0 -67.5 8t-20.5 19.5t-2 31.5v1270q0 27 5.5 37t28 16t56.5 6q37 0 57 -5t27 -11q10 -10 10 -43v-1270q0 -33 -10 -43q-7 -6 -27 -11t-57 -5zM-53 1463q-20 0 -30.5 13t-2.5 48q19 84 65 131t122 47q42 0 73.5 -12.5t57.5 -28.5q70 -43 104 -43
q24 0 39.5 19.5t28.5 46.5q6 17 19.5 23t33.5 6h43q35 0 35 -19q0 -42 -14 -83.5t-40.5 -74.5t-63.5 -53t-83 -20q-38 0 -69.5 12.5t-59.5 28.5q-71 43 -107 43q-31 0 -63 -64q-14 -20 -39 -20h-49z" />
    <glyph glyph-name="itilde" unicode="&#x129;" horiz-adv-x="416" 
d="M0 0zM205 -8q-31 0 -48.5 4t-23.5 10q-12 9 -12 41v776q0 20 3 31.5t11 19.5q11 13 70 25q30 6 47 6q25 0 31 -6q12 -9 12 -39v-813q0 -30 -12 -39q-7 -6 -25 -11t-53 -5zM-91 1012q-20 0 -30.5 13t-2.5 48q19 84 65 131t122 47q42 0 73.5 -12.5t57.5 -28.5
q70 -43 104 -43q24 0 39.5 19.5t28.5 46.5q6 17 19.5 23t33.5 6h43q35 0 35 -19q0 -42 -14 -83.5t-40.5 -74.5t-63.5 -53t-83 -20q-38 0 -69.5 12.5t-59.5 28.5q-71 43 -107 43q-31 0 -63 -64q-14 -20 -39 -20h-49z" />
    <glyph glyph-name="Imacron" unicode="&#x12a;" horiz-adv-x="492" 
d="M16 0zM244 -8q-49 0 -67.5 8t-20.5 19.5t-2 31.5v1270q0 27 5.5 37t28 16t56.5 6q37 0 57 -5t27 -11q10 -10 10 -43v-1270q0 -33 -10 -43q-7 -6 -27 -11t-57 -5zM61 1496q-26 0 -35 4q-10 10 -10 41q0 23 4.5 46.5t13 39t19.5 20t34 4.5h340q25 0 35 -4q10 -10 10 -41
q0 -20 -4.5 -45t-13.5 -41q-13 -24 -53 -24h-340z" />
    <glyph glyph-name="imacron" unicode="&#x12b;" horiz-adv-x="416" 
d="M0 0zM205 -8q-31 0 -48.5 4t-23.5 10q-12 9 -12 41v776q0 20 3 31.5t11 19.5q11 13 70 25q30 6 47 6q25 0 31 -6q12 -9 12 -39v-813q0 -30 -12 -39q-7 -6 -25 -11t-53 -5zM28 1047q-26 0 -35 4q-10 10 -10 41q0 23 4.5 46.5t13 39t19.5 20t34 4.5h340q25 0 35 -4
q10 -10 10 -41q0 -20 -4.5 -45t-13.5 -41q-13 -24 -53 -24h-340z" />
    <glyph glyph-name="Ibreve" unicode="&#x12c;" horiz-adv-x="492" 
d="M0 0zM244 -8q-49 0 -67.5 8t-20.5 19.5t-2 31.5v1270q0 27 5.5 37t28 16t56.5 6q37 0 57 -5t27 -11q10 -10 10 -43v-1270q0 -33 -10 -43q-7 -6 -27 -11t-57 -5zM246 1463q-70 0 -117 19.5t-77.5 52.5t-47.5 76t-26 91q-3 17 8 27t31 10h65q47 0 55 -28q10 -48 34.5 -73.5
t74.5 -25.5q51 0 76 26.5t35 76.5q3 11 13.5 17.5t35.5 6.5h59q29 0 41.5 -7t7.5 -36q-14 -78 -49.5 -132.5t-93 -77.5t-125.5 -23z" />
    <glyph glyph-name="ibreve" unicode="&#x12d;" horiz-adv-x="416" 
d="M0 0zM205 -8q-31 0 -48.5 4t-23.5 10q-12 9 -12 41v776q0 20 3 31.5t11 19.5q11 13 70 25q30 6 47 6q25 0 31 -6q12 -9 12 -39v-813q0 -30 -12 -39q-7 -6 -25 -11t-53 -5zM208 1012q-70 0 -117 19.5t-77.5 52.5t-47.5 76t-26 91q-3 17 8 27t31 10h65q47 0 55 -28
q10 -48 34.5 -73.5t74.5 -25.5q51 0 76 26.5t35 76.5q3 11 13.5 17.5t35.5 6.5h59q29 0 41.5 -7t7.5 -36q-14 -78 -49.5 -132.5t-93 -77.5t-125.5 -23z" />
    <glyph glyph-name="Iogonek" unicode="&#x12e;" horiz-adv-x="416" 
d="M209 -406q-46 0 -86.5 13.5t-71 40t-48 65t-17.5 88.5q0 70 33.5 121t95.5 80q1 1 7 3.5t12.5 5.5t13 5.5t8.5 3.5q-2 5 -2 12v19v1270q0 27 5.5 37t28 16t56.5 6q37 0 57 -5t27 -11q10 -10 10 -43v-1270q0 -33 -10 -43q-5 -5 -21.5 -9.5t-44.5 -6.5q-41 -23 -72 -54
t-42 -58.5t-11 -53.5q0 -32 13 -55.5t34.5 -35t42.5 -11.5q12 0 51 12t52 12q26 0 38.5 -19t12.5 -42q0 -32 -34 -55t-75 -30.5t-63 -7.5z" />
    <glyph glyph-name="iogonek" unicode="&#x12f;" horiz-adv-x="416" 
d="M170 -406q-73 0 -125 30.5t-75 78.5t-23 98q0 70 33.5 121t95.5 80q3 3 22.5 10.5t20.5 7.5h4q-2 5 -2 11v16v776q0 20 3 31.5t11 19.5q11 13 70 25q30 6 47 6q25 0 31 -6q12 -9 12 -39v-811v-2q0 -30 -12 -39q-5 -5 -19.5 -9.5t-40.5 -6.5q-41 -23 -72 -54t-42 -58.5
t-11 -53.5q0 -32 13 -55.5t34.5 -35t42.5 -11.5q12 0 51 12t52 12q26 0 38.5 -19t12.5 -42q0 -32 -34 -55t-75 -30.5t-63 -7.5zM207 1112q-32 0 -60.5 20t-37.5 43t-9 46q0 30 17 58.5t41.5 40t48.5 11.5q28 0 56 -17t40 -43.5t12 -49.5q0 -32 -18.5 -60.5t-43 -38.5
t-46.5 -10z" />
    <glyph glyph-name="Idotaccent" unicode="&#x130;" horiz-adv-x="492" 
d="M154 0zM244 -8q-49 0 -67.5 8t-20.5 19.5t-2 31.5v1270q0 27 5.5 37t28 16t56.5 6q37 0 57 -5t27 -11q10 -10 10 -43v-1270q0 -33 -10 -43q-7 -6 -27 -11t-57 -5zM260 1504q-28 0 -55.5 17.5t-38.5 42.5t-11 46q0 31 16.5 57t41 38t47.5 12q28 0 55 -17.5t39 -42.5
t12 -47q0 -32 -19.5 -59.5t-43 -37t-43.5 -9.5z" />
    <glyph glyph-name="dotlessi" unicode="&#x131;" horiz-adv-x="416" 
d="M205 -8q-31 0 -48.5 4t-23.5 10q-12 9 -12 41v776q0 20 3 31.5t11 19.5q11 13 70 25q30 6 47 6q25 0 31 -6q12 -9 12 -39v-813q0 -30 -12 -39q-7 -6 -25 -11t-53 -5z" />
    <glyph glyph-name="IJ" unicode="&#x132;" horiz-adv-x="1410" 
d="M154 0zM244 -8q-49 0 -67.5 8t-20.5 19.5t-2 31.5v1270q0 27 5.5 37t28 16t56.5 6q37 0 57 -5t27 -11q10 -10 10 -43v-1270q0 -33 -10 -43q-7 -6 -27 -11t-57 -5zM854 -29q-91 0 -151.5 13.5t-92 28t-46.5 24.5q-31 18 -45 33q-17 15 -17 30q0 19 31 68q20 31 32.5 40
t24.5 9q11 0 21.5 -7.5t25.5 -16.5q41 -28 60 -38t56 -18t87 -8q113 0 168 56.5t64.5 136t9.5 145.5v854q0 27 5.5 37t28 16t56.5 6q52 0 70 -8.5t21 -19.5t3 -31v-883q0 -109 -26 -203.5t-93 -160.5q-46 -47 -117 -75t-176 -28z" />
    <glyph glyph-name="ij" unicode="&#x133;" horiz-adv-x="824" 
d="M100 0zM205 -8q-31 0 -48.5 4t-23.5 10q-12 9 -12 41v776q0 20 3 31.5t11 19.5q11 13 70 25q30 6 47 6q25 0 31 -6q12 -9 12 -39v-811q0 -32 -12 -41q-7 -6 -25 -11t-53 -5zM207 1112q-32 0 -60.5 20t-37.5 43t-9 46q0 30 17 58.5t41.5 40t48.5 11.5q28 0 56 -17
t40 -43.5t12 -49.5q0 -32 -18.5 -60.5t-43 -38.5t-46.5 -10zM410 -406q-60 0 -103 10.5t-67 24.5q-14 9 -19 17t-5 16q0 12 9 36t21 44t35 20q14 0 24.5 -4.5t24.5 -7.5q40 -10 63 -10q26 0 53.5 8.5t49.5 36.5q15 22 25 59.5t10 108.5v870q0 20 3 31.5t11 19.5q11 13 70 25
q30 6 47 6q24 0 30 -6q13 -10 13 -39v-889q0 -87 -9.5 -138t-33.5 -101q-31 -62 -95 -100t-157 -38zM617 1112q-33 0 -61 19.5t-37 43t-9 46.5q0 30 17 58.5t41.5 40t48.5 11.5q28 0 56 -17t40 -43.5t12 -49.5q0 -32 -18.5 -60.5t-43.5 -38.5t-46 -10z" />
    <glyph glyph-name="Jcircumflex" unicode="&#x134;" horiz-adv-x="918" 
d="M10 0zM362 -29q-91 0 -151.5 13.5t-92 28t-46.5 24.5q-31 18 -45 33q-17 15 -17 30q0 19 31 68q20 31 32.5 40t24.5 9q11 0 21.5 -7.5t25.5 -16.5q41 -28 60 -38t56 -18t87 -8q113 0 168 56.5t64.5 136t9.5 145.5v854q0 27 5.5 37t28 16t56.5 6q52 0 70 -8.5t21 -19.5
t3 -31v-883q0 -109 -26 -203.5t-93 -160.5q-46 -47 -117 -75t-176 -28zM413 1463q-35 0 -51 7.5t-16 22.5q0 22 34 60l181 198q24 28 43.5 40t54.5 12t54.5 -13t43.5 -39l181 -198q34 -38 34 -60q0 -15 -16 -22.5t-51 -7.5q-38 0 -58 6t-38 24l-150 154l-150 -154
q-18 -18 -38 -24t-58 -6z" />
    <glyph glyph-name="jcircumflex" unicode="&#x135;" horiz-adv-x="408" 
d="M0 0zM-6 -406q-60 0 -103 10.5t-67 24.5q-14 9 -19 17t-5 16q0 12 9 36t21 44t35 20q14 0 24.5 -4.5t24.5 -7.5q40 -10 63 -10q26 0 53.5 8.5t49.5 36.5q15 22 25 59.5t10 108.5v870q0 20 3 31.5t11 19.5q11 13 70 25q30 6 47 6q24 0 30 -6q13 -10 13 -39v-889
q0 -87 -9.5 -138t-33.5 -101q-31 -62 -95 -100t-157 -38zM-40 1012q-35 0 -51 7.5t-16 22.5q0 22 34 60l181 198q24 28 43.5 40t54.5 12t54.5 -13t43.5 -39l181 -198q34 -38 34 -60q0 -15 -16 -22.5t-51 -7.5q-38 0 -58 6t-38 24l-150 154l-150 -154q-18 -18 -38 -24t-58 -6
z" />
    <glyph glyph-name="Kcommaaccent" unicode="&#x136;" horiz-adv-x="1155" 
d="M154 0zM246 -8q-51 0 -69.5 8t-20.5 19.5t-2 31.5v1270q0 27 5.5 37.5t28 16t58.5 5.5q52 0 70 -8.5t21 -19.5t3 -31v-559l553 590q14 14 34.5 21t71.5 7q60 0 84 -12q7 -3 10 -9.5t3 -12.5q0 -15 -19 -35l-551 -586l600 -662q19 -21 19 -36q0 -7 -3 -13.5t-9 -9.5
q-20 -12 -97 -12q-56 0 -78 7t-32 19l-586 652v-619q0 -28 -6 -38t-28.5 -15.5t-59.5 -5.5zM498 -406q-33 0 -43 10t-10 25q0 13 10 49l55 216q8 29 28.5 37t55.5 8q37 0 57.5 -5.5t26.5 -14.5t6 -15v-22t-8 -27l-92 -215q-12 -29 -27 -37.5t-59 -8.5z" />
    <glyph glyph-name="kcommaaccent" unicode="&#x137;" horiz-adv-x="899" 
d="M121 0zM205 -8q-31 0 -48.5 4t-23.5 10q-12 9 -12 41v1251q0 39 14 52q12 12 70 24q30 6 47 6q24 0 31 -4q12 -9 12 -41v-784l340 321q15 15 35 22t71 7q60 0 80 -10q13 -10 13 -23q0 -8 -4.5 -17t-16.5 -20l-350 -323l416 -447q20 -23 20 -36q0 -14 -12 -23
q-20 -10 -90 -10q-29 0 -47.5 2t-31 5.5t-20 8.5t-14.5 12l-389 429v-400q0 -32 -12 -41q-7 -6 -25 -11t-53 -5zM374 -406q-33 0 -43 10t-10 25q0 13 10 49l55 216q8 29 28.5 37t55.5 8q37 0 57.5 -5.5t26.5 -14.5t6 -15v-22t-8 -27l-92 -215q-12 -29 -27 -37.5t-59 -8.5z
" />
    <glyph glyph-name="kgreenlandic" unicode="&#x138;" horiz-adv-x="899" 
d="M205 -8q-31 0 -48.5 4t-23.5 10q-12 9 -12 41v776q0 39 14 52q12 12 70 24q30 6 47 6q24 0 31 -4q12 -9 12 -41v-309l340 321q15 15 35 22t71 7q60 0 80 -10q13 -10 13 -23q0 -8 -4.5 -17t-16.5 -20l-350 -323l416 -447q20 -23 20 -36q0 -14 -12 -23q-20 -10 -90 -10
q-29 0 -47.5 2t-31 5.5t-20 8.5t-14.5 12l-389 429v-400q0 -32 -12 -41q-7 -6 -25 -11t-53 -5z" />
    <glyph glyph-name="Lacute" unicode="&#x139;" horiz-adv-x="979" 
d="M154 0zM244 0q-41 0 -56.5 5t-21.5 11q-12 14 -12 43v1262q0 27 5.5 37.5t28 16t58.5 5.5q52 0 70 -8.5t21 -19.5t3 -31v-1161h592q17 0 23.5 -2.5t9.5 -5.5q8 -8 8 -33q0 -26 -4.5 -55.5t-12.5 -43.5q-8 -12 -21 -16t-36 -4h-655zM244 1463q-46 0 -61 7.5t-15 18.5
q0 20 17 49l133 216q19 30 43 39.5t59 9.5q45 0 74 -6t29 -29q0 -14 -13 -35t-41 -55l-133 -164q-8 -9 -16.5 -20t-19.5 -19q-20 -12 -56 -12z" />
    <glyph glyph-name="lacute" unicode="&#x13a;" horiz-adv-x="416" 
d="M121 0zM205 -8q-31 0 -48.5 4t-23.5 10q-12 9 -12 41v1251q0 39 14 52q12 12 70 24q30 6 47 6q24 0 31 -4q12 -9 12 -41v-1286q0 -32 -12 -41q-7 -6 -25 -11t-53 -5zM197 1463q-46 0 -61 7.5t-15 18.5q0 20 17 49l133 216q19 30 43 39.5t59 9.5q45 0 74 -6t29 -29
q0 -14 -13 -35t-41 -55l-133 -164q-8 -9 -16.5 -20t-19.5 -19q-20 -12 -56 -12z" />
    <glyph glyph-name="Lcommaaccent" unicode="&#x13b;" horiz-adv-x="979" 
d="M154 0zM244 0q-41 0 -56.5 5t-21.5 11q-12 14 -12 43v1262q0 27 5.5 37.5t28 16t58.5 5.5q52 0 70 -8.5t21 -19.5t3 -31v-1161h592q17 0 23.5 -2.5t9.5 -5.5q8 -8 8 -33q0 -26 -4.5 -55.5t-12.5 -43.5q-8 -12 -21 -16t-36 -4h-655zM471 -406q-33 0 -43 10t-10 25
q0 13 10 49l55 216q8 29 28.5 37t55.5 8q37 0 57.5 -5.5t26.5 -14.5t6 -15v-22t-8 -27l-92 -215q-12 -29 -27 -37.5t-59 -8.5z" />
    <glyph glyph-name="lcommaaccent" unicode="&#x13c;" horiz-adv-x="416" 
d="M59 0zM205 -8q-31 0 -48.5 4t-23.5 10q-12 9 -12 41v1251q0 39 14 52q12 12 70 24q30 6 47 6q24 0 31 -4q12 -9 12 -41v-1286q0 -32 -12 -41q-7 -6 -25 -11t-53 -5zM112 -406q-33 0 -43 10t-10 25q0 13 10 49l55 216q8 29 28.5 37t55.5 8q37 0 57.5 -5.5t26.5 -14.5
t6 -15v-22t-8 -27l-92 -215q-12 -29 -27 -37.5t-59 -8.5z" />
    <glyph glyph-name="Lcaron" unicode="&#x13d;" horiz-adv-x="979" 
d="M154 0zM244 0q-41 0 -56.5 5t-21.5 11q-12 14 -12 43v1262q0 27 5.5 37.5t28 16t58.5 5.5q52 0 70 -8.5t21 -19.5t3 -31v-1161h592q17 0 23.5 -2.5t9.5 -5.5q8 -8 8 -33q0 -26 -4.5 -55.5t-12.5 -43.5q-8 -12 -21 -16t-36 -4h-655zM680 997q-46 0 -60 10.5t-14 24.5
q0 13 10 49l60 254q5 27 26 36t78 9q41 0 59.5 -5.5t24.5 -14t6 -14.5q0 -25 -8 -50l-96 -254q-17 -45 -86 -45z" />
    <glyph glyph-name="lcaron" unicode="&#x13e;" horiz-adv-x="631" 
d="M121 0zM205 -8q-31 0 -48.5 4t-23.5 10q-12 9 -12 41v1251q0 39 14 52q12 12 70 24q30 6 47 6q24 0 31 -4q12 -9 12 -41v-1286q0 -32 -12 -41q-7 -6 -25 -11t-53 -5zM455 997q-46 0 -60 10.5t-14 24.5q0 13 10 49l60 254q5 27 26 36t78 9q41 0 59.5 -5.5t24.5 -14
t6 -14.5q0 -25 -8 -50l-96 -254q-17 -45 -86 -45z" />
    <glyph glyph-name="Ldot" unicode="&#x13f;" horiz-adv-x="979" 
d="M154 0zM244 0q-41 0 -56.5 5t-21.5 11q-12 14 -12 43v1262q0 27 5.5 37.5t28 16t58.5 5.5q52 0 70 -8.5t21 -19.5t3 -31v-1161h592q17 0 23.5 -2.5t9.5 -5.5q8 -8 8 -33q0 -26 -4.5 -55.5t-12.5 -43.5q-8 -12 -21 -16t-36 -4h-655zM737 537q-35 0 -64.5 20t-42 48
t-12.5 52q0 35 20.5 67t46.5 44t52 12q31 0 62 -20.5t44.5 -49t13.5 -53.5q0 -36 -21.5 -67t-48.5 -42t-50 -11z" />
    <glyph glyph-name="ldot" unicode="&#x140;" horiz-adv-x="616" 
d="M121 0zM205 -8q-31 0 -48.5 4t-23.5 10q-12 9 -12 41v1251q0 39 14 52q12 12 70 24q30 6 47 6q24 0 31 -4q12 -9 12 -41v-1286q0 -32 -12 -41q-7 -6 -25 -11t-53 -5zM516 537q-35 0 -64.5 20t-42 48t-12.5 52q0 35 20.5 67t46.5 44t52 12q31 0 62 -20.5t44.5 -49
t13.5 -53.5q0 -36 -21.5 -67t-48.5 -42t-50 -11z" />
    <glyph glyph-name="Lslash" unicode="&#x141;" horiz-adv-x="979" 
d="M244 0q-41 0 -56.5 5t-21.5 11q-12 14 -12 43v404l-58 -62q-31 -34 -49 -34q-17 0 -22 10.5t-5 25.5v91q0 21 8.5 41.5t28.5 42.5l97 104v639q0 27 5.5 37.5t28 16t58.5 5.5q52 0 70 -8.5t21 -19.5t3 -31v-438l113 121q30 34 49 34q17 0 21.5 -10.5t4.5 -26.5v-90
q0 -21 -8 -41.5t-28 -42.5l-152 -163v-504h592q17 0 23.5 -2.5t9.5 -5.5q8 -8 8 -33q0 -26 -4.5 -55.5t-12.5 -43.5q-8 -12 -21 -16t-36 -4h-655z" />
    <glyph glyph-name="lslash" unicode="&#x142;" horiz-adv-x="416" 
d="M205 -8q-31 0 -48.5 4t-23.5 10q-12 9 -12 41v438l-33 -36q-28 -35 -49 -35q-17 0 -22 10.5t-5 26.5v81q0 44 37 84l72 78v604q0 39 14 52q12 12 70 24q30 6 47 6q24 0 31 -4q12 -9 12 -41v-450l33 37q30 34 49 34q17 0 21.5 -10.5t4.5 -25.5v-82q0 -22 -8 -42.5
t-28 -41.5l-72 -78v-627q0 -32 -12 -41q-7 -6 -25 -11t-53 -5z" />
    <glyph glyph-name="Nacute" unicode="&#x143;" horiz-adv-x="1262" 
d="M92 0zM244 -8q-34 0 -53 5t-25 11q-12 9 -12 43v1174l-50 84q-12 16 -12 30q0 18 10 25q7 6 29.5 11t73.5 5q35 0 55.5 -5.5t26.5 -10.5q3 -3 6 -5t6 -5q5 -5 14 -23l617 -985v975q0 27 5.5 37t25 16t53.5 6q52 0 70 -8.5t21 -19.5t3 -31v-1270q0 -28 -6 -38t-24 -15.5
t-52 -5.5q-35 0 -52.5 4.5t-23.5 9.5q-11 10 -14 19l-604 962v-936q0 -34 -13 -43q-6 -6 -21.5 -11t-53.5 -5zM596 1463q-46 0 -61 7.5t-15 18.5q0 20 17 49l133 216q19 30 43 39.5t59 9.5q45 0 74 -6t29 -29q0 -14 -13 -35t-41 -55l-133 -164q-8 -9 -16.5 -20t-19.5 -19
q-20 -12 -56 -12z" />
    <glyph glyph-name="nacute" unicode="&#x144;" horiz-adv-x="1006" 
d="M121 0zM205 -8q-31 0 -48.5 4t-23.5 10q-12 9 -12 41v776q0 20 3 31.5t11 19.5q11 13 70 25q30 6 47 6q25 0 31 -6q12 -9 12 -39v-78q32 43 77 72.5t97.5 44t99.5 14.5q122 0 197.5 -53.5t100 -132t24.5 -152.5v-526q0 -32 -12 -41q-7 -6 -25 -11t-53 -5q-31 0 -48.5 4
t-23.5 10q-12 9 -12 41v508q0 105 -48.5 156t-142.5 51q-47 0 -89 -19.5t-73.5 -52.5t-50 -76t-18.5 -90v-475q0 -32 -12 -41q-7 -6 -25 -11t-53 -5zM499 1012q-46 0 -61 7.5t-15 18.5q0 20 17 49l133 216q19 30 43 39.5t59 9.5q45 0 74 -6t29 -29q0 -14 -13 -35t-41 -55
l-133 -164q-8 -9 -16.5 -20t-19.5 -19q-20 -12 -56 -12z" />
    <glyph glyph-name="Ncommaaccent" unicode="&#x145;" horiz-adv-x="1262" 
d="M92 0zM244 -8q-34 0 -53 5t-25 11q-12 9 -12 43v1174l-50 84q-12 16 -12 30q0 18 10 25q7 6 29.5 11t73.5 5q35 0 55.5 -5.5t26.5 -10.5q3 -3 6 -5t6 -5q5 -5 14 -23l617 -985v975q0 27 5.5 37t25 16t53.5 6q52 0 70 -8.5t21 -19.5t3 -31v-1270q0 -28 -6 -38t-24 -15.5
t-52 -5.5q-35 0 -52.5 4.5t-23.5 9.5q-11 10 -14 19l-604 962v-936q0 -34 -13 -43q-6 -6 -21.5 -11t-53.5 -5zM532 -406q-33 0 -43 10t-10 25q0 13 10 49l55 216q8 29 28.5 37t55.5 8q37 0 57.5 -5.5t26.5 -14.5t6 -15v-22t-8 -27l-92 -215q-12 -29 -27 -37.5t-59 -8.5z" />
    <glyph glyph-name="ncommaaccent" unicode="&#x146;" horiz-adv-x="1006" 
d="M121 0zM205 -8q-31 0 -48.5 4t-23.5 10q-12 9 -12 41v776q0 20 3 31.5t11 19.5q11 13 70 25q30 6 47 6q25 0 31 -6q12 -9 12 -39v-78q32 43 77 72.5t97.5 44t99.5 14.5q122 0 197.5 -53.5t100 -132t24.5 -152.5v-526q0 -32 -12 -41q-7 -6 -25 -11t-53 -5q-31 0 -48.5 4
t-23.5 10q-12 9 -12 41v508q0 105 -48.5 156t-142.5 51q-47 0 -89 -19.5t-73.5 -52.5t-50 -76t-18.5 -90v-475q0 -32 -12 -41q-7 -6 -25 -11t-53 -5zM392 -406q-33 0 -43 10t-10 25q0 13 10 49l55 216q8 29 28.5 37t55.5 8q37 0 57.5 -5.5t26.5 -14.5t6 -15v-22t-8 -27
l-92 -215q-12 -29 -27 -37.5t-59 -8.5z" />
    <glyph glyph-name="Ncaron" unicode="&#x147;" horiz-adv-x="1262" 
d="M92 0zM244 -8q-34 0 -53 5t-25 11q-12 9 -12 43v1174l-50 84q-12 16 -12 30q0 18 10 25q7 6 29.5 11t73.5 5q35 0 55.5 -5.5t26.5 -10.5q3 -3 6 -5t6 -5q5 -5 14 -23l617 -985v975q0 27 5.5 37t25 16t53.5 6q52 0 70 -8.5t21 -19.5t3 -31v-1270q0 -28 -6 -38t-24 -15.5
t-52 -5.5q-35 0 -52.5 4.5t-23.5 9.5q-11 10 -14 19l-604 962v-936q0 -34 -13 -43q-6 -6 -21.5 -11t-53.5 -5zM631 1463q-35 0 -54.5 12.5t-43.5 38.5l-181 199q-34 37 -34 59q0 15 16 23t51 8q38 0 58 -6t38 -25l150 -154l150 154q18 19 38 25t58 6q35 0 51 -8t16 -23
q0 -12 -8 -25.5t-26 -33.5l-181 -199q-26 -30 -45.5 -40.5t-52.5 -10.5z" />
    <glyph glyph-name="ncaron" unicode="&#x148;" horiz-adv-x="1006" 
d="M121 0zM205 -8q-31 0 -48.5 4t-23.5 10q-12 9 -12 41v776q0 20 3 31.5t11 19.5q11 13 70 25q30 6 47 6q25 0 31 -6q12 -9 12 -39v-78q32 43 77 72.5t97.5 44t99.5 14.5q122 0 197.5 -53.5t100 -132t24.5 -152.5v-526q0 -32 -12 -41q-7 -6 -25 -11t-53 -5q-31 0 -48.5 4
t-23.5 10q-12 9 -12 41v508q0 105 -48.5 156t-142.5 51q-47 0 -89 -19.5t-73.5 -52.5t-50 -76t-18.5 -90v-475q0 -32 -12 -41q-7 -6 -25 -11t-53 -5zM530 1012q-35 0 -54.5 12.5t-43.5 38.5l-181 199q-34 37 -34 59q0 15 16 23t51 8q38 0 58 -6t38 -25l150 -154l150 154
q18 19 38 25t58 6q35 0 51 -8t16 -23q0 -12 -8 -25.5t-26 -33.5l-181 -199q-26 -30 -45.5 -40.5t-52.5 -10.5z" />
    <glyph glyph-name="napostrophe" unicode="&#x149;" horiz-adv-x="1166" 
d="M19 0zM365 -8q-31 0 -48.5 4t-23.5 10q-12 9 -12 41v776q0 20 3 31.5t11 19.5q11 13 70 25q30 6 47 6q25 0 31 -6q12 -9 12 -39v-78q32 43 77 72.5t97.5 44t99.5 14.5q122 0 197.5 -53.5t100 -132t24.5 -152.5v-526q0 -32 -12 -41q-7 -6 -25 -11t-53 -5q-31 0 -48.5 4
t-23.5 10q-12 9 -12 41v508q0 105 -48.5 156t-142.5 51q-47 0 -89 -19.5t-73.5 -52.5t-50 -76t-18.5 -90v-475q0 -32 -12 -41q-7 -6 -25 -11t-53 -5zM93 948q-46 0 -60 10.5t-14 24.5q0 13 10 49l72 303q7 28 27 36.5t77 8.5q41 0 59.5 -5.5t24.5 -14t6 -14.5q0 -25 -8 -50
l-108 -303q-18 -45 -86 -45z" />
    <glyph glyph-name="Eng" unicode="&#x14a;" horiz-adv-x="1262" 
d="M702 -406q-91 0 -151.5 13.5t-92 28t-46.5 24.5q-31 18 -45 33q-17 15 -17 30q0 19 31 68q20 31 32.5 40t24.5 9q11 0 21.5 -7.5t25.5 -16.5q41 -28 60 -38t56 -18t87 -8q113 0 168 56.5t64 136.5q6 48 8 91l-596 951v-936q0 -34 -13 -43q-6 -6 -21.5 -11t-53.5 -5
q-34 0 -53 5t-25 11q-12 9 -12 43v1174l-50 84q-12 16 -12 30q0 18 10 25q7 6 29.5 11t73.5 5q35 0 55.5 -5.5t26.5 -10.5q3 -3 6 -5t6 -5q5 -5 14 -23l617 -985v975q0 27 5.5 37t25 16t53.5 6q52 0 70 -8.5t21 -19.5t3 -31v-1270v-6v-5q-1 -1 -2 -49.5t-24 -132.5
q-26 -95 -93 -161q-46 -47 -114 -75t-173 -28z" />
    <glyph glyph-name="eng" unicode="&#x14b;" horiz-adv-x="1006" 
d="M592 -406q-60 0 -103 10.5t-67 24.5q-14 9 -19 17t-5 16t4 24.5t12.5 33.5t20.5 29.5t28 12.5q14 0 24.5 -4.5t24.5 -7.5q39 -10 63 -10q26 0 54 8t49 37q16 21 27.5 59t11.5 109v602q0 106 -48.5 156.5t-142.5 50.5q-47 0 -89 -19.5t-73.5 -52.5t-50 -76t-18.5 -90v-475
q0 -32 -12 -41q-7 -6 -25 -11t-53 -5q-31 0 -48 4.5t-24 9.5q-12 10 -12 41v776q0 20 3 31t11 20q12 13 70 25q30 6 47 6q25 0 31 -6q12 -9 12 -39v-78q24 32 56 56.5t68.5 41t75 25t74.5 8.5q120 0 197 -54q75 -53 100 -132q12 -39 18.5 -77t6.5 -75v-526q-2 -51 -3 -86.5
t-2.5 -60t-3.5 -40.5t-5 -29q-9 -52 -33 -101q-31 -63 -94.5 -100.5t-157.5 -37.5z" />
    <glyph glyph-name="Omacron" unicode="&#x14c;" horiz-adv-x="1362" 
d="M88 0zM682 -29q-131 0 -240.5 47.5t-188 138.5t-122 223.5t-43.5 303.5t43.5 304t122 225t188 140t240.5 48q130 0 239 -48t187.5 -140t122 -225t43.5 -304t-43.5 -303.5t-122 -223.5t-187.5 -138.5t-239 -47.5zM682 135q93 0 165.5 37t123 107t76.5 172t26 233
q0 130 -26 233t-76.5 174t-123 108.5t-165.5 37.5q-94 0 -167 -37.5t-123.5 -108.5t-76.5 -174t-26 -233q0 -131 26 -233t76.5 -172t123.5 -107t167 -37zM504 1498q-26 0 -35 4q-10 10 -10 41q0 23 4.5 46.5t13 39t19.5 20t34 4.5h340q25 0 35 -4q10 -10 10 -41
q0 -20 -4.5 -45t-13.5 -41q-13 -24 -53 -24h-340z" />
    <glyph glyph-name="omacron" unicode="&#x14d;" horiz-adv-x="1004" 
d="M74 0zM502 -20q-91 0 -169 33t-135.5 94t-90.5 147t-33 192q0 105 32.5 191.5t90 147.5t135.5 94.5t170 33.5q137 0 240.5 -72t145.5 -180.5t42 -214.5q0 -105 -32.5 -191t-90 -147t-136 -94.5t-169.5 -33.5zM502 129q84 0 145 51.5t83 125.5t22 140q0 99 -36.5 176.5
t-95.5 109.5t-118 32t-105.5 -25t-78.5 -68t-49 -101t-17 -124t16.5 -124t48.5 -100.5t78.5 -67.5t106.5 -25zM327 1047q-26 0 -35 4q-10 10 -10 41q0 23 4.5 46.5t13 39t19.5 20t34 4.5h340q25 0 35 -4q10 -10 10 -41q0 -20 -4.5 -45t-13.5 -41q-13 -24 -53 -24h-340z" />
    <glyph glyph-name="Obreve" unicode="&#x14e;" horiz-adv-x="1362" 
d="M88 0zM682 -29q-131 0 -240.5 47.5t-188 138.5t-122 223.5t-43.5 303.5t43.5 304t122 225t188 140t240.5 48q130 0 239 -48t187.5 -140t122 -225t43.5 -304t-43.5 -303.5t-122 -223.5t-187.5 -138.5t-239 -47.5zM682 135q93 0 165.5 37t123 107t76.5 172t26 233
q0 130 -26 233t-76.5 174t-123 108.5t-165.5 37.5q-94 0 -167 -37.5t-123.5 -108.5t-76.5 -174t-26 -233q0 -131 26 -233t76.5 -172t123.5 -107t167 -37zM679 1463q-70 0 -117 19.5t-77.5 52.5t-47.5 76t-26 91q-3 17 8 27t31 10h65q47 0 55 -28q10 -48 34.5 -73.5
t74.5 -25.5q51 0 76 26.5t35 76.5q3 11 13.5 17.5t35.5 6.5h59q29 0 41.5 -7t7.5 -36q-14 -78 -49.5 -132.5t-93 -77.5t-125.5 -23z" />
    <glyph glyph-name="obreve" unicode="&#x14f;" horiz-adv-x="1004" 
d="M74 0zM502 -20q-91 0 -169 33t-135.5 94t-90.5 147t-33 192q0 105 32.5 191.5t90 147.5t135.5 94.5t170 33.5q137 0 240.5 -72t145.5 -180.5t42 -214.5q0 -105 -32.5 -191t-90 -147t-136 -94.5t-169.5 -33.5zM502 129q84 0 145 51.5t83 125.5t22 140q0 99 -36.5 176.5
t-95.5 109.5t-118 32t-105.5 -25t-78.5 -68t-49 -101t-17 -124t16.5 -124t48.5 -100.5t78.5 -67.5t106.5 -25zM502 1012q-70 0 -117 19.5t-77.5 52.5t-47.5 76t-26 91q-3 17 8 27t31 10h65q47 0 55 -28q10 -48 34.5 -73.5t74.5 -25.5q51 0 76 26.5t35 76.5q3 11 13.5 17.5
t35.5 6.5h59q29 0 41.5 -7t7.5 -36q-14 -78 -49.5 -132.5t-93 -77.5t-125.5 -23z" />
    <glyph glyph-name="Ohungarumlaut" unicode="&#x150;" horiz-adv-x="1362" 
d="M88 0zM682 -29q-131 0 -240.5 47.5t-188 138.5t-122 223.5t-43.5 303.5t43.5 304t122 225t188 140t240.5 48q130 0 239 -48t187.5 -140t122 -225t43.5 -304t-43.5 -303.5t-122 -223.5t-187.5 -138.5t-239 -47.5zM682 135q93 0 165.5 37t123 107t76.5 172t26 233
q0 130 -26 233t-76.5 174t-123 108.5t-165.5 37.5q-94 0 -167 -37.5t-123.5 -108.5t-76.5 -174t-26 -233q0 -131 26 -233t76.5 -172t123.5 -107t167 -37zM496 1463q-48 0 -61 7.5t-13 18.5q0 22 16 49l132 216q18 30 41.5 39.5t58.5 9.5q43 0 71.5 -6t28.5 -29
q0 -14 -12.5 -35t-40.5 -55l-129 -164q-31 -35 -37 -39q-18 -12 -55 -12zM811 1463q-45 0 -60.5 7.5t-15.5 18.5q0 20 17 49l131 216q18 30 41.5 39.5t58.5 9.5q44 0 72.5 -6t28.5 -29q0 -14 -13 -35t-41 -55l-129 -164q-31 -35 -37 -39q-18 -12 -53 -12z" />
    <glyph glyph-name="ohungarumlaut" unicode="&#x151;" horiz-adv-x="1004" 
d="M74 0zM502 -20q-91 0 -169 33t-135.5 94t-90.5 147t-33 192q0 105 32.5 191.5t90 147.5t135.5 94.5t170 33.5q137 0 240.5 -72t145.5 -180.5t42 -214.5q0 -105 -32.5 -191t-90 -147t-136 -94.5t-169.5 -33.5zM502 129q84 0 145 51.5t83 125.5t22 140q0 99 -36.5 176.5
t-95.5 109.5t-118 32t-105.5 -25t-78.5 -68t-49 -101t-17 -124t16.5 -124t48.5 -100.5t78.5 -67.5t106.5 -25zM336 1012q-48 0 -61 7.5t-13 18.5q0 22 16 49l132 216q18 30 41.5 39.5t58.5 9.5q43 0 71.5 -6t28.5 -29q0 -14 -12.5 -35t-40.5 -55l-129 -164q-31 -35 -37 -39
q-18 -12 -55 -12zM651 1012q-45 0 -60.5 7.5t-15.5 18.5q0 20 17 49l131 216q18 30 41.5 39.5t58.5 9.5q44 0 72.5 -6t28.5 -29q0 -14 -13 -35t-41 -55l-129 -164q-31 -35 -37 -39q-18 -12 -53 -12z" />
    <glyph glyph-name="OE" unicode="&#x152;" horiz-adv-x="1946" 
d="M682 -29q-131 0 -240.5 47.5t-188 138.5t-122 223.5t-43.5 303.5t43.5 304t122 225t188 140t240.5 48q116 0 216 -40t175 -130v82q0 31 12 43q18 16 78 16h707q22 0 33 -8q8 -8 8 -33q0 -24 -5 -54.5t-12 -43.5q-8 -12 -21 -16.5t-36 -4.5h-577v-387h518q24 0 32 -8
q9 -8 9 -33q0 -23 -5 -54.5t-12.5 -43.5t-20.5 -16t-36 -4h-485v-506h620q17 0 23.5 -2.5t9.5 -5.5q8 -8 8 -33q0 -26 -4 -55.5t-12 -43.5q-8 -12 -21.5 -16t-36.5 -4h-684q-40 0 -55.5 5t-22.5 11q-12 14 -12 43v78q-77 -86 -176 -126t-215 -40zM682 135q93 0 165.5 37
t123 107t76.5 172t26 233q0 130 -26 233t-76.5 174t-123 108.5t-165.5 37.5q-94 0 -167 -37.5t-123.5 -108.5t-76.5 -174t-26 -233q0 -131 26 -233t76.5 -172t123.5 -107t167 -37z" />
    <glyph glyph-name="oe" unicode="&#x153;" horiz-adv-x="1614" 
d="M502 -20q-91 0 -169 33t-135.5 94t-90.5 147t-33 192q0 105 32.5 191.5t90 147.5t135.5 94.5t170 33.5q103 0 189 -42t145 -119q52 77 134 119t185 42q140 0 232.5 -70t125.5 -176t33 -212q0 -35 -18 -47q-18 -15 -72 -15h-528q7 -55 27.5 -101.5t52.5 -80t75 -52
t95 -18.5q53 0 86.5 7.5t70.5 21.5q25 9 45.5 21t38.5 12q22 0 33.5 -14t22.5 -35q22 -44 22 -56q0 -14 -11.5 -27t-45.5 -30q-50 -24 -86.5 -36t-85 -18.5t-94.5 -6.5q-110 0 -195.5 42.5t-140.5 120.5q-59 -78 -145 -120.5t-191 -42.5zM502 129q93 0 152 57t77.5 131.5
t18.5 131.5q0 94 -33 170t-90.5 110.5t-124.5 34.5q-59 0 -105.5 -25t-78.5 -68t-49 -101t-17 -124t16.5 -124t48.5 -100.5t78.5 -67.5t106.5 -25zM934 537h430q-3 77 -36 134.5t-80.5 79t-94.5 21.5q-96 0 -149 -63t-70 -172z" />
    <glyph glyph-name="Racute" unicode="&#x154;" horiz-adv-x="1155" 
d="M154 0zM244 -8q-49 0 -67.5 8t-20.5 19.5t-2 31.5v1262q0 31 14 45t76 14h311q250 0 367.5 -94.5t117.5 -286.5q0 -106 -38.5 -190t-109 -132t-151.5 -71l381 -535q6 -9 9.5 -18.5t3.5 -17.5q0 -16 -17 -23q-24 -12 -92 -12q-34 0 -57.5 3.5t-30 10t-10.5 12.5l-385 555
q-67 0 -205 9v-531q0 -33 -10 -43q-7 -6 -27 -11t-57 -5zM535 731q88 0 148 19t96.5 53t52.5 81.5t16 104.5q0 86 -35 138t-105.5 71t-154.5 19h-215v-482q85 -4 197 -4zM479 1463q-46 0 -61 7.5t-15 18.5q0 20 17 49l133 216q19 30 43 39.5t59 9.5q45 0 74 -6t29 -29
q0 -14 -13 -35t-41 -55l-133 -164q-8 -9 -16.5 -20t-19.5 -19q-20 -12 -56 -12z" />
    <glyph glyph-name="racute" unicode="&#x155;" horiz-adv-x="682" 
d="M121 0zM205 -8q-31 0 -48.5 4t-23.5 10q-12 9 -12 41v776q0 20 3 31.5t11 19.5q11 13 70 25q30 6 47 6q25 0 31 -6q12 -9 12 -39v-96q21 42 60.5 75.5t82 49.5t76.5 16q31 0 57.5 -6.5t49.5 -15.5q27 -11 44 -24.5t17 -29.5q0 -11 -20 -61q-27 -53 -46 -53q-14 0 -26 7
t-31 13q-43 15 -74 15q-53 0 -101.5 -48.5t-68.5 -111.5t-20 -119v-422q0 -32 -12 -41q-7 -6 -25 -11t-53 -5zM357 1012q-46 0 -61 7.5t-15 18.5q0 20 17 49l133 216q19 30 43 39.5t59 9.5q45 0 74 -6t29 -29q0 -14 -13 -35t-41 -55l-133 -164q-8 -9 -16.5 -20t-19.5 -19
q-20 -12 -56 -12z" />
    <glyph glyph-name="Rcommaaccent" unicode="&#x156;" horiz-adv-x="1155" 
d="M154 0zM244 -8q-49 0 -67.5 8t-20.5 19.5t-2 31.5v1262q0 31 14 45t76 14h311q250 0 367.5 -94.5t117.5 -286.5q0 -106 -38.5 -190t-109 -132t-151.5 -71l381 -535q6 -9 9.5 -18.5t3.5 -17.5q0 -16 -17 -23q-24 -12 -92 -12q-34 0 -57.5 3.5t-30 10t-10.5 12.5l-385 555
q-67 0 -205 9v-531q0 -33 -10 -43q-7 -6 -27 -11t-57 -5zM535 731q88 0 148 19t96.5 53t52.5 81.5t16 104.5q0 86 -35 138t-105.5 71t-154.5 19h-215v-482q85 -4 197 -4zM496 -406q-33 0 -43 10t-10 25q0 13 10 49l55 216q8 29 28.5 37t55.5 8q37 0 57.5 -5.5t26.5 -14.5
t6 -15v-22t-8 -27l-92 -215q-12 -29 -27 -37.5t-59 -8.5z" />
    <glyph glyph-name="rcommaaccent" unicode="&#x157;" horiz-adv-x="682" 
d="M121 0zM205 -8q-31 0 -48.5 4t-23.5 10q-12 9 -12 41v776q0 20 3 31.5t11 19.5q11 13 70 25q30 6 47 6q25 0 31 -6q12 -9 12 -39v-96q21 42 60.5 75.5t82 49.5t76.5 16q31 0 57.5 -6.5t49.5 -15.5q27 -11 44 -24.5t17 -29.5q0 -11 -20 -61q-27 -53 -46 -53q-14 0 -26 7
t-31 13q-43 15 -74 15q-53 0 -101.5 -48.5t-68.5 -111.5t-20 -119v-422q0 -32 -12 -41q-7 -6 -25 -11t-53 -5zM175 -406q-33 0 -43 10t-10 25q0 13 10 49l55 216q8 29 28.5 37t55.5 8q37 0 57.5 -5.5t26.5 -14.5t6 -15v-22t-8 -27l-92 -215q-12 -29 -27 -37.5t-59 -8.5z" />
    <glyph glyph-name="Rcaron" unicode="&#x158;" horiz-adv-x="1155" 
d="M154 0zM244 -8q-49 0 -67.5 8t-20.5 19.5t-2 31.5v1262q0 31 14 45t76 14h311q250 0 367.5 -94.5t117.5 -286.5q0 -106 -38.5 -190t-109 -132t-151.5 -71l381 -535q6 -9 9.5 -18.5t3.5 -17.5q0 -16 -17 -23q-24 -12 -92 -12q-34 0 -57.5 3.5t-30 10t-10.5 12.5l-385 555
q-67 0 -205 9v-531q0 -33 -10 -43q-7 -6 -27 -11t-57 -5zM535 731q88 0 148 19t96.5 53t52.5 81.5t16 104.5q0 86 -35 138t-105.5 71t-154.5 19h-215v-482q85 -4 197 -4zM569 1463q-35 0 -54.5 12.5t-43.5 38.5l-181 199q-34 37 -34 59q0 15 16 23t51 8q38 0 58 -6t38 -25
l150 -154l150 154q18 19 38 25t58 6q35 0 51 -8t16 -23q0 -12 -8 -25.5t-26 -33.5l-181 -199q-26 -30 -45.5 -40.5t-52.5 -10.5z" />
    <glyph glyph-name="rcaron" unicode="&#x159;" horiz-adv-x="682" 
d="M121 0zM205 -8q-31 0 -48.5 4t-23.5 10q-12 9 -12 41v776q0 20 3 31.5t11 19.5q11 13 70 25q30 6 47 6q25 0 31 -6q12 -9 12 -39v-96q21 42 60.5 75.5t82 49.5t76.5 16q31 0 57.5 -6.5t49.5 -15.5q27 -11 44 -24.5t17 -29.5q0 -11 -20 -61q-27 -53 -46 -53q-14 0 -26 7
t-31 13q-43 15 -74 15q-53 0 -101.5 -48.5t-68.5 -111.5t-20 -119v-422q0 -32 -12 -41q-7 -6 -25 -11t-53 -5zM445 1012q-35 0 -54.5 12.5t-43.5 38.5l-181 199q-34 37 -34 59q0 15 16 23t51 8q38 0 58 -6t38 -25l150 -154l150 154q18 19 38 25t58 6q35 0 51 -8t16 -23
q0 -12 -8 -25.5t-26 -33.5l-181 -199q-26 -30 -45.5 -40.5t-52.5 -10.5z" />
    <glyph glyph-name="Sacute" unicode="&#x15a;" horiz-adv-x="1075" 
d="M53 0zM518 -29q-87 0 -152.5 11t-115 27t-84.5 35t-60 34q-34 20 -43.5 33.5t-9.5 25.5q0 13 15.5 42t29.5 48q23 27 41 27q11 0 31 -14q12 -8 24.5 -15.5t24.5 -15.5q34 -21 83.5 -39.5t99.5 -26.5t100 -8q106 0 184 31t109.5 85t31.5 111q0 74 -34.5 118t-106 74
t-151.5 52l-89 25q-82 23 -151 53t-118.5 74.5t-77 105.5t-27.5 146q0 91 31.5 163.5t90.5 123t144 77.5t192 27t177 -15t110 -31t51 -20q42 -18 53 -30.5t11 -20.5q0 -11 -8 -37.5t-21 -48.5q-9 -18 -17.5 -26.5t-19.5 -8.5q-18 0 -35 8q-10 5 -45 19.5t-54.5 22
t-41.5 12.5q-75 16 -158 16q-70 0 -122.5 -16.5t-87.5 -46t-52.5 -69t-17.5 -85.5q0 -45 19 -78t55 -58.5t88 -46t118 -38.5l109 -31q137 -39 220.5 -92.5t117 -130t33.5 -162.5q0 -103 -33.5 -180.5t-97 -130t-155 -79t-208.5 -26.5zM506 1463q-46 0 -61 7.5t-15 18.5
q0 20 17 49l133 216q19 30 43 39.5t59 9.5q45 0 74 -6t29 -29q0 -14 -13 -35t-41 -55l-133 -164q-8 -9 -16.5 -20t-19.5 -19q-20 -12 -56 -12z" />
    <glyph glyph-name="sacute" unicode="&#x15b;" horiz-adv-x="786" 
d="M37 0zM395 -20q-62 0 -110 7t-85.5 17.5t-64.5 22.5t-45 22q-31 16 -42 27.5t-11 23.5q0 25 24 66q16 25 27.5 31t24.5 6q17 0 38.5 -11.5t36.5 -17.5q44 -21 99.5 -33t105.5 -12q60 0 102.5 15t60 42.5t17.5 59.5q0 53 -39.5 83.5t-134.5 47.5l-69 12q-53 9 -103 27.5
t-88.5 48.5t-62 73.5t-23.5 104.5q0 94 54.5 158t132.5 88t151 24q65 0 123.5 -10t118.5 -33q35 -12 48 -23.5t13 -25.5q0 -19 -14 -57q-17 -47 -47 -47q-19 0 -39 9t-43 15q-38 11 -83 19t-91 8q-72 0 -114 -29.5t-42 -83.5q0 -46 44 -74t122 -42l90 -17q60 -11 110 -28
t86.5 -47t56.5 -76t20 -113q0 -98 -57.5 -164t-139.5 -90t-158 -24zM392 1012q-46 0 -61 7.5t-15 18.5q0 20 17 49l133 216q19 30 43 39.5t59 9.5q45 0 74 -6t29 -29q0 -14 -13 -35t-41 -55l-133 -164q-8 -9 -16.5 -20t-19.5 -19q-20 -12 -56 -12z" />
    <glyph glyph-name="Scircumflex" unicode="&#x15c;" horiz-adv-x="1075" 
d="M53 0zM518 -29q-87 0 -152.5 11t-115 27t-84.5 35t-60 34q-34 20 -43.5 33.5t-9.5 25.5q0 13 15.5 42t29.5 48q23 27 41 27q11 0 31 -14q12 -8 24.5 -15.5t24.5 -15.5q34 -21 83.5 -39.5t99.5 -26.5t100 -8q106 0 184 31t109.5 85t31.5 111q0 74 -34.5 118t-106 74
t-151.5 52l-89 25q-82 23 -151 53t-118.5 74.5t-77 105.5t-27.5 146q0 91 31.5 163.5t90.5 123t144 77.5t192 27t177 -15t110 -31t51 -20q42 -18 53 -30.5t11 -20.5q0 -11 -8 -37.5t-21 -48.5q-9 -18 -17.5 -26.5t-19.5 -8.5q-18 0 -35 8q-10 5 -45 19.5t-54.5 22
t-41.5 12.5q-75 16 -158 16q-70 0 -122.5 -16.5t-87.5 -46t-52.5 -69t-17.5 -85.5q0 -45 19 -78t55 -58.5t88 -46t118 -38.5l109 -31q137 -39 220.5 -92.5t117 -130t33.5 -162.5q0 -103 -33.5 -180.5t-97 -130t-155 -79t-208.5 -26.5zM291 1463q-35 0 -51 7.5t-16 22.5
q0 22 34 60l181 198q24 28 43.5 40t54.5 12t54.5 -13t43.5 -39l181 -198q34 -38 34 -60q0 -15 -16 -22.5t-51 -7.5q-38 0 -58 6t-38 24l-150 154l-150 -154q-18 -18 -38 -24t-58 -6z" />
    <glyph glyph-name="scircumflex" unicode="&#x15d;" horiz-adv-x="786" 
d="M37 0zM395 -20q-62 0 -110 7t-85.5 17.5t-64.5 22.5t-45 22q-31 16 -42 27.5t-11 23.5q0 25 24 66q16 25 27.5 31t24.5 6q17 0 38.5 -11.5t36.5 -17.5q44 -21 99.5 -33t105.5 -12q60 0 102.5 15t60 42.5t17.5 59.5q0 53 -39.5 83.5t-134.5 47.5l-69 12q-53 9 -103 27.5
t-88.5 48.5t-62 73.5t-23.5 104.5q0 94 54.5 158t132.5 88t151 24q65 0 123.5 -10t118.5 -33q35 -12 48 -23.5t13 -25.5q0 -19 -14 -57q-17 -47 -47 -47q-19 0 -39 9t-43 15q-38 11 -83 19t-91 8q-72 0 -114 -29.5t-42 -83.5q0 -46 44 -74t122 -42l90 -17q60 -11 110 -28
t86.5 -47t56.5 -76t20 -113q0 -98 -57.5 -164t-139.5 -90t-158 -24zM149 1012q-35 0 -51 7.5t-16 22.5q0 22 34 60l181 198q24 28 43.5 40t54.5 12t54.5 -13t43.5 -39l181 -198q34 -38 34 -60q0 -15 -16 -22.5t-51 -7.5q-38 0 -58 6t-38 24l-150 154l-150 -154
q-18 -18 -38 -24t-58 -6z" />
    <glyph glyph-name="Scedilla" unicode="&#x15e;" horiz-adv-x="1075" 
d="M53 0zM518 -29q-87 0 -152.5 11t-115 27t-84.5 35t-60 34q-34 20 -43.5 33.5t-9.5 25.5q0 13 15.5 42t29.5 48q23 27 41 27q11 0 31 -14q12 -8 24.5 -15.5t24.5 -15.5q34 -21 83.5 -39.5t99.5 -26.5t100 -8q106 0 184 31t109.5 85t31.5 111q0 74 -34.5 118t-106 74
t-151.5 52l-89 25q-82 23 -151 53t-118.5 74.5t-77 105.5t-27.5 146q0 91 31.5 163.5t90.5 123t144 77.5t192 27t177 -15t110 -31t51 -20q42 -18 53 -30.5t11 -20.5q0 -11 -8 -37.5t-21 -48.5q-9 -18 -17.5 -26.5t-19.5 -8.5q-18 0 -35 8q-10 5 -45 19.5t-54.5 22
t-41.5 12.5q-75 16 -158 16q-70 0 -122.5 -16.5t-87.5 -46t-52.5 -69t-17.5 -85.5q0 -45 19 -78t55 -58.5t88 -46t118 -38.5l109 -31q137 -39 220.5 -92.5t117 -130t33.5 -162.5q0 -103 -33.5 -180.5t-97 -130t-155 -79t-208.5 -26.5zM405 -406q-33 0 -43 10t-10 25
q0 13 10 49l55 216q8 29 28.5 37t55.5 8q37 0 57.5 -5.5t26.5 -14.5t6 -15v-22t-8 -27l-92 -215q-12 -29 -27 -37.5t-59 -8.5z" />
    <glyph glyph-name="scedilla" unicode="&#x15f;" horiz-adv-x="786" 
d="M37 0zM395 -20q-62 0 -110 7t-85.5 17.5t-64.5 22.5t-45 22q-31 16 -42 27.5t-11 23.5q0 25 24 66q16 25 27.5 31t24.5 6q17 0 38.5 -11.5t36.5 -17.5q44 -21 99.5 -33t105.5 -12q60 0 102.5 15t60 42.5t17.5 59.5q0 53 -39.5 83.5t-134.5 47.5l-69 12q-53 9 -103 27.5
t-88.5 48.5t-62 73.5t-23.5 104.5q0 94 54.5 158t132.5 88t151 24q65 0 123.5 -10t118.5 -33q35 -12 48 -23.5t13 -25.5q0 -19 -14 -57q-17 -47 -47 -47q-19 0 -39 9t-43 15q-38 11 -83 19t-91 8q-72 0 -114 -29.5t-42 -83.5q0 -46 44 -74t122 -42l90 -17q60 -11 110 -28
t86.5 -47t56.5 -76t20 -113q0 -98 -57.5 -164t-139.5 -90t-158 -24zM291 -406q-33 0 -43 10t-10 25q0 13 10 49l55 216q8 29 28.5 37t55.5 8q37 0 57.5 -5.5t26.5 -14.5t6 -15v-22t-8 -27l-92 -215q-12 -29 -27 -37.5t-59 -8.5z" />
    <glyph glyph-name="Scaron" unicode="&#x160;" horiz-adv-x="1075" 
d="M53 0zM518 -29q-87 0 -152.5 11t-115 27t-84.5 35t-60 34q-34 20 -43.5 33.5t-9.5 25.5q0 13 15.5 42t29.5 48q23 27 41 27q11 0 31 -14q12 -8 24.5 -15.5t24.5 -15.5q34 -21 83.5 -39.5t99.5 -26.5t100 -8q106 0 184 31t109.5 85t31.5 111q0 74 -34.5 118t-106 74
t-151.5 52l-89 25q-82 23 -151 53t-118.5 74.5t-77 105.5t-27.5 146q0 91 31.5 163.5t90.5 123t144 77.5t192 27t177 -15t110 -31t51 -20q42 -18 53 -30.5t11 -20.5q0 -11 -8 -37.5t-21 -48.5q-9 -18 -17.5 -26.5t-19.5 -8.5q-18 0 -35 8q-10 5 -45 19.5t-54.5 22
t-41.5 12.5q-75 16 -158 16q-70 0 -122.5 -16.5t-87.5 -46t-52.5 -69t-17.5 -85.5q0 -45 19 -78t55 -58.5t88 -46t118 -38.5l109 -31q137 -39 220.5 -92.5t117 -130t33.5 -162.5q0 -103 -33.5 -180.5t-97 -130t-155 -79t-208.5 -26.5zM553 1463q-35 0 -54.5 12.5t-43.5 38.5
l-181 199q-34 37 -34 59q0 15 16 23t51 8q38 0 58 -6t38 -25l150 -154l150 154q18 19 38 25t58 6q35 0 51 -8t16 -23q0 -12 -8 -25.5t-26 -33.5l-181 -199q-26 -30 -45.5 -40.5t-52.5 -10.5z" />
    <glyph glyph-name="scaron" unicode="&#x161;" horiz-adv-x="786" 
d="M37 0zM395 -20q-62 0 -110 7t-85.5 17.5t-64.5 22.5t-45 22q-31 16 -42 27.5t-11 23.5q0 25 24 66q16 25 27.5 31t24.5 6q17 0 38.5 -11.5t36.5 -17.5q44 -21 99.5 -33t105.5 -12q60 0 102.5 15t60 42.5t17.5 59.5q0 53 -39.5 83.5t-134.5 47.5l-69 12q-53 9 -103 27.5
t-88.5 48.5t-62 73.5t-23.5 104.5q0 94 54.5 158t132.5 88t151 24q65 0 123.5 -10t118.5 -33q35 -12 48 -23.5t13 -25.5q0 -19 -14 -57q-17 -47 -47 -47q-19 0 -39 9t-43 15q-38 11 -83 19t-91 8q-72 0 -114 -29.5t-42 -83.5q0 -46 44 -74t122 -42l90 -17q60 -11 110 -28
t86.5 -47t56.5 -76t20 -113q0 -98 -57.5 -164t-139.5 -90t-158 -24zM402 1012q-35 0 -54.5 12.5t-43.5 38.5l-181 199q-34 37 -34 59q0 15 16 23t51 8q38 0 58 -6t38 -25l150 -154l150 154q18 19 38 25t58 6q35 0 51 -8t16 -23q0 -12 -8 -25.5t-26 -33.5l-181 -199
q-26 -30 -45.5 -40.5t-52.5 -10.5z" />
    <glyph glyph-name="Tcommaaccent" unicode="&#x162;" horiz-adv-x="1094" 
d="M14 0zM547 -8q-34 0 -54 5t-26 11q-12 9 -12 43v1161h-400q-17 0 -23 3t-9 6q-9 9 -9 32q0 26 4.5 55.5t12.5 43.5q8 12 21 16t36 4h950q17 0 23.5 -2.5t9.5 -5.5q8 -8 8 -33q0 -30 -4.5 -57.5t-11.5 -40.5q-8 -12 -21 -16.5t-36 -4.5h-363v-1161q0 -34 -12 -43
q-6 -6 -26 -11t-58 -5zM449 -406q-33 0 -43 10t-10 25q0 13 10 49l55 216q8 29 28.5 37t55.5 8q37 0 57.5 -5.5t26.5 -14.5t6 -15v-22t-8 -27l-92 -215q-12 -29 -27 -37.5t-59 -8.5z" />
    <glyph glyph-name="tcommaaccent" unicode="&#x163;" horiz-adv-x="649" 
d="M10 0zM420 -20q-62 0 -106.5 15.5t-73.5 41.5q-39 34 -54.5 88.5t-15.5 132.5v492h-115q-26 0 -34.5 4t-9.5 12t-1 25q0 52 19 81q8 13 19 17t34 4h88v213q0 40 14 51q17 14 70 25q30 6 47 6q24 0 31 -4q12 -9 12 -41v-250h225q31 0 38 -7t7 -34q0 -26 -5 -46.5
t-11 -31.5q-15 -24 -55 -24h-199v-510q0 -56 22.5 -85.5t73.5 -29.5q47 0 97 25q12 6 21.5 12t23.5 6q19 0 47 -43q20 -32 20 -49t-17 -31t-36 -25q-26 -14 -68 -27t-108 -13zM296 -406q-33 0 -43 10t-10 25q0 13 10 49l55 216q8 29 28.5 37t55.5 8q37 0 57.5 -5.5
t26.5 -14.5t6 -15v-22t-8 -27l-92 -215q-12 -29 -27 -37.5t-59 -8.5z" />
    <glyph glyph-name="Tcaron" unicode="&#x164;" horiz-adv-x="1094" 
d="M14 0zM547 -8q-34 0 -54 5t-26 11q-12 9 -12 43v1161h-400q-17 0 -23 3t-9 6q-9 9 -9 32q0 26 4.5 55.5t12.5 43.5q8 12 21 16t36 4h950q17 0 23.5 -2.5t9.5 -5.5q8 -8 8 -33q0 -30 -4.5 -57.5t-11.5 -40.5q-8 -12 -21 -16.5t-36 -4.5h-363v-1161q0 -34 -12 -43
q-6 -6 -26 -11t-58 -5zM551 1463q-35 0 -54.5 12.5t-43.5 38.5l-181 199q-34 37 -34 59q0 15 16 23t51 8q38 0 58 -6t38 -25l150 -154l150 154q18 19 38 25t58 6q35 0 51 -8t16 -23q0 -12 -8 -25.5t-26 -33.5l-181 -199q-26 -30 -45.5 -40.5t-52.5 -10.5z" />
    <glyph glyph-name="tcaron" unicode="&#x165;" horiz-adv-x="649" 
d="M10 0zM420 -20q-62 0 -106.5 15.5t-73.5 41.5q-39 34 -54.5 88.5t-15.5 132.5v492h-115q-26 0 -34.5 4t-9.5 12t-1 25q0 52 19 81q8 13 19 17t34 4h88v213q0 40 14 51q17 14 70 25q30 6 47 6q24 0 31 -4q12 -9 12 -41v-250h225q31 0 38 -7t7 -34q0 -26 -5 -46.5
t-11 -31.5q-15 -24 -55 -24h-199v-510q0 -56 22.5 -85.5t73.5 -29.5q47 0 97 25q12 6 21.5 12t23.5 6q19 0 47 -43q20 -32 20 -49t-17 -31t-36 -25q-26 -14 -68 -27t-108 -13zM496 997q-46 0 -60 10.5t-14 24.5q0 13 10 49l60 254q5 27 26 36t78 9q41 0 59.5 -5.5t24.5 -14
t6 -14.5q0 -25 -8 -50l-96 -254q-17 -45 -86 -45z" />
    <glyph glyph-name="Tbar" unicode="&#x166;" horiz-adv-x="1094" 
d="M237 638q-26 0 -35 4q-10 10 -10 41q0 23 4.5 46.5t13 39t19.5 20t34 4.5h192v419h-400q-17 0 -23 3t-9 6q-9 9 -9 32q0 26 4.5 55.5t12.5 43.5q8 12 21 16t36 4h950q17 0 23.5 -2.5t9.5 -5.5q8 -8 8 -33q0 -30 -4.5 -57.5t-11.5 -40.5q-8 -12 -21 -16.5t-36 -4.5h-363
v-419h240q25 0 35 -4q10 -10 10 -41q0 -20 -4.5 -45t-13.5 -41q-13 -24 -53 -24h-214v-587q0 -34 -12 -43q-6 -6 -26 -11t-58 -5q-34 0 -54 5t-26 11q-12 9 -12 43v587h-218z" />
    <glyph glyph-name="tbar" unicode="&#x167;" horiz-adv-x="649" 
d="M84 437q-26 0 -35 4q-10 10 -10 41q0 23 4.5 46.5t13 39t19.5 20t34 4.5h60v158h-115q-26 0 -34.5 4t-9.5 12t-1 25q0 52 19 81q8 13 19 17t34 4h88v213q0 40 14 51q17 14 70 25q30 6 47 6q24 0 31 -4q12 -9 12 -41v-250h225q31 0 38 -7t7 -34q0 -26 -5 -46.5t-11 -31.5
q-15 -24 -55 -24h-199v-158h166q25 0 35 -4q10 -10 10 -41q0 -20 -4.5 -45t-13.5 -41q-13 -24 -53 -24h-140v-197q0 -56 22.5 -85.5t73.5 -29.5q47 0 97 25q12 6 21.5 12t23.5 6q19 0 47 -43q20 -32 20 -49t-17 -31t-36 -25q-26 -14 -68 -27t-108 -13q-62 0 -106.5 15.5
t-73.5 41.5q-39 34 -54.5 88.5t-15.5 132.5v179h-86z" />
    <glyph glyph-name="Utilde" unicode="&#x168;" horiz-adv-x="1307" 
d="M143 0zM653 -29q-139 0 -236 34.5t-158 95.5t-88.5 145t-27.5 184v891q0 33 11 43q6 6 26.5 11t59.5 5q34 0 53.5 -5t25.5 -11q11 -10 11 -43v-913q0 -55 19 -104.5t59 -87.5t100.5 -60.5t144.5 -22.5t145 22.5t101 60.5t59 87.5t19 104.5v913q0 27 5.5 37.5t28 16
t60.5 5.5q50 0 68 -8.5t21 -19.5t3 -31v-891q0 -100 -27.5 -184t-88.5 -145t-158 -95.5t-236 -34.5zM352 1463q-20 0 -30.5 13t-2.5 48q19 84 65 131t122 47q42 0 73.5 -12.5t57.5 -28.5q70 -43 104 -43q24 0 39.5 19.5t28.5 46.5q6 17 19.5 23t33.5 6h43q35 0 35 -19
q0 -42 -14 -83.5t-40.5 -74.5t-63.5 -53t-83 -20q-38 0 -69.5 12.5t-59.5 28.5q-71 43 -107 43q-31 0 -63 -64q-14 -20 -39 -20h-49z" />
    <glyph glyph-name="utilde" unicode="&#x169;" horiz-adv-x="1006" 
d="M115 0zM436 -20q-79 0 -139 25t-100.5 70t-61 106.5t-20.5 135.5v527q0 29 12 41q6 6 24.5 11t53.5 5q31 0 48 -4t23 -10q13 -10 13 -41v-508q0 -104 52 -155.5t138 -51.5q67 0 124.5 41.5t82.5 95.5t25 101v475q0 32 12 41q6 6 24.5 11t53.5 5q31 0 48 -4t23 -10
q13 -10 13 -41v-799q0 -28 -13 -41q-6 -6 -20.5 -10t-46.5 -4t-48 4t-22 10q-12 9 -12 43v80q-30 -48 -81.5 -85t-106 -50.5t-99.5 -13.5zM204 1012q-20 0 -30.5 13t-2.5 48q19 84 65 131t122 47q42 0 73.5 -12.5t57.5 -28.5q70 -43 104 -43q24 0 39.5 19.5t28.5 46.5
q6 17 19.5 23t33.5 6h43q35 0 35 -19q0 -42 -14 -83.5t-40.5 -74.5t-63.5 -53t-83 -20q-38 0 -69.5 12.5t-59.5 28.5q-71 43 -107 43q-31 0 -63 -64q-14 -20 -39 -20h-49z" />
    <glyph glyph-name="Umacron" unicode="&#x16a;" horiz-adv-x="1307" 
d="M143 0zM653 -29q-139 0 -236 34.5t-158 95.5t-88.5 145t-27.5 184v891q0 33 11 43q6 6 26.5 11t59.5 5q34 0 53.5 -5t25.5 -11q11 -10 11 -43v-913q0 -55 19 -104.5t59 -87.5t100.5 -60.5t144.5 -22.5t145 22.5t101 60.5t59 87.5t19 104.5v913q0 27 5.5 37.5t28 16
t60.5 5.5q50 0 68 -8.5t21 -19.5t3 -31v-891q0 -100 -27.5 -184t-88.5 -145t-158 -95.5t-236 -34.5zM461 1498q-26 0 -35 4q-10 10 -10 41q0 23 4.5 46.5t13 39t19.5 20t34 4.5h340q25 0 35 -4q10 -10 10 -41q0 -20 -4.5 -45t-13.5 -41q-13 -24 -53 -24h-340z" />
    <glyph glyph-name="umacron" unicode="&#x16b;" horiz-adv-x="1006" 
d="M115 0zM436 -20q-79 0 -139 25t-100.5 70t-61 106.5t-20.5 135.5v527q0 29 12 41q6 6 24.5 11t53.5 5q31 0 48 -4t23 -10q13 -10 13 -41v-508q0 -104 52 -155.5t138 -51.5q67 0 124.5 41.5t82.5 95.5t25 101v475q0 32 12 41q6 6 24.5 11t53.5 5q31 0 48 -4t23 -10
q13 -10 13 -41v-799q0 -28 -13 -41q-6 -6 -20.5 -10t-46.5 -4t-48 4t-22 10q-12 9 -12 43v80q-30 -48 -81.5 -85t-106 -50.5t-99.5 -13.5zM319 1047q-26 0 -35 4q-10 10 -10 41q0 23 4.5 46.5t13 39t19.5 20t34 4.5h340q25 0 35 -4q10 -10 10 -41q0 -20 -4.5 -45t-13.5 -41
q-13 -24 -53 -24h-340z" />
    <glyph glyph-name="Ubreve" unicode="&#x16c;" horiz-adv-x="1307" 
d="M143 0zM653 -29q-139 0 -236 34.5t-158 95.5t-88.5 145t-27.5 184v891q0 33 11 43q6 6 26.5 11t59.5 5q34 0 53.5 -5t25.5 -11q11 -10 11 -43v-913q0 -55 19 -104.5t59 -87.5t100.5 -60.5t144.5 -22.5t145 22.5t101 60.5t59 87.5t19 104.5v913q0 27 5.5 37.5t28 16
t60.5 5.5q50 0 68 -8.5t21 -19.5t3 -31v-891q0 -100 -27.5 -184t-88.5 -145t-158 -95.5t-236 -34.5zM651 1463q-70 0 -117 19.5t-77.5 52.5t-47.5 76t-26 91q-3 17 8 27t31 10h65q47 0 55 -28q10 -48 34.5 -73.5t74.5 -25.5q51 0 76 26.5t35 76.5q3 11 13.5 17.5t35.5 6.5
h59q29 0 41.5 -7t7.5 -36q-14 -78 -49.5 -132.5t-93 -77.5t-125.5 -23z" />
    <glyph glyph-name="ubreve" unicode="&#x16d;" horiz-adv-x="1006" 
d="M115 0zM436 -20q-79 0 -139 25t-100.5 70t-61 106.5t-20.5 135.5v527q0 29 12 41q6 6 24.5 11t53.5 5q31 0 48 -4t23 -10q13 -10 13 -41v-508q0 -104 52 -155.5t138 -51.5q67 0 124.5 41.5t82.5 95.5t25 101v475q0 32 12 41q6 6 24.5 11t53.5 5q31 0 48 -4t23 -10
q13 -10 13 -41v-799q0 -28 -13 -41q-6 -6 -20.5 -10t-46.5 -4t-48 4t-22 10q-12 9 -12 43v80q-30 -48 -81.5 -85t-106 -50.5t-99.5 -13.5zM503 1012q-70 0 -117 19.5t-77.5 52.5t-47.5 76t-26 91q-3 17 8 27t31 10h65q47 0 55 -28q10 -48 34.5 -73.5t74.5 -25.5
q51 0 76 26.5t35 76.5q3 11 13.5 17.5t35.5 6.5h59q29 0 41.5 -7t7.5 -36q-14 -78 -49.5 -132.5t-93 -77.5t-125.5 -23z" />
    <glyph glyph-name="Uring" unicode="&#x16e;" horiz-adv-x="1307" 
d="M143 0zM653 -29q-139 0 -236 34.5t-158 95.5t-88.5 145t-27.5 184v891q0 33 11 43q6 6 26.5 11t59.5 5q34 0 53.5 -5t25.5 -11q11 -10 11 -43v-913q0 -55 19 -104.5t59 -87.5t100.5 -60.5t144.5 -22.5t145 22.5t101 60.5t59 87.5t19 104.5v913q0 27 5.5 37.5t28 16
t60.5 5.5q50 0 68 -8.5t21 -19.5t3 -31v-891q0 -100 -27.5 -184t-88.5 -145t-158 -95.5t-236 -34.5zM651 1463q-52 0 -99.5 31.5t-66 75t-18.5 81.5q0 55 31.5 102.5t72 67t80.5 19.5q55 0 100.5 -32.5t66.5 -76t21 -80.5q0 -59 -33.5 -106.5t-76 -64.5t-78.5 -17zM651 1557
q27 0 50.5 17t33.5 38t10 39q0 26 -17 49t-38.5 34t-38.5 11q-26 0 -49.5 -17t-32 -38t-8.5 -39q0 -29 17.5 -53.5t36.5 -32.5t36 -8z" />
    <glyph glyph-name="uring" unicode="&#x16f;" horiz-adv-x="1006" 
d="M115 0zM436 -20q-79 0 -139 25t-100.5 70t-61 106.5t-20.5 135.5v527q0 29 12 41q6 6 24.5 11t53.5 5q31 0 48 -4t23 -10q13 -10 13 -41v-508q0 -104 52 -155.5t138 -51.5q67 0 124.5 41.5t82.5 95.5t25 101v475q0 32 12 41q6 6 24.5 11t53.5 5q31 0 48 -4t23 -10
q13 -10 13 -41v-799q0 -28 -13 -41q-6 -6 -20.5 -10t-46.5 -4t-48 4t-22 10q-12 9 -12 43v80q-30 -48 -81.5 -85t-106 -50.5t-99.5 -13.5zM508 1012q-52 0 -99.5 31.5t-66 75t-18.5 81.5q0 55 31.5 102.5t72 67t80.5 19.5q55 0 100.5 -32.5t66.5 -76t21 -80.5
q0 -59 -33.5 -106.5t-76 -64.5t-78.5 -17zM508 1106q27 0 50.5 17t33.5 38t10 39q0 26 -17 49t-38.5 34t-38.5 11q-26 0 -49.5 -17t-32 -38t-8.5 -39q0 -29 17.5 -53.5t36.5 -32.5t36 -8z" />
    <glyph glyph-name="Uhungarumlaut" unicode="&#x170;" horiz-adv-x="1307" 
d="M143 0zM653 -29q-139 0 -236 34.5t-158 95.5t-88.5 145t-27.5 184v891q0 33 11 43q6 6 26.5 11t59.5 5q34 0 53.5 -5t25.5 -11q11 -10 11 -43v-913q0 -55 19 -104.5t59 -87.5t100.5 -60.5t144.5 -22.5t145 22.5t101 60.5t59 87.5t19 104.5v913q0 27 5.5 37.5t28 16
t60.5 5.5q50 0 68 -8.5t21 -19.5t3 -31v-891q0 -100 -27.5 -184t-88.5 -145t-158 -95.5t-236 -34.5zM490 1463q-48 0 -61 7.5t-13 18.5q0 22 16 49l132 216q18 30 41.5 39.5t58.5 9.5q43 0 71.5 -6t28.5 -29q0 -14 -12.5 -35t-40.5 -55l-129 -164q-31 -35 -37 -39
q-18 -12 -55 -12zM805 1463q-45 0 -60.5 7.5t-15.5 18.5q0 20 17 49l131 216q18 30 41.5 39.5t58.5 9.5q44 0 72.5 -6t28.5 -29q0 -14 -13 -35t-41 -55l-129 -164q-31 -35 -37 -39q-18 -12 -53 -12z" />
    <glyph glyph-name="uhungarumlaut" unicode="&#x171;" horiz-adv-x="1006" 
d="M115 0zM436 -20q-79 0 -139 25t-100.5 70t-61 106.5t-20.5 135.5v527q0 29 12 41q6 6 24.5 11t53.5 5q31 0 48 -4t23 -10q13 -10 13 -41v-508q0 -104 52 -155.5t138 -51.5q67 0 124.5 41.5t82.5 95.5t25 101v475q0 32 12 41q6 6 24.5 11t53.5 5q31 0 48 -4t23 -10
q13 -10 13 -41v-799q0 -28 -13 -41q-6 -6 -20.5 -10t-46.5 -4t-48 4t-22 10q-12 9 -12 43v80q-30 -48 -81.5 -85t-106 -50.5t-99.5 -13.5zM328 1012q-48 0 -61 7.5t-13 18.5q0 22 16 49l132 216q18 30 41.5 39.5t58.5 9.5q43 0 71.5 -6t28.5 -29q0 -14 -12.5 -35t-40.5 -55
l-129 -164q-31 -35 -37 -39q-18 -12 -55 -12zM643 1012q-45 0 -60.5 7.5t-15.5 18.5q0 20 17 49l131 216q18 30 41.5 39.5t58.5 9.5q44 0 72.5 -6t28.5 -29q0 -14 -13 -35t-41 -55l-129 -164q-31 -35 -37 -39q-18 -12 -53 -12z" />
    <glyph glyph-name="Uogonek" unicode="&#x172;" horiz-adv-x="1307" 
d="M707 -406q-46 0 -87 13.5t-71.5 40t-48 65t-17.5 88.5q0 56 22 99.5t62 74.5q-115 11 -195.5 49t-131.5 98t-74 138t-23 170v891q0 33 11 43q6 6 26.5 11t59.5 5q34 0 53.5 -5t25.5 -11q11 -10 11 -43v-913q0 -55 19 -104.5t59 -87.5t100.5 -60.5t144.5 -22.5t145 22.5
t101 60.5t59 87.5t19 104.5v913q0 27 5.5 37.5t28 16t60.5 5.5q50 0 68 -8.5t21 -19.5t3 -31v-891q0 -146 -56.5 -249t-157.5 -150t-218 -56q-38 -29 -67 -66.5t-29 -82.5q0 -32 13 -55.5t34.5 -35t42.5 -11.5q12 0 51 12t51 12q26 0 39 -19t13 -42q0 -32 -34 -55t-75 -30.5
t-63 -7.5z" />
    <glyph glyph-name="uogonek" unicode="&#x173;" horiz-adv-x="1006" 
d="M770 -406q-46 0 -86.5 13.5t-71 40t-48 65t-17.5 88.5q0 70 33.5 121t95.5 80q2 2 19.5 6.5t31.5 9.5q-4 6 -4 31v80q-30 -48 -81.5 -85t-106 -50.5t-99.5 -13.5q-79 0 -139 25t-100.5 70t-61 106.5t-20.5 135.5v527q0 29 12 41q6 6 24.5 11t53.5 5q31 0 48 -4t23 -10
q13 -10 13 -41v-508q0 -104 52 -155.5t138 -51.5q67 0 124.5 41.5t82.5 95.5t25 101v475q0 32 12 41q6 6 24.5 11t53.5 5q31 0 48 -4t23 -10q13 -10 13 -41v-799v-16q0 -6 -2 -11q-2 -7 -11 -14q-11 -10 -49 -14q-41 -23 -72 -54t-42 -58.5t-11 -53.5q0 -32 13 -55.5
t34.5 -35t42.5 -11.5q12 0 51 12t52 12q26 0 38.5 -19t12.5 -42q0 -32 -34 -55t-75 -30.5t-63 -7.5z" />
    <glyph glyph-name="Wcircumflex" unicode="&#x174;" horiz-adv-x="1591" 
d="M10 0zM481 -14q-53 0 -73.5 10t-24.5 29l-369 1296q-4 14 -4 25q0 10 8 18q7 6 28.5 11t59.5 5q35 0 55.5 -5t26.5 -11q12 -11 21 -43l276 -1038l228 845l-54 193q-4 14 -4 25t9 18q6 6 27.5 11t60.5 5q34 0 54.5 -5t27.5 -11q11 -12 20 -43l262 -1038l275 1038
q6 25 14 36.5t28.5 17t55.5 5.5q38 0 61 -5t29 -11q6 -4 6 -18q1 -7 -4 -25l-369 -1296q-5 -19 -24 -29t-72 -10q-34 0 -57 5t-29 15t-8 19l-227 817l-217 -817q-5 -19 -25 -29t-72 -10zM549 1463q-35 0 -51 7.5t-16 22.5q0 22 34 60l181 198q24 28 43.5 40t54.5 12
t54.5 -13t43.5 -39l181 -198q34 -38 34 -60q0 -15 -16 -22.5t-51 -7.5q-38 0 -58 6t-38 24l-150 154l-150 -154q-18 -18 -38 -24t-58 -6z" />
    <glyph glyph-name="wcircumflex" unicode="&#x175;" horiz-adv-x="1305" 
d="M10 0zM373 -10q-35 0 -58.5 7t-31.5 30l-263 790q-10 28 -10 45q0 13 9 21t29 13t46 5q45 0 65.5 -7t28.5 -30l199 -657l195 469l-50 141q-10 28 -10 45q0 13 6 20.5t27 13t47 5.5q45 0 65.5 -7t28.5 -30l203 -633l221 625q11 27 29.5 36t69.5 9q40 0 57.5 -9t17.5 -24
q0 -12 -14 -51l-295 -790q-9 -23 -32 -30t-58 -7t-58.5 7t-31.5 30l-160 460l-182 -460q-9 -23 -32 -30t-58 -7zM406 1012q-35 0 -51 7.5t-16 22.5q0 22 34 60l181 198q24 28 43.5 40t54.5 12t54.5 -13t43.5 -39l181 -198q34 -38 34 -60q0 -15 -16 -22.5t-51 -7.5
q-38 0 -58 6t-38 24l-150 154l-150 -154q-18 -18 -38 -24t-58 -6z" />
    <glyph glyph-name="Ycircumflex" unicode="&#x176;" horiz-adv-x="1096" 
d="M10 0zM541 -8q-49 0 -67.5 8t-20.5 19.5t-2 31.5v537l-424 719q-17 27 -17 39q0 6 4 12.5t11 9.5q20 12 75 12q45 0 65.5 -7.5t33.5 -29.5l352 -591l354 591q10 19 29 28t65 9q39 0 54 -4.5t20 -7.5q6 -3 9 -9.5t3 -12.5q0 -17 -14 -39l-434 -719v-537q0 -33 -10 -43
q-7 -6 -27.5 -11t-58.5 -5zM302 1463q-35 0 -51 7.5t-16 22.5q0 22 34 60l181 198q24 28 43.5 40t54.5 12t54.5 -13t43.5 -39l181 -198q34 -38 34 -60q0 -15 -16 -22.5t-51 -7.5q-38 0 -58 6t-38 24l-150 154l-150 -154q-18 -18 -38 -24t-58 -6z" />
    <glyph glyph-name="ycircumflex" unicode="&#x177;" horiz-adv-x="911" 
d="M14 0zM266 -406q-43 0 -61.5 10.5t-18.5 24.5q0 13 17 49l180 406l-354 733q-15 31 -15 45q0 11 9.5 19.5t32 14t50.5 5.5q42 0 63.5 -7.5t31.5 -29.5l272 -577l252 569q11 27 32 36t68 9q49 0 64.5 -10t15.5 -23q0 -17 -16 -51l-522 -1177q-12 -27 -32.5 -36.5
t-68.5 -9.5zM211 1012q-35 0 -51 7.5t-16 22.5q0 22 34 60l181 198q24 28 43.5 40t54.5 12t54.5 -13t43.5 -39l181 -198q34 -38 34 -60q0 -15 -16 -22.5t-51 -7.5q-38 0 -58 6t-38 24l-150 154l-150 -154q-18 -18 -38 -24t-58 -6z" />
    <glyph glyph-name="Ydieresis" unicode="&#x178;" horiz-adv-x="1096" 
d="M10 0zM541 -8q-49 0 -67.5 8t-20.5 19.5t-2 31.5v537l-424 719q-17 27 -17 39q0 6 4 12.5t11 9.5q20 12 75 12q45 0 65.5 -7.5t33.5 -29.5l352 -591l354 591q10 19 29 28t65 9q39 0 54 -4.5t20 -7.5q6 -3 9 -9.5t3 -12.5q0 -17 -14 -39l-434 -719v-537q0 -33 -10 -43
q-7 -6 -27.5 -11t-58.5 -5zM401 1463q-29 0 -57 18t-37.5 42t-9.5 46q0 47 29.5 78t74.5 31q31 0 57 -17t38 -43t12 -49q0 -45 -30 -75.5t-77 -30.5zM680 1463q-29 0 -57 18t-37.5 42t-9.5 46q0 47 29.5 78t74.5 31q30 0 56.5 -17.5t38.5 -43t12 -48.5q0 -33 -17 -59
t-42 -36.5t-48 -10.5z" />
    <glyph glyph-name="Zacute" unicode="&#x179;" horiz-adv-x="967" 
d="M14 0zM76 0q-35 0 -47 12q-7 6 -11 20.5t-4 45.5t4.5 47.5t14.5 30.5l684 1056h-651q-17 0 -23.5 3t-9.5 6q-8 8 -8 32q0 26 4 55.5t12 43.5q8 12 21 16t36 4h776q34 0 48 -12q6 -6 10 -20.5t4 -45.5t-4.5 -47t-13.5 -30l-685 -1057h682q17 0 23.5 -2.5t9.5 -5.5
q8 -8 8 -33q0 -26 -4 -55.5t-12 -43.5q-8 -12 -21 -16t-36 -4h-807zM450 1463q-46 0 -61 7.5t-15 18.5q0 20 17 49l133 216q19 30 43 39.5t59 9.5q45 0 74 -6t29 -29q0 -14 -13 -35t-41 -55l-133 -164q-8 -9 -16.5 -20t-19.5 -19q-20 -12 -56 -12z" />
    <glyph glyph-name="zacute" unicode="&#x17a;" horiz-adv-x="776" 
d="M20 0zM80 0q-17 0 -28 2t-17 8t-10.5 18.5t-4.5 43.5q0 40 31 82l457 596h-422q-26 0 -34.5 4t-9.5 12t-1 25q0 51 18 81q8 13 19.5 17t34.5 4h563q35 0 45 -10q14 -17 14 -62q0 -31 -4.5 -44t-13.5 -25l-467 -609h461q31 0 38 -7t7 -34q0 -26 -5 -46t-12 -31
q-15 -25 -55 -25h-604zM367 1012q-46 0 -61 7.5t-15 18.5q0 20 17 49l133 216q19 30 43 39.5t59 9.5q45 0 74 -6t29 -29q0 -14 -13 -35t-41 -55l-133 -164q-8 -9 -16.5 -20t-19.5 -19q-20 -12 -56 -12z" />
    <glyph glyph-name="Zdotaccent" unicode="&#x17b;" horiz-adv-x="967" 
d="M14 0zM76 0q-35 0 -47 12q-7 6 -11 20.5t-4 45.5t4.5 47.5t14.5 30.5l684 1056h-651q-17 0 -23.5 3t-9.5 6q-8 8 -8 32q0 26 4 55.5t12 43.5q8 12 21 16t36 4h776q34 0 48 -12q6 -6 10 -20.5t4 -45.5t-4.5 -47t-13.5 -30l-685 -1057h682q17 0 23.5 -2.5t9.5 -5.5
q8 -8 8 -33q0 -26 -4 -55.5t-12 -43.5q-8 -12 -21 -16t-36 -4h-807zM493 1504q-28 0 -55.5 17.5t-38.5 42.5t-11 46q0 31 16.5 57t41 38t47.5 12q28 0 55 -17.5t39 -42.5t12 -47q0 -32 -19.5 -59.5t-43 -37t-43.5 -9.5z" />
    <glyph glyph-name="zdotaccent" unicode="&#x17c;" horiz-adv-x="776" 
d="M20 0zM80 0q-17 0 -28 2t-17 8t-10.5 18.5t-4.5 43.5q0 40 31 82l457 596h-422q-26 0 -34.5 4t-9.5 12t-1 25q0 51 18 81q8 13 19.5 17t34.5 4h563q35 0 45 -10q14 -17 14 -62q0 -31 -4.5 -44t-13.5 -25l-467 -609h461q31 0 38 -7t7 -34q0 -26 -5 -46t-12 -31
q-15 -25 -55 -25h-604zM415 1053q-28 0 -55.5 17.5t-38.5 42.5t-11 46q0 31 16.5 57t41 38t47.5 12q28 0 55 -17.5t39 -42.5t12 -47q0 -32 -19.5 -59.5t-43 -37t-43.5 -9.5z" />
    <glyph glyph-name="Zcaron" unicode="&#x17d;" horiz-adv-x="967" 
d="M14 0zM76 0q-35 0 -47 12q-7 6 -11 20.5t-4 45.5t4.5 47.5t14.5 30.5l684 1056h-651q-17 0 -23.5 3t-9.5 6q-8 8 -8 32q0 26 4 55.5t12 43.5q8 12 21 16t36 4h776q34 0 48 -12q6 -6 10 -20.5t4 -45.5t-4.5 -47t-13.5 -30l-685 -1057h682q17 0 23.5 -2.5t9.5 -5.5
q8 -8 8 -33q0 -26 -4 -55.5t-12 -43.5q-8 -12 -21 -16t-36 -4h-807zM493 1463q-35 0 -54.5 12.5t-43.5 38.5l-181 199q-34 37 -34 59q0 15 16 23t51 8q38 0 58 -6t38 -25l150 -154l150 154q18 19 38 25t58 6q35 0 51 -8t16 -23q0 -12 -8 -25.5t-26 -33.5l-181 -199
q-26 -30 -45.5 -40.5t-52.5 -10.5z" />
    <glyph glyph-name="zcaron" unicode="&#x17e;" horiz-adv-x="776" 
d="M20 0zM80 0q-17 0 -28 2t-17 8t-10.5 18.5t-4.5 43.5q0 40 31 82l457 596h-422q-26 0 -34.5 4t-9.5 12t-1 25q0 51 18 81q8 13 19.5 17t34.5 4h563q35 0 45 -10q14 -17 14 -62q0 -31 -4.5 -44t-13.5 -25l-467 -609h461q31 0 38 -7t7 -34q0 -26 -5 -46t-12 -31
q-15 -25 -55 -25h-604zM392 1012q-35 0 -54.5 12.5t-43.5 38.5l-181 199q-34 37 -34 59q0 15 16 23t51 8q38 0 58 -6t38 -25l150 -154l150 154q18 19 38 25t58 6q35 0 51 -8t16 -23q0 -12 -8 -25.5t-26 -33.5l-181 -199q-26 -30 -45.5 -40.5t-52.5 -10.5z" />
    <glyph glyph-name="longs" unicode="&#x17f;" horiz-adv-x="623" 
d="M254 -8q-31 0 -48.5 4t-23.5 10q-12 9 -12 41v993q0 114 43 194.5t117.5 113t156.5 32.5q57 0 97.5 -7.5t66.5 -16.5q27 -10 43 -18.5t24 -15.5t10.5 -13.5t2.5 -12.5q0 -20 -14 -53q-24 -51 -47 -51q-15 0 -62 20q-23 10 -48 15.5t-56 5.5q-69 0 -107 -33.5t-45.5 -82.5
t-7.5 -91v-977q0 -29 -12 -41q-6 -6 -24.5 -11t-53.5 -5z" />
    <glyph glyph-name="florin" unicode="&#x192;" horiz-adv-x="973" 
d="M229 -201q-31 0 -46.5 4t-20.5 11q-8 6 -7.5 15t3.5 26l190 895h-98q-26 0 -34.5 4t-9.5 12t-1 25q0 51 18 81q8 13 19 17t34 4h103l39 178q21 98 79 172.5t136.5 105.5t161.5 31q57 0 92.5 -7.5t60.5 -16.5q30 -13 46 -24t19.5 -20.5t2.5 -15.5q-7 -25 -25 -51
q-33 -51 -57 -51q-15 0 -57 20q-47 21 -95 21q-70 0 -113 -34.5t-59.5 -82.5t-25.5 -90l-29 -135h209q31 0 38 -7t7 -34q0 -26 -5 -46.5t-11 -31.5q-16 -24 -56 -24h-213l-192 -893q-5 -19 -8 -26t-13 -15q-8 -7 -27.5 -12t-54.5 -5z" />
    <glyph glyph-name="Scommaaccent" unicode="&#x218;" horiz-adv-x="1075" 
d="M53 0zM518 -29q-87 0 -152.5 11t-115 27t-84.5 35t-60 34q-34 20 -43.5 33.5t-9.5 25.5q0 13 15.5 42t29.5 48q23 27 41 27q11 0 31 -14q12 -8 24.5 -15.5t24.5 -15.5q34 -21 83.5 -39.5t99.5 -26.5t100 -8q106 0 184 31t109.5 85t31.5 111q0 74 -34.5 118t-106 74
t-151.5 52l-89 25q-82 23 -151 53t-118.5 74.5t-77 105.5t-27.5 146q0 91 31.5 163.5t90.5 123t144 77.5t192 27t177 -15t110 -31t51 -20q42 -18 53 -30.5t11 -20.5q0 -11 -8 -37.5t-21 -48.5q-9 -18 -17.5 -26.5t-19.5 -8.5q-18 0 -35 8q-10 5 -45 19.5t-54.5 22
t-41.5 12.5q-75 16 -158 16q-70 0 -122.5 -16.5t-87.5 -46t-52.5 -69t-17.5 -85.5q0 -45 19 -78t55 -58.5t88 -46t118 -38.5l109 -31q137 -39 220.5 -92.5t117 -130t33.5 -162.5q0 -103 -33.5 -180.5t-97 -130t-155 -79t-208.5 -26.5zM451 -406q-33 0 -43 10t-10 25
q0 13 10 49l55 216q8 29 28.5 37t55.5 8q37 0 57.5 -5.5t26.5 -14.5t6 -15v-22t-8 -27l-92 -215q-12 -29 -27 -37.5t-59 -8.5z" />
    <glyph glyph-name="scommaaccent" unicode="&#x219;" horiz-adv-x="786" 
d="M37 0zM395 -20q-62 0 -110 7t-85.5 17.5t-64.5 22.5t-45 22q-31 16 -42 27.5t-11 23.5q0 25 24 66q16 25 27.5 31t24.5 6q17 0 38.5 -11.5t36.5 -17.5q44 -21 99.5 -33t105.5 -12q60 0 102.5 15t60 42.5t17.5 59.5q0 53 -39.5 83.5t-134.5 47.5l-69 12q-53 9 -103 27.5
t-88.5 48.5t-62 73.5t-23.5 104.5q0 94 54.5 158t132.5 88t151 24q65 0 123.5 -10t118.5 -33q35 -12 48 -23.5t13 -25.5q0 -19 -14 -57q-17 -47 -47 -47q-19 0 -39 9t-43 15q-38 11 -83 19t-91 8q-72 0 -114 -29.5t-42 -83.5q0 -46 44 -74t122 -42l90 -17q60 -11 110 -28
t86.5 -47t56.5 -76t20 -113q0 -98 -57.5 -164t-139.5 -90t-158 -24zM309 -406q-33 0 -43 10t-10 25q0 13 10 49l55 216q8 29 28.5 37t55.5 8q37 0 57.5 -5.5t26.5 -14.5t6 -15v-22t-8 -27l-92 -215q-12 -29 -27 -37.5t-59 -8.5z" />
    <glyph glyph-name="uni021A" unicode="&#x21a;" horiz-adv-x="1094" 
d="M14 0zM547 -8q-34 0 -54 5t-26 11q-12 9 -12 43v1161h-400q-17 0 -23 3t-9 6q-9 9 -9 32q0 26 4.5 55.5t12.5 43.5q8 12 21 16t36 4h950q17 0 23.5 -2.5t9.5 -5.5q8 -8 8 -33q0 -30 -4.5 -57.5t-11.5 -40.5q-8 -12 -21 -16.5t-36 -4.5h-363v-1161q0 -34 -12 -43
q-6 -6 -26 -11t-58 -5zM461 -406q-33 0 -43 10t-10 25q0 13 10 49l55 216q8 29 28.5 37t55.5 8q37 0 57.5 -5.5t26.5 -14.5t6 -15v-22t-8 -27l-92 -215q-12 -29 -27 -37.5t-59 -8.5z" />
    <glyph glyph-name="uni021B" unicode="&#x21b;" horiz-adv-x="649" 
d="M10 0zM420 -20q-62 0 -106.5 15.5t-73.5 41.5q-39 34 -54.5 88.5t-15.5 132.5v492h-115q-26 0 -34.5 4t-9.5 12t-1 25q0 52 19 81q8 13 19 17t34 4h88v213q0 40 14 51q17 14 70 25q30 6 47 6q24 0 31 -4q12 -9 12 -41v-250h225q31 0 38 -7t7 -34q0 -26 -5 -46.5
t-11 -31.5q-15 -24 -55 -24h-199v-510q0 -56 22.5 -85.5t73.5 -29.5q47 0 97 25q12 6 21.5 12t23.5 6q19 0 47 -43q20 -32 20 -49t-17 -31t-36 -25q-26 -14 -68 -27t-108 -13zM240 -406q-33 0 -43 10t-10 25q0 13 10 49l55 216q8 29 28.5 37t55.5 8q37 0 57.5 -5.5
t26.5 -14.5t6 -15v-22t-8 -27l-92 -215q-12 -29 -27 -37.5t-59 -8.5z" />
    <glyph glyph-name="dotlessj" unicode="&#x237;" horiz-adv-x="408" 
d="M-6 -406q-60 0 -103 10.5t-67 24.5q-14 9 -19 17t-5 16q0 12 9 36t21 44t35 20q14 0 24.5 -4.5t24.5 -7.5q40 -10 63 -10q26 0 53.5 8.5t49.5 36.5q15 22 25 59.5t10 108.5v870q0 20 3 31.5t11 19.5q11 13 70 25q30 6 47 6q24 0 30 -6q13 -10 13 -39v-889
q0 -87 -9.5 -138t-33.5 -101q-31 -62 -95 -100t-157 -38z" />
    <glyph glyph-name="apostrophe" unicode="&#x2bc;" horiz-adv-x="395" 
d="M115 948q-46 0 -60 10.5t-14 24.5q0 13 10 49l72 303q7 28 27 36.5t77 8.5q41 0 59.5 -5.5t24.5 -14t6 -14.5q0 -25 -8 -50l-108 -303q-18 -45 -86 -45z" />
    <glyph glyph-name="circumflex" unicode="&#x2c6;" horiz-adv-x="1024" 
d="M266 1012q-35 0 -51 7.5t-16 22.5q0 22 34 60l181 198q24 28 43.5 40t54.5 12t54.5 -13t43.5 -39l181 -198q34 -38 34 -60q0 -15 -16 -22.5t-51 -7.5q-38 0 -58 6t-38 24l-150 154l-150 -154q-18 -18 -38 -24t-58 -6z" />
    <glyph glyph-name="caron" unicode="&#x2c7;" horiz-adv-x="1024" 
d="M512 1012q-35 0 -54.5 12.5t-43.5 38.5l-181 199q-34 37 -34 59q0 15 16 23t51 8q38 0 58 -6t38 -25l150 -154l150 154q18 19 38 25t58 6q35 0 51 -8t16 -23q0 -12 -8 -25.5t-26 -33.5l-181 -199q-26 -30 -45.5 -40.5t-52.5 -10.5z" />
    <glyph glyph-name="uni02C9" unicode="&#x2c9;" horiz-adv-x="1024" 
d="M332 1047q-26 0 -35 4q-10 10 -10 41q0 23 4.5 46.5t13 39t19.5 20t34 4.5h340q25 0 35 -4q10 -10 10 -41q0 -20 -4.5 -45t-13.5 -41q-13 -24 -53 -24h-340z" />
    <glyph glyph-name="breve" unicode="&#x2d8;" horiz-adv-x="1024" 
d="M510 1012q-70 0 -117 19.5t-77.5 52.5t-47.5 76t-26 91q-3 17 8 27t31 10h65q47 0 55 -28q10 -48 34.5 -73.5t74.5 -25.5q51 0 76 26.5t35 76.5q3 11 13.5 17.5t35.5 6.5h59q29 0 41.5 -7t7.5 -36q-14 -78 -49.5 -132.5t-93 -77.5t-125.5 -23z" />
    <glyph glyph-name="dotaccent" unicode="&#x2d9;" horiz-adv-x="1024" 
d="M498 1053q-28 0 -55.5 17.5t-38.5 42.5t-11 46q0 31 16.5 57t41 38t47.5 12q28 0 55 -17.5t39 -42.5t12 -47q0 -32 -19.5 -59.5t-43 -37t-43.5 -9.5z" />
    <glyph glyph-name="ring" unicode="&#x2da;" horiz-adv-x="1024" 
d="M471 1012q-52 0 -99.5 31.5t-66 75t-18.5 81.5q0 55 31.5 102.5t72 67t80.5 19.5q55 0 100.5 -32.5t66.5 -76t21 -80.5q0 -59 -33.5 -106.5t-76 -64.5t-78.5 -17zM471 1106q27 0 50.5 17t33.5 38t10 39q0 26 -17 49t-38.5 34t-38.5 11q-26 0 -49.5 -17t-32 -38t-8.5 -39
q0 -29 17.5 -53.5t36.5 -32.5t36 -8z" />
    <glyph glyph-name="ogonek" unicode="&#x2db;" horiz-adv-x="1024" 
d="M559 -406q-43 0 -83.5 13.5t-71.5 39.5t-49.5 63t-18.5 85q0 47 15 85t39.5 66.5t55 47t62.5 26.5h166q-87 -30 -138 -83t-51 -125q0 -45 27 -70t61 -25q24 0 58 13q12 5 19.5 9.5t21.5 4.5q11 0 20.5 -8.5t20.5 -24.5q18 -27 18 -45q0 -15 -22 -33q-20 -15 -61 -27
t-89 -12z" />
    <glyph glyph-name="tilde" unicode="&#x2dc;" horiz-adv-x="1024" 
d="M211 1012q-20 0 -30.5 13t-2.5 48q19 84 65 131t122 47q42 0 73.5 -12.5t57.5 -28.5q70 -43 104 -43q24 0 39.5 19.5t28.5 46.5q6 17 19.5 23t33.5 6h43q35 0 35 -19q0 -42 -14 -83.5t-40.5 -74.5t-63.5 -53t-83 -20q-38 0 -69.5 12.5t-59.5 28.5q-71 43 -107 43
q-31 0 -63 -64q-14 -20 -39 -20h-49z" />
    <glyph glyph-name="hungarumlaut" unicode="&#x2dd;" horiz-adv-x="1024" 
d="M248 1012q-48 0 -61 7.5t-13 18.5q0 22 16 49l132 216q18 30 41.5 39.5t58.5 9.5q43 0 71.5 -6t28.5 -29q0 -14 -12.5 -35t-40.5 -55l-129 -164q-31 -35 -37 -39q-18 -12 -55 -12zM563 1012q-45 0 -60.5 7.5t-15.5 18.5q0 20 17 49l131 216q18 30 41.5 39.5t58.5 9.5
q44 0 72.5 -6t28.5 -29q0 -14 -13 -35t-41 -55l-129 -164q-31 -35 -37 -39q-18 -12 -53 -12z" />
    <glyph glyph-name="uni0394" unicode="&#x394;" horiz-adv-x="1102" 
d="M72 0q-35 0 -47 12q-7 6 -11 20.5t-4 45.5q0 25 5 44.5t12 35.5l422 1181q8 24 28.5 34.5t71.5 10.5q47 0 70 -10t32 -35l424 -1179q17 -46 17 -82q0 -31 -4.5 -45.5t-10.5 -20.5q-12 -12 -47 -12h-958zM217 160h664l-334 1003z" />
    <glyph glyph-name="Omega" unicode="&#x3a9;" horiz-adv-x="1358" 
d="M160 0q-21 0 -31 10q-12 12 -12 47q0 44 10 68q4 13 18 25q10 6 29 6h131q-106 80 -161.5 220.5t-55.5 332.5q0 161 43 289.5t121 218t186.5 137t239.5 47.5t240 -47.5t187 -137t121.5 -218t43.5 -289.5q0 -192 -56 -332.5t-161 -220.5h131q22 0 33 -11q12 -12 12 -47
q0 -18 -2.5 -36.5t-7.5 -30.5q-7 -19 -19 -25q-9 -6 -29 -6h-342q-35 0 -51 12q-12 12 -12 58q0 44 49 71q35 20 63.5 41t53.5 47q44 45 75.5 115.5t46.5 163.5t15 188q0 126 -26 226.5t-76.5 170t-123 107t-165.5 37.5q-92 0 -164.5 -37.5t-122.5 -107t-76 -170t-26 -226.5
q0 -95 11.5 -170t30.5 -132t44 -97.5t51 -67.5q25 -26 53.5 -47t63.5 -41q27 -15 35 -22t11 -20t3 -29q0 -26 -3 -39t-9 -19q-16 -12 -52 -12h-368z" />
    <glyph glyph-name="uni03BC" unicode="&#x3bc;" horiz-adv-x="1006" 
d="M199 -393q-31 0 -48.5 4t-23.5 10q-12 9 -12 41v1182q0 29 12 41q6 6 24.5 11t53.5 5q31 0 48 -4t23 -10q13 -10 13 -41v-508q0 -105 53.5 -154t149.5 -49q43 0 83 19t70 51t48 74.5t18 89.5v475q0 32 12 41q6 6 24.5 11t53.5 5q31 0 48 -4t23 -10q13 -10 13 -41v-799
q0 -28 -13 -41q-6 -6 -20.5 -10t-46.5 -4t-48 4t-22 10q-12 9 -12 43v72q-24 -46 -64.5 -79t-84.5 -47.5t-85 -14.5q-65 0 -115 23t-65.5 44t-19.5 33v-416q0 -31 -13 -41q-6 -6 -24 -11t-53 -5z" />
    <glyph glyph-name="pi" unicode="&#x3c0;" horiz-adv-x="1024" 
d="M764 -14q-22 0 -35 22q-15 25 -25 68t-10 108v566h-366v-703q0 -29 -15 -41q-8 -6 -24.5 -10t-48.5 -4q-34 0 -49.5 4t-24.5 10q-12 12 -12 41v703h-76q-26 0 -34.5 4t-9.5 12t-1 25q0 51 18 81q8 13 19 17t34 4h842q31 0 38 -7t7 -34q0 -26 -5 -46.5t-11 -31.5
q-15 -24 -55 -24h-52v-574q0 -34 7 -59.5t12 -36.5q12 -32 12 -37q0 -11 -10.5 -20.5t-50.5 -23t-74 -13.5z" />
    <glyph glyph-name="uni0400" unicode="&#x400;" horiz-adv-x="1026" 
d="M154 0zM244 0q-41 0 -56.5 5t-21.5 11q-12 14 -12 43v1254q0 31 14 45t76 14h706q17 0 23.5 -2.5t9.5 -5.5q8 -8 8 -33q0 -30 -4.5 -57.5t-11.5 -40.5q-8 -12 -21 -16.5t-36 -4.5h-578v-387h518q17 0 23.5 -2.5t9.5 -5.5q8 -8 8 -33q0 -29 -4.5 -57.5t-12 -40.5t-21 -16
t-36.5 -4h-485v-506h621q24 0 32 -8t8 -33q0 -26 -4 -55.5t-12 -43.5q-8 -12 -21 -16t-36 -4h-684zM636 1463q-20 0 -33 3t-22 9q-7 4 -37 39l-133 164q-28 34 -41 55t-13 35q0 23 29 29t74 6q35 0 59.5 -9.5t42.5 -39.5l133 -216q17 -26 17 -49q0 -11 -14 -18.5t-62 -7.5z
" />
    <glyph glyph-name="afii10023" unicode="&#x401;" horiz-adv-x="1026" 
d="M154 0zM244 0q-41 0 -56.5 5t-21.5 11q-12 14 -12 43v1254q0 31 14 45t76 14h706q17 0 23.5 -2.5t9.5 -5.5q8 -8 8 -33q0 -30 -4.5 -57.5t-11.5 -40.5q-8 -12 -21 -16.5t-36 -4.5h-578v-387h518q17 0 23.5 -2.5t9.5 -5.5q8 -8 8 -33q0 -29 -4.5 -57.5t-12 -40.5t-21 -16
t-36.5 -4h-485v-506h621q24 0 32 -8t8 -33q0 -26 -4 -55.5t-12 -43.5q-8 -12 -21 -16t-36 -4h-684zM449 1463q-29 0 -57 18t-37.5 42t-9.5 46q0 47 29.5 78t74.5 31q31 0 57 -17t38 -43t12 -49q0 -45 -30 -75.5t-77 -30.5zM728 1463q-29 0 -57 18t-37.5 42t-9.5 46
q0 47 29.5 78t74.5 31q30 0 56.5 -17.5t38.5 -43t12 -48.5q0 -33 -17 -59t-42 -36.5t-48 -10.5z" />
    <glyph glyph-name="afii10051" unicode="&#x402;" horiz-adv-x="1294" 
d="M827 -16q-15 0 -34 1t-39 4t-40 8t-36 13t-26.5 17.5t-10.5 23.5q0 13 3 31t10 34.5t18.5 28t27.5 11.5q20 0 46 -9.5t67 -9.5q57 0 102 20.5t76 57.5t47.5 89.5t16.5 117.5q0 140 -69 215.5t-210 75.5q-53 0 -98.5 -11.5t-82 -27.5t-63 -33t-40.5 -29v-565q0 -15 -2 -25
t-11.5 -17t-28.5 -10t-53 -3q-32 0 -50.5 3t-27.5 9t-11.5 16t-2.5 25v1167h-258q-31 0 -37 11t-6 32q0 22 2 43.5t9 37.5t20.5 26t36.5 10h813q28 0 36.5 -9t8.5 -34q0 -56 -15 -86.5t-55 -30.5h-368v-430q17 11 46 26t68 29t86.5 23.5t100.5 9.5q85 0 151.5 -18.5
t116.5 -51t84.5 -76t55.5 -93.5t30.5 -104.5t9.5 -108.5q0 -86 -28.5 -164.5t-82 -138.5t-130 -95.5t-173.5 -35.5z" />
    <glyph glyph-name="afii10052" unicode="&#x403;" horiz-adv-x="993" 
d="M158 0zM344 1208v-1161q0 -15 -2 -25t-11 -17t-28 -10t-53 -3q-32 0 -50.5 3t-27.5 9t-11.5 16t-2.5 25v1262q0 15 2 27.5t9.5 20.5t23 12.5t43.5 4.5h704q31 0 37 -11.5t6 -33.5q0 -51 -12 -82q-8 -18 -21.5 -27.5t-36.5 -9.5h-569zM543 1463q-46 0 -61 7.5t-15 18.5
q0 20 17 49l133 216q19 30 43 39.5t59 9.5q45 0 74 -6t29 -29q0 -14 -13 -35t-41 -55l-133 -164q-8 -9 -16.5 -20t-19.5 -19q-20 -12 -56 -12z" />
    <glyph glyph-name="afii10053" unicode="&#x404;" horiz-adv-x="1120" 
d="M1067 166q11 -19 14.5 -36t3.5 -28q0 -14 -10 -23.5t-33 -25.5q-23 -14 -56.5 -28.5t-78 -26.5t-100 -19.5t-121.5 -7.5q-125 0 -233 43.5t-188.5 132t-126.5 222t-46 313.5t46.5 315t127 225t189 134.5t233.5 44.5q58 0 106.5 -6t87.5 -15.5t70 -21t54 -23.5q7 -3 19 -9
t23.5 -14t20 -17.5t8.5 -20.5q0 -14 -6.5 -33.5t-17.5 -36.5q-13 -20 -26 -32.5t-26 -12.5q-15 0 -28.5 6.5t-30.5 14.5q-15 7 -37 16t-52.5 17t-70 14t-90.5 6q-84 0 -152.5 -27t-119.5 -83t-82.5 -141t-40.5 -200h543q24 0 34.5 -10.5t10.5 -32.5q0 -8 -0.5 -18.5t-2 -22
t-3.5 -22t-5 -17.5q-8 -23 -22 -30.5t-37 -7.5h-524q7 -124 40 -214.5t86 -150t124 -88.5t153 -29q53 0 94.5 5.5t73.5 14t56 18t43 18.5l27.5 11t23.5 5q15 0 28 -10t27 -35z" />
    <glyph glyph-name="afii10054" unicode="&#x405;" horiz-adv-x="1075" 
d="M53 0zM518 -29q-87 0 -152.5 11t-115 27t-84.5 35t-60 34q-34 20 -43.5 33.5t-9.5 25.5q0 13 15.5 42t29.5 48q23 27 41 27q11 0 31 -14q12 -8 24.5 -15.5t24.5 -15.5q34 -21 83.5 -39.5t99.5 -26.5t100 -8q106 0 184 31t109.5 85t31.5 111q0 74 -34.5 118t-106 74
t-151.5 52l-89 25q-82 23 -151 53t-118.5 74.5t-77 105.5t-27.5 146q0 91 31.5 163.5t90.5 123t144 77.5t192 27t177 -15t110 -31t51 -20q42 -18 53 -30.5t11 -20.5q0 -11 -8 -37.5t-21 -48.5q-9 -18 -17.5 -26.5t-19.5 -8.5q-18 0 -35 8q-10 5 -45 19.5t-54.5 22
t-41.5 12.5q-75 16 -158 16q-70 0 -122.5 -16.5t-87.5 -46t-52.5 -69t-17.5 -85.5q0 -45 19 -78t55 -58.5t88 -46t118 -38.5l109 -31q137 -39 220.5 -92.5t117 -130t33.5 -162.5q0 -103 -33.5 -180.5t-97 -130t-155 -79t-208.5 -26.5z" />
    <glyph glyph-name="afii10055" unicode="&#x406;" horiz-adv-x="492" 
d="M158 0zM248 -8q-49 0 -67.5 8t-20.5 19.5t-2 31.5v1270q0 27 5.5 37t28 16t56.5 6q37 0 57 -5t27 -11q10 -10 10 -43v-1270q0 -33 -10 -43q-7 -6 -27 -11t-57 -5z" />
    <glyph glyph-name="afii10056" unicode="&#x407;" horiz-adv-x="492" 
d="M8 0zM248 -8q-49 0 -67.5 8t-20.5 19.5t-2 31.5v1270q0 27 5.5 37t28 16t56.5 6q37 0 57 -5t27 -11q10 -10 10 -43v-1270q0 -33 -10 -43q-7 -6 -27 -11t-57 -5zM112 1463q-29 0 -57 18t-37.5 42t-9.5 46q0 47 29.5 78t74.5 31q31 0 57 -17t38 -43t12 -49q0 -45 -30 -75.5
t-77 -30.5zM391 1463q-29 0 -57 18t-37.5 42t-9.5 46q0 47 29.5 78t74.5 31q30 0 56.5 -17.5t38.5 -43t12 -48.5q0 -33 -17 -59t-42 -36.5t-48 -10.5z" />
    <glyph glyph-name="afii10057" unicode="&#x408;" horiz-adv-x="918" 
d="M10 0zM362 -29q-91 0 -151.5 13.5t-92 28t-46.5 24.5q-31 18 -45 33q-17 15 -17 30q0 19 31 68q20 31 32.5 40t24.5 9q11 0 21.5 -7.5t25.5 -16.5q41 -28 60 -38t56 -18t87 -8q113 0 168 56.5t64.5 136t9.5 145.5v854q0 27 5.5 37t28 16t56.5 6q52 0 70 -8.5t21 -19.5
t3 -31v-883q0 -109 -26 -203.5t-93 -160.5q-46 -47 -117 -75t-176 -28z" />
    <glyph glyph-name="afii10058" unicode="&#x409;" horiz-adv-x="1907" 
d="M1657 418q0 51 -15 96t-51.5 79.5t-97.5 54.5t-152 20h-192v-506h199q81 0 139 19t96 53.5t56 81t18 102.5zM647 1210q-18 -312 -66 -541t-120 -379t-164.5 -223t-198.5 -73q-35 0 -54.5 2t-29.5 10q-11 9 -12.5 26t-1.5 42q0 23 3 39.5t15 25.5q8 6 17 8.5t19.5 3
t22 1.5t23.5 4q72 17 137 95t115 220t81.5 350t37.5 486q0 18 4 30.5t10 18.5q8 8 23.5 12t52.5 4h498q21 0 38 -1.5t28.5 -8t17.5 -19.5t6 -36v-480h209q130 0 223 -30.5t153 -85.5t88.5 -131t28.5 -166q0 -89 -31.5 -165t-92.5 -131.5t-150.5 -86.5t-206.5 -31h-317
q-37 0 -52.5 4t-23.5 12q-6 7 -10 19t-4 31v1144h-316z" />
    <glyph glyph-name="afii10059" unicode="&#x40a;" horiz-adv-x="1855" 
d="M1307 827q129 0 222 -31t152.5 -86t88 -130.5t28.5 -165.5t-31 -166t-92 -131t-150 -86t-206 -31h-320q-30 0 -48 3.5t-27.5 11t-12 19.5t-2.5 29v607h-565v-623q0 -15 -2.5 -25.5t-12 -17t-28.5 -9.5t-51 -3t-50.5 3t-27.5 9t-11.5 16t-2.5 25v1278q0 15 2.5 26t11.5 18
t27.5 10t50.5 3t51 -3.5t28.5 -10.5t12 -17.5t2.5 -23.5v-496h565v494q0 16 3.5 27t13 17.5t27.5 9.5t48 3q34 0 53 -4t28 -11.5t10.5 -17.5t1.5 -22v-498h213zM1296 160q81 0 139 19t95.5 53.5t55.5 81t18 102.5q0 51 -15.5 97t-52 80.5t-97 54.5t-149.5 20h-196v-508h202z
" />
    <glyph glyph-name="afii10060" unicode="&#x40b;" horiz-adv-x="1305" 
d="M885 1372q28 0 36.5 -9t8.5 -34q0 -17 -1.5 -37t-6.5 -37q-7 -20 -20.5 -31.5t-41.5 -11.5h-368v-411q22 10 55 20t72.5 18t82.5 12.5t86 4.5q90 0 155.5 -16t111 -44.5t74 -68t44.5 -86t21.5 -98t5.5 -105.5v-391q0 -17 -3.5 -27.5t-13.5 -16.5t-28 -8.5t-47 -2.5
q-35 0 -54 3.5t-28 10.5t-10.5 17t-1.5 22v387q0 63 -12 112.5t-40.5 83.5t-76 52t-117.5 18q-90 0 -162 -17t-114 -40v-594q0 -15 -2 -25t-11.5 -17t-28.5 -10t-53 -3q-32 0 -50.5 3t-27.5 9t-11.5 16t-2.5 25v1167h-256q-28 0 -36.5 9.5t-8.5 33.5q0 17 1.5 37t6.5 37
q6 20 20 31.5t42 11.5h811z" />
    </font>
</defs>
</svg>
