<svg width="28" height="28" viewBox="0 0 28 28" fill="none" xmlns="http://www.w3.org/2000/svg">
<path d="M27.9904 13.9925L15.2298 0V8.38171H13.7475C10.0755 8.38171 6.62317 9.81171 4.02658 12.4083C1.42999 15.0049 0 18.4572 0 22.1294V28L2.44897 25.3167C5.72488 21.7276 10.375 19.6514 15.2298 19.6042V27.9853L27.9904 13.9925ZM1.64084 23.7818V22.1294C1.64084 18.8956 2.90015 15.8551 5.18677 13.5685C7.47339 11.2819 10.5137 10.0226 13.7475 10.0226H16.8705V4.23422L25.77 13.9925L16.8705 23.751V17.9627H15.3984C10.2193 17.9627 5.23889 20.0765 1.64084 23.7818Z" fill="black"/>
</svg>
