<svg width="50" height="50" viewBox="0 0 50 50" fill="none" xmlns="http://www.w3.org/2000/svg">
<g clip-path="url(#clip0)">
<rect width="50" height="50" rx="6" fill="#C22D24"/>
<path d="M37.7777 0H43.9999C47.3137 0 49.9999 2.68629 49.9999 6V44C49.9999 47.3137 47.3137 50 43.9999 50H12.2222L37.7777 0Z" fill="#EA3424"/>
<path fill-rule="evenodd" clip-rule="evenodd" d="M37.84 20.8L41.5 24.985L37.84 29.185L38.35 34.72L32.935 35.95L30.1 40.735L25 38.545L19.9 40.75L17.065 35.95L11.65 34.72L12.16 29.17L8.5 24.985L12.16 20.8L11.65 15.25L17.065 14.035L19.9 9.25L25 11.44L30.1 9.25L32.935 14.035L38.35 15.265L37.84 20.8ZM34.735 28.18L35.575 27.205L37.495 24.985L35.56 22.78L34.72 21.805L34.84 20.53L35.11 17.605L32.26 16.96L31 16.675L30.34 15.565L28.855 13.045L26.185 14.2L25 14.71L23.8 14.2L21.13 13.045L19.645 15.565L18.985 16.675L17.725 16.96L14.875 17.605L15.145 20.515L15.28 21.805L14.44 22.78L12.505 25L14.44 27.205L15.28 28.18L15.16 29.455L14.89 32.395L17.74 33.04L19 33.325L19.66 34.435L21.145 36.94L23.815 35.785L25 35.275L26.2 35.785L28.87 36.94L30.355 34.42L31.015 33.31L32.275 33.025L35.125 32.38L34.855 29.455L34.735 28.18ZM18.655 24.13L22.135 27.625L30.925 18.805L33.145 21.04L22.135 32.08L16.435 26.365L18.655 24.13Z" fill="white"/>
</g>
<defs>
<clipPath id="clip0">
<rect width="50" height="50" rx="6" fill="white"/>
</clipPath>
</defs>
</svg>
