<svg width="68" height="30" viewBox="0 0 68 30" fill="none" xmlns="http://www.w3.org/2000/svg">
<g clip-path="url(#clip0)">
<path fill-rule="evenodd" clip-rule="evenodd" d="M33.5845 7.36126C35.5436 7.36126 37.1317 5.8131 37.1317 3.90335C37.1317 1.9936 35.5436 0.445435 33.5845 0.445435C31.6255 0.445435 30.0373 1.9936 30.0373 3.90335C30.0373 5.8131 31.6255 7.36126 33.5845 7.36126ZM31.0128 13.8276C29.6826 13.5163 29.2747 14.1042 28.2638 16.2308V16.3C22.269 28.8695 11.3969 25.4116 9.2331 13.6547L12.3191 13.4645C14.1105 13.3435 14.1992 12.2196 13.9154 10.9229C13.881 10.4436 13.6435 9.99988 13.26 9.69813C12.8764 9.39638 12.3813 9.26383 11.8935 9.33227H2.45797C1.14551 9.33227 0.453809 9.98928 0.453809 11.7182C0.420756 12.2403 0.518133 12.7624 0.737584 13.2397C1.11764 13.8799 1.87334 14.2135 2.61759 14.0696L4.87006 13.9313C8.52366 35.4222 26.8094 33.6933 32.1834 17.4238C32.9106 15.228 32.7864 14.2598 31.0128 13.8276ZM45.8836 26.2702C45.4948 26.3119 45.1021 26.2408 44.7541 26.0658C44.5819 25.9228 44.4912 25.7069 44.5108 25.4866V17.3949H41.9389C41.7419 17.4114 41.544 17.3761 41.3655 17.2927C41.2751 17.2377 41.2074 17.1533 41.1743 17.0542C41.1572 16.9412 41.1572 16.8264 41.1743 16.7135C41.1526 16.4812 41.1526 16.2474 41.1743 16.0151C41.206 15.8186 41.2706 15.6287 41.3655 15.4529C41.4371 15.3146 41.5623 15.2103 41.713 15.1633C41.8743 15.1395 42.0383 15.1395 42.1996 15.1633H50.1238H50.3497C50.44 15.2183 50.5077 15.3027 50.5408 15.4018C50.5568 15.5091 50.5568 15.6181 50.5408 15.7255C50.5568 15.9353 50.5568 16.1459 50.5408 16.3558C50.5125 16.5747 50.448 16.7876 50.3497 16.9861C50.278 17.1243 50.1528 17.2286 50.0021 17.2757C49.8407 17.298 49.6769 17.298 49.5155 17.2757H47.2217V25.4184C47.2422 25.5311 47.2422 25.6465 47.2217 25.7591C47.1856 25.8519 47.1258 25.934 47.0479 25.9976C46.6974 26.203 46.291 26.2981 45.8836 26.2702ZM55.2957 26.4298C55.9507 26.6396 56.6349 26.7397 57.3216 26.726C57.9738 26.7286 58.6224 26.6287 59.2444 26.4298C59.7672 26.2564 60.2473 25.9712 60.6522 25.5934C61.022 25.2414 61.3044 24.8055 61.4763 24.3214C61.6508 23.8177 61.7379 23.2871 61.7338 22.7532V15.9576C61.7546 15.7356 61.6721 15.5164 61.5106 15.3651C60.7963 15.0954 60.0103 15.0954 59.2959 15.3651C59.2037 15.4225 59.1316 15.5078 59.0899 15.6091C59.0707 15.7244 59.0707 15.8422 59.0899 15.9576V22.7009C59.0852 22.9623 59.0388 23.2212 58.9526 23.4676C58.8558 23.7309 58.6661 23.9482 58.4203 24.0775C58.0658 24.2645 57.6694 24.3546 57.2701 24.3388C56.9794 24.3451 56.6895 24.304 56.4117 24.2169C56.2065 24.1496 56.0187 24.0365 55.8623 23.8858C55.7214 23.7445 55.6155 23.5713 55.5533 23.3805C55.4837 23.1609 55.4489 22.9315 55.4503 22.7009V15.9401C55.4668 15.7152 55.3777 15.4956 55.2099 15.3477C54.4956 15.078 53.7095 15.078 52.9952 15.3477C52.9094 15.4078 52.8435 15.4928 52.8064 15.5917C52.784 15.7126 52.784 15.8366 52.8064 15.9576V22.7532C52.8029 23.2871 52.89 23.8175 53.0639 24.3214C53.2358 24.8055 53.5182 25.2414 53.8879 25.5934C54.2926 25.9716 54.7727 26.2569 55.2957 26.4298ZM65.1307 26.5044C65.4792 26.6856 65.8732 26.7588 66.2629 26.7148C66.6482 26.7326 67.0301 26.6349 67.3603 26.4342C67.4346 26.3723 67.4941 26.2944 67.5345 26.2063C67.5589 26.0847 67.5589 25.9595 67.5345 25.838V15.9826C67.5584 15.861 67.5584 15.7359 67.5345 15.6143C67.495 15.5159 67.4285 15.4307 67.3429 15.3688C66.9947 15.1866 66.6005 15.1133 66.2107 15.1584C65.821 15.1154 65.4273 15.1886 65.0785 15.3688C64.9935 15.4314 64.9272 15.5163 64.8869 15.6143C64.8625 15.7358 64.8625 15.861 64.8869 15.9826V25.9082C64.8728 26.1341 64.9628 26.3539 65.1307 26.5044Z" fill="#D40E14"/>
</g>
<defs>
<clipPath id="clip0">
<rect width="68" height="29.92" fill="white"/>
</clipPath>
</defs>
</svg>
