<svg width="9" height="15" viewBox="0 0 9 15" fill="none" xmlns="http://www.w3.org/2000/svg">
<path fill-rule="evenodd" clip-rule="evenodd" d="M8.7559 14.5108C8.83328 14.4415 8.89467 14.3592 8.93655 14.2686C8.97844 14.1781 9 14.0809 9 13.9829C9 13.8848 8.97844 13.7877 8.93655 13.6971C8.89467 13.6065 8.83328 13.5242 8.7559 13.4549L2.00721 7.39976L8.7559 1.3446C8.91192 1.20458 8.99956 1.01468 8.99956 0.816667C8.99956 0.618652 8.91192 0.428749 8.7559 0.288732C8.59988 0.148715 8.38828 0.070055 8.16764 0.070055C7.947 0.0700551 7.7354 0.148715 7.57939 0.288732L0.244098 6.87183C0.166722 6.94109 0.105333 7.02338 0.0634467 7.11397C0.0215603 7.20456 -3.26403e-07 7.30168 -3.22093e-07 7.39976C-3.17783e-07 7.49784 0.0215604 7.59496 0.0634467 7.68555C0.105333 7.77614 0.166722 7.85843 0.244098 7.9277L7.57939 14.5108C7.65657 14.5802 7.74826 14.6353 7.8492 14.6729C7.95014 14.7105 8.05836 14.7299 8.16764 14.7299C8.27693 14.7299 8.38515 14.7105 8.48609 14.6729C8.58703 14.6353 8.67872 14.5802 8.7559 14.5108Z" fill="#13295C"/>
</svg>
