<svg width="40" height="40" viewBox="0 0 40 40" fill="none" xmlns="http://www.w3.org/2000/svg">
<rect width="40" height="40" rx="20" fill="#E5F3FD"/>
<path fill-rule="evenodd" clip-rule="evenodd" d="M25 15C25 17.7614 22.7614 20 20 20C17.2386 20 15 17.7614 15 15C15 12.2386 17.2386 10 20 10C22.7614 10 25 12.2386 25 15ZM23 15C23 16.6569 21.6569 18 20 18C18.3431 18 17 16.6569 17 15C17 13.3431 18.3431 12 20 12C21.6569 12 23 13.3431 23 15ZM29 28.5C29 28.6199 28.9966 28.7391 28.9899 28.8577C28.9966 28.9042 29 28.9517 29 29C29 29.5523 28.5523 30 28 30C27.4477 30 27 29.5523 27 29H26.9715C26.9904 28.8353 27 28.6685 27 28.5C27 25.4624 23.866 23 20 23C16.134 23 13 25.4624 13 28.5C13 28.6685 13.0096 28.8353 13.0285 29H13C13 29.5523 12.5523 30 12 30C11.4477 30 11 29.5523 11 29C11 28.9517 11.0034 28.9042 11.0101 28.8577C11.0034 28.7391 11 28.6199 11 28.5C11 24.3579 15.0294 21 20 21C24.9706 21 29 24.3579 29 28.5Z" fill="#13295C"/>
</svg>
