<svg width="1920" height="990" viewBox="0 0 1920 990" fill="none" xmlns="http://www.w3.org/2000/svg">
<g clip-path="url(#clip0)">
<path style="mix-blend-mode:screen" opacity="0.75" d="M114.93 199.78C115.073 199.787 115.213 199.74 115.324 199.65C115.435 199.559 115.508 199.431 115.53 199.29C115.534 199.216 115.524 199.141 115.498 199.071C115.473 199.001 115.435 198.937 115.384 198.882C115.334 198.827 115.273 198.782 115.206 198.751C115.138 198.72 115.065 198.703 114.99 198.7C114.91 198.7 107.75 198.06 105.33 194.7C103.33 191.88 102.44 187.96 105.1 185.55C107.76 183.14 111.44 182.76 115.43 182.26C119.42 181.76 123.83 181.26 126.63 178.4C127.498 177.536 128.151 176.481 128.537 175.319C128.922 174.157 129.03 172.921 128.85 171.71C128.38 167.87 125.61 163.8 121.78 161.34C118.828 159.574 115.71 158.1 112.47 156.94C109.23 155.777 106.115 154.293 103.17 152.51C99.7104 150.23 97.1704 146.34 96.8204 142.83C96.6807 141.762 96.7974 140.676 97.1608 139.662C97.5243 138.649 98.124 137.736 98.9104 137C102.69 133.45 108.91 134.36 115.56 135.7C119.56 136.51 129.2 137.76 132.56 131.9C135.31 127.11 131.33 121.28 125.98 118C124.68 117.2 123.28 116.46 121.92 115.74C118.14 113.74 114.57 111.83 112.46 108.64C111.345 106.935 110.767 104.935 110.799 102.897C110.831 100.86 111.472 98.8793 112.64 97.21C113.958 95.4776 115.695 94.1095 117.688 93.2347C119.681 92.3599 121.863 92.0072 124.03 92.21C124.182 92.2277 124.335 92.1868 124.457 92.0958C124.58 92.0047 124.663 91.8703 124.69 91.72C124.694 91.6456 124.684 91.5712 124.658 91.5011C124.633 91.4309 124.595 91.3665 124.544 91.3116C124.494 91.2566 124.433 91.2123 124.366 91.1811C124.298 91.1499 124.225 91.1325 124.15 91.13C121.768 90.9065 119.367 91.2932 117.175 92.2536C114.983 93.2141 113.071 94.7167 111.62 96.62C110.336 98.4562 109.631 100.635 109.598 102.876C109.564 105.116 110.202 107.316 111.43 109.19C113.69 112.61 117.56 114.67 121.31 116.66C122.65 117.37 124.03 118.11 125.31 118.89C130.22 121.89 133.91 127.16 131.49 131.39C128.49 136.58 119.49 135.39 115.81 134.63C110.55 133.57 102.6 131.95 98.0304 136.24C97.128 137.077 96.4379 138.116 96.017 139.273C95.5962 140.429 95.4568 141.669 95.6104 142.89C95.9804 146.76 98.6704 150.89 102.45 153.36C105.465 155.192 108.658 156.714 111.98 157.9C115.141 159.036 118.184 160.473 121.07 162.19C124.58 164.45 127.22 168.31 127.64 171.8C127.802 172.857 127.713 173.936 127.382 174.952C127.05 175.968 126.484 176.892 125.73 177.65C123.22 180.16 119.35 180.65 115.25 181.16C111.15 181.67 107.1 182.16 104.25 184.75C101.11 187.59 102.03 192.08 104.32 195.26C107.06 199.06 114.56 199.72 114.88 199.75L114.93 199.78Z" fill="url(#paint0_linear)"/>
<path style="mix-blend-mode:screen" opacity="0.75" d="M104.69 199.78C104.833 199.78 104.97 199.723 105.072 199.622C105.173 199.521 105.23 199.383 105.23 199.24C105.23 199.097 105.173 198.959 105.072 198.858C104.97 198.757 104.833 198.7 104.69 198.7C104.69 198.7 102.43 198.58 100.08 194.7C98.0798 191.52 97.6498 186.86 100.2 184.56C102.75 182.26 106.53 181.76 110.52 181.27C114.51 180.78 118.93 180.22 121.72 177.41C122.59 176.546 123.244 175.489 123.63 174.325C124.016 173.161 124.122 171.923 123.94 170.71C123.47 166.88 120.7 162.81 116.88 160.34C113.921 158.58 110.8 157.106 107.56 155.94C104.318 154.782 101.202 153.297 98.2598 151.51C94.7998 149.23 92.2598 145.34 91.9098 141.83C91.775 140.767 91.8942 139.687 92.2575 138.679C92.6208 137.671 93.2179 136.763 93.9998 136.03C97.7898 132.48 104 133.39 110.65 134.73C114.65 135.54 124.29 136.79 127.65 130.92C130.4 126.13 126.42 120.31 121.08 117.03C119.77 116.23 118.37 115.48 117.01 114.76C113.23 112.76 109.66 110.85 107.55 107.66C106.436 105.956 105.857 103.958 105.889 101.922C105.922 99.887 106.563 97.9078 107.73 96.24C109.049 94.5091 110.786 93.142 112.778 92.2673C114.771 91.3926 116.953 91.0391 119.12 91.24C119.195 91.2513 119.272 91.2476 119.346 91.2291C119.421 91.2106 119.49 91.1776 119.552 91.1321C119.613 91.0866 119.665 91.0294 119.704 90.9638C119.743 90.8982 119.769 90.8256 119.78 90.75C119.785 90.6005 119.732 90.4548 119.631 90.3444C119.53 90.234 119.389 90.1678 119.24 90.16C116.856 89.9395 114.456 90.3286 112.264 91.2907C110.072 92.2528 108.161 93.7563 106.71 95.66C105.428 97.4952 104.724 99.6723 104.69 101.911C104.656 104.149 105.294 106.347 106.52 108.22C108.78 111.65 112.66 113.71 116.4 115.7C117.74 116.41 119.12 117.15 120.4 117.93C125.31 120.93 129.01 126.2 126.58 130.42C123.58 135.62 114.58 134.42 110.91 133.67C105.65 132.6 97.6898 130.99 93.1198 135.28C92.2095 136.125 91.5155 137.177 91.0962 138.346C90.6768 139.516 90.5443 140.769 90.7098 142C91.0798 145.86 93.7698 150 97.5498 152.46C100.564 154.296 103.757 155.82 107.08 157.01C110.244 158.144 113.292 159.581 116.18 161.3C119.68 163.55 122.32 167.41 122.74 170.9C122.902 171.957 122.814 173.036 122.482 174.053C122.15 175.069 121.584 175.993 120.83 176.75C118.33 179.26 114.45 179.75 110.35 180.26C106.25 180.77 102.2 181.26 99.3498 183.86C96.2898 186.63 96.8998 191.86 99.0298 195.3C101.77 199.73 104.58 199.78 104.69 199.78Z" fill="url(#paint1_linear)"/>
<path d="M1631.47 251.1C1631.55 251.1 1631.62 251.085 1631.69 251.054C1631.76 251.023 1631.83 250.977 1631.88 250.92C1631.93 250.87 1631.97 250.81 1632 250.744C1632.03 250.678 1632.04 250.607 1632.04 250.535C1632.04 250.463 1632.03 250.392 1632 250.326C1631.97 250.26 1631.93 250.2 1631.88 250.15L1610 230.15C1609.9 230.049 1609.76 229.993 1609.61 229.993C1609.47 229.993 1609.33 230.049 1609.23 230.15C1609.18 230.2 1609.14 230.26 1609.11 230.326C1609.08 230.392 1609.07 230.463 1609.07 230.535C1609.07 230.607 1609.08 230.678 1609.11 230.744C1609.14 230.81 1609.18 230.87 1609.23 230.92L1631.12 250.92C1631.16 250.972 1631.22 251.014 1631.28 251.045C1631.34 251.076 1631.4 251.095 1631.47 251.1V251.1Z" fill="#F05858"/>
<path d="M1611.17 251.29C1611.28 251.288 1611.38 251.256 1611.47 251.196C1611.56 251.136 1611.63 251.051 1611.67 250.953C1611.71 250.854 1611.72 250.745 1611.7 250.64C1611.68 250.535 1611.63 250.437 1611.56 250.36L1590.56 229.02C1590.46 228.918 1590.32 228.861 1590.18 228.861C1590.03 228.861 1589.89 228.918 1589.79 229.02C1589.69 229.122 1589.63 229.261 1589.63 229.405C1589.63 229.549 1589.69 229.688 1589.79 229.79L1610.79 251.13C1610.89 251.229 1611.03 251.286 1611.17 251.29V251.29Z" fill="#F05858"/>
<path fill-rule="evenodd" clip-rule="evenodd" d="M1606.52 193.28C1605.51 193.502 1604.48 193.639 1603.44 193.69C1602.39 193.74 1601.4 194.179 1600.66 194.92C1600.32 195.317 1600.12 195.806 1600.06 196.323C1600 196.84 1600.1 197.362 1600.35 197.822C1600.59 198.282 1600.96 198.659 1601.42 198.905C1601.88 199.15 1602.4 199.253 1602.92 199.2C1603.69 199.064 1604.41 198.756 1605.04 198.3L1608.8 195.99C1609.47 195.644 1610.05 195.16 1610.51 194.57C1610.77 194.17 1610.91 193.708 1610.93 193.234C1610.94 192.759 1610.84 192.288 1610.61 191.87C1610.38 191.459 1610.04 191.121 1609.62 190.891C1609.21 190.662 1608.74 190.551 1608.27 190.57C1608.54 191.26 1608.77 191.57 1608.27 192.19C1607.81 192.723 1607.2 193.104 1606.52 193.28V193.28Z" fill="#FF7070"/>
<path fill-rule="evenodd" clip-rule="evenodd" d="M1622.38 205.22C1622.78 204.89 1623.65 205.06 1624.08 204.69C1624.51 204.32 1625.61 204.69 1624.28 202.63C1624.06 202.28 1623.12 202.81 1622.82 203.13C1622.52 203.45 1621.74 204.38 1621.74 204.38L1622.38 205.22Z" fill="#F2B183"/>
<path d="M1621.42 240C1621.54 240.003 1621.65 239.96 1621.73 239.882C1621.82 239.803 1621.87 239.695 1621.87 239.58L1624.08 201.58C1624.08 201.521 1624.07 201.462 1624.05 201.406C1624.03 201.351 1624 201.299 1623.96 201.256C1623.92 201.212 1623.87 201.177 1623.82 201.152C1623.77 201.127 1623.71 201.113 1623.65 201.11C1623.59 201.103 1623.53 201.108 1623.47 201.126C1623.42 201.144 1623.36 201.174 1623.32 201.214C1623.28 201.254 1623.24 201.302 1623.22 201.357C1623.19 201.411 1623.18 201.47 1623.18 201.53L1620.97 239.53C1620.96 239.648 1621.01 239.763 1621.08 239.851C1621.16 239.939 1621.27 239.992 1621.39 240H1621.42Z" fill="#F5C04E"/>
<path fill-rule="evenodd" clip-rule="evenodd" d="M1613.43 185.9C1613.22 185.185 1612.81 184.546 1612.24 184.06C1611.66 183.656 1610.95 183.468 1610.24 183.53C1609.52 183.538 1608.81 183.727 1608.18 184.08V184.08C1604.41 187.17 1607.82 190.55 1608.3 190.99C1609.48 192.09 1611.57 193.19 1612.69 191.55C1613.22 190.722 1613.57 189.785 1613.69 188.808C1613.82 187.831 1613.73 186.838 1613.43 185.9V185.9Z" fill="#EF5050"/>
<path fill-rule="evenodd" clip-rule="evenodd" d="M1613.89 206.9H1609.03C1609.03 206.9 1607.38 200.9 1607.03 198.15C1606.78 196.3 1607.53 194.93 1608.62 194.84C1610.24 194.709 1611.87 194.693 1613.5 194.79C1615.65 194.86 1615.26 196.34 1615.03 198.16C1614.68 200.85 1613.89 206.9 1613.89 206.9Z" fill="#F7BC92"/>
<path fill-rule="evenodd" clip-rule="evenodd" d="M1617.28 226.59C1617.28 226.59 1617.01 221.78 1616.35 216.95C1615.69 212.12 1614.15 208.77 1613.89 206.95H1609.84L1609.78 214.18C1609.78 214.18 1613.9 224.76 1614.52 226.74C1614.46 227.572 1614.46 228.408 1614.52 229.24C1614.72 230.85 1616.06 233.05 1616.8 234.89C1617.33 235.923 1617.79 236.984 1618.2 238.07C1618.2 238.38 1619.63 237.91 1619.63 237.91C1619.13 236.32 1617.62 229.18 1617.28 226.59Z" fill="#5086AD"/>
<path fill-rule="evenodd" clip-rule="evenodd" d="M1609 206.87C1607.68 208.032 1606.62 209.456 1605.88 211.05C1604.88 213.05 1604.56 215.05 1604.23 219.2C1604.16 221.428 1603.65 223.622 1602.75 225.66C1602.3 226.299 1601.89 226.967 1601.52 227.66C1600.89 229.514 1600.47 231.433 1600.26 233.38C1600.18 234.539 1600.02 235.691 1599.79 236.83C1599.67 237.11 1601.1 237.44 1601.1 237.44C1601.46 235.89 1604.1 229.3 1605.21 226.9C1605.99 225.68 1612.14 212.56 1612.14 212.56L1612.64 206.87H1609Z" fill="#5086AD"/>
<path fill-rule="evenodd" clip-rule="evenodd" d="M1621.24 240C1620.97 240.62 1619.66 240 1618.55 239.07C1618.03 238.64 1616.74 238.07 1617.41 237C1617.52 236.82 1616.86 235.76 1616.55 234.84C1616.38 234.3 1618.62 233.78 1618.71 234.15C1619.69 238.22 1621.51 239.36 1621.24 240Z" fill="#507AA0"/>
<path fill-rule="evenodd" clip-rule="evenodd" d="M1612.91 194.68C1615.31 194.86 1616.99 194.96 1618.45 200.85C1618.59 201.38 1621.76 201.77 1622.26 203.76C1622.39 204.28 1622.64 205.09 1622.64 205.09C1622.43 205.765 1621.97 206.333 1621.35 206.677C1620.73 207.022 1620 207.116 1619.32 206.94C1618.11 206.74 1617.17 204.94 1617.17 204.94C1617.5 206.568 1617.73 208.214 1617.86 209.87C1618.33 214.39 1614.23 213.82 1610.42 214.06C1607.7 214.22 1604.94 212.69 1604.56 211.13C1604.18 209.57 1604.63 207.24 1604.91 205.06C1605.19 202.88 1606.47 196.01 1607.17 195.32C1608.2 194.27 1612.91 194.68 1612.91 194.68Z" fill="#00A3B5"/>
<path fill-rule="evenodd" clip-rule="evenodd" d="M1614.08 188.21C1613.89 187.34 1613.4 184.56 1610.58 185.27C1608.67 185.75 1608.58 187.61 1608.91 189.22C1608.81 189.148 1608.7 189.099 1608.58 189.078C1608.46 189.057 1608.34 189.065 1608.22 189.1C1607.95 189.22 1607.93 189.66 1608.22 190.01C1608.51 190.36 1609.01 190.76 1609.29 190.64V190.57C1609.47 190.952 1609.7 191.309 1609.97 191.63C1610.41 194.4 1609.54 195.04 1609.54 195.04C1610.7 195.223 1611.87 195.223 1613.03 195.04C1612.7 194.38 1612.51 193.658 1612.48 192.92C1612.78 192.939 1613.09 192.909 1613.38 192.83C1614.42 192.57 1614.36 189.58 1614.08 188.21Z" fill="#F7BC92"/>
<path fill-rule="evenodd" clip-rule="evenodd" d="M1602.46 241.07C1602.1 241.65 1600.89 240.81 1599.93 239.75C1599.48 239.25 1598.29 238.47 1599.11 237.54C1599.25 237.38 1599.46 234.19 1600.11 234.83C1600.52 235.22 1601.96 234.91 1601.84 235.28C1600.68 238.87 1602.81 240.5 1602.46 241.07Z" fill="#507AA0"/>
<path d="M1593.54 241.07C1593.63 241.069 1593.71 241.043 1593.79 240.995C1593.86 240.948 1593.92 240.88 1593.96 240.8L1609.72 206.8C1609.75 206.745 1609.76 206.685 1609.77 206.624C1609.77 206.563 1609.76 206.501 1609.74 206.444C1609.72 206.386 1609.69 206.333 1609.65 206.288C1609.61 206.242 1609.56 206.206 1609.5 206.18C1609.39 206.132 1609.26 206.128 1609.14 206.171C1609.03 206.214 1608.93 206.299 1608.88 206.41L1593.12 240.41C1593.07 240.522 1593.07 240.648 1593.11 240.761C1593.16 240.875 1593.24 240.968 1593.35 241.02C1593.41 241.052 1593.47 241.069 1593.54 241.07Z" fill="#F5C04E"/>
<path fill-rule="evenodd" clip-rule="evenodd" d="M1604.86 208.74C1605.27 209.07 1605.95 210.49 1606.41 210.84C1606.9 211.238 1607.52 211.438 1608.15 211.4C1609.68 210.98 1609.3 209.7 1609.01 209.59C1608.72 209.48 1608.07 209.45 1607.78 209.34C1607.02 208.931 1606.29 208.47 1605.6 207.96L1604.86 208.74Z" fill="#F2B183"/>
<path fill-rule="evenodd" clip-rule="evenodd" d="M1609.6 195C1604.41 194.25 1601.46 199.68 1600.88 203.46C1600.75 204.454 1600.86 205.464 1601.19 206.408C1601.53 207.351 1602.09 208.199 1602.83 208.88C1603.99 209.95 1604.36 209.98 1605.02 209.95C1605.52 209.95 1607.02 209.18 1607.08 208.33C1607.34 206 1605.21 203.59 1605.21 203.59L1605.45 203.34C1607.47 201.314 1608.86 198.747 1609.45 195.95L1609.6 195Z" fill="#16B7C9"/>
<path fill-rule="evenodd" clip-rule="evenodd" d="M1605.64 185.94C1605.54 185.203 1605.68 184.453 1606.04 183.802C1606.4 183.151 1606.96 182.634 1607.64 182.33C1609.01 181.89 1610.45 182.67 1611.64 183.42C1612.11 183.71 1612.64 184.1 1612.64 184.65C1612.64 185.2 1612.06 185.6 1611.57 185.9C1610.23 186.816 1609 187.876 1607.9 189.06C1606.61 190.33 1605.74 187 1605.64 185.94Z" fill="#FF7070"/>
<path fill-rule="evenodd" clip-rule="evenodd" d="M1609.73 188.24C1611.54 185.62 1613.59 186.49 1613.59 185.78C1613.59 184.78 1612.18 183.16 1611.51 183.26C1610.03 183.383 1608.65 184.076 1607.66 185.195C1606.68 186.314 1606.16 187.771 1606.23 189.26C1606.39 190.41 1608.53 191.98 1609.01 191.7C1609.49 191.42 1608.64 189.82 1609.73 188.24Z" fill="#F05858"/>
<path fill-rule="evenodd" clip-rule="evenodd" d="M216.93 597.82C215.93 599.42 217.31 601.48 217.31 601.48C214.31 601.39 210.31 604.63 213.5 601.48L213.69 597.69L216.93 597.82Z" fill="#F7BC92"/>
<path fill-rule="evenodd" clip-rule="evenodd" d="M215.62 590.6C213.62 590.29 212.49 592.33 212.23 593.69C212.196 593.999 212.196 594.311 212.23 594.62C212.05 595.62 211.45 595.85 211.41 596.14C211.37 596.43 211.88 596.57 211.95 596.67C211.947 596.772 211.919 596.871 211.87 596.96C211.87 597.16 211.99 597.18 211.99 597.22C211.99 597.26 211.85 597.39 211.89 597.59C211.89 597.59 212.06 597.73 212.04 597.85C212.031 598.008 212.008 598.166 211.97 598.32C211.961 598.466 211.981 598.612 212.029 598.749C212.077 598.887 212.152 599.014 212.25 599.122C212.348 599.23 212.467 599.318 212.599 599.379C212.731 599.441 212.875 599.475 213.02 599.48C214.38 599.61 216.3 599.14 216.72 598.23C217.66 596.29 220.39 591.33 215.62 590.6Z" fill="#F7BC92"/>
<path fill-rule="evenodd" clip-rule="evenodd" d="M220.6 594.34C222.77 593.62 219.87 590.76 218.07 590.26C214.9 589.38 213.2 591.14 213.33 591.66C213.46 592.18 216.82 594.51 217.33 596.99C217.4 597.3 219.53 594.7 220.6 594.34Z" fill="#F1586C"/>
<path fill-rule="evenodd" clip-rule="evenodd" d="M218.05 597.26C218.43 594.99 214.11 591.26 213.66 590.8C212.87 590.02 211.8 592.24 211.92 592.8C212.04 593.36 216.11 596.26 216.63 598.8C216.69 599 217.92 598.06 218.05 597.26Z" fill="#EB8298"/>
<path d="M195.16 648.16C195.256 648.158 195.348 648.122 195.42 648.058C195.492 647.993 195.538 647.905 195.55 647.81L201.05 607.31C201.057 607.257 201.053 607.204 201.039 607.153C201.025 607.101 201.001 607.054 200.969 607.012C200.936 606.97 200.896 606.935 200.849 606.909C200.803 606.883 200.752 606.866 200.7 606.86C200.647 606.85 200.594 606.851 200.542 606.863C200.49 606.875 200.442 606.898 200.399 606.93C200.357 606.962 200.321 607.003 200.296 607.049C200.27 607.096 200.254 607.147 200.25 607.2L194.76 647.7C194.745 647.806 194.773 647.913 194.836 647.999C194.9 648.085 194.994 648.143 195.1 648.16H195.16Z" fill="#7FB4F0"/>
<path d="M185.79 650.66L237.35 646.73C237.421 646.725 237.491 646.706 237.554 646.674C237.618 646.642 237.674 646.598 237.721 646.544C237.767 646.49 237.803 646.428 237.825 646.36C237.847 646.292 237.856 646.221 237.85 646.15C237.835 646.007 237.765 645.875 237.656 645.782C237.546 645.689 237.404 645.642 237.26 645.65L185.71 649.57C185.579 649.588 185.458 649.653 185.37 649.753C185.283 649.853 185.234 649.982 185.234 650.115C185.234 650.248 185.283 650.377 185.37 650.477C185.458 650.577 185.579 650.642 185.71 650.66H185.79Z" fill="#E06969"/>
<path d="M203.89 652.24H204L249.47 646.89C249.614 646.87 249.744 646.795 249.833 646.682C249.923 646.568 249.965 646.424 249.95 646.28C249.93 646.137 249.855 646.008 249.741 645.92C249.627 645.833 249.483 645.793 249.34 645.81L203.87 651.16C203.727 651.168 203.593 651.232 203.497 651.339C203.402 651.446 203.352 651.587 203.36 651.73C203.368 651.873 203.433 652.007 203.54 652.103C203.646 652.199 203.787 652.248 203.93 652.24H203.89Z" fill="#E06969"/>
<path fill-rule="evenodd" clip-rule="evenodd" d="M201.46 648.3C201.46 647.97 202.07 647.69 203.57 647.3C203.986 647.185 204.391 647.035 204.78 646.85C204.85 646.85 205.29 645.85 205.33 645.78C205.627 645.645 205.949 645.575 206.275 645.575C206.601 645.575 206.924 645.645 207.22 645.78C207.22 645.78 207.02 647.66 207.02 647.68C207.14 648.89 206.44 648.98 204.73 649.04C202.16 649.1 201.39 648.94 201.46 648.3Z" fill="#00B598"/>
<path fill-rule="evenodd" clip-rule="evenodd" d="M210.35 618.55L213.52 614.03L216.44 616.29C217.057 617.904 217.25 619.65 217 621.36C216 625.7 211.11 634.7 210.91 635.8C210.8 636.41 210.83 637.31 210.65 638.14C210.32 639.68 207.28 647.53 207.28 647.53L204.78 646.62C204.78 646.62 206.17 638.09 206.87 635C207.63 631.7 210.35 618.55 210.35 618.55Z" fill="#6474AB"/>
<path fill-rule="evenodd" clip-rule="evenodd" d="M202.41 610.05C202.09 610.15 201.32 610.65 200.97 610.37C200.429 610.14 199.846 610.028 199.26 610.04C199.07 610.04 199.26 609.13 199.67 608.81C200.243 608.457 200.934 608.346 201.59 608.5C201.809 608.611 202.046 608.685 202.29 608.72L202.41 610.05Z" fill="#F7BC92"/>
<path fill-rule="evenodd" clip-rule="evenodd" d="M202.29 608.72C202.91 608 208.17 607.72 208.17 607.72C209.912 606.006 211.821 604.472 213.87 603.14C216.31 601.68 217.38 603.14 217.33 603.98C217.17 606.98 210.93 609.24 209.94 609.86C209.674 610.029 209.379 610.148 209.07 610.21C207.16 610.78 203.42 610.57 202.41 610.02L202.29 608.72Z" fill="#4ABBE8"/>
<path fill-rule="evenodd" clip-rule="evenodd" d="M220.21 649.19C220.21 648.86 220.73 648.5 222.16 647.87C222.557 647.697 222.939 647.489 223.3 647.25C223.36 647.25 223.16 646.18 223.19 646.14C223.467 645.965 223.777 645.85 224.101 645.804C224.425 645.757 224.755 645.78 225.07 645.87C225.07 645.87 225.63 647.74 225.64 647.76C225.92 648.94 225.24 649.13 223.55 649.43C221 649.88 220.24 649.84 220.21 649.19Z" fill="#00B598"/>
<path fill-rule="evenodd" clip-rule="evenodd" d="M210.38 621.09L210.19 615.58H213.88C215.348 616.493 216.554 617.772 217.38 619.29C219.23 623.35 216.23 634.74 217.05 635.51C217.5 635.93 218.26 636.4 218.87 637C219.97 638.12 225.39 646 225.39 646L223.29 647C223.29 647 216.38 640.73 214.17 638.45C211.96 636.17 210.38 621.09 210.38 621.09Z" fill="#6F80BD"/>
<path fill-rule="evenodd" clip-rule="evenodd" d="M212.33 600.91C212.72 600.29 217.33 597.14 218.92 598.33C226.76 604.23 218.72 603.47 218.72 603.47C220.83 608.01 219.91 614.42 219.55 616.73C219.45 617.34 218.84 617.73 217.96 618.05C217.96 618.32 217.91 618.57 217.9 618.78C217.8 620.72 209.6 620.05 210.01 618.42C210.11 618.06 210.2 617.69 210.28 617.33C209.735 616.718 209.402 615.946 209.33 615.13C208.937 610.2 209.979 605.261 212.33 600.91V600.91Z" fill="#4ABBE8"/>
<path d="M203.87 651.07C203.923 651.065 203.974 651.05 204.02 651.025C204.067 651 204.108 650.966 204.142 650.925C204.175 650.884 204.2 650.837 204.216 650.786C204.231 650.736 204.236 650.683 204.23 650.63L200.14 608.26C200.127 608.155 200.075 608.058 199.993 607.991C199.911 607.924 199.806 607.892 199.7 607.9C199.647 607.905 199.596 607.92 199.55 607.945C199.503 607.97 199.462 608.004 199.428 608.045C199.395 608.086 199.37 608.133 199.355 608.184C199.34 608.234 199.335 608.287 199.34 608.34L203.43 650.71C203.435 650.763 203.45 650.814 203.475 650.86C203.5 650.907 203.534 650.948 203.575 650.982C203.616 651.015 203.663 651.04 203.714 651.055C203.764 651.071 203.818 651.076 203.87 651.07V651.07Z" fill="#7FB4F0"/>
<path fill-rule="evenodd" clip-rule="evenodd" d="M202 611.4C201.68 611.5 200.76 612.16 200.41 611.88C199.867 611.649 199.28 611.537 198.69 611.55C198.5 611.55 198.69 610.64 199.11 610.32C199.324 610.145 199.574 610.021 199.843 609.957C200.111 609.893 200.39 609.891 200.66 609.95C200.94 610.063 201.238 610.127 201.54 610.14L202 611.4Z" fill="#F7BC92"/>
<path fill-rule="evenodd" clip-rule="evenodd" d="M216.78 603.44C216.66 602.57 215.22 601.28 212.88 603.06C210.948 604.648 209.191 606.438 207.64 608.4V608.4C207.64 608.4 202.02 609.4 201.5 610.16L201.89 611.48C203.09 611.89 207.17 611.61 209.12 610.78C209.432 610.681 209.724 610.525 209.98 610.32C210.92 609.54 217.2 606.49 216.78 603.44Z" fill="#4EC6F5"/>
<path fill-rule="evenodd" clip-rule="evenodd" d="M298.93 190.24C297.98 191.84 299.31 193.9 299.31 193.9C296.31 193.81 292.31 197.06 295.5 193.9L295.69 190.11L298.93 190.24Z" fill="#F7BC92"/>
<path fill-rule="evenodd" clip-rule="evenodd" d="M297.62 183C295.62 182.69 294.49 184.73 294.23 186.08C294.196 186.389 294.196 186.701 294.23 187.01C294.05 188.06 293.45 188.24 293.41 188.53C293.37 188.82 293.88 188.97 293.95 189.07C293.946 189.168 293.919 189.264 293.87 189.35C293.87 189.55 293.99 189.58 293.99 189.61C293.99 189.64 293.85 189.78 293.89 189.99C293.89 189.99 294.06 190.13 294.04 190.24C294.031 190.402 294.008 190.562 293.97 190.72C293.961 190.865 293.981 191.011 294.029 191.148C294.077 191.285 294.153 191.411 294.251 191.519C294.349 191.626 294.467 191.712 294.6 191.773C294.732 191.833 294.875 191.866 295.02 191.87C296.38 192 298.3 191.53 298.72 190.62C299.66 188.71 302.39 183.75 297.62 183Z" fill="#F7BC92"/>
<path fill-rule="evenodd" clip-rule="evenodd" d="M302.6 186.77C304.77 186.04 301.87 183.18 300.07 182.69C296.9 181.81 295.2 183.56 295.33 184.09C295.46 184.62 298.82 186.93 299.33 189.42C299.4 189.73 301.53 187.13 302.6 186.77Z" fill="#F1586C"/>
<path fill-rule="evenodd" clip-rule="evenodd" d="M300.05 189.68C300.43 187.42 296.11 183.68 295.66 183.23C294.87 182.45 293.8 184.66 293.92 185.23C294.04 185.8 298.11 188.68 298.63 191.17C298.69 191.44 299.92 190.49 300.05 189.68Z" fill="#EB8298"/>
<path d="M277.16 240.59C277.256 240.588 277.348 240.552 277.42 240.488C277.491 240.423 277.537 240.336 277.55 240.24L283.049 199.74C283.064 199.633 283.035 199.524 282.969 199.438C282.904 199.352 282.807 199.295 282.7 199.28C282.647 199.273 282.593 199.277 282.542 199.29C282.491 199.304 282.443 199.328 282.401 199.361C282.359 199.393 282.324 199.434 282.298 199.48C282.272 199.526 282.256 199.577 282.25 199.63L276.76 240.13C276.745 240.235 276.773 240.341 276.837 240.425C276.9 240.509 276.995 240.565 277.1 240.58L277.16 240.59Z" fill="#7FB4F0"/>
<path d="M267.79 243.09L319.35 239.16C319.494 239.147 319.628 239.078 319.721 238.968C319.815 238.857 319.861 238.714 319.85 238.57C319.833 238.428 319.762 238.297 319.653 238.205C319.544 238.112 319.403 238.064 319.26 238.07L267.75 242C267.606 242.01 267.472 242.077 267.376 242.185C267.281 242.294 267.232 242.436 267.24 242.58C267.253 242.718 267.316 242.847 267.417 242.941C267.519 243.035 267.652 243.088 267.79 243.09V243.09Z" fill="#E06969"/>
<path d="M285.89 244.66H286L331.47 239.31C331.541 239.303 331.61 239.281 331.673 239.247C331.736 239.212 331.791 239.166 331.836 239.11C331.88 239.054 331.913 238.99 331.933 238.922C331.953 238.853 331.959 238.781 331.95 238.71C331.93 238.567 331.856 238.437 331.742 238.347C331.628 238.258 331.484 238.216 331.34 238.23L285.87 243.58C285.729 243.597 285.599 243.67 285.511 243.783C285.423 243.895 285.383 244.038 285.4 244.18C285.412 244.305 285.467 244.422 285.557 244.51C285.647 244.598 285.765 244.651 285.89 244.66V244.66Z" fill="#E06969"/>
<path fill-rule="evenodd" clip-rule="evenodd" d="M283.46 240.72C283.46 240.39 284.07 240.11 285.57 239.72C285.986 239.602 286.391 239.448 286.78 239.26C286.85 239.26 287.29 238.26 287.33 238.2C287.627 238.065 287.949 237.995 288.275 237.995C288.601 237.995 288.924 238.065 289.22 238.2C289.22 238.2 289.02 240.08 289.02 240.11C289.14 241.31 288.44 241.4 286.73 241.47C284.16 241.52 283.39 241.37 283.46 240.72Z" fill="#00B598"/>
<path fill-rule="evenodd" clip-rule="evenodd" d="M292.35 211L295.52 206.47L298.44 208.73C299.057 210.344 299.25 212.09 299 213.8C298 218.15 293.11 227.14 292.91 228.25C292.8 228.86 292.83 229.75 292.65 230.59C292.32 232.12 289.28 239.98 289.28 239.98L286.78 239.07C286.78 239.07 288.17 230.53 288.87 227.44C289.63 224.12 292.35 211 292.35 211Z" fill="#6474AB"/>
<path fill-rule="evenodd" clip-rule="evenodd" d="M284.41 202.47C284.09 202.58 283.32 203.07 282.97 202.79C282.428 202.566 281.846 202.457 281.26 202.47C281.07 202.47 281.26 201.55 281.67 201.23C282.244 200.879 282.935 200.772 283.59 200.93C283.811 201.035 284.047 201.106 284.29 201.14L284.41 202.47Z" fill="#F7BC92"/>
<path fill-rule="evenodd" clip-rule="evenodd" d="M284.29 201.14C284.91 200.42 290.17 200.14 290.17 200.14C291.909 198.423 293.819 196.889 295.87 195.56C298.31 194.1 299.38 195.56 299.33 196.39C299.17 199.39 292.93 201.65 291.94 202.28C291.672 202.445 291.378 202.563 291.07 202.63C289.16 203.2 285.42 202.98 284.41 202.43L284.29 201.14Z" fill="#4ABBE8"/>
<path fill-rule="evenodd" clip-rule="evenodd" d="M302.21 241.61C302.21 241.28 302.73 240.93 304.21 240.29C304.607 240.117 304.989 239.909 305.35 239.67C305.41 239.67 305.21 238.61 305.24 238.57C305.516 238.393 305.826 238.278 306.151 238.231C306.475 238.184 306.806 238.208 307.12 238.3L307.69 240.19C307.97 241.36 307.29 241.55 305.6 241.85C303 242.31 302.24 242.26 302.21 241.61Z" fill="#00B598"/>
<path fill-rule="evenodd" clip-rule="evenodd" d="M292.38 213.52L292.19 208L295.88 208.05C297.348 208.963 298.554 210.242 299.38 211.76C301.23 215.81 298.23 227.21 299.05 227.97C299.5 228.4 300.26 228.86 300.87 229.47C301.97 230.58 307.39 238.47 307.39 238.47L305.29 239.47C305.29 239.47 298.38 233.19 296.17 230.91C293.81 228.49 292.38 213.52 292.38 213.52Z" fill="#6F80BD"/>
<path fill-rule="evenodd" clip-rule="evenodd" d="M294.33 193.33C294.72 192.72 299.33 189.56 300.92 190.75C308.76 196.65 300.72 195.9 300.72 195.9C302.83 200.43 301.91 206.84 301.55 209.16C301.45 209.76 300.84 210.16 299.96 210.47C299.96 210.75 299.96 210.99 299.9 211.2C299.8 213.14 291.6 212.47 292.01 210.85C292.11 210.49 292.2 210.12 292.28 209.75C291.733 209.139 291.4 208.367 291.33 207.55C290.937 202.62 291.979 197.681 294.33 193.33V193.33Z" fill="#4ABBE8"/>
<path d="M285.87 243.5C285.922 243.496 285.973 243.482 286.02 243.458C286.066 243.434 286.108 243.401 286.141 243.361C286.175 243.321 286.2 243.275 286.215 243.225C286.231 243.175 286.236 243.122 286.23 243.07L282.14 200.7C282.135 200.647 282.12 200.596 282.095 200.55C282.07 200.503 282.036 200.462 281.995 200.428C281.954 200.395 281.907 200.37 281.856 200.355C281.806 200.339 281.753 200.334 281.7 200.34C281.647 200.345 281.596 200.36 281.55 200.385C281.503 200.41 281.462 200.444 281.428 200.485C281.395 200.526 281.37 200.573 281.355 200.624C281.34 200.674 281.335 200.727 281.34 200.78L285.43 243.14C285.443 243.245 285.496 243.342 285.578 243.409C285.66 243.476 285.764 243.508 285.87 243.5V243.5Z" fill="#7FB4F0"/>
<path fill-rule="evenodd" clip-rule="evenodd" d="M284 203.82C283.68 203.93 282.76 204.58 282.41 204.3C281.867 204.069 281.28 203.957 280.69 203.97C280.5 203.97 280.69 203.06 281.11 202.74C281.324 202.565 281.574 202.442 281.843 202.377C282.111 202.313 282.39 202.311 282.66 202.37C282.939 202.489 283.237 202.557 283.54 202.57L284 203.82Z" fill="#F7BC92"/>
<path fill-rule="evenodd" clip-rule="evenodd" d="M298.78 195.86C298.66 194.99 297.22 193.71 294.88 195.49C292.95 197.077 291.194 198.864 289.64 200.82V200.82C289.64 200.82 284.02 201.82 283.5 202.58L283.89 203.89C285.09 204.31 289.17 204.02 291.12 203.2C291.433 203.096 291.724 202.937 291.98 202.73C292.92 202 299.2 198.91 298.78 195.86Z" fill="#4EC6F5"/>
<path d="M139.59 249.4C139.483 249.389 139.381 249.347 139.299 249.277C139.217 249.207 139.158 249.114 139.13 249.01C139.11 248.941 139.105 248.869 139.113 248.798C139.122 248.727 139.144 248.658 139.18 248.595C139.215 248.533 139.262 248.478 139.319 248.434C139.376 248.391 139.441 248.359 139.51 248.34L194.93 233.34C194.999 233.32 195.071 233.315 195.142 233.323C195.214 233.332 195.282 233.354 195.345 233.39C195.407 233.425 195.462 233.472 195.506 233.529C195.55 233.586 195.582 233.651 195.6 233.72C195.634 233.86 195.612 234.009 195.54 234.133C195.467 234.258 195.349 234.35 195.21 234.39L139.8 249.39C139.732 249.408 139.66 249.412 139.59 249.4V249.4Z" fill="#F05858"/>
<path d="M143.45 252.21C143.342 252.197 143.24 252.152 143.158 252.081C143.076 252.01 143.018 251.915 142.99 251.81C142.972 251.741 142.968 251.669 142.978 251.599C142.988 251.528 143.011 251.46 143.048 251.399C143.084 251.337 143.132 251.284 143.189 251.241C143.246 251.198 143.311 251.167 143.38 251.15L198.79 236.15C198.859 236.13 198.931 236.125 199.003 236.133C199.074 236.142 199.142 236.164 199.205 236.2C199.267 236.235 199.322 236.282 199.366 236.339C199.41 236.396 199.442 236.461 199.46 236.53C199.497 236.671 199.476 236.82 199.403 236.945C199.33 237.071 199.21 237.162 199.07 237.2L143.66 252.2C143.592 252.218 143.52 252.222 143.45 252.21V252.21Z" fill="#F05858"/>
<path fill-rule="evenodd" clip-rule="evenodd" d="M148.34 202.78C147.83 202.43 146.83 202.78 146.28 202.35C145.56 201.82 144.48 202.59 145.76 199.83C145.97 199.37 147.14 199.9 147.54 200.26C148.09 200.77 148.97 201.66 148.97 201.66L148.34 202.78Z" fill="#F2B183"/>
<path fill-rule="evenodd" clip-rule="evenodd" d="M157.61 192.8C156.52 195.43 154.77 201.9 153.61 201.91C152 201.766 150.402 201.502 148.83 201.12C148.83 201.12 146.63 201.95 147.75 202.99C148.87 204.03 153.48 206.72 155.84 205.35C160.34 202.72 162.34 196.77 162.34 196.77L157.61 192.8Z" fill="#9BE8E3"/>
<path fill-rule="evenodd" clip-rule="evenodd" d="M156.76 186.94C157.345 188.18 158.063 189.354 158.9 190.44C158.9 190.44 158.61 198.12 155.71 193.23C154.83 191.74 153.42 188.37 153.42 188.37L156.76 186.94Z" fill="#F7BC92"/>
<path fill-rule="evenodd" clip-rule="evenodd" d="M164.13 241.48C164.13 241.01 165.85 239.85 166.13 239.67C166.552 239.417 166.951 239.126 167.32 238.8C167.38 238.74 167.42 237.5 167.45 237.45C167.7 237.205 168.009 237.03 168.348 236.942C168.687 236.855 169.043 236.857 169.38 236.95L169.83 238.47C170.2 239.23 170.44 240.26 170.23 240.57C170.115 240.723 169.968 240.849 169.8 240.94C169.479 241.075 169.143 241.172 168.8 241.23L166.65 241.78C166.227 241.913 165.796 242.016 165.36 242.09C165.189 242.137 165.01 242.143 164.836 242.108C164.663 242.073 164.5 241.999 164.36 241.89C164.296 241.84 164.243 241.778 164.204 241.708C164.164 241.638 164.139 241.56 164.13 241.48Z" fill="#CCD7F5"/>
<path fill-rule="evenodd" clip-rule="evenodd" d="M164.13 241.48C164.13 241.01 164.76 240.57 165.04 240.38C165.04 240.38 165.85 239.85 166.15 239.67L166.77 239.26C167.083 239.193 167.393 239.113 167.7 239.02L169.85 238.47C170.22 239.23 170.46 240.26 170.25 240.57C170.135 240.723 169.988 240.849 169.82 240.94C169.499 241.075 169.163 241.172 168.82 241.23L166.67 241.78C166.247 241.913 165.816 242.016 165.38 242.09C165.209 242.137 165.03 242.143 164.856 242.108C164.683 242.073 164.52 241.999 164.38 241.89C164.313 241.842 164.256 241.781 164.213 241.711C164.17 241.64 164.142 241.562 164.13 241.48V241.48Z" fill="#393E63"/>
<path fill-rule="evenodd" clip-rule="evenodd" d="M167.32 213.31L165.26 209.54L170 209.38C171.919 210.507 173.517 212.108 174.64 214.03C175.64 215.94 163.35 227.86 163.35 227.86C167.45 229.21 166.55 232.65 169.64 237.94C170.01 238.59 167.13 238.88 167.13 238.88C167.13 238.88 160.55 231.88 158.27 227.37C157.15 225.18 167.32 213.31 167.32 213.31Z" fill="#6E62A1"/>
<path fill-rule="evenodd" clip-rule="evenodd" d="M173.64 241.94C173.71 241.48 175.64 240.55 175.99 240.41C176.465 240.218 176.92 239.98 177.35 239.7C177.43 239.7 176.56 238.55 176.61 238.5C176.92 238.16 178.78 238.62 179.48 238.95L180 239.69C180.27 240.5 180.37 241.55 180.11 241.83C179.969 241.97 179.798 242.077 179.61 242.14C179.247 242.235 178.874 242.285 178.5 242.29L176.2 242.57C175.739 242.642 175.275 242.689 174.81 242.71C174.629 242.73 174.446 242.711 174.274 242.654C174.101 242.597 173.943 242.504 173.81 242.38C173.697 242.261 173.636 242.103 173.64 241.94V241.94Z" fill="#CCD7F5"/>
<path fill-rule="evenodd" clip-rule="evenodd" d="M173.64 241.94C173.71 241.48 174.98 240.85 175.11 240.79L175.99 240.41C176.24 240.3 176.48 240.19 176.69 240.08L177.69 239.97L179.99 239.69C180.26 240.5 180.36 241.55 180.1 241.83C179.96 241.97 179.788 242.077 179.6 242.14C179.238 242.235 178.865 242.285 178.49 242.29L176.19 242.57C175.73 242.642 175.266 242.689 174.8 242.71C174.619 242.73 174.437 242.711 174.264 242.654C174.091 242.598 173.933 242.504 173.8 242.38C173.691 242.26 173.634 242.102 173.64 241.94V241.94Z" fill="#393E63"/>
<path fill-rule="evenodd" clip-rule="evenodd" d="M170.83 214.38L165.5 209.38L175.09 205.87C176.34 206.51 178.03 209.24 178.88 211.87C180.64 217.42 170.5 226.7 170.5 226.7C173.27 227.78 176.37 233.17 180.02 238.87C180.42 239.5 177.1 239.52 177.1 239.52C177.1 239.52 167.67 231.05 165.72 227.85C164 225.07 170.83 214.38 170.83 214.38Z" fill="#7C71B0"/>
<path fill-rule="evenodd" clip-rule="evenodd" d="M159.48 190C166.78 190.67 177.48 206.66 178.72 209.85C181.51 216.77 165.54 218.85 165.66 214.05C165.84 207.57 156.89 199.23 156.52 195.43C156.29 193.12 156.94 189.76 159.48 190Z" fill="#71D9CF"/>
<path fill-rule="evenodd" clip-rule="evenodd" d="M149.56 187.79C149.34 187.5 149.51 186.52 149.82 185.51C149.635 185.16 149.488 184.791 149.38 184.41C149.08 182.69 149.49 179.79 152.03 179.26C158.03 178.01 157.11 184.26 157.11 186.93C157.11 188.93 155.71 189.77 152.43 190.82C151.64 191.07 151.27 190.71 151.15 190.02C151.126 189.817 151.085 189.616 151.03 189.42C151.03 189.28 150.73 189.19 150.73 189.19C150.6 188.96 150.73 188.76 150.73 188.7C150.73 188.64 150.57 188.7 150.47 188.44C150.498 188.318 150.498 188.192 150.47 188.07C150.27 188 149.72 188 149.56 187.79Z" fill="#F7BC92"/>
<path fill-rule="evenodd" clip-rule="evenodd" d="M158.89 191.18C160.56 188.56 167.05 195.54 169.37 199.29C171.69 203.04 167.51 202.9 165.92 201.86C164.33 200.82 156.49 195 158.89 191.18Z" fill="#9BE8E3"/>
<path fill-rule="evenodd" clip-rule="evenodd" d="M153.93 185.46C154.01 186.12 154.23 186.9 154.72 186.84C155.21 186.78 155.55 186.07 155.72 185.24C155.86 184.58 155.45 184.05 154.96 184.11C154.657 184.178 154.388 184.35 154.199 184.597C154.011 184.844 153.916 185.15 153.93 185.46V185.46Z" fill="#F7BC92"/>
<path fill-rule="evenodd" clip-rule="evenodd" d="M160.51 186.54C160.486 186.684 160.431 186.821 160.348 186.942C160.266 187.063 160.158 187.164 160.032 187.238C159.906 187.312 159.765 187.358 159.62 187.373C159.474 187.387 159.327 187.369 159.19 187.32C159.167 187.654 159.02 187.968 158.778 188.2C158.535 188.431 158.215 188.563 157.88 188.57C157.544 188.553 157.227 188.411 156.99 188.173C156.753 187.934 156.614 187.616 156.6 187.28C156.521 187.453 156.389 187.596 156.224 187.689C156.059 187.783 155.868 187.821 155.68 187.8C155.492 187.771 155.318 187.686 155.18 187.556C155.043 187.425 154.948 187.256 154.91 187.07C153.97 187.21 154.11 184.31 153.37 184.9C152.28 185.78 151.82 183.9 151.27 183.8C150.93 183.8 149.45 183.8 149.21 183.08C148.56 183.46 148.62 183.58 147.88 183.47C147.14 183.36 146.48 182.47 146.88 181.85C147.28 181.23 148.1 181.35 148.76 181.49C151.41 182.04 153.19 182.86 155.89 182.91C159.48 182.98 159.13 184.46 159.13 184.46C160 185.06 160.58 185.79 160.51 186.54Z" fill="#6F4078"/>
<path d="M154.1 245.29C154.011 245.282 153.928 245.243 153.865 245.181C153.801 245.12 153.76 245.038 153.75 244.95L146 198.49C145.991 198.438 145.993 198.385 146.005 198.334C146.017 198.283 146.038 198.234 146.069 198.192C146.1 198.149 146.139 198.113 146.183 198.085C146.228 198.057 146.278 198.038 146.33 198.03C146.382 198.02 146.435 198.021 146.487 198.032C146.539 198.043 146.587 198.065 146.63 198.096C146.673 198.127 146.71 198.166 146.737 198.212C146.764 198.257 146.782 198.308 146.789 198.36L154.559 244.82C154.577 244.926 154.552 245.035 154.491 245.122C154.429 245.21 154.335 245.27 154.229 245.29H154.1Z" fill="#F5F5F5"/>
<path d="M149.25 181.43C149.586 180.386 150.133 179.421 150.857 178.597C151.581 177.773 152.467 177.107 153.46 176.64C154.6 176.12 158.24 176.64 158.92 178.58C159.6 180.52 156.5 179.27 156.92 179.81C157.264 180.305 157.505 180.863 157.63 181.451C157.756 182.04 157.762 182.648 157.65 183.24C157.35 184.72 149.25 181.43 149.25 181.43Z" fill="#6E62A1"/>
<path d="M149 182.33C149.33 182.59 153.78 183.46 155.74 183.92C156.41 184.08 156.74 184.35 157.38 184.07C158.02 183.79 158.14 182.16 157.65 181.68C155.43 181.25 150.53 180.13 149.82 179.86C149.11 179.59 148.28 181.76 149 182.33Z" fill="#6E62A1"/>
<path d="M181.12 242.61C181.062 242.602 181.006 242.582 180.956 242.551C180.906 242.52 180.863 242.479 180.83 242.43L158.16 206.51C158.103 206.42 158.084 206.311 158.107 206.207C158.131 206.103 158.195 206.012 158.285 205.955C158.375 205.898 158.484 205.879 158.588 205.903C158.692 205.926 158.783 205.99 158.84 206.08L181.51 242C181.539 242.044 181.558 242.094 181.568 242.146C181.577 242.198 181.575 242.251 181.563 242.303C181.551 242.354 181.528 242.403 181.497 242.445C181.465 242.488 181.426 242.523 181.38 242.55C181.303 242.599 181.211 242.62 181.12 242.61V242.61Z" fill="#F5F5F5"/>
<path fill-rule="evenodd" clip-rule="evenodd" d="M164 208.17C163.56 208.61 163 210.37 162.45 210.83C161.919 211.368 161.205 211.686 160.45 211.72C158.61 211.43 158.89 209.87 159.21 209.72C159.53 209.57 160.3 209.43 160.62 209.26C161.457 208.684 162.253 208.049 163 207.36L164 208.17Z" fill="#F2B183"/>
<path fill-rule="evenodd" clip-rule="evenodd" d="M162.17 208C162.17 208 163.59 209.05 164.17 208.76C164.75 208.47 169.78 203.83 169.99 201.63C170.22 199.15 168.38 199.7 167.2 199.52C166.02 199.34 162.17 208 162.17 208Z" fill="#9BE8E3"/>
<path d="M152.741 193.16C152.796 191.906 153.24 190.701 154.011 189.71C154.487 188.907 155.14 188.222 155.921 187.71C156.137 187.588 156.365 187.487 156.601 187.41C159.531 186.04 163.131 186.56 166.391 187.17C170.031 187.85 174.061 188.47 177.191 186.5C178.411 185.72 179.661 184.5 181.071 184.87C182.481 185.24 183.071 187.08 183.071 188.61C182.601 188.483 182.109 188.457 181.629 188.532C181.148 188.608 180.688 188.785 180.281 189.05C179.441 189.53 178.721 190.2 177.931 190.76C176.7 191.597 175.296 192.144 173.823 192.359C172.351 192.574 170.849 192.451 169.431 192C167.911 191.51 166.541 190.64 165.041 190.12C164.304 189.81 163.507 189.673 162.709 189.72C161.912 189.767 161.135 189.996 160.441 190.39C159.311 191.18 158.791 192.55 158.081 193.74C157.371 194.93 156.191 196.07 154.831 195.87C154.227 195.721 153.692 195.372 153.313 194.88C152.933 194.388 152.731 193.781 152.741 193.16Z" fill="#F05858"/>
<path d="M1779.59 240.4C1779.48 240.389 1779.38 240.346 1779.3 240.277C1779.22 240.207 1779.16 240.114 1779.13 240.01C1779.11 239.941 1779.1 239.869 1779.11 239.798C1779.12 239.726 1779.14 239.658 1779.18 239.595C1779.22 239.533 1779.26 239.478 1779.32 239.434C1779.38 239.391 1779.44 239.358 1779.51 239.34L1834.93 224.34C1835 224.32 1835.07 224.315 1835.14 224.323C1835.21 224.332 1835.28 224.354 1835.34 224.39C1835.41 224.425 1835.46 224.472 1835.51 224.529C1835.55 224.586 1835.58 224.651 1835.6 224.72C1835.63 224.86 1835.61 225.009 1835.54 225.133C1835.47 225.258 1835.35 225.35 1835.21 225.39L1779.8 240.39C1779.73 240.408 1779.66 240.412 1779.59 240.4V240.4Z" fill="#F05858"/>
<path d="M1783.45 243.21C1783.34 243.197 1783.24 243.152 1783.16 243.081C1783.08 243.01 1783.02 242.915 1782.99 242.81C1782.97 242.741 1782.97 242.669 1782.98 242.599C1782.99 242.528 1783.01 242.46 1783.05 242.399C1783.08 242.337 1783.13 242.284 1783.19 242.241C1783.25 242.198 1783.31 242.167 1783.38 242.15L1838.79 227.15C1838.86 227.13 1838.93 227.125 1839 227.133C1839.07 227.142 1839.14 227.164 1839.2 227.2C1839.27 227.235 1839.32 227.282 1839.37 227.339C1839.41 227.396 1839.44 227.461 1839.46 227.53C1839.5 227.671 1839.48 227.82 1839.4 227.945C1839.33 228.071 1839.21 228.162 1839.07 228.2L1783.66 243.2C1783.59 243.218 1783.52 243.222 1783.45 243.21Z" fill="#F05858"/>
<path fill-rule="evenodd" clip-rule="evenodd" d="M1788.34 193.78C1787.83 193.43 1786.83 193.78 1786.28 193.35C1785.56 192.82 1784.48 193.59 1785.76 190.83C1785.97 190.37 1787.14 190.9 1787.54 191.26C1788.09 191.77 1788.97 192.66 1788.97 192.66L1788.34 193.78Z" fill="#F2B183"/>
<path fill-rule="evenodd" clip-rule="evenodd" d="M1797.61 183.8C1796.52 186.43 1794.77 192.9 1793.61 192.91C1792 192.766 1790.4 192.502 1788.83 192.12C1788.83 192.12 1786.63 192.95 1787.75 193.99C1788.87 195.03 1793.48 197.72 1795.84 196.35C1800.34 193.72 1802.34 187.77 1802.34 187.77L1797.61 183.8Z" fill="#9BE8E3"/>
<path fill-rule="evenodd" clip-rule="evenodd" d="M1796.76 177.94C1797.35 179.18 1798.06 180.354 1798.9 181.44C1798.9 181.44 1798.61 189.12 1795.71 184.23C1794.83 182.74 1793.42 179.37 1793.42 179.37L1796.76 177.94Z" fill="#F7BC92"/>
<path fill-rule="evenodd" clip-rule="evenodd" d="M1804.13 232.48C1804.13 232.01 1805.85 230.85 1806.13 230.67C1806.55 230.417 1806.95 230.126 1807.32 229.8C1807.38 229.74 1807.42 228.5 1807.45 228.45C1807.7 228.205 1808.01 228.03 1808.35 227.942C1808.69 227.855 1809.04 227.857 1809.38 227.95L1809.83 229.47C1810.2 230.23 1810.44 231.26 1810.23 231.57C1810.11 231.723 1809.97 231.849 1809.8 231.94C1809.48 232.075 1809.14 232.172 1808.8 232.23L1806.65 232.78C1806.23 232.913 1805.8 233.016 1805.36 233.09C1805.19 233.137 1805.01 233.143 1804.84 233.108C1804.66 233.073 1804.5 232.999 1804.36 232.89C1804.3 232.84 1804.24 232.778 1804.2 232.708C1804.16 232.638 1804.14 232.56 1804.13 232.48V232.48Z" fill="#CCD7F5"/>
<path fill-rule="evenodd" clip-rule="evenodd" d="M1804.13 232.48C1804.13 232.01 1804.76 231.57 1805.04 231.38C1805.04 231.38 1805.85 230.85 1806.15 230.67L1806.77 230.26C1807.08 230.193 1807.39 230.113 1807.7 230.02L1809.85 229.47C1810.22 230.23 1810.46 231.26 1810.25 231.57C1810.13 231.723 1809.99 231.849 1809.82 231.94C1809.5 232.075 1809.16 232.172 1808.82 232.23L1806.67 232.78C1806.25 232.913 1805.82 233.016 1805.38 233.09C1805.21 233.137 1805.03 233.143 1804.86 233.108C1804.68 233.073 1804.52 232.999 1804.38 232.89C1804.31 232.842 1804.26 232.781 1804.21 232.711C1804.17 232.64 1804.14 232.562 1804.13 232.48V232.48Z" fill="#393E63"/>
<path fill-rule="evenodd" clip-rule="evenodd" d="M1807.32 204.31L1805.26 200.54L1810 200.38C1811.92 201.507 1813.52 203.108 1814.64 205.03C1815.64 206.94 1803.35 218.86 1803.35 218.86C1807.45 220.21 1806.55 223.65 1809.64 228.94C1810.01 229.59 1807.13 229.88 1807.13 229.88C1807.13 229.88 1800.55 222.88 1798.27 218.37C1797.15 216.18 1807.32 204.31 1807.32 204.31Z" fill="#6E62A1"/>
<path fill-rule="evenodd" clip-rule="evenodd" d="M1813.64 232.94C1813.71 232.48 1815.64 231.55 1815.99 231.41C1816.46 231.218 1816.92 230.98 1817.35 230.7C1817.43 230.7 1816.56 229.55 1816.61 229.5C1816.92 229.16 1818.78 229.62 1819.48 229.95L1820 230.69C1820.27 231.5 1820.37 232.55 1820.11 232.83C1819.97 232.97 1819.8 233.077 1819.61 233.14C1819.25 233.235 1818.87 233.285 1818.5 233.29L1816.2 233.57C1815.74 233.642 1815.28 233.689 1814.81 233.71C1814.63 233.73 1814.45 233.711 1814.27 233.654C1814.1 233.598 1813.94 233.504 1813.81 233.38C1813.7 233.261 1813.64 233.103 1813.64 232.94V232.94Z" fill="#CCD7F5"/>
<path fill-rule="evenodd" clip-rule="evenodd" d="M1813.64 232.94C1813.71 232.48 1814.98 231.85 1815.11 231.79L1815.99 231.41C1816.24 231.3 1816.48 231.19 1816.69 231.08L1817.69 230.97L1819.99 230.69C1820.26 231.5 1820.36 232.55 1820.1 232.83C1819.96 232.97 1819.79 233.077 1819.6 233.14C1819.24 233.235 1818.86 233.285 1818.49 233.29L1816.19 233.57C1815.73 233.642 1815.27 233.689 1814.8 233.71C1814.62 233.73 1814.44 233.711 1814.26 233.654C1814.09 233.597 1813.93 233.504 1813.8 233.38C1813.69 233.26 1813.63 233.102 1813.64 232.94V232.94Z" fill="#393E63"/>
<path fill-rule="evenodd" clip-rule="evenodd" d="M1810.83 205.38L1805.5 200.38L1815.09 196.87C1816.34 197.51 1818.03 200.24 1818.88 202.87C1820.64 208.42 1810.5 217.7 1810.5 217.7C1813.27 218.78 1816.37 224.17 1820.02 229.87C1820.42 230.5 1817.1 230.52 1817.1 230.52C1817.1 230.52 1807.67 222.05 1805.72 218.85C1804 216.07 1810.83 205.38 1810.83 205.38Z" fill="#7C71B0"/>
<path fill-rule="evenodd" clip-rule="evenodd" d="M1799.48 181C1806.78 181.67 1817.48 197.66 1818.72 200.85C1821.51 207.77 1805.54 209.85 1805.66 205.05C1805.84 198.57 1796.89 190.23 1796.52 186.43C1796.29 184.12 1796.94 180.76 1799.48 181Z" fill="#71D9CF"/>
<path fill-rule="evenodd" clip-rule="evenodd" d="M1789.56 178.79C1789.34 178.5 1789.56 177.52 1789.82 176.51C1789.64 176.16 1789.49 175.791 1789.38 175.41C1789.08 173.69 1789.49 170.79 1792.03 170.26C1798.03 169.01 1797.11 175.26 1797.11 177.93C1797.11 179.93 1795.71 180.77 1792.43 181.82C1791.64 182.07 1791.27 181.71 1791.15 181.02C1791.13 180.817 1791.09 180.616 1791.03 180.42C1791.03 180.28 1790.73 180.19 1790.73 180.19C1790.6 179.96 1790.73 179.76 1790.73 179.7C1790.73 179.64 1790.57 179.7 1790.47 179.44C1790.5 179.318 1790.5 179.192 1790.47 179.07C1790.27 179 1789.72 179 1789.56 178.79Z" fill="#F7BC92"/>
<path fill-rule="evenodd" clip-rule="evenodd" d="M1798.89 182.18C1800.56 179.56 1807.05 186.54 1809.37 190.29C1811.69 194.04 1807.51 193.9 1805.92 192.86C1804.33 191.82 1796.49 186 1798.89 182.18Z" fill="#9BE8E3"/>
<path fill-rule="evenodd" clip-rule="evenodd" d="M1793.93 176.46C1794.01 177.12 1794.23 177.9 1794.72 177.84C1795.21 177.78 1795.55 177.07 1795.72 176.24C1795.86 175.58 1795.45 175.05 1794.96 175.11C1794.66 175.178 1794.39 175.35 1794.2 175.597C1794.01 175.844 1793.92 176.15 1793.93 176.46V176.46Z" fill="#F7BC92"/>
<path fill-rule="evenodd" clip-rule="evenodd" d="M1800.51 177.54C1800.49 177.684 1800.43 177.821 1800.35 177.942C1800.27 178.063 1800.16 178.164 1800.03 178.238C1799.91 178.312 1799.77 178.358 1799.62 178.373C1799.47 178.387 1799.33 178.369 1799.19 178.32C1799.17 178.654 1799.02 178.968 1798.78 179.2C1798.54 179.431 1798.21 179.563 1797.88 179.57C1797.54 179.553 1797.23 179.411 1796.99 179.173C1796.75 178.934 1796.61 178.616 1796.6 178.28C1796.52 178.453 1796.39 178.596 1796.22 178.689C1796.06 178.783 1795.87 178.821 1795.68 178.8C1795.49 178.771 1795.32 178.686 1795.18 178.556C1795.04 178.425 1794.95 178.256 1794.91 178.07C1793.97 178.21 1794.11 175.31 1793.37 175.9C1792.28 176.78 1791.82 174.9 1791.27 174.8C1790.93 174.8 1789.45 174.8 1789.21 174.08C1788.56 174.46 1788.62 174.58 1787.88 174.47C1787.14 174.36 1786.48 173.47 1786.88 172.85C1787.28 172.23 1788.1 172.35 1788.76 172.49C1791.41 173.04 1793.19 173.86 1795.89 173.91C1799.48 173.98 1799.13 175.46 1799.13 175.46C1800 176.06 1800.58 176.79 1800.51 177.54Z" fill="#6F4078"/>
<path d="M1794.1 236.29C1794.01 236.282 1793.93 236.243 1793.87 236.181C1793.8 236.12 1793.76 236.038 1793.75 235.95L1786 189.49C1785.99 189.438 1785.99 189.385 1786.01 189.334C1786.02 189.283 1786.04 189.234 1786.07 189.192C1786.1 189.149 1786.14 189.113 1786.18 189.085C1786.23 189.057 1786.28 189.038 1786.33 189.03C1786.38 189.02 1786.44 189.021 1786.49 189.032C1786.54 189.043 1786.59 189.065 1786.63 189.096C1786.67 189.127 1786.71 189.166 1786.74 189.212C1786.77 189.257 1786.78 189.308 1786.79 189.36L1794.56 235.82C1794.58 235.926 1794.55 236.035 1794.49 236.122C1794.43 236.21 1794.34 236.27 1794.23 236.29H1794.1Z" fill="#F5F5F5"/>
<path d="M1789.25 172.43C1789.59 171.386 1790.13 170.421 1790.86 169.597C1791.58 168.773 1792.47 168.107 1793.46 167.64C1794.6 167.12 1798.24 167.64 1798.92 169.58C1799.6 171.52 1796.5 170.27 1796.92 170.81C1797.26 171.305 1797.51 171.863 1797.63 172.451C1797.76 173.04 1797.76 173.648 1797.65 174.24C1797.35 175.72 1789.25 172.43 1789.25 172.43Z" fill="#6E62A1"/>
<path d="M1789 173.33C1789.33 173.59 1793.78 174.46 1795.74 174.92C1796.41 175.08 1796.74 175.35 1797.38 175.07C1798.02 174.79 1798.14 173.16 1797.65 172.68C1795.43 172.25 1790.53 171.13 1789.82 170.86C1789.11 170.59 1788.28 172.76 1789 173.33Z" fill="#6E62A1"/>
<path d="M1821.12 233.61C1821.06 233.602 1821.01 233.582 1820.96 233.551C1820.91 233.52 1820.86 233.479 1820.83 233.43L1798.16 197.51C1798.13 197.465 1798.11 197.416 1798.1 197.364C1798.09 197.311 1798.1 197.258 1798.11 197.207C1798.12 197.155 1798.14 197.106 1798.17 197.063C1798.2 197.02 1798.24 196.983 1798.28 196.955C1798.33 196.927 1798.38 196.908 1798.43 196.899C1798.48 196.89 1798.54 196.891 1798.59 196.903C1798.64 196.914 1798.69 196.936 1798.73 196.966C1798.77 196.997 1798.81 197.035 1798.84 197.08L1821.51 233C1821.54 233.044 1821.56 233.094 1821.57 233.146C1821.58 233.198 1821.58 233.251 1821.56 233.303C1821.55 233.354 1821.53 233.403 1821.5 233.445C1821.47 233.488 1821.43 233.523 1821.38 233.55C1821.3 233.599 1821.21 233.62 1821.12 233.61Z" fill="#F5F5F5"/>
<path fill-rule="evenodd" clip-rule="evenodd" d="M1804 199.17C1803.56 199.61 1803 201.37 1802.45 201.83C1801.92 202.368 1801.2 202.686 1800.45 202.72C1798.61 202.43 1798.89 200.87 1799.21 200.72C1799.53 200.57 1800.3 200.43 1800.62 200.26C1801.46 199.684 1802.25 199.049 1803 198.36L1804 199.17Z" fill="#F2B183"/>
<path fill-rule="evenodd" clip-rule="evenodd" d="M1802.17 199C1802.17 199 1803.59 200.05 1804.17 199.76C1804.75 199.47 1809.78 194.83 1809.99 192.63C1810.22 190.15 1808.38 190.7 1807.2 190.52C1806.02 190.34 1802.17 199 1802.17 199Z" fill="#9BE8E3"/>
<path d="M1792.74 184.16C1792.8 182.906 1793.24 181.701 1794.01 180.71C1794.49 179.907 1795.14 179.222 1795.92 178.71C1796.14 178.588 1796.36 178.487 1796.6 178.41C1799.53 177.04 1803.13 177.56 1806.39 178.17C1810.03 178.85 1814.06 179.47 1817.19 177.5C1818.41 176.72 1819.66 175.5 1821.07 175.87C1822.48 176.24 1823.07 178.08 1823.07 179.61C1822.6 179.483 1822.11 179.457 1821.63 179.532C1821.15 179.608 1820.69 179.785 1820.28 180.05C1819.44 180.53 1818.72 181.2 1817.93 181.76C1816.7 182.597 1815.3 183.144 1813.82 183.359C1812.35 183.574 1810.85 183.451 1809.43 183C1807.91 182.51 1806.54 181.64 1805.04 181.12C1804.3 180.81 1803.51 180.673 1802.71 180.72C1801.91 180.767 1801.14 180.996 1800.44 181.39C1799.31 182.18 1798.79 183.55 1798.08 184.74C1797.37 185.93 1796.19 187.07 1794.83 186.87C1794.23 186.721 1793.69 186.372 1793.31 185.88C1792.93 185.388 1792.73 184.781 1792.74 184.16V184.16Z" fill="#F05858"/>
<path d="M248 528.37C247.913 528.368 247.83 528.34 247.76 528.29C247.676 528.223 247.621 528.127 247.607 528.021C247.592 527.915 247.618 527.807 247.68 527.72L270.83 497C270.861 496.958 270.901 496.923 270.946 496.896C270.991 496.869 271.041 496.851 271.093 496.844C271.145 496.837 271.198 496.839 271.249 496.853C271.3 496.866 271.348 496.889 271.39 496.92C271.432 496.952 271.467 496.991 271.494 497.036C271.521 497.081 271.538 497.131 271.546 497.183C271.553 497.235 271.55 497.288 271.537 497.339C271.524 497.39 271.501 497.438 271.47 497.48L248.29 528.17C248.259 528.222 248.217 528.267 248.167 528.302C248.117 528.336 248.06 528.36 248 528.37Z" fill="#A5E2FA"/>
<path d="M271.88 534.9H271.76L244.45 529.17C244.38 529.156 244.314 529.128 244.255 529.088C244.197 529.048 244.146 528.997 244.107 528.937C244.068 528.878 244.041 528.811 244.028 528.741C244.015 528.671 244.015 528.6 244.03 528.53C244.044 528.459 244.073 528.392 244.113 528.332C244.154 528.273 244.206 528.222 244.266 528.183C244.327 528.144 244.395 528.117 244.466 528.105C244.537 528.092 244.61 528.094 244.68 528.11L272 533.83C272.132 533.856 272.25 533.93 272.331 534.038C272.411 534.147 272.448 534.281 272.434 534.415C272.42 534.549 272.357 534.673 272.256 534.763C272.155 534.853 272.025 534.902 271.89 534.9H271.88Z" fill="#FF6B6B"/>
<path d="M252.64 538.88C252.571 538.894 252.499 538.894 252.43 538.88L226.8 527.67C226.669 527.613 226.566 527.506 226.513 527.373C226.461 527.24 226.463 527.091 226.52 526.96C226.579 526.828 226.688 526.724 226.822 526.67C226.956 526.616 227.106 526.616 227.24 526.67L252.86 537.84C252.926 537.867 252.986 537.907 253.036 537.958C253.086 538.009 253.125 538.069 253.151 538.135C253.177 538.202 253.19 538.273 253.188 538.344C253.186 538.415 253.17 538.485 253.14 538.55C253.099 538.648 253.029 538.732 252.94 538.791C252.851 538.849 252.747 538.88 252.64 538.88Z" fill="#FF6B6B"/>
<path fill-rule="evenodd" clip-rule="evenodd" d="M254.09 486.21C253.024 485.127 252.157 483.864 251.53 482.48L250.53 482.62C250.529 483.437 250.689 484.245 251 485C251.222 485.595 251.586 486.127 252.06 486.55C252.299 486.76 252.579 486.918 252.882 487.014C253.185 487.111 253.504 487.143 253.82 487.11C254.11 487.06 254.45 486.86 254.4 486.57C254.344 486.416 254.234 486.288 254.09 486.21V486.21Z" fill="url(#paint2_linear)"/>
<path fill-rule="evenodd" clip-rule="evenodd" d="M246.88 486.63C246.783 486.83 246.646 487.007 246.478 487.152C246.31 487.296 246.114 487.405 245.902 487.47C245.69 487.536 245.467 487.557 245.246 487.533C245.026 487.509 244.813 487.44 244.62 487.33C244.722 487.838 244.705 488.362 244.569 488.862C244.434 489.362 244.184 489.823 243.84 490.21C243.478 490.591 243.034 490.884 242.542 491.068C242.05 491.251 241.523 491.32 241 491.27C240.678 491.252 240.364 491.169 240.075 491.027C239.786 490.884 239.53 490.684 239.32 490.44C239.114 490.205 239 489.903 239 489.59C239 489.277 239.114 488.975 239.32 488.74C238.679 488.968 237.999 489.064 237.32 489.02C236.984 488.996 236.658 488.894 236.37 488.72C236.081 488.546 235.838 488.306 235.66 488.02C235.578 487.881 235.526 487.726 235.505 487.566C235.484 487.406 235.495 487.244 235.538 487.088C235.581 486.932 235.654 486.787 235.754 486.66C235.854 486.533 235.979 486.428 236.12 486.35C235.715 486.274 235.354 486.049 235.107 485.72C234.861 485.39 234.748 484.98 234.79 484.57C234.878 484.178 235.118 483.837 235.458 483.621C235.797 483.406 236.207 483.334 236.6 483.42C236.995 483.524 237.337 483.773 237.558 484.118C237.778 484.462 237.861 484.877 237.79 485.28C237.946 484.949 238.196 484.672 238.509 484.483C238.822 484.295 239.185 484.203 239.55 484.22C239.911 484.249 240.259 484.367 240.563 484.565C240.867 484.762 241.117 485.032 241.29 485.35C242.46 481.17 248.22 483.72 246.88 486.63Z" fill="#575B7D"/>
<path fill-rule="evenodd" clip-rule="evenodd" d="M244.29 482.77C244.15 481.957 244.296 481.121 244.703 480.403C245.109 479.685 245.751 479.129 246.52 478.83C247.227 478.575 247.986 478.5 248.73 478.61C249.45 478.66 250.132 478.957 250.66 479.45C251.185 480.002 251.533 480.699 251.66 481.45C251.832 482.441 251.772 483.458 251.484 484.421C251.196 485.384 250.688 486.267 250 487C248.6 488.46 246.62 487 245.56 485.75C244.857 484.9 244.416 483.865 244.29 482.77V482.77Z" fill="#575B7D"/>
<path fill-rule="evenodd" clip-rule="evenodd" d="M261.52 504C261.98 504.23 262.96 505.45 263.46 505.68C264.12 505.99 265.24 506.27 265.87 505.58C266.13 505.29 265.43 504.26 265.14 504.22C264.85 504.18 264.14 504.13 263.62 503.99C263.003 503.782 262.439 503.441 261.97 502.99L261.52 504Z" fill="#FBC49C"/>
<path fill-rule="evenodd" clip-rule="evenodd" d="M229.9 492.61C229.41 492.48 227.9 492.71 227.33 492.55C226.64 492.33 225.76 492.45 225.76 491.55C225.76 491.16 226.62 490.23 226.86 490.39C227.1 490.55 227.86 490.94 228.36 491.22C228.962 491.478 229.615 491.597 230.27 491.57L229.9 492.61Z" fill="#FBC49C"/>
<path fill-rule="evenodd" clip-rule="evenodd" d="M256.46 517.82C256.31 516.57 254.12 513.18 251.68 508.89C249.24 504.6 247.5 502.89 246.68 501.16L242.78 502.33L244.61 510.18C244.61 510.18 252.15 516.95 253.61 518.7C253.575 519.239 253.575 519.781 253.61 520.32C253.76 521.95 255.04 524.2 255.72 526.07C256.236 527.2 256.677 528.362 257.04 529.55C257.04 529.86 258.48 529.19 258.48 529.19C258 527.66 256.73 520.44 256.46 517.82Z" fill="url(#paint3_linear)"/>
<path fill-rule="evenodd" clip-rule="evenodd" d="M242 502.93C241.39 503.98 239.19 506.66 239.34 508.93C239.49 511.2 242.49 518.17 242.93 520.09C242.93 520.09 242.29 521.09 241.93 521.52C240.875 523.252 240.162 525.17 239.83 527.17C239.54 528.65 239.21 530.35 239.17 531.04C239.17 531.35 240.62 531.17 240.62 531.17C240.62 531.17 244.27 524.23 245.85 521.9C246.021 521.582 246.158 521.247 246.26 520.9C246.57 519.48 245.54 507.11 245.54 507.11L245.65 502.39L242 502.93Z" fill="url(#paint4_linear)"/>
<path fill-rule="evenodd" clip-rule="evenodd" d="M236.09 492.25C234.32 492.11 231.65 490.76 229.35 491.25C229.246 491.271 229.151 491.324 229.078 491.401C229.005 491.478 228.957 491.575 228.94 491.68L228.82 492.28C228.82 492.58 229.06 492.68 229.29 492.87C231.523 494.467 234.138 495.446 236.87 495.71C238.11 495.66 242.69 495.1 244.21 494.09L245.49 489.62C242.81 489.18 237.4 492.35 236.09 492.25Z" fill="url(#paint5_linear)"/>
<path fill-rule="evenodd" clip-rule="evenodd" d="M243.8 533.82C243.87 533.33 242.24 532.08 242.24 532.08C241.64 531.55 242.54 529.24 242.4 528.74C242.26 528.24 240.23 528.25 239.72 528C239.21 527.75 239.01 529.8 238.89 530.6C238.77 531.4 238.11 532.71 239.15 533.28C239.46 533.44 239.79 533.56 240.02 533.68C241.29 534.36 243.58 535.19 243.8 533.82Z" fill="#F86276"/>
<path fill-rule="evenodd" clip-rule="evenodd" d="M261.75 531C261.66 530.52 259.69 529.88 259.69 529.88C258.96 529.59 259.02 527.11 258.69 526.69C258.36 526.27 256.48 526.96 255.91 526.9C255.34 526.84 255.85 528.83 256.01 529.63C256.17 530.43 256.01 531.88 257.16 532.06C257.51 532.06 257.86 532.06 258.16 532.15C259.57 532.3 262 532.31 261.75 531Z" fill="#F86276"/>
<path fill-rule="evenodd" clip-rule="evenodd" d="M262.55 503.07C261.11 501.65 258.34 498.28 258.34 498.28C256.74 496.28 252.85 489.66 249.78 490.44L250.89 495.38C252.4 497.33 254.55 499.51 254.89 500C256.578 502.042 258.828 503.543 261.36 504.32C261.64 504.38 261.9 504.45 262.1 504.25L262.6 503.75C262.68 503.651 262.718 503.526 262.709 503.4C262.7 503.274 262.643 503.156 262.55 503.07Z" fill="url(#paint6_linear)"/>
<path fill-rule="evenodd" clip-rule="evenodd" d="M247.38 486.27C247.5 489.44 246.43 489.96 246.43 489.96C247.51 490.48 249.43 494.72 249.43 494.72L249.86 490.52C249.497 489.364 249.497 488.126 249.86 486.97C250.51 484.91 247.38 486.27 247.38 486.27Z" fill="#F9BB8F"/>
<path fill-rule="evenodd" clip-rule="evenodd" d="M251.92 483.86C251.92 482.96 251.81 480.12 248.92 480.4C246.92 480.59 246.54 482.4 246.64 484.05C246.553 483.97 246.45 483.911 246.337 483.876C246.225 483.842 246.106 483.833 245.99 483.85C245.7 483.93 245.61 484.36 245.86 484.75C246.11 485.14 246.53 485.62 246.86 485.54H246.92C247.101 486.38 247.574 487.128 248.255 487.652C248.937 488.176 249.781 488.441 250.64 488.4C251.6 488.24 252 485.26 251.92 483.86Z" fill="#FBC49C"/>
<path fill-rule="evenodd" clip-rule="evenodd" d="M252 491.05C251.55 490.29 249.76 490.28 248.42 490.11C247.08 489.94 246.17 489.27 244.55 489.66C242.93 490.05 240.38 498.66 240.12 501.26C240.06 501.86 240.53 502.42 241.31 502.9C241.31 503.17 241.22 503.41 241.18 503.61C240.8 505.48 249.52 506.49 249.53 504.84C249.53 504.47 249.53 504.1 249.53 503.73C250.139 503.483 250.624 503.005 250.88 502.4C253.1 496.36 252.88 492.58 252 491.05Z" fill="url(#paint7_linear)"/>
<path fill-rule="evenodd" clip-rule="evenodd" d="M260.63 496.27L259.41 494.1C259.081 493.426 258.63 492.819 258.08 492.31C257.403 491.838 256.626 491.53 255.81 491.41C254.998 491.289 254.21 491.046 253.47 490.69C253.099 490.509 252.781 490.234 252.55 489.891C252.318 489.549 252.18 489.152 252.15 488.74L251.7 488.3C251.302 488.488 250.954 488.767 250.683 489.115C250.412 489.462 250.226 489.868 250.14 490.3C250.058 490.73 250.079 491.173 250.2 491.594C250.322 492.014 250.541 492.4 250.84 492.72C251.99 493.94 254 493.93 255.26 495.03C256.35 496.03 256.65 497.57 257.59 498.68C257.734 498.895 257.937 499.063 258.175 499.165C258.413 499.266 258.676 499.296 258.93 499.25C259.206 499.113 259.436 498.897 259.59 498.63L260.59 497.22C260.688 497.101 260.756 496.96 260.79 496.81C260.79 496.618 260.734 496.431 260.63 496.27V496.27Z" fill="#F87F7F"/>
<path fill-rule="evenodd" clip-rule="evenodd" d="M247.32 485.68C247.98 486.07 248.54 486.62 249.23 486.98C250.14 487.45 251.23 486.85 252.23 487.21C252.78 487.41 252.83 488.21 253 488.78C253.2 489.336 253.2 489.944 253 490.5C252.839 490.838 252.604 491.135 252.314 491.37C252.023 491.605 251.684 491.773 251.32 491.86C250.595 492.028 249.844 492.052 249.11 491.93C247.661 491.754 246.243 491.387 244.89 490.84C244.649 490.777 244.424 490.665 244.23 490.51C244.035 490.355 243.875 490.161 243.76 489.94C243.672 489.548 243.711 489.139 243.87 488.77L244.44 486.98C244.6 486.46 244.7 485.62 245.24 485.35C245.589 485.247 245.957 485.223 246.317 485.28C246.677 485.337 247.02 485.474 247.32 485.68Z" fill="#F36B6B"/>
<path fill-rule="evenodd" clip-rule="evenodd" d="M244.35 484.21C244.15 482.8 243.49 480.87 244.82 479.21C245.394 478.625 246.129 478.222 246.931 478.053C247.734 477.884 248.568 477.956 249.33 478.26C249.928 478.424 250.467 478.755 250.885 479.214C251.302 479.672 251.582 480.239 251.69 480.85C251.844 481.593 251.902 482.353 251.86 483.11C251.243 482.697 250.53 482.449 249.79 482.39C249.263 482.39 248.747 482.532 248.294 482.801C247.842 483.07 247.47 483.457 247.22 483.92C246.68 484.92 246.79 486.23 246.22 487.25C246.027 487.606 245.761 487.917 245.438 488.162C245.116 488.407 244.745 488.58 244.35 488.67C244.082 488.755 243.796 488.763 243.524 488.694C243.252 488.625 243.005 488.482 242.81 488.28C242.11 487.39 243.04 486.77 243.81 486.61C244.81 486.4 244.45 485 244.35 484.21Z" fill="url(#paint8_linear)"/>
<path d="M206 520.13C205.911 520.128 205.824 520.1 205.75 520.05C205.666 519.983 205.612 519.887 205.597 519.781C205.582 519.675 205.608 519.567 205.67 519.48L228.86 488.8C228.891 488.758 228.931 488.723 228.976 488.696C229.021 488.669 229.071 488.651 229.123 488.644C229.175 488.637 229.228 488.639 229.279 488.652C229.33 488.666 229.378 488.688 229.42 488.72C229.462 488.751 229.497 488.791 229.524 488.836C229.551 488.881 229.568 488.931 229.576 488.983C229.583 489.035 229.58 489.088 229.567 489.139C229.554 489.19 229.531 489.238 229.5 489.28L206.31 520C206.27 520.042 206.222 520.075 206.168 520.097C206.115 520.12 206.058 520.131 206 520.13Z" fill="#A5E2FA"/>
<path d="M332 120.37C331.913 120.368 331.83 120.34 331.76 120.29C331.676 120.223 331.621 120.127 331.607 120.021C331.592 119.915 331.618 119.807 331.68 119.72L354.83 89C354.861 88.958 354.901 88.9226 354.946 88.8958C354.991 88.869 355.041 88.8514 355.093 88.844C355.145 88.8366 355.198 88.8395 355.249 88.8525C355.3 88.8656 355.348 88.8885 355.39 88.92C355.432 88.9515 355.467 88.991 355.494 89.0362C355.521 89.0814 355.538 89.1314 355.546 89.1834C355.553 89.2354 355.55 89.2884 355.537 89.3393C355.524 89.3902 355.501 89.438 355.47 89.48L332.29 120.17C332.259 120.222 332.217 120.267 332.167 120.302C332.117 120.336 332.06 120.36 332 120.37V120.37Z" fill="#A5E2FA"/>
<path d="M355.88 126.9H355.76L328.45 121.17C328.38 121.156 328.314 121.128 328.255 121.088C328.197 121.048 328.146 120.997 328.107 120.937C328.068 120.878 328.041 120.811 328.028 120.741C328.015 120.671 328.015 120.6 328.03 120.53C328.044 120.459 328.073 120.392 328.113 120.332C328.154 120.273 328.206 120.222 328.266 120.183C328.327 120.144 328.395 120.117 328.466 120.105C328.537 120.092 328.61 120.094 328.68 120.11L356 125.83C356.132 125.856 356.25 125.93 356.331 126.038C356.411 126.147 356.448 126.281 356.434 126.415C356.42 126.549 356.357 126.674 356.256 126.763C356.155 126.853 356.025 126.902 355.89 126.9H355.88Z" fill="#FF6B6B"/>
<path d="M336.64 130.88C336.571 130.894 336.499 130.894 336.43 130.88L310.8 119.67C310.669 119.613 310.566 119.506 310.513 119.373C310.461 119.24 310.463 119.091 310.52 118.96C310.579 118.828 310.688 118.724 310.822 118.67C310.956 118.616 311.106 118.616 311.24 118.67L336.86 129.84C336.926 129.867 336.986 129.907 337.036 129.958C337.086 130.009 337.125 130.069 337.151 130.136C337.177 130.202 337.19 130.273 337.188 130.344C337.186 130.415 337.17 130.485 337.14 130.55C337.099 130.648 337.029 130.732 336.94 130.791C336.851 130.849 336.747 130.881 336.64 130.88V130.88Z" fill="#FF6B6B"/>
<path fill-rule="evenodd" clip-rule="evenodd" d="M338.09 78.21C337.024 77.127 336.157 75.8643 335.53 74.48L334.53 74.62C334.529 75.4365 334.689 76.2453 335 77C335.201 77.5998 335.544 78.142 336 78.58C336.239 78.7899 336.519 78.948 336.822 79.0444C337.125 79.1408 337.444 79.1734 337.76 79.14C338.05 79.14 338.39 78.89 338.34 78.6C338.306 78.4444 338.217 78.3061 338.09 78.21V78.21Z" fill="url(#paint9_linear)"/>
<path fill-rule="evenodd" clip-rule="evenodd" d="M330.88 78.63C330.783 78.8296 330.646 79.0071 330.478 79.1516C330.31 79.2962 330.113 79.4046 329.902 79.4702C329.69 79.5359 329.467 79.5573 329.246 79.5332C329.026 79.509 328.812 79.4399 328.62 79.33C328.722 79.8377 328.705 80.3621 328.569 80.8619C328.434 81.3618 328.184 81.8233 327.84 82.21C327.478 82.5907 327.034 82.8839 326.542 83.0676C326.05 83.2512 325.522 83.3205 325 83.27C324.678 83.252 324.364 83.1691 324.075 83.0265C323.786 82.8839 323.529 82.6844 323.32 82.44C323.114 82.2048 323 81.9027 323 81.59C323 81.2773 323.114 80.9752 323.32 80.74C322.695 80.9617 322.032 81.0569 321.37 81.02C321.034 80.9965 320.708 80.8936 320.419 80.7197C320.131 80.5459 319.888 80.3061 319.71 80.02C319.628 79.8806 319.575 79.7264 319.555 79.5664C319.534 79.4063 319.545 79.2437 319.588 79.0881C319.631 78.9325 319.704 78.787 319.804 78.6602C319.904 78.5335 320.028 78.428 320.17 78.35C319.765 78.2744 319.404 78.0493 319.157 77.7196C318.911 77.3898 318.798 76.9795 318.84 76.57C318.928 76.178 319.168 75.8369 319.507 75.6214C319.847 75.4059 320.257 75.3335 320.65 75.42C321.045 75.5242 321.387 75.7733 321.608 76.1178C321.828 76.4624 321.911 76.8772 321.84 77.28C321.995 76.9492 322.246 76.6719 322.559 76.4832C322.872 76.2946 323.234 76.203 323.6 76.22C323.961 76.249 324.309 76.3674 324.613 76.5647C324.917 76.762 325.166 77.0319 325.34 77.35C326.46 73.17 332.22 75.72 330.88 78.63Z" fill="#575B7D"/>
<path fill-rule="evenodd" clip-rule="evenodd" d="M328.29 74.77C328.15 73.9569 328.296 73.1207 328.703 72.4027C329.109 71.6848 329.751 71.1293 330.52 70.83C331.227 70.5752 331.986 70.4996 332.73 70.61C333.45 70.6604 334.132 70.957 334.66 71.45C335.185 72.002 335.533 72.6985 335.66 73.45C335.832 74.4405 335.772 75.4575 335.484 76.4208C335.196 77.3841 334.688 78.2671 334 79C332.6 80.46 330.62 79 329.56 77.75C328.857 76.9001 328.416 75.8651 328.29 74.77V74.77Z" fill="#575B7D"/>
<path fill-rule="evenodd" clip-rule="evenodd" d="M345.52 96C345.98 96.23 346.96 97.45 347.46 97.68C348.12 97.99 349.24 98.27 349.87 97.58C350.13 97.29 349.43 96.26 349.14 96.22C348.85 96.18 348.14 96.13 347.62 95.99C347.014 95.7809 346.462 95.4432 346 95L345.52 96Z" fill="#FBC49C"/>
<path fill-rule="evenodd" clip-rule="evenodd" d="M313.9 84.61C313.41 84.48 311.9 84.71 311.33 84.55C310.64 84.33 309.76 84.45 309.76 83.55C309.76 83.16 310.62 82.23 310.86 82.39C311.1 82.55 311.86 82.94 312.36 83.22C312.962 83.4778 313.615 83.5974 314.27 83.57L313.9 84.61Z" fill="#FBC49C"/>
<path fill-rule="evenodd" clip-rule="evenodd" d="M340.46 109.82C340.31 108.57 338.12 105.18 335.68 100.89C333.24 96.6 331.5 94.89 330.68 93.16L326.78 94.33L328.61 102.18C328.61 102.18 336.15 108.95 337.61 110.7C337.575 111.239 337.575 111.781 337.61 112.32C337.76 113.95 339.04 116.2 339.72 118.07C340.236 119.2 340.677 120.362 341.04 121.55C341.04 121.86 342.48 121.19 342.48 121.19C342 119.66 340.73 112.44 340.46 109.82Z" fill="url(#paint10_linear)"/>
<path fill-rule="evenodd" clip-rule="evenodd" d="M326 94.93C325.39 95.93 323.19 98.66 323.34 100.93C323.49 103.2 326.49 110.17 326.93 112.09C326.93 112.09 326.29 113.09 325.93 113.52C324.875 115.252 324.162 117.17 323.83 119.17C323.54 120.65 323.21 122.35 323.17 123.04C323.17 123.35 324.62 123.17 324.62 123.17C324.62 123.17 328.27 116.23 329.85 113.9C330.021 113.582 330.158 113.247 330.26 112.9C330.57 111.48 329.54 99.11 329.54 99.11L329.65 94.39L326 94.93Z" fill="url(#paint11_linear)"/>
<path fill-rule="evenodd" clip-rule="evenodd" d="M320.09 84.25C318.32 84.11 315.65 82.76 313.35 83.25C313.246 83.2712 313.151 83.3238 313.078 83.4007C313.005 83.4775 312.957 83.575 312.94 83.68L312.82 84.28C312.82 84.58 313.06 84.68 313.29 84.87C315.523 86.4667 318.138 87.4463 320.87 87.71C322.11 87.71 326.69 87.1 328.21 86.09L329.49 81.62C326.81 81.18 321.4 84.35 320.09 84.25Z" fill="url(#paint12_linear)"/>
<path fill-rule="evenodd" clip-rule="evenodd" d="M327.8 125.82C327.87 125.33 326.24 124.08 326.24 124.08C325.64 123.55 326.54 121.24 326.4 120.74C326.26 120.24 324.23 120.25 323.72 120C323.21 119.75 323.01 121.8 322.89 122.6C322.77 123.4 322.11 124.71 323.15 125.28C323.46 125.44 323.79 125.56 324.02 125.68C325.29 126.36 327.58 127.19 327.8 125.82Z" fill="#F86276"/>
<path fill-rule="evenodd" clip-rule="evenodd" d="M345.75 123C345.66 122.52 343.69 121.88 343.69 121.88C342.96 121.59 343.02 119.11 342.69 118.69C342.36 118.27 340.48 118.96 339.91 118.9C339.34 118.84 339.85 120.83 340.01 121.63C340.17 122.43 340.01 123.88 341.16 124.06C341.51 124.06 341.86 124.06 342.16 124.15C343.57 124.3 346 124.31 345.75 123Z" fill="#F86276"/>
<path fill-rule="evenodd" clip-rule="evenodd" d="M346.55 95.07C345.11 93.65 342.34 90.28 342.34 90.28C340.74 88.28 336.85 81.66 333.78 82.44L334.89 87.38C336.4 89.38 338.55 91.51 338.84 92C340.528 94.0415 342.778 95.5434 345.31 96.32C345.59 96.38 345.85 96.45 346.05 96.25L346.55 95.75C346.636 95.6575 346.684 95.5361 346.684 95.41C346.684 95.2839 346.636 95.1625 346.55 95.07Z" fill="url(#paint13_linear)"/>
<path fill-rule="evenodd" clip-rule="evenodd" d="M331.38 78.27C331.5 81.44 330.43 81.96 330.43 81.96C331.51 82.48 333.43 86.72 333.43 86.72L333.86 82.52C333.497 81.3644 333.497 80.1256 333.86 78.97C334.51 76.91 331.38 78.27 331.38 78.27Z" fill="#F9BB8F"/>
<path fill-rule="evenodd" clip-rule="evenodd" d="M335.92 75.86C335.87 74.96 335.81 72.12 332.92 72.4C330.92 72.59 330.54 74.4 330.64 76.05C330.553 75.9704 330.45 75.9111 330.337 75.8765C330.225 75.8419 330.106 75.8328 329.99 75.85C329.7 75.93 329.61 76.36 329.86 76.75C330.11 77.14 330.53 77.62 330.86 77.54H330.92C331.101 78.3799 331.574 79.1282 332.255 79.6519C332.937 80.1756 333.781 80.4407 334.64 80.4C335.6 80.24 336 77.26 335.92 75.86Z" fill="#FBC49C"/>
<path fill-rule="evenodd" clip-rule="evenodd" d="M336 83.05C335.55 82.29 333.76 82.28 332.42 82.11C331.08 81.94 330.17 81.27 328.55 81.66C326.93 82.05 324.38 90.66 324.12 93.26C324.06 93.86 324.53 94.42 325.31 94.9C325.26 95.17 325.22 95.41 325.18 95.61C324.8 97.48 333.52 98.49 333.53 96.84C333.53 96.47 333.53 96.1 333.53 95.73C334.139 95.4828 334.624 95.0046 334.88 94.4C337.1 88.36 336.88 84.58 336 83.05Z" fill="url(#paint14_linear)"/>
<path fill-rule="evenodd" clip-rule="evenodd" d="M344.63 88.27L343.41 86.1C343.081 85.4262 342.63 84.8193 342.08 84.31C341.403 83.838 340.626 83.5299 339.81 83.41C338.998 83.289 338.209 83.0463 337.47 82.69C337.092 82.5048 336.77 82.2217 336.537 81.87C336.305 81.5183 336.172 81.1109 336.15 80.69L335.7 80.25C335.302 80.4384 334.953 80.7174 334.683 81.0647C334.412 81.412 334.226 81.818 334.14 82.25C334.058 82.68 334.079 83.1233 334.2 83.5438C334.322 83.9644 334.541 84.3502 334.84 84.67C336 85.93 338 85.92 339.26 87C340.35 88 340.65 89.54 341.59 90.65C341.734 90.865 341.937 91.0334 342.175 91.1347C342.413 91.2359 342.676 91.2656 342.93 91.22C343.206 91.0826 343.436 90.867 343.59 90.6L344.59 89.19C344.688 89.0706 344.756 88.9302 344.79 88.78C344.784 88.5986 344.729 88.4223 344.63 88.27V88.27Z" fill="#F87F7F"/>
<path fill-rule="evenodd" clip-rule="evenodd" d="M331.32 77.68C331.98 78.07 332.54 78.62 333.23 78.98C334.14 79.45 335.23 78.85 336.23 79.21C336.78 79.41 336.83 80.21 337 80.78C337.2 81.3359 337.2 81.9441 337 82.5C336.839 82.8375 336.605 83.1348 336.314 83.3701C336.023 83.6054 335.684 83.7728 335.32 83.86C334.595 84.0281 333.844 84.0519 333.11 83.93C331.661 83.7538 330.243 83.3873 328.89 82.84C328.649 82.7773 328.424 82.6648 328.23 82.5098C328.035 82.3548 327.875 82.1607 327.76 81.94C327.672 81.5482 327.711 81.1386 327.87 80.77L328.44 78.98C328.6 78.46 328.7 77.62 329.24 77.35C329.589 77.2469 329.957 77.223 330.317 77.2801C330.677 77.3372 331.02 77.4738 331.32 77.68V77.68Z" fill="#F36B6B"/>
<path fill-rule="evenodd" clip-rule="evenodd" d="M328.35 76.21C328.15 74.8 327.49 72.87 328.82 71.21C329.389 70.6163 330.121 70.2044 330.923 70.0265C331.726 69.8485 332.563 69.9124 333.33 70.21C333.928 70.3744 334.467 70.705 334.885 71.1635C335.302 71.6219 335.582 72.1894 335.69 72.8C335.844 73.5428 335.901 74.3025 335.86 75.06C335.243 74.6473 334.53 74.3994 333.79 74.34C333.263 74.3396 332.746 74.4816 332.294 74.751C331.842 75.0203 331.47 75.407 331.22 75.87C330.68 76.87 330.79 78.18 330.22 79.2C330.027 79.5563 329.761 79.8674 329.438 80.1123C329.116 80.3572 328.745 80.5303 328.35 80.62C328.082 80.7045 327.796 80.7128 327.524 80.6439C327.252 80.575 327.005 80.4317 326.81 80.23C326.11 79.34 327.04 78.72 327.81 78.56C328.81 78.4 328.45 77 328.35 76.21Z" fill="url(#paint15_linear)"/>
<path d="M290 112.13C289.911 112.128 289.824 112.1 289.75 112.05C289.666 111.983 289.612 111.887 289.597 111.781C289.582 111.675 289.608 111.567 289.67 111.48L312.85 80.8C312.913 80.7151 313.008 80.659 313.113 80.644C313.218 80.629 313.325 80.6563 313.41 80.72C313.495 80.7836 313.551 80.8784 313.566 80.9834C313.581 81.0884 313.553 81.1951 313.49 81.28L290.31 112C290.27 112.042 290.222 112.075 290.168 112.097C290.115 112.12 290.058 112.131 290 112.13Z" fill="#A5E2FA"/>
<path d="M1517 529.37C1516.91 529.368 1516.83 529.34 1516.76 529.29C1516.68 529.223 1516.62 529.127 1516.61 529.021C1516.59 528.915 1516.62 528.807 1516.68 528.72L1539.83 498C1539.86 497.958 1539.9 497.923 1539.95 497.896C1539.99 497.869 1540.04 497.851 1540.09 497.844C1540.15 497.837 1540.2 497.839 1540.25 497.853C1540.3 497.866 1540.35 497.889 1540.39 497.92C1540.43 497.952 1540.47 497.991 1540.49 498.036C1540.52 498.081 1540.54 498.131 1540.55 498.183C1540.55 498.235 1540.55 498.288 1540.54 498.339C1540.52 498.39 1540.5 498.438 1540.47 498.48L1517.29 529.17C1517.26 529.222 1517.22 529.267 1517.17 529.302C1517.12 529.336 1517.06 529.36 1517 529.37Z" fill="#A5E2FA"/>
<path d="M1540.88 535.9H1540.76L1513.45 530.17C1513.38 530.156 1513.31 530.128 1513.26 530.088C1513.2 530.048 1513.15 529.997 1513.11 529.937C1513.07 529.878 1513.04 529.811 1513.03 529.741C1513.01 529.671 1513.02 529.6 1513.03 529.53C1513.04 529.459 1513.07 529.392 1513.11 529.332C1513.15 529.273 1513.21 529.222 1513.27 529.183C1513.33 529.144 1513.39 529.117 1513.47 529.105C1513.54 529.092 1513.61 529.094 1513.68 529.11L1540.99 534.84C1541.12 534.866 1541.24 534.94 1541.32 535.048C1541.4 535.157 1541.44 535.291 1541.42 535.425C1541.41 535.559 1541.35 535.684 1541.25 535.773C1541.15 535.863 1541.01 535.912 1540.88 535.91V535.9Z" fill="#FF6B6B"/>
<path d="M1521.64 539.88C1521.57 539.894 1521.5 539.894 1521.43 539.88L1495.8 528.72C1495.67 528.663 1495.57 528.556 1495.51 528.423C1495.46 528.29 1495.46 528.141 1495.52 528.01C1495.58 527.878 1495.69 527.774 1495.82 527.72C1495.96 527.666 1496.11 527.666 1496.24 527.72L1521.86 538.89C1521.93 538.917 1521.99 538.957 1522.04 539.008C1522.09 539.059 1522.12 539.119 1522.15 539.186C1522.18 539.252 1522.19 539.323 1522.19 539.394C1522.19 539.465 1522.17 539.535 1522.14 539.6C1522.09 539.689 1522.02 539.762 1521.93 539.812C1521.84 539.861 1521.74 539.885 1521.64 539.88V539.88Z" fill="#FF6B6B"/>
<path fill-rule="evenodd" clip-rule="evenodd" d="M1523.09 487.21C1522.02 486.127 1521.16 484.864 1520.53 483.48L1519.53 483.62C1519.53 484.437 1519.69 485.245 1520 486C1520.22 486.595 1520.59 487.127 1521.06 487.55C1521.3 487.76 1521.58 487.918 1521.88 488.014C1522.18 488.111 1522.5 488.143 1522.82 488.11C1523.11 488.06 1523.45 487.86 1523.4 487.57C1523.34 487.416 1523.23 487.288 1523.09 487.21V487.21Z" fill="url(#paint16_linear)"/>
<path fill-rule="evenodd" clip-rule="evenodd" d="M1515.88 487.63C1515.78 487.83 1515.65 488.007 1515.48 488.152C1515.31 488.296 1515.11 488.405 1514.9 488.47C1514.69 488.536 1514.47 488.557 1514.25 488.533C1514.03 488.509 1513.81 488.44 1513.62 488.33C1513.72 488.838 1513.7 489.362 1513.57 489.862C1513.43 490.362 1513.18 490.823 1512.84 491.21C1512.48 491.591 1512.03 491.884 1511.54 492.068C1511.05 492.251 1510.52 492.32 1510 492.27C1509.68 492.252 1509.36 492.169 1509.08 492.027C1508.79 491.884 1508.53 491.684 1508.32 491.44C1508.11 491.205 1508 490.903 1508 490.59C1508 490.277 1508.11 489.975 1508.32 489.74C1507.69 489.962 1507.03 490.057 1506.37 490.02C1506.03 489.996 1505.71 489.894 1505.42 489.72C1505.13 489.546 1504.89 489.306 1504.71 489.02C1504.63 488.881 1504.58 488.726 1504.55 488.566C1504.53 488.406 1504.54 488.244 1504.59 488.088C1504.63 487.932 1504.7 487.787 1504.8 487.66C1504.9 487.533 1505.03 487.428 1505.17 487.35C1504.77 487.274 1504.4 487.049 1504.16 486.72C1503.91 486.39 1503.8 485.98 1503.84 485.57C1503.93 485.178 1504.17 484.837 1504.51 484.621C1504.85 484.406 1505.26 484.334 1505.65 484.42C1506.05 484.524 1506.39 484.773 1506.61 485.118C1506.83 485.462 1506.91 485.877 1506.84 486.28C1507 485.949 1507.25 485.672 1507.56 485.483C1507.87 485.295 1508.23 485.203 1508.6 485.22C1508.96 485.249 1509.31 485.367 1509.61 485.565C1509.92 485.762 1510.17 486.032 1510.34 486.35C1511.46 482.17 1517.22 484.72 1515.88 487.63Z" fill="#575B7D"/>
<path fill-rule="evenodd" clip-rule="evenodd" d="M1513.29 483.77C1513.15 482.957 1513.3 482.121 1513.7 481.403C1514.11 480.685 1514.75 480.129 1515.52 479.83C1516.23 479.575 1516.99 479.5 1517.73 479.61C1518.45 479.66 1519.13 479.957 1519.66 480.45C1520.19 481.002 1520.53 481.699 1520.66 482.45C1520.83 483.428 1520.78 484.433 1520.5 485.386C1520.22 486.34 1519.73 487.217 1519.06 487.95C1517.66 489.41 1515.68 487.95 1514.62 486.7C1513.91 485.871 1513.44 484.854 1513.29 483.77V483.77Z" fill="#575B7D"/>
<path fill-rule="evenodd" clip-rule="evenodd" d="M1530.52 505C1530.98 505.23 1531.96 506.45 1532.46 506.68C1533.12 506.99 1534.24 507.27 1534.87 506.58C1535.13 506.29 1534.43 505.26 1534.14 505.22C1533.85 505.18 1533.14 505.13 1532.62 504.99C1532 504.782 1531.44 504.441 1530.97 503.99L1530.52 505Z" fill="#FBC49C"/>
<path fill-rule="evenodd" clip-rule="evenodd" d="M1498.9 493.61C1498.41 493.48 1496.9 493.71 1496.33 493.55C1495.64 493.33 1494.76 493.45 1494.76 492.55C1494.76 492.16 1495.62 491.23 1495.86 491.39C1496.1 491.55 1496.86 491.94 1497.36 492.22C1497.96 492.478 1498.61 492.597 1499.27 492.57L1498.9 493.61Z" fill="#FBC49C"/>
<path fill-rule="evenodd" clip-rule="evenodd" d="M1525.46 518.82C1525.31 517.57 1523.12 514.18 1520.68 509.89C1518.24 505.6 1516.5 503.89 1515.68 502.16L1511.78 503.33L1513.61 511.18C1513.61 511.18 1521.15 517.95 1522.61 519.7C1522.58 520.239 1522.58 520.781 1522.61 521.32C1522.76 522.95 1524.04 525.2 1524.72 527.07C1525.24 528.2 1525.68 529.362 1526.04 530.55C1526.04 530.86 1527.48 530.19 1527.48 530.19C1527 528.66 1525.73 521.44 1525.46 518.82Z" fill="url(#paint17_linear)"/>
<path fill-rule="evenodd" clip-rule="evenodd" d="M1511 503.93C1510.39 504.98 1508.19 507.66 1508.34 509.93C1508.49 512.2 1511.49 519.17 1511.93 521.09C1511.93 521.09 1511.29 522.09 1510.93 522.52C1509.88 524.252 1509.16 526.17 1508.83 528.17C1508.54 529.65 1508.21 531.35 1508.17 532.04C1508.17 532.35 1509.62 532.17 1509.62 532.17C1509.62 532.17 1513.27 525.23 1514.85 522.9C1515.02 522.582 1515.16 522.247 1515.26 521.9C1515.57 520.48 1514.54 508.11 1514.54 508.11L1514.65 503.39L1511 503.93Z" fill="url(#paint18_linear)"/>
<path fill-rule="evenodd" clip-rule="evenodd" d="M1505.09 493.25C1503.32 493.11 1500.65 491.76 1498.35 492.25C1498.25 492.271 1498.15 492.324 1498.08 492.401C1498 492.478 1497.96 492.575 1497.94 492.68L1497.82 493.28C1497.82 493.58 1498.06 493.68 1498.29 493.87C1500.52 495.467 1503.14 496.446 1505.87 496.71C1507.11 496.66 1511.69 496.1 1513.21 495.09L1514.49 490.62C1511.81 490.18 1506.4 493.35 1505.09 493.25Z" fill="url(#paint19_linear)"/>
<path fill-rule="evenodd" clip-rule="evenodd" d="M1512.8 534.82C1512.87 534.33 1511.24 533.08 1511.24 533.08C1510.64 532.55 1511.54 530.24 1511.4 529.74C1511.26 529.24 1509.23 529.25 1508.72 529C1508.21 528.75 1508.01 530.8 1507.89 531.6C1507.77 532.4 1507.11 533.71 1508.15 534.28C1508.46 534.44 1508.79 534.56 1509.02 534.68C1510.29 535.36 1512.58 536.19 1512.8 534.82Z" fill="#F86276"/>
<path fill-rule="evenodd" clip-rule="evenodd" d="M1530.75 532C1530.66 531.52 1528.69 530.88 1528.69 530.88C1527.96 530.59 1528.02 528.11 1527.69 527.69C1527.36 527.27 1525.48 527.96 1524.91 527.9C1524.34 527.84 1524.85 529.83 1525.01 530.63C1525.17 531.43 1525.01 532.88 1526.16 533.06C1526.51 533.06 1526.86 533.06 1527.16 533.15C1528.57 533.3 1531 533.31 1530.75 532Z" fill="#F86276"/>
<path fill-rule="evenodd" clip-rule="evenodd" d="M1531.55 504.07C1530.11 502.65 1527.34 499.28 1527.34 499.28C1525.74 497.28 1521.85 490.66 1518.78 491.44L1519.89 496.38C1521.4 498.33 1523.55 500.51 1523.84 501C1525.53 503.042 1527.78 504.543 1530.31 505.32C1530.59 505.38 1530.85 505.45 1531.05 505.25L1531.55 504.75C1531.64 504.658 1531.68 504.536 1531.68 504.41C1531.68 504.284 1531.64 504.163 1531.55 504.07V504.07Z" fill="url(#paint20_linear)"/>
<path fill-rule="evenodd" clip-rule="evenodd" d="M1516.38 487.27C1516.5 490.44 1515.38 490.96 1515.38 490.96C1516.46 491.48 1518.38 495.72 1518.38 495.72L1518.81 491.52C1518.45 490.364 1518.45 489.126 1518.81 487.97C1519.51 485.91 1516.38 487.27 1516.38 487.27Z" fill="#F9BB8F"/>
<path fill-rule="evenodd" clip-rule="evenodd" d="M1520.92 484.86C1520.87 483.96 1520.81 481.12 1517.92 481.4C1515.92 481.59 1515.54 483.4 1515.64 485.05C1515.55 484.97 1515.45 484.911 1515.34 484.876C1515.22 484.842 1515.11 484.833 1514.99 484.85C1514.7 484.93 1514.61 485.36 1514.86 485.75C1515.11 486.14 1515.53 486.62 1515.86 486.54H1515.92C1516.1 487.38 1516.57 488.128 1517.26 488.652C1517.94 489.176 1518.78 489.441 1519.64 489.4C1520.6 489.24 1521 486.26 1520.92 484.86Z" fill="#FBC49C"/>
<path fill-rule="evenodd" clip-rule="evenodd" d="M1521 492.05C1520.55 491.29 1518.76 491.28 1517.42 491.11C1516.08 490.94 1515.17 490.27 1513.55 490.66C1511.93 491.05 1509.38 499.66 1509.12 502.26C1509.06 502.86 1509.53 503.42 1510.31 503.9C1510.31 504.17 1510.22 504.41 1510.18 504.61C1509.8 506.48 1518.52 507.49 1518.53 505.84C1518.53 505.47 1518.53 505.1 1518.53 504.73C1519.14 504.483 1519.62 504.005 1519.88 503.4C1522.1 497.36 1521.88 493.58 1521 492.05Z" fill="url(#paint21_linear)"/>
<path fill-rule="evenodd" clip-rule="evenodd" d="M1529.63 497.27L1528.41 495.1C1528.08 494.426 1527.63 493.819 1527.08 493.31C1526.4 492.838 1525.63 492.53 1524.81 492.41C1524 492.289 1523.21 492.046 1522.47 491.69C1522.1 491.509 1521.78 491.234 1521.55 490.891C1521.32 490.549 1521.18 490.152 1521.15 489.74L1520.7 489.3C1520.3 489.488 1519.95 489.767 1519.68 490.115C1519.41 490.462 1519.23 490.868 1519.14 491.3C1519.06 491.73 1519.08 492.173 1519.2 492.594C1519.32 493.014 1519.54 493.4 1519.84 493.72C1520.99 494.94 1523 494.93 1524.26 496.03C1525.35 497.03 1525.65 498.57 1526.59 499.68C1526.73 499.895 1526.94 500.063 1527.18 500.165C1527.41 500.266 1527.68 500.296 1527.93 500.25C1528.21 500.113 1528.44 499.897 1528.59 499.63L1529.59 498.22C1529.69 498.101 1529.76 497.96 1529.79 497.81C1529.79 497.618 1529.73 497.431 1529.63 497.27V497.27Z" fill="#F87F7F"/>
<path fill-rule="evenodd" clip-rule="evenodd" d="M1516.32 486.68C1516.98 487.07 1517.54 487.62 1518.23 487.98C1519.14 488.45 1520.23 487.85 1521.23 488.21C1521.78 488.41 1521.83 489.21 1522 489.78C1522.2 490.336 1522.2 490.944 1522 491.5C1521.84 491.838 1521.6 492.135 1521.31 492.37C1521.02 492.605 1520.68 492.773 1520.32 492.86C1519.59 493.028 1518.84 493.052 1518.11 492.93C1516.66 492.754 1515.24 492.387 1513.89 491.84C1513.65 491.777 1513.42 491.665 1513.23 491.51C1513.03 491.355 1512.87 491.161 1512.76 490.94C1512.67 490.548 1512.71 490.139 1512.87 489.77L1513.44 487.98C1513.6 487.46 1513.7 486.62 1514.24 486.35C1514.59 486.247 1514.96 486.223 1515.32 486.28C1515.68 486.337 1516.02 486.474 1516.32 486.68V486.68Z" fill="#F36B6B"/>
<path fill-rule="evenodd" clip-rule="evenodd" d="M1513.35 485.21C1513.15 483.8 1512.49 481.87 1513.82 480.21C1514.39 479.625 1515.13 479.222 1515.93 479.053C1516.73 478.884 1517.57 478.956 1518.33 479.26C1518.93 479.424 1519.47 479.755 1519.88 480.214C1520.3 480.672 1520.58 481.239 1520.69 481.85C1520.84 482.593 1520.9 483.353 1520.86 484.11C1520.24 483.697 1519.53 483.449 1518.79 483.39C1518.26 483.39 1517.75 483.532 1517.29 483.801C1516.84 484.07 1516.47 484.457 1516.22 484.92C1515.68 485.92 1515.79 487.23 1515.22 488.25C1515.03 488.606 1514.76 488.917 1514.44 489.162C1514.12 489.407 1513.74 489.58 1513.35 489.67C1513.08 489.755 1512.8 489.763 1512.52 489.694C1512.25 489.625 1512 489.482 1511.81 489.28C1511.11 488.39 1512.04 487.77 1512.81 487.61C1513.81 487.4 1513.45 486 1513.35 485.21Z" fill="url(#paint22_linear)"/>
<path d="M1475 521.13C1474.91 521.128 1474.82 521.1 1474.75 521.05C1474.67 520.983 1474.61 520.887 1474.6 520.781C1474.58 520.675 1474.61 520.567 1474.67 520.48L1497.86 489.8C1497.92 489.715 1498.02 489.659 1498.12 489.644C1498.18 489.637 1498.23 489.639 1498.28 489.652C1498.33 489.666 1498.38 489.688 1498.42 489.72C1498.46 489.751 1498.5 489.791 1498.52 489.836C1498.55 489.881 1498.57 489.931 1498.58 489.983C1498.58 490.035 1498.58 490.088 1498.57 490.139C1498.55 490.19 1498.53 490.238 1498.5 490.28L1475.31 521C1475.27 521.042 1475.22 521.075 1475.17 521.097C1475.12 521.12 1475.06 521.131 1475 521.13V521.13Z" fill="#A5E2FA"/>
</g>
<defs>
<linearGradient id="paint0_linear" x1="114.52" y1="90.65" x2="114.52" y2="199.34" gradientUnits="userSpaceOnUse">
<stop stop-color="#F2F7FC"/>
<stop offset="0.63" stop-color="#DAF2FD"/>
<stop offset="1" stop-color="#DAF2FD"/>
</linearGradient>
<linearGradient id="paint1_linear" x1="80964.5" y1="10032.6" x2="80964.5" y2="21944.9" gradientUnits="userSpaceOnUse">
<stop stop-color="#F2F7FC"/>
<stop offset="0.63" stop-color="#DAF2FD"/>
<stop offset="1" stop-color="#DAF2FD"/>
</linearGradient>
<linearGradient id="paint2_linear" x1="250.267" y1="484.449" x2="254.661" y2="485.152" gradientUnits="userSpaceOnUse">
<stop stop-color="#A35091"/>
<stop offset="1" stop-color="#CA4B70"/>
</linearGradient>
<linearGradient id="paint3_linear" x1="255.436" y1="530.228" x2="246.69" y2="501.187" gradientUnits="userSpaceOnUse">
<stop stop-color="#8795D9"/>
<stop offset="0.99" stop-color="#9C7DC9"/>
</linearGradient>
<linearGradient id="paint4_linear" x1="243.044" y1="533.315" x2="239.158" y2="505.833" gradientUnits="userSpaceOnUse">
<stop offset="0.01" stop-color="#8A81D0"/>
<stop offset="1" stop-color="#9D8BE0"/>
</linearGradient>
<linearGradient id="paint5_linear" x1="9794.06" y1="3822.53" x2="10061.3" y2="3822.53" gradientUnits="userSpaceOnUse">
<stop stop-color="#A35091"/>
<stop offset="1" stop-color="#CA4B70"/>
</linearGradient>
<linearGradient id="paint6_linear" x1="7956.22" y1="1441.85" x2="8061.77" y2="1406.04" gradientUnits="userSpaceOnUse">
<stop stop-color="#A35091"/>
<stop offset="1" stop-color="#CA4B70"/>
</linearGradient>
<linearGradient id="paint7_linear" x1="7648.61" y1="9453.42" x2="7648.61" y2="9196.76" gradientUnits="userSpaceOnUse">
<stop stop-color="#A35091"/>
<stop offset="1" stop-color="#CA4B70"/>
</linearGradient>
<linearGradient id="paint8_linear" x1="5704.68" y1="6227.97" x2="5783.27" y2="6227.97" gradientUnits="userSpaceOnUse">
<stop stop-color="#A35091"/>
<stop offset="1" stop-color="#CA4B70"/>
</linearGradient>
<linearGradient id="paint9_linear" x1="2669.69" y1="625.25" x2="2686.67" y2="625.25" gradientUnits="userSpaceOnUse">
<stop stop-color="#A35091"/>
<stop offset="1" stop-color="#CA4B70"/>
</linearGradient>
<linearGradient id="paint10_linear" x1="12414.5" y1="-2256.91" x2="12414.5" y2="-3120.46" gradientUnits="userSpaceOnUse">
<stop stop-color="#8795D9"/>
<stop offset="0.99" stop-color="#9C7DC9"/>
</linearGradient>
<linearGradient id="paint11_linear" x1="5314.09" y1="-108.587" x2="5314.09" y2="-908.962" gradientUnits="userSpaceOnUse">
<stop offset="0.01" stop-color="#8A81D0"/>
<stop offset="1" stop-color="#9D8BE0"/>
</linearGradient>
<linearGradient id="paint12_linear" x1="10184.6" y1="862.724" x2="10452" y2="862.724" gradientUnits="userSpaceOnUse">
<stop stop-color="#A35091"/>
<stop offset="1" stop-color="#CA4B70"/>
</linearGradient>
<linearGradient id="paint13_linear" x1="8846.48" y1="-4606.59" x2="8951.94" y2="-4642.37" gradientUnits="userSpaceOnUse">
<stop stop-color="#A35091"/>
<stop offset="1" stop-color="#CA4B70"/>
</linearGradient>
<linearGradient id="paint14_linear" x1="7962.84" y1="2331.83" x2="7962.84" y2="2075.16" gradientUnits="userSpaceOnUse">
<stop stop-color="#A35091"/>
<stop offset="1" stop-color="#CA4B70"/>
</linearGradient>
<linearGradient id="paint15_linear" x1="5959.99" y1="1333.85" x2="6038.57" y2="1333.85" gradientUnits="userSpaceOnUse">
<stop stop-color="#A35091"/>
<stop offset="1" stop-color="#CA4B70"/>
</linearGradient>
<linearGradient id="paint16_linear" x1="8676.14" y1="2035.29" x2="8693.39" y2="2035.29" gradientUnits="userSpaceOnUse">
<stop stop-color="#A35091"/>
<stop offset="1" stop-color="#CA4B70"/>
</linearGradient>
<linearGradient id="paint17_linear" x1="29561.8" y1="19032.8" x2="29561.8" y2="18169.2" gradientUnits="userSpaceOnUse">
<stop stop-color="#8795D9"/>
<stop offset="0.99" stop-color="#9C7DC9"/>
</linearGradient>
<linearGradient id="paint18_linear" x1="14458.3" y1="16906.2" x2="14458.3" y2="16105.8" gradientUnits="userSpaceOnUse">
<stop offset="0.01" stop-color="#8A81D0"/>
<stop offset="1" stop-color="#9D8BE0"/>
</linearGradient>
<linearGradient id="paint19_linear" x1="31953.7" y1="2598.55" x2="32221" y2="2598.55" gradientUnits="userSpaceOnUse">
<stop stop-color="#A35091"/>
<stop offset="1" stop-color="#CA4B70"/>
</linearGradient>
<linearGradient id="paint20_linear" x1="25663.1" y1="1478.28" x2="25768.4" y2="1442.55" gradientUnits="userSpaceOnUse">
<stop stop-color="#A35091"/>
<stop offset="1" stop-color="#CA4B70"/>
</linearGradient>
<linearGradient id="paint21_linear" x1="24598.6" y1="6231.68" x2="24598.6" y2="5975.02" gradientUnits="userSpaceOnUse">
<stop stop-color="#A35091"/>
<stop offset="1" stop-color="#CA4B70"/>
</linearGradient>
<linearGradient id="paint22_linear" x1="18641.4" y1="4076.24" x2="18720" y2="4076.24" gradientUnits="userSpaceOnUse">
<stop stop-color="#A35091"/>
<stop offset="1" stop-color="#CA4B70"/>
</linearGradient>
<clipPath id="clip0">
<rect width="1920" height="990" fill="white"/>
</clipPath>
</defs>
</svg>
